<svg width="1170" height="703" xmlns="http://www.w3.org/2000/svg" xmlns:xlink="http://www.w3.org/1999/xlink" xml:space="preserve" overflow="hidden"><defs><clipPath id="clip0"><rect x="97" y="203" width="1170" height="703"/></clipPath></defs><g clip-path="url(#clip0)" transform="translate(-97 -203)"><rect x="226.5" y="678.5" width="649" height="129" stroke="#103B4D" stroke-width="6.875" stroke-miterlimit="8" fill="#FF6600"/><text font-family="Heebo,Heebo_MSFontService,sans-serif" font-weight="700" font-size="46" direction="rtl" writing-mode="rl-tb" transform="matrix(1 0 0 1 749.3 754)" x="60.1563">מס</text><text font-family="Heebo,Heebo_MSFontService,sans-serif" font-weight="700" font-size="46" direction="rtl" writing-mode="rl-tb" transform="matrix(1 0 0 1 730.394 754)" x="18.9063">' </text><text font-family="Heebo,Heebo_MSFontService,sans-serif" font-weight="700" font-size="46" direction="rtl" writing-mode="rl-tb" transform="matrix(1 0 0 1 290.967 754)" x="439.427">טלפון של מרכז המידע</text><rect x="875.5" y="678.5" width="260" height="129" stroke="#103B4D" stroke-width="6.875" stroke-miterlimit="8" fill="#FF6600"/><text font-family="Heebo,Heebo_MSFontService,sans-serif" font-weight="700" font-size="46" direction="rtl" writing-mode="rl-tb" transform="matrix(1 0 0 1 898.66 727)" x="202.24">שם היצרן </text><text font-family="Heebo,Heebo_MSFontService,sans-serif" font-weight="700" font-size="46" direction="rtl" writing-mode="rl-tb" transform="matrix(1 0 0 1 911.539 782)" x="187.917">או היבואן</text><rect x="226.5" y="483.5" width="519" height="195" stroke="#103B4D" stroke-width="6.875" stroke-miterlimit="8" fill="#FF6600"/><text font-family="Heebo,Heebo_MSFontService,sans-serif" font-weight="700" font-size="46" direction="rtl" writing-mode="rl-tb" transform="matrix(1 0 0 1 631.39 564)" x="60.1563">מס</text><text font-family="Heebo,Heebo_MSFontService,sans-serif" font-weight="700" font-size="46" direction="rtl" writing-mode="rl-tb" transform="matrix(1 0 0 1 612.484 564)" x="18.9063">' </text><text font-family="Heebo,Heebo_MSFontService,sans-serif" font-weight="700" font-size="46" direction="rtl" writing-mode="rl-tb" transform="matrix(1 0 0 1 538.005 564)" x="74.4792">האו</text><text font-family="Heebo,Heebo_MSFontService,sans-serif" font-weight="700" font-size="46" direction="rtl" writing-mode="rl-tb" transform="matrix(1 0 0 1 523.109 564)" x="14.8958">"</text><text font-family="Heebo,Heebo_MSFontService,sans-serif" font-weight="700" font-size="46" direction="rtl" writing-mode="rl-tb" transform="matrix(1 0 0 1 267.588 564)" x="255.521">ם של החומר </text><text font-family="Heebo,Heebo_MSFontService,sans-serif" font-weight="700" font-size="46" direction="rtl" writing-mode="rl-tb" transform="matrix(1 0 0 1 413.384 619)" x="143.802">המסוכן</text><rect x="226.5" y="288.5" width="519" height="195" stroke="#103B4D" stroke-width="6.875" stroke-miterlimit="8" fill="#FF6600"/><text font-family="Heebo,Heebo_MSFontService,sans-serif" font-weight="700" font-size="46" direction="rtl" writing-mode="rl-tb" transform="matrix(1 0 0 1 303.109 397)" x="364.375">קוד פעולת החירום</text><rect x="745.5" y="288.5" width="390" height="390" stroke="#103B4D" stroke-width="6.875" stroke-miterlimit="8" fill="#FFFFFF"/><text font-family="Heebo,Heebo_MSFontService,sans-serif" font-weight="700" font-size="46" direction="rtl" writing-mode="rl-tb" transform="matrix(1 0 0 1 805.878 467)" x="257.813">סימון אזהרה </text><text font-family="Heebo,Heebo_MSFontService,sans-serif" font-weight="700" font-size="46" direction="rtl" writing-mode="rl-tb" transform="matrix(1 0 0 1 1049.07 522)" x="16.0417">(</text><text font-family="Heebo,Heebo_MSFontService,sans-serif" font-weight="700" font-size="46" direction="rtl" writing-mode="rl-tb" transform="matrix(1 0 0 1 831.935 522)" x="217.135">מעוין סיכון</text><text font-family="Heebo,Heebo_MSFontService,sans-serif" font-weight="700" font-size="46" direction="rtl" writing-mode="rl-tb" transform="matrix(1 0 0 1 815.893 522)" x="16.0417">)</text><path d="M249.417 850.063 853.19 850.063 853.19 856.938 249.417 856.938ZM254 867.25 226.5 853.5 254 839.75ZM848.606 839.75 876.106 853.5 848.606 867.25Z"/><path d="M898.417 850.063 1112.43 850.063 1112.43 856.938 898.417 856.938ZM903 867.25 875.5 853.5 903 839.75ZM1107.84 839.75 1135.34 853.5 1107.84 867.25Z"/><path d="M249.417 239.062 723.268 239.063 723.268 245.938 249.417 245.937ZM254 256.25 226.5 242.5 254 228.75ZM718.685 228.75 746.185 242.5 718.685 256.25Z"/><path d="M768.417 239.062 1112.35 239.063 1112.35 245.938 768.417 245.937ZM773 256.25 745.5 242.5 773 228.75ZM1107.76 228.75 1135.26 242.5 1107.76 256.25Z"/><rect x="426" y="203" width="119" height="77" fill="#FFFFFF"/><text font-family="Heebo,Heebo_MSFontService,sans-serif" font-weight="700" font-size="37" transform="matrix(1 0 0 1 464.963 250)">40</text><rect x="881" y="203" width="119" height="77" fill="#FFFFFF"/><text font-family="Heebo,Heebo_MSFontService,sans-serif" font-weight="700" font-size="37" transform="matrix(1 0 0 1 919.327 250)">30</text><rect x="946" y="823" width="119" height="78.0001" fill="#FFFFFF"/><text font-family="Heebo,Heebo_MSFontService,sans-serif" font-weight="700" font-size="37" transform="matrix(1 0 0 1 984.288 871)">20</text><rect x="491" y="823" width="119" height="78.0001" fill="#FFFFFF"/><text font-family="Heebo,Heebo_MSFontService,sans-serif" font-weight="700" font-size="37" transform="matrix(1 0 0 1 529.563 871)">50</text><path d="M1210.94 311.417 1210.94 655.347 1204.06 655.347 1204.06 311.417ZM1193.75 316 1207.5 288.5 1221.25 316ZM1221.25 650.764 1207.5 678.264 1193.75 650.764Z"/><rect x="1148" y="444" width="119" height="78" fill="#FFFFFF"/><text font-family="Heebo,Heebo_MSFontService,sans-serif" font-weight="700" font-size="37" transform="matrix(1 0 0 1 1186.63 491)">30</text><path d="M160.937 311.417 160.938 460.465 154.063 460.465 154.062 311.417ZM143.75 316 157.5 288.5 171.25 316ZM171.25 455.882 157.5 483.382 143.75 455.882Z"/><path d="M1209.94 701.417 1209.94 785.505 1203.06 785.505 1203.06 701.417ZM1192.75 706 1206.5 678.5 1220.25 706ZM1220.25 780.921 1206.5 808.421 1192.75 780.921Z"/><rect x="1148" y="716" width="119" height="51.9999" fill="#FFFFFF"/><text font-family="Heebo,Heebo_MSFontService,sans-serif" font-weight="700" font-size="37" transform="matrix(1 0 0 1 1186.63 751)">10</text><rect x="96.9999" y="346" width="119" height="77.9997" fill="#FFFFFF"/><text font-family="Heebo,Heebo_MSFontService,sans-serif" font-weight="700" font-size="37" transform="matrix(1 0 0 1 135.825 393)">15</text><path d="M160.937 508.417 160.938 657.465 154.063 657.465 154.062 508.417ZM143.75 513 157.5 485.5 171.25 513ZM171.25 652.882 157.5 680.382 143.75 652.882Z"/><rect x="96.9999" y="543" width="119" height="78" fill="#FFFFFF"/><text font-family="Heebo,Heebo_MSFontService,sans-serif" font-weight="700" font-size="37" transform="matrix(1 0 0 1 135.825 591)">15</text><path d="M158.937 714.417 158.938 798.505 152.063 798.505 152.062 714.417ZM141.75 719 155.5 691.5 169.25 719ZM169.25 793.921 155.5 821.421 141.75 793.921Z"/><rect x="96.9999" y="729" width="119" height="51.9999" fill="#FFFFFF"/><text font-family="Heebo,Heebo_MSFontService,sans-serif" font-weight="700" font-size="37" transform="matrix(1 0 0 1 135.825 764)">10</text></g></svg>