<svg width="189" height="182" xmlns="http://www.w3.org/2000/svg" xmlns:xlink="http://www.w3.org/1999/xlink" xml:space="preserve" overflow="hidden"><defs><clipPath id="clip0"><rect x="2055" y="652" width="189" height="182"/></clipPath></defs><g clip-path="url(#clip0)" transform="translate(-2055 -652)"><path d="M2233.88 746.846 2226.14 746.846 2226.14 826.278C2226.12 826.544 2226.09 826.811 2226.05 827.075 2226.01 827.339 2225.95 827.6 2225.88 827.859 2225.82 828.118 2225.73 828.373 2225.64 828.624 2225.55 828.875 2225.44 829.121 2225.33 829.361 2225.21 829.603 2225.08 829.837 2224.94 830.065 2224.8 830.294 2224.65 830.515 2224.49 830.728 2224.33 830.942 2224.16 831.147 2223.98 831.344 2223.8 831.541 2223.61 831.729 2223.41 831.907 2223.21 832.085 2223 832.253 2222.78 832.411 2222.57 832.57 2222.34 832.716 2222.11 832.853 2221.88 832.99 2221.65 833.115 2221.4 833.228 2221.16 833.341 2220.92 833.442 2220.66 833.531 2220.41 833.62 2220.15 833.696 2219.89 833.76 2219.63 833.825 2219.37 833.876 2219.11 833.914 2218.84 833.953 2218.58 833.978 2218.31 833.991 2218.04 834.003 2217.77 834.003 2217.51 833.99L2171.75 833.99 2171.75 779.83C2171.75 779.645 2171.74 779.46 2171.73 779.276 2171.71 779.091 2171.68 778.908 2171.64 778.726 2171.61 778.544 2171.56 778.366 2171.51 778.188 2171.46 778.01 2171.39 777.836 2171.32 777.665 2171.25 777.494 2171.17 777.327 2171.09 777.163 2171 777 2170.9 776.841 2170.8 776.687 2170.7 776.532 2170.59 776.384 2170.47 776.241 2170.35 776.098 2170.23 775.96 2170.1 775.829 2169.97 775.699 2169.83 775.574 2169.69 775.457 2169.54 775.339 2169.39 775.229 2169.24 775.126 2169.09 775.023 2168.93 774.928 2168.76 774.84 2168.6 774.753 2168.43 774.673 2168.26 774.603 2168.09 774.531 2167.92 774.47 2167.74 774.415 2167.56 774.361 2167.38 774.316 2167.2 774.281 2167.02 774.244 2166.84 774.216 2166.65 774.198 2166.47 774.181 2166.28 774.171 2166.1 774.171L2132.9 774.171C2132.72 774.171 2132.53 774.179 2132.35 774.198 2132.16 774.216 2131.98 774.244 2131.8 774.279 2131.62 774.316 2131.44 774.36 2131.26 774.415 2131.08 774.468 2130.91 774.53 2130.74 774.602 2130.57 774.673 2130.4 774.752 2130.24 774.84 2130.07 774.926 2129.91 775.022 2129.76 775.125 2129.6 775.227 2129.46 775.338 2129.31 775.456 2129.17 775.574 2129.03 775.697 2128.9 775.828 2128.77 775.96 2128.65 776.097 2128.53 776.24 2128.41 776.384 2128.3 776.532 2128.2 776.686 2128.1 776.841 2128 776.999 2127.91 777.163 2127.83 777.326 2127.75 777.494 2127.68 777.665 2127.61 777.836 2127.54 778.01 2127.49 778.187 2127.44 778.365 2127.39 778.544 2127.35 778.726 2127.32 778.908 2127.29 779.091 2127.27 779.276 2127.26 779.46 2127.25 779.645 2127.25 779.83L2127.25 833.987 2081.49 833.987C2081.22 834.001 2080.96 834.002 2080.69 833.99 2080.42 833.978 2080.16 833.953 2079.89 833.915 2079.63 833.877 2079.37 833.826 2079.11 833.763 2078.85 833.7 2078.6 833.624 2078.34 833.534 2078.09 833.446 2077.84 833.346 2077.6 833.233 2077.36 833.12 2077.13 832.997 2076.9 832.861 2076.67 832.725 2076.44 832.579 2076.23 832.421 2076.01 832.264 2075.81 832.096 2075.61 831.918 2075.41 831.74 2075.22 831.554 2075.04 831.357 2074.86 831.161 2074.69 830.956 2074.53 830.744 2074.37 830.531 2074.22 830.309 2074.08 830.082 2073.94 829.855 2073.81 829.62 2073.69 829.38 2073.58 829.14 2073.47 828.895 2073.38 828.645 2073.29 828.394 2073.21 828.139 2073.14 827.881 2073.07 827.623 2073.02 827.363 2072.98 827.1 2072.94 826.836 2072.91 826.57 2072.89 826.305L2072.89 746.846 2065.11 746.846C2056.49 746.846 2051.82 738.728 2057.47 733.518L2142.6 654.807C2142.86 654.582 2143.14 654.369 2143.42 654.168 2143.71 653.968 2144 653.78 2144.3 653.605 2144.6 653.43 2144.91 653.268 2145.23 653.121 2145.54 652.972 2145.86 652.839 2146.19 652.72 2146.52 652.6 2146.85 652.495 2147.19 652.405 2147.52 652.314 2147.86 652.239 2148.2 652.179 2148.55 652.119 2148.89 652.074 2149.24 652.043 2149.59 652.013 2149.93 651.999 2150.28 652 2150.63 652 2150.98 652.017 2151.32 652.048 2151.67 652.079 2152.02 652.125 2152.36 652.187 2152.7 652.249 2153.04 652.326 2153.38 652.418 2153.71 652.509 2154.04 652.615 2154.37 652.735 2154.7 652.857 2155.02 652.991 2155.33 653.141 2155.65 653.29 2155.95 653.453 2156.26 653.629 2156.55 653.805 2156.85 653.994 2157.13 654.195 2157.41 654.397 2157.69 654.611 2157.95 654.837 2185.82 681.073 2213.7 707.309 2241.6 733.545 2247.14 738.805 2242.47 746.846 2233.88 746.846Z" fill="#FFFFFF" fill-rule="evenodd"/></g></svg>