<svg width="502" height="502" xmlns="http://www.w3.org/2000/svg" xmlns:xlink="http://www.w3.org/1999/xlink" xml:space="preserve" overflow="hidden"><g transform="translate(1360 -334)"><path d="M-1177.65 671.495C-1219.1 671.489-1258.07 655.351-1287.39 626.039-1347.9 565.53-1347.9 467.077-1287.39 406.568-1257.13 376.311-1217.4 361.186-1177.65 361.186-1137.92 361.186-1098.17 376.316-1067.92 406.568-1007.41 467.077-1007.41 565.53-1067.92 626.039-1097.23 655.351-1136.2 671.495-1177.65 671.495ZM-862.889 811.912-1039.54 635.261C-1026.55 620.224-1016.21 603.329-1008.73 584.884-999.873 563.041-995.383 539.971-995.383 516.301-995.383 492.636-999.873 469.561-1008.73 447.723-1017.9 425.102-1031.37 404.815-1048.77 387.418-1066.16 370.022-1086.45 356.556-1109.07 347.38-1130.91 338.523-1153.99 334.029-1177.65 334.029-1201.32 334.029-1224.39 338.528-1246.23 347.38-1268.85 356.556-1289.14 370.022-1306.54 387.418-1323.93 404.815-1337.4 425.102-1346.57 447.723-1355.43 469.561-1359.92 492.636-1359.92 516.301-1359.92 539.971-1355.43 563.041-1346.57 584.884-1337.4 607.5-1323.93 627.793-1306.54 645.184-1289.14 662.58-1268.85 676.051-1246.23 685.222-1224.39 694.084-1201.32 698.568-1177.65 698.573-1153.99 698.573-1130.91 694.084-1109.07 685.222-1090.63 677.742-1073.73 667.408-1058.69 654.411L-882.039 831.062C-879.391 833.703-875.934 835.029-872.467 835.029-868.999 835.029-865.532 833.703-862.889 831.062-857.599 825.77-857.599 817.199-862.889 811.912" fill-rule="evenodd"/></g></svg>