<svg width="1297" height="354" xmlns="http://www.w3.org/2000/svg" xmlns:xlink="http://www.w3.org/1999/xlink" xml:space="preserve" overflow="hidden"><defs><clipPath id="clip0"><rect x="2010" y="503" width="1297" height="354"/></clipPath><clipPath id="clip1"><rect x="2009" y="539" width="279" height="282"/></clipPath><clipPath id="clip2"><rect x="2009" y="539" width="279" height="282"/></clipPath><clipPath id="clip3"><rect x="2009" y="539" width="279" height="282"/></clipPath><clipPath id="clip4"><rect x="2009" y="539" width="279" height="282"/></clipPath><clipPath id="clip5"><path d="M2410.27 503 2566.73 503 2566.73 857 2410.27 857 2410.27 503 2410.27 503Z" fill-rule="evenodd" clip-rule="evenodd"/></clipPath><clipPath id="clip6"><rect x="2511" y="676" width="14" height="18"/></clipPath></defs><g clip-path="url(#clip0)" transform="translate(-2010 -503)"><g clip-path="url(#clip1)"><g clip-path="url(#clip2)"><g clip-path="url(#clip3)"><g clip-path="url(#clip4)"><path d="M59.6263 0C58.5445 7.08256 56.6607 14.3163 51.7758 19.6893L185.926 19.6893C182.402 13.7348 183.321 6.55922 182.007 0L189.066 0C190.357 8.66422 188.868 19.7242 200.719 19.8056 201.696 22.4921 201.65 24.7832 200.742 27.4813L191.415 27.5743 191.415 48.8453 185.926 48.0662C185.996 59.3469 189.124 77.1873 184.775 87.4796 183.042 91.5732 179.692 93.9807 178.041 97.2601 175.773 101.761 177.925 113.844 179.251 118.973 182.786 132.731 193.672 143.535 198.486 156.77L200.103 156.293C203.359 148.362 210.825 140.977 218.745 137.743L218.873 134.72 214.175 136.29 214.175 107.541 215.35 106.355 236.923 106.355C236.841 115.601 236.551 124.823 238.528 133.882 258.415 134.208 275.453 150.327 276.185 170.516L276.15 281.233 269.091 281.233 269.091 196.16 240.458 196.16 239.423 197.486C236.213 223.362 225.595 249.739 203.964 265.242L203.964 281.233C203.964 281.233 196.916 281.233 196.916 281.233L196.521 270.196C187.508 274.673 178.018 277.813 168.074 279.442L142.791 281.233 135.732 281.233C135.964 279.116 136.046 279.185 134.185 278.488 130.289 277.011 125.602 276.313 121.415 274.731 108.832 269.986 97.9346 262.787 87.5029 254.449L75.3264 281.233 65.1269 281.233 65.0921 228.887C54.9391 212.861 46.7867 195.614 41.5881 177.262L60.4519 172.063 68.1276 192.753 71.3955 198.521C74.024 181.262 89.4799 167.946 97.9464 153.107 100.621 151.269 96.2485 139.43 95.3297 139.453 94.3644 140.256 93.6085 141.523 92.5153 142.128 89.2008 143.989 68.744 143.849 63.9523 143.361 58.091 142.768 54.9975 140.419 52.4156 135.243 47.6822 125.753 45.019 112.844 40.7391 102.889 41.2162 99.9234 84.3396 89.3867 90.1891 87.0029 97.2368 84.1419 103.424 79.5479 104.343 71.2791 105.041 65.0223 105.227 43.3909 104.157 37.5876 103.308 32.9822 96.5508 27.5511 92.1779 27.5511L31.3773 27.5511C29.4583 17.5261 36.9479 20.4103 43.1814 16.9563 49.9035 13.2347 51.2063 7.00114 52.5553-0.0232596L59.6144-0.0232596ZM178.855 46.4844 127.091 37.8201C129.428 50.5432 133.115 63.3591 131.44 76.4662L100.551 130.568C102.145 140.674 109.1 146.303 103.889 156.723 94.4922 175.494 77.6523 184.472 76.9197 208.5 76.8266 211.663 82.7463 219.536 84.8629 222.397 85.7467 223.583 89.5845 229.468 90.98 228.445L122.183 156.979C143.547 126.44 194.939 146.792 184.577 184.972L151.397 261.532C167.144 261.171 186.74 257.682 196.881 244.587 195.649 222.281 198.579 198.126 196.928 176.041 195.276 153.956 177.006 139.837 172.18 119.752 170.772 113.891 168.842 101.784 170.761 96.26 172.68 90.7358 178.622 87.6308 179.564 80.6877 180.972 70.3022 178.96 57.0676 178.843 46.4959ZM240.831 179.599 269.068 179.599 269.068 167.388C269.068 166.144 267.242 161.131 266.602 159.631 262.183 149.327 250.646 140.698 239.26 141.012 240.958 153.595 242.04 166.876 240.831 179.599ZM221.222 179.599C221.222 168.028 221.63 156.375 219.641 144.942 213.919 147.722 209.395 152.56 206.685 158.317 206.232 159.271 203.964 164.667 203.964 165.027L203.964 179.599 221.222 179.599ZM144.245 260.648 175.854 188.008C190.38 157.282 149.176 134.452 128.789 159.643L95.7252 234.364C95.7599 236.062 102.238 241.191 103.971 242.586 115.193 251.681 129.801 258.95 144.256 260.636ZM219.653 196.149 203.964 196.149 203.964 236.713C203.964 236.9 202.475 237.772 203.58 237.9L204.732 237.9C212.407 225.072 217.873 211.116 219.653 196.149ZM72.1746 269.405C73.5469 269.207 73.5121 267.812 73.9656 266.87 76.7102 261.124 78.9085 255.007 81.4321 249.157 81.4321 248.064 73.861 239.958 72.1746 238.679L72.1746 269.405Z" transform="matrix(1.00661 0 0 1 2010 539.39)"/><path d="M203.964 281.221 203.964 265.23C225.584 249.715 236.213 223.339 239.412 197.474L240.447 196.149 269.079 196.149 269.079 281.221 203.964 281.221Z" fill="#FFFFFF" transform="matrix(1.00661 0 0 1 2010 539.39)"/><path d="M181.995 0C183.309 6.55922 182.402 13.7348 185.914 19.6893L51.7758 19.6893C56.6489 14.3163 58.5445 7.07092 59.6263 0L182.007 0Z" fill="#FFFFFF" transform="matrix(1.00661 0 0 1 2010 539.39)"/><path d="M0 111.856 15.2002 107.076 16.4795 110.286 36.8666 103.982 49.4385 142.174 29.8072 148.106 31.3773 152.816 16.4446 157.212 0 112.646 0 111.856Z" transform="matrix(1.00661 0 0 1 2010 539.39)"/><path d="M75.3146 281.221 87.4911 254.437C97.9346 262.787 108.832 269.975 121.404 274.72 125.591 276.302 130.266 276.999 134.173 278.476 136.034 279.185 135.953 279.104 135.72 281.221L75.3146 281.221Z" fill="#FFFFFF" transform="matrix(1.00661 0 0 1 2010 539.39)"/><path d="M142.779 281.221 168.063 279.43C178.006 277.802 187.496 274.662 196.509 270.184L196.904 281.221 142.779 281.221Z" fill="#FFFFFF" transform="matrix(1.00661 0 0 1 2010 539.39)"/><path d="M178.855 46.4844C178.971 57.0558 180.983 70.2908 179.576 80.6762 178.634 87.619 172.68 90.7476 170.772 96.2485 168.865 101.749 170.772 113.879 172.191 119.741 177.018 139.825 195.323 154.444 196.94 176.029 198.556 197.614 195.66 222.269 196.893 244.575 186.752 257.682 167.167 261.159 151.409 261.52L184.589 184.961C194.951 146.78 143.559 126.428 122.194 156.968L90.9919 228.433C89.5963 229.456 85.7467 223.572 84.8744 222.385 82.7578 219.524 76.8266 211.64 76.9312 208.488 77.6641 184.461 94.5041 175.482 103.901 156.712 109.123 146.292 102.168 140.674 100.563 130.556L131.452 76.4544C133.127 63.3477 129.44 50.5314 127.102 37.8086L178.867 46.4729Z" fill="#FFFFFF" transform="matrix(1.00661 0 0 1 2010 539.39)"/><path d="M144.245 260.648C129.789 258.961 115.182 251.693 103.959 242.598 102.226 241.203 95.7485 236.062 95.7134 234.376L128.777 159.654C149.176 134.452 190.369 157.293 175.843 188.019L144.233 260.659Z" fill="#FFFFFF" transform="matrix(1.00661 0 0 1 2010 539.39)"/><path d="M240.831 179.599C242.04 166.876 240.958 153.583 239.26 141.012 250.646 140.698 262.183 149.327 266.602 159.631 267.253 161.143 269.068 166.144 269.068 167.388L269.068 179.599 240.831 179.599Z" fill="#FFFFFF" transform="matrix(1.00661 0 0 1 2010 539.39)"/><path d="M221.222 179.599 203.964 179.599 203.964 165.027C203.964 164.655 206.243 159.271 206.685 158.317 209.395 152.56 213.919 147.722 219.641 144.942 221.63 156.375 221.211 168.028 221.222 179.599Z" fill="#FFFFFF" transform="matrix(1.00661 0 0 1 2010 539.39)"/><path d="M219.653 196.149C217.873 211.116 212.407 225.072 204.732 237.888L203.58 237.888C202.475 237.772 203.964 236.9 203.964 236.713L203.964 196.149 219.653 196.149Z" fill="#FFFFFF" transform="matrix(1.00661 0 0 1 2010 539.39)"/><path d="M72.1746 269.405 72.1746 238.679C73.861 239.958 81.4435 248.064 81.4321 249.157 78.8967 255.007 76.7102 261.124 73.9656 266.87 73.5121 267.812 73.5469 269.207 72.1746 269.405Z" fill="#FFFFFF" transform="matrix(1.00661 0 0 1 2010 539.39)"/><path d="M45.5308 32.3309C59.5098 33.2612 75.2913 30.9702 89.0611 32.2611 93.2944 32.6565 98.0743 35.2847 98.7954 39.8207 99.5164 44.3563 99.5512 68.36 98.6675 72.6864 97.7835 77.0129 93.3875 80.5831 89.4218 82.3043 76.3033 88.0145 54.8696 93.7597 40.6113 97.8884 38.1457 98.6091 30.8539 101.854 30.5748 98.0743L45.5308 32.3309Z" transform="matrix(1.00661 0 0 1 2010 539.39)"/><path d="M47.7986 145.792 50.2176 154.398 54.1253 153.607 58.8002 168.528 41.9488 173.982 36.1921 160.143 38.4018 157.98 35.2965 148.897 47.7986 145.792Z" transform="matrix(1.00661 0 0 1 2010 539.39)"/><path d="M239.272 98.4698 251.042 98.4698 251.042 129.196 239.272 129.196Z" transform="matrix(1.00661 0 0 1 2010 539.39)"/></g></g></g></g><g><g><g><g clip-path="url(#clip5)"><path d="M130.724 349.734 116.887 349.734C109.036 346.496 105.602 337.818 96.8812 336.297L96.2286 330.619C103.096 328.833 112.217 326.5 118.97 329.589 120.503 330.289 128.343 336.765 129.613 338.175 132.555 341.446 134.718 346.565 130.724 349.744Z" transform="matrix(1 0 0 1.00949 2410.27 503)"/><path d="M40.7553 349.734C33.8656 345.956 40.5034 334.453 47.6682 337.429 46.5119 333.426 48.0342 331.205 51.7423 329.579 58.6781 326.546 67.4793 328.788 74.4835 330.619L74.4835 335.414C73.9912 336.87 69.5736 337.419 67.7079 338.633 63.3934 341.413 59.731 348.118 53.8255 349.744L40.7553 349.744Z" transform="matrix(1 0 0 1.00949 2410.27 503)"/><path d="M46.9126 286.706C48.0113 281.716 45.7109 274.552 46.0658 270.168 46.2948 267.307 49.4076 266.346 49.2359 263.278 47.8739 247.988 50.9985 229.756 49.2359 214.821 48.6066 209.442 44.6466 210.632 43.9597 208.561 43.1358 206.066 44.0398 198.878 43.8684 195.582 43.3533 185.236 42.3348 174.535 43.0785 164.108 43.4334 159.119 45.9857 152.091 46.1001 147.868 46.1688 145.442 44.0971 144.263 43.7883 141.093 43.0213 133.219 46.1917 130.186 46.9241 124.154 47.4507 119.839 45.8941 115.731 46.1345 111.45L29.173 184.412 9.21316 181.024 8.56079 180.143C8.48069 160.114 13.7568 140.212 18.2203 120.847L18.6094 120.057C27.8225 119.199 26.907 114.472 27.8569 107.399 28.3948 103.405 31.1759 102.42 25.3276 99.4906 31.1645 84.784 41.5792 73.1673 57.6249 69.8942L54.6037 39.5879C51.113 7.55363 67.2045 3.17024 94.9926 5.36767 106.678 6.28324 115.09 12.8641 116.143 24.9728 117.356 39.0384 114.415 55.4505 112.984 69.4935L116.051 70.8097 113.03 86.1113 111.508 84.9554 109.974 74.575 110.73 94.5579 109.196 91.8683 107.674 83.0328C105.579 88.881 109.07 95.6909 108.257 101.665 107.445 107.639 102.855 118.913 100.555 124.726 94.432 140.166 85.9628 154.85 76.9098 168.732L47.4163 168.996 46.2032 167.862 46.9012 160.663C46.1917 160.618 45.3675 164.658 45.3675 164.887L45.3675 179.101C45.9284 179.307 46.2833 178.334 46.5234 178.334L70.741 178.334 70.741 186.792C70.741 186.792 77.3448 178.472 77.3448 178.472 81.4304 180.887 101.734 176.572 103.473 179.055L103.931 186.289 105.659 187.525 115.353 186.792 114.586 178.334 124.589 178.334C124.589 178.334 123.811 286.706 123.811 286.706L89.9797 286.706 86.1227 205.23C84.7267 205.516 84.6924 206.741 84.5665 207.897 82.6779 225.075 83.193 244.955 82.3004 262.5 81.9227 269.905 81.7967 277.367 81.522 284.783L80.3661 286.706 46.9126 286.706ZM63.6109 25.5336C61.9398 25.8998 60.3374 27.0901 60.0058 28.8411 59.2502 32.7669 59.7654 43.525 59.96 48.0685 60.3145 56.5034 61.3903 66.5062 63.2903 74.7124 64.5836 80.2974 71.8625 103.119 76.1771 105.648 79.13 107.376 90.9413 107.353 94.0198 105.877 97.0987 104.4 100.772 95.0384 102.089 91.6508 107.399 77.9626 110.146 63.5079 110.775 48.8355 110.947 44.9328 111.439 31.0157 110.592 28.2002 110.031 26.3233 107.502 25.545 105.762 25.339 99.3762 24.5951 69.0928 24.3204 63.6109 25.5221ZM58.2317 97.7967C49.7052 99.5364 49.1329 113.339 56.8582 115.72 73.5451 120.869 74.5979 94.4549 58.2317 97.7967ZM62.2947 134.512C67.2503 133.802 66.9641 126.707 63.0499 124.921 56.5377 121.957 51.8454 132.612 59.2159 134.512 57.7966 130.289 58.827 124.006 63.0843 129.51L62.2947 134.512ZM62.2832 135.279C57.9111 134.26 59.0327 137.854 57.5906 140.955 55.5535 145.316 51.6049 146.849 47.6907 143.725 46.9813 148.498 49.1329 148.944 53.402 148.292 59.4677 147.365 61.6651 140.566 62.2947 135.279ZM65.3618 183.702 49.213 183.702 49.213 192.16C49.213 192.16 55.3703 192.16 55.3703 192.16 55.5535 194.415 54.3289 196.555 56.9155 197.161L49.5564 198.26 49.5564 209.121C49.5564 209.121 64.6523 209.51 64.6523 209.51L65.2702 198.809 64.1143 197.653C62.4435 196.932 58.369 198.592 57.6936 196.784 60.5778 197.413 58.6552 192.743 59.2159 192.16L65.3732 192.16C65.3732 192.16 65.3732 183.714 65.3732 183.714Z" transform="matrix(1 0 0 1.00949 2410.27 503)"/><path d="M142.981 101.39C136.492 103.222 139.605 104.309 139.902 108.063 140.2 111.817 139.17 116.131 141.928 119.096 144.309 121.648 147.765 120.229 148.99 124.338 151.107 131.422 152.389 147.731 153.03 155.662 153.774 164.955 154.495 174.455 152.995 183.668L132.269 185.258 124.578 126.077 123.056 132.612 124.578 169.11 121.625 167.839 113.877 100.383 121.923 73.0414C133.447 77.4933 140.154 90.0598 142.981 101.402Z" transform="matrix(1 0 0 1.00949 2410.27 503)"/><path d="M42.6782 209.842C44.9442 210.472 45.9742 215.015 46.1688 217.11 47.1416 227.399 47.3591 252.463 46.1688 262.512 45.7338 266.197 44.1772 268.589 40.4004 269.035 33.4191 269.859 16.7325 269.722 9.59084 269.058 5.57367 268.692 3.45636 267.456 3.04434 263.301 1.54506 248.045 4.26896 230.352 3.07868 214.821 3.77683 208.892 8.412 210.712 9.14447 208.583 10.0944 205.802 8.21745 197.379 8.44634 193.282 8.57224 191.084 9.46495 189.001 9.24747 186.769L27.628 189.917C27.113 193.522 27.4449 198.329 26.907 201.716 26.6208 203.479 24.8927 205.092 24.9041 205.596 24.9156 206.248 26.8841 207.816 25.4077 209.831L42.7125 209.831ZM33.5679 229.322C20.0858 216.881 1.99141 239.004 16.5379 249.796 29.8712 259.685 45.8254 240.629 33.5679 229.322Z" transform="matrix(1 0 0 1.00949 2410.27 503)"/><path d="M80.7438 292.085 76.4633 323.639C67.3076 321.899 58.3004 321.018 49.213 323.605L46.9012 292.085 80.7324 292.085Z" transform="matrix(1 0 0 1.00949 2410.27 503)"/><path d="M123.799 292.085 121.488 323.593C112.4 321.018 103.393 321.888 94.2373 323.639L89.9568 292.085 123.788 292.085Z" transform="matrix(1 0 0 1.00949 2410.27 503)"/><path d="M116.875 169.098C111.176 169.831 115.456 161.511 113.041 159.485 110.501 157.436 108.864 160.938 107.261 158.34L106.701 159.622 104.572 159.885 103.794 142.214 102.226 143.382 103.851 158.798C100.955 161.488 102.283 165.527 103.016 169.11L83.7995 168.343C83.1358 167.76 91.7881 154.598 92.6579 152.995 99.2159 140.875 105.408 127.851 109.184 114.552 110.627 114.861 110.581 116.074 110.73 117.219 113.064 134.455 114.071 151.942 116.853 169.121Z" transform="matrix(1 0 0 1.00949 2410.27 503)"/><path d="M151.428 189.15C153.591 197.333 152.091 205.585 145.739 211.399 143.496 213.448 140.807 216.205 139.113 212.589 136.961 207.988 142.237 203.468 140.715 198.317 138.529 197.905 139.467 198.878 138.976 199.988 138.049 202.06 137.053 209.911 133.986 206.569 132.589 205.058 132.555 192.675 133.711 191.061L151.428 189.138Z" transform="matrix(1 0 0 1.00949 2410.27 503)"/><path d="M119.954 169.865C117.631 170.243 118.718 169.293 118.397 168 117.688 165.139 117.367 161.625 116.978 158.626 115.101 144.24 112.114 125.928 111.485 111.805 111.393 109.711 111.622 108.029 112.274 106.071L119.954 169.854Z" transform="matrix(1 0 0 1.00949 2410.27 503)"/><path d="M19.2274 117.596C19.7539 114.85 20.6123 112.16 21.5164 109.516 22.638 106.209 24.2174 98.6549 27.5135 103.359 24.9041 108.543 27.8798 118.1 19.2274 117.596Z" transform="matrix(1 0 0 1.00949 2410.27 503)"/><path d="M147.639 119.908C144.606 119.679 142.02 116.818 141.631 113.945 141.356 111.966 142.146 110.684 142.088 108.967 141.985 106.128 139.136 104.686 143.427 103.027 144.881 103.119 147.845 117.505 147.651 119.92Z" transform="matrix(1 0 0 1.00949 2410.27 503)"/><path d="M113.041 163.719 113.041 169.877 104.172 169.911 103.805 163.719 113.041 163.719Z" transform="matrix(1 0 0 1.00949 2410.27 503)"/><path d="M63.6109 25.5336C69.0814 24.3318 99.3647 24.6065 105.762 25.3504 107.502 25.5565 110.031 26.3347 110.592 28.2117 111.439 31.0271 110.935 44.9442 110.775 48.847 110.146 63.5193 107.41 77.9741 102.089 91.6622 100.772 95.0498 97.1674 104.378 94.0198 105.888 90.8726 107.399 79.13 107.387 76.1771 105.659 71.874 103.142 64.5836 80.3088 63.2903 74.7239 61.3903 66.5062 60.3031 56.5034 59.96 48.08 59.7768 43.525 59.2502 32.7669 60.0058 28.8526 60.3374 27.1015 61.9398 25.9113 63.6109 25.545Z" fill="#FFFFFF" transform="matrix(1 0 0 1.00949 2410.27 503)"/><path d="M65.3618 183.702 65.3618 192.16C65.3618 192.16 59.2044 192.16 59.2044 192.16 58.6438 192.743 60.5549 197.413 57.6822 196.784 58.3576 198.581 62.4321 196.921 64.1028 197.653L65.2587 198.809 64.6409 209.51 49.545 209.121 49.545 198.26C49.545 198.26 56.904 197.161 56.904 197.161 54.3175 196.555 55.5421 194.415 55.3589 192.16L49.2015 192.16C49.2015 192.16 49.2015 183.714 49.2015 183.714L65.3503 183.714Z" fill="#FFFFFF" transform="matrix(1 0 0 1.00949 2410.27 503)"/><path d="M58.2317 97.7967C74.5979 94.4549 73.5451 120.869 56.8582 115.72 49.1214 113.339 49.6938 99.5364 58.2317 97.7967ZM60.4862 98.6549C49.8197 99.0098 50.0143 115.731 61.0701 115.25 72.1258 114.769 70.9356 98.3004 60.4862 98.6549Z" fill="#FFFFFF" transform="matrix(1 0 0 1.00949 2410.27 503)"/><path d="M62.2832 135.279C61.6651 140.566 59.4677 147.365 53.3905 148.292 49.1214 148.944 46.9698 148.509 47.6793 143.725 51.5935 146.849 55.5535 145.316 57.5795 140.955 59.0212 137.854 57.8997 134.26 62.2718 135.279Z" fill="#FFFFFF" transform="matrix(1 0 0 1.00949 2410.27 503)"/><path d="M62.2947 134.512 63.0843 129.51C58.827 124.006 57.7966 130.289 59.2159 134.512 51.8454 132.612 56.5491 121.957 63.0499 124.921 66.9641 126.707 67.2503 133.802 62.2947 134.512Z" fill="#FFFFFF" transform="matrix(1 0 0 1.00949 2410.27 503)"/><path d="M33.5679 229.322C45.8254 240.629 29.8712 259.685 16.5379 249.796 1.99141 239.004 20.0858 216.869 33.5679 229.322ZM22.8898 227.662C10.8498 229.287 9.31616 248.32 22.1001 250.38 40.7667 253.401 39.7024 225.384 22.8898 227.662Z" fill="#FFFFFF" transform="matrix(1 0 0 1.00949 2410.27 503)"/><path d="M60.4862 98.6549C70.9356 98.3004 72.0114 114.769 61.0701 115.25 50.1288 115.731 49.8197 99.0213 60.4862 98.6549Z" transform="matrix(1 0 0 1.00949 2410.27 503)"/><path d="M22.8898 227.662C39.7024 225.396 40.7553 253.413 22.1001 250.38 9.3276 248.308 10.8612 229.276 22.8898 227.662Z" transform="matrix(1 0 0 1.00949 2410.27 503)"/></g><g clip-path="url(#clip6)"><path d="M104.415 174.575 106.544 174.575 106.544 176.784 104.415 176.784Z" transform="matrix(0.998099 -0.0616258 0.0610464 1.00758 2399.75 509.84)"/><path d="M107.426 174.392 109.555 174.392 109.555 176.601 107.426 176.601Z" transform="matrix(0.998099 -0.0616258 0.0610464 1.00758 2399.76 510.025)"/><path d="M110.436 174.209 112.565 174.209 112.565 176.418 110.436 176.418Z" transform="matrix(0.998099 -0.0616258 0.0610464 1.00758 2399.77 510.209)"/><path d="M113.446 174.026 115.575 174.026 115.575 176.235 113.446 176.235Z" transform="matrix(0.998099 -0.0616258 0.0610464 1.00758 2399.79 510.394)"/><path d="M104.599 177.665 106.728 177.665 106.728 179.874 104.599 179.874Z" transform="matrix(0.998099 -0.0616258 0.0610464 1.00758 2399.55 509.851)"/><path d="M107.609 177.482 109.738 177.482 109.738 179.691 107.609 179.691Z" transform="matrix(0.998099 -0.0616258 0.0610464 1.00758 2399.57 510.036)"/><path d="M110.63 177.299 112.759 177.299 112.759 179.508 110.63 179.508Z" transform="matrix(0.998099 -0.0616258 0.0610464 1.00758 2399.59 510.221)"/><path d="M113.64 177.116 115.769 177.116 115.769 179.325 113.64 179.325Z" transform="matrix(0.998099 -0.0616258 0.0610464 1.00758 2399.6 510.406)"/><path d="M104.793 180.767 106.922 180.767 106.922 182.976 104.793 182.976Z" transform="matrix(0.998099 -0.0616258 0.0610464 1.00758 2399.37 509.874)"/><path d="M107.803 180.584 109.932 180.584 109.932 182.793 107.803 182.793Z" transform="matrix(0.998099 -0.0616258 0.0610464 1.00758 2399.38 510.059)"/><path d="M110.813 180.401 112.942 180.401 112.942 182.61 110.813 182.61Z" transform="matrix(0.998099 -0.0616258 0.0610464 1.00758 2399.4 510.244)"/><path d="M113.824 180.218 115.952 180.218 115.952 182.427 113.824 182.427Z" transform="matrix(0.998099 -0.0616258 0.0610464 1.00758 2399.41 510.429)"/><path d="M104.976 183.869 107.105 183.869 107.105 186.078 104.976 186.078Z" transform="matrix(0.998099 -0.0616258 0.0610464 1.00758 2399.17 509.886)"/><path d="M107.998 183.674 110.127 183.674 110.127 185.883 107.998 185.883Z" transform="matrix(0.998099 -0.0616258 0.0610464 1.00758 2399.2 510.071)"/><path d="M111.008 183.491 113.137 183.491 113.137 185.7 111.008 185.7Z" transform="matrix(0.998099 -0.0616258 0.0610464 1.00758 2399.21 510.256)"/><path d="M114.018 183.308 116.147 183.308 116.147 185.517 114.018 185.517Z" transform="matrix(0.998099 -0.0616258 0.0610464 1.00758 2399.22 510.44)"/><path d="M108.181 186.776 110.31 186.776 110.31 188.985 108.181 188.985Z" transform="matrix(0.998099 -0.0616258 0.0610464 1.00758 2399 510.094)"/><path d="M111.191 186.593 113.32 186.593 113.32 188.802 111.191 188.802Z" transform="matrix(0.998099 -0.0616258 0.0610464 1.00758 2399.02 510.279)"/></g><path d="M30.1802 241.625 30.0314 240.812C29.4477 238.935 26.8955 238.26 25.6595 239.885L25.6137 239.885C25.2703 239.805 25.442 239.508 25.339 239.221 25.236 238.935 24.9613 238.718 24.6752 238.649L24.6752 238.317C26.9299 238.054 27.5822 235.124 25.7854 233.819 27.0901 234.289 28.0057 235.651 27.9141 237.047 27.9141 237.173 27.7997 237.55 27.8569 237.642 29.4821 238.226 30.5579 239.896 30.1687 241.625Z" fill="#F1F2F2" transform="matrix(1 0 0 1.00949 2410.27 503)"/><path d="M23.1187 233.854C22.2603 234.632 21.917 235.777 22.3748 236.875 22.7067 237.653 23.4392 238.249 24.2975 238.294L24.2975 238.649C24 238.741 23.691 238.97 23.6223 239.313 23.5765 239.565 23.7138 239.748 23.3934 239.862 23.3362 239.862 23.0729 239.553 22.9928 239.496 21.5736 238.329 19.3304 239.198 18.9413 240.949L18.8269 241.693C18.4492 239.965 19.4334 238.157 21.1502 237.665 21.1159 237.253 21.0701 236.887 21.1273 236.475 21.2761 235.342 22.0429 234.266 23.1187 233.854Z" fill="#F1F2F2" transform="matrix(1 0 0 1.00949 2410.27 503)"/><path d="M28.8297 243.547C27.5364 244.498 25.6709 244.349 24.515 243.25 23.3476 244.303 21.5851 244.532 20.2804 243.616 20.452 243.616 20.6123 243.696 20.7725 243.708 22.7868 243.96 24.2517 242.025 23.5536 240.148L23.7711 240.022C23.9084 240.103 24 240.228 24.1487 240.286 24.5493 240.435 24.8927 240.309 25.1902 240.034L25.4191 240.16C25.3161 240.56 25.2017 240.892 25.236 241.316 25.3848 243.021 27.2045 244.188 28.8183 243.536Z" fill="#F1F2F2" transform="matrix(1 0 0 1.00949 2410.27 503)"/><path d="M26.1974 237.161C26.2661 237.253 25.8884 237.596 25.8083 237.665 24.9957 237.07 24.0343 237.093 23.2103 237.63 23.1416 237.63 22.8097 237.287 22.8211 237.207 23.1187 236.955 23.5078 236.772 23.897 236.692 24.7439 236.52 25.4763 236.715 26.1974 237.161Z" fill="#F1F2F2" transform="matrix(1 0 0 1.00949 2410.27 503)"/><path d="M27.3075 239.187C27.3304 240.32 26.7124 241.602 25.5908 241.957L25.4534 241.407C26.2203 240.972 26.6895 240.217 26.6781 239.324L27.3075 239.187Z" fill="#F1F2F2" transform="matrix(1 0 0 1.00949 2410.27 503)"/><path d="M22.2947 239.302C22.3519 239.553 22.3405 239.782 22.4091 240.045 22.5694 240.629 22.9928 241.11 23.5193 241.419L23.3819 241.968C23.3133 242.014 22.9699 241.774 22.9012 241.728 22.1115 241.167 21.6881 240.183 21.6995 239.221L21.7682 239.176 22.2947 239.313Z" fill="#F1F2F2" transform="matrix(1 0 0 1.00949 2410.27 503)"/><path d="M66.186 109.436 66.0372 108.623C65.4533 106.747 62.9011 106.071 61.6651 107.697L61.6193 107.697C61.2762 107.616 61.4476 107.319 61.3445 107.033 61.2418 106.747 60.9671 106.529 60.6809 106.46L60.6809 106.128C62.9355 105.865 63.588 102.935 61.791 101.631 63.0957 102.1 64.0112 103.462 63.9196 104.858 63.9196 104.984 63.8052 105.362 63.8624 105.453 65.4877 106.037 66.5635 107.708 66.1746 109.436Z" fill="#F1F2F2" transform="matrix(1 0 0 1.00949 2410.27 503)"/><path d="M59.1128 101.665C58.2546 102.443 57.9111 103.588 58.369 104.686 58.701 105.465 59.4334 106.06 60.2916 106.106L60.2916 106.46C59.9943 106.552 59.6852 106.781 59.6165 107.124 59.5707 107.376 59.7081 107.559 59.3876 107.674 59.3303 107.674 59.067 107.365 58.9869 107.307 57.568 106.14 55.3245 107.01 54.9356 108.761L54.8212 109.505C54.4434 107.777 55.4276 105.968 57.1444 105.476 57.1101 105.064 57.0643 104.698 57.1215 104.286 57.2704 103.153 58.037 102.077 59.1128 101.665Z" fill="#F1F2F2" transform="matrix(1 0 0 1.00949 2410.27 503)"/><path d="M64.8355 111.359C63.5422 112.309 61.6765 112.16 60.5206 111.061 59.3532 112.114 57.5906 112.343 56.2862 111.428 56.4576 111.428 56.6178 111.508 56.7781 111.519 58.7926 111.771 60.2573 109.837 59.5593 107.96L59.7768 107.834C59.9142 107.914 60.0058 108.04 60.1543 108.097 60.5549 108.246 60.8984 108.12 61.196 107.845L61.4247 107.971C61.3216 108.372 61.2075 108.704 61.2418 109.127 61.3903 110.832 63.2102 112 64.824 111.347Z" fill="#F1F2F2" transform="matrix(1 0 0 1.00949 2410.27 503)"/><path d="M62.1917 104.973C62.2604 105.064 61.8826 105.408 61.8024 105.476 60.99 104.881 60.0287 104.904 59.2044 105.442 59.1357 105.442 58.8041 105.098 58.8155 105.018 59.1128 104.766 59.5021 104.584 59.8913 104.504 60.7381 104.332 61.4704 104.526 62.1917 104.973Z" fill="#F1F2F2" transform="matrix(1 0 0 1.00949 2410.27 503)"/><path d="M63.3132 106.999C63.3361 108.132 62.7179 109.413 61.5964 109.768L61.459 109.219C62.226 108.784 62.695 108.029 62.6836 107.136L63.3132 106.999Z" fill="#F1F2F2" transform="matrix(1 0 0 1.00949 2410.27 503)"/><path d="M58.3004 107.113C58.3576 107.365 58.3461 107.593 58.4148 107.857 58.5751 108.44 58.9983 108.921 59.525 109.23L59.3876 109.779C59.3189 109.825 58.9755 109.585 58.9068 109.539 58.1172 108.978 57.6936 107.994 57.7051 107.033L57.7737 106.987 58.3004 107.124Z" fill="#F1F2F2" transform="matrix(1 0 0 1.00949 2410.27 503)"/></g></g></g><g><g><g><path d="M156.526 253.324C155.17 259.943 147.835 261.629 144.231 255.558 144.174 260.006 138.842 261.439 135.251 260.336 133.424 259.774 133.186 258.123 131.935 257.238 131.647 262.163 126.855 264.495 122.401 263.132 120.574 262.57 120.335 260.919 119.084 260.034 118.487 266.786 109.712 269.168 106.508 262.83 104.323 267.847 99.6011 270.587 94.7463 266.758 94.0507 266.21 94.2544 265.001 93.3831 265.065 92.5752 269.674 88.4931 272.386 83.8489 270.952 82.0221 270.39 81.7832 268.739 80.5326 267.854 79.9071 272.625 75.6073 275.161 70.998 273.749 69.1713 273.187 68.9327 271.536 67.6818 270.65 66.6208 277.241 59.2297 279.503 55.0983 274.009 52.9833 280.199 45.9221 282.637 42.093 276.384L33.4229 214.084 0 58.5621C0.639369 44.4326 20.0032 40.7089 25.2938 53.9881 25.8558 55.4002 26.0877 56.925 26.4812 58.3865 30.3033 72.4526 32.383 87.6571 35.8046 101.878L40.8353 100.753 24.6965 26.6428C22.8909 12.5626 39.634 5.83163 48.3391 16.9679 54.1428 35.9381 57.8243 56.138 61.2601 75.6214 58.5761 79.5559 58.4286 83.5538 58.7165 88.1839 67.183 114.265 78.3967 139.453 87.8888 165.189 91.0435 168.667 94.3951 165.822 93.2287 161.529 85.514 138.764 73.7806 115.979 66.5226 93.2215 65.9676 91.479 65.1032 89.3431 64.9208 87.5657 63.6137 75.0452 77.3286 68.4195 86.6663 76.4365 100.051 97.8376 111.215 120.728 123.841 142.65 125.52 145.074 129.518 143.486 129.68 140.675L101.47 88.4578 86.1391 16.5604C86.4414 6.51313 96.1304-0.0843124 105.489 4.51775 110.379 6.92065 111.384 11.0098 112.648 15.8016 127.27 71.2089 135.568 129.869 149.627 185.6 155.023 206.973 163.377 227.953 169.342 249.2 169.222 256.746 161.346 258.931 156.519 253.324Z" transform="matrix(1.00941 0 0 1 2688 538.2)"/><path d="M152.606 86.7786 157.601 87.8817 183.063 9.66785C189.429-2.91581 207.528 1.36305 207.943 15.5065L182.221 96.2848 187.244 97.409 210.704 24.4577C217.709 10.6726 237.501 16.8484 235.309 32.2987L211.835 105.784 216.578 106.367 230.96 62.0399C237.523 47.8615 257.448 52.2948 256.535 68.0542 235.365 138.617 208.189 207.437 193.378 279.854 190.68 286.459 180.668 283.627 181.089 276.798 176.403 281.892 168.464 279.461 168.794 272.329 167.81 272.674 167.965 273.714 166.77 274.493 162.119 277.536 156.063 273.721 156.498 268.416 154.088 271.374 150.891 272.66 147.364 270.566 146.795 270.229 144.898 268.535 144.814 268.058 144.329 265.303 151.699 266.357 153.379 266.132 156.006 265.774 157.461 263.856 159.147 263.491 160.981 263.09 162.252 263.961 163.967 263.912 167.67 263.8 173.276 261.067 175.503 258.081 178.602 253.928 176.867 250.612 175.658 246.2 170.234 226.365 162.175 207.1 156.997 187.181 146.914 148.418 140.809 107.66 131.338 68.6444 138.209 50.3065 142.348 28.9684 149.795 11.052 156.632-5.38898 178.047 2.00242 174.703 18.6401L152.599 86.7858Z" transform="matrix(1.00941 0 0 1 2688 538.2)"/><path d="M92.8069 73.3729C88.3805 68.8974 82.2679 66.0166 75.825 66.7263 71.9538 67.1549 68.9395 69.2979 65.4336 70.5766L53.6721 13.8694C53.0678-0.625319 72.1784-5.34681 78.5652 7.42653L92.8069 73.3729Z" transform="matrix(1.00941 0 0 1 2688 538.2)"/></g></g></g><g><g><g><path d="M154.761 1.86264 46.6471 0 46.6471 13.9698 154.761 14.9011 154.761 1.86264ZM154.771 18.6264 48.9892 17.7041 46.7285 19.2322 47.6329 26.0317 111.668 27.7044C113.919 28.8256 114.425 30.7064 114.706 33.0572 116.27 46.2945 114.245 70.5178 112.816 84.307 108.458 126.46 80.4912 182.638 134.272 204.474 154.653 212.747 181.101 208.082 193.913 230.605 207.603 230.433 226.337 220.948 235.877 211.038 240.199 206.554 231.365 196.49 227.368 193.389 212.051 181.489 186.616 185.513 167.502 173.117 125.122 145.638 147.763 99.6781 152.772 59.9751 154.499 46.2674 155.024 32.4514 154.761 18.6354ZM109.091 32.6052 0.587725 30.7244C-1.25683 30.9866 1.92593 42.7051 0.976526 44.7214L109.091 45.6525 109.091 32.6142ZM109.1 49.3689 0.976526 48.4374C1.46479 65.9969 3.10138 83.5655 5.79588 100.926 10.1541 128.965 21.3932 162.321 18.5721 190.396 17.4599 201.463 11.4923 213 9.63869 224.321 9.08714 227.703 6.59155 250.506 7.54999 251.492 16.4563 252.577 26.0769 256.664 35.0195 257.107 44.8659 257.595 55.7165 253.689 65.7617 253.581 107.319 253.129 141.768 276.52 181.164 248.562 182.529 247.595 190.613 241.627 190.929 241.094 192.801 237.911 186.526 228.752 184.12 226.383 170.549 213.01 143.36 216.048 125.258 206.038 78.8909 180.395 100.582 134.878 106.179 94.4249 108.232 79.5689 109.109 64.3423 109.109 49.3689ZM236.645 229.972 237.242 214.266C225.84 225.062 211.454 232.667 195.758 234.765 196.589 245.886 199.139 243.345 207.874 240.813 217.63 237.983 226.988 233.137 236.645 229.972ZM189.935 260.606C191.354 259.114 192.295 247.604 191.58 245.009 184.193 251.275 176.263 257.044 167.212 260.706 131.46 275.182 94.1174 255.045 57.371 258.047 51.9729 258.49 45.8246 260.507 40.5802 260.814 29.7751 261.456 18.4636 257.36 7.984 255.226 7.2697 255.262 6.49209 267.333 8.98768 269.133 10.57 270.281 20.9773 273.437 23.5723 274.115 34.5943 276.972 45.9691 277.813 57.3527 276.656 66.9284 275.679 63.5374 273.518 64.8306 265.48 96.2512 272.144 127.147 280.887 159.201 272.252 163.225 271.167 188.28 262.333 189.935 260.597Z" fill="#FFFFFF" transform="matrix(1.00737 0 0 1 3068 541.415)"/><path d="M109.1 49.3689C109.1 64.3423 108.223 79.5689 106.17 94.4249 100.573 134.887 78.8817 180.395 125.249 206.038 143.351 216.048 170.54 213.01 184.112 226.383 186.517 228.752 192.792 237.911 190.92 241.094 190.613 241.627 182.52 247.586 181.155 248.562 141.768 276.52 107.309 253.129 65.7529 253.581 55.7073 253.689 44.8571 257.586 35.0104 257.107 26.0678 256.664 16.4472 252.577 7.54097 251.492 6.59155 250.515 9.07808 227.703 9.62963 224.321 11.4832 213 17.4509 201.472 18.563 190.396 21.3751 162.321 10.145 128.965 5.78682 100.926 3.10138 83.5655 1.46479 65.9969 0.976526 48.4374L109.1 49.3689Z" transform="matrix(1.00737 0 0 1 3068 541.415)"/><path d="M154.771 18.6264C155.033 32.4424 154.508 46.2586 152.781 59.9659 147.772 99.6689 125.131 145.629 167.51 173.107 186.625 185.504 212.06 181.48 227.377 193.379 231.365 196.481 240.207 206.545 235.886 211.029 226.346 220.939 207.603 230.424 193.922 230.596 181.11 208.073 154.662 212.738 134.282 204.465 80.5003 182.638 108.467 126.451 112.825 84.2978 114.254 70.509 116.279 46.2857 114.715 33.0483 114.435 30.6973 113.928 28.8256 111.677 27.6954L47.642 26.0226 46.7377 19.2231 48.998 17.695 154.78 18.6173Z" transform="matrix(1.00737 0 0 1 3068 541.415)"/><path d="M189.935 260.606C188.28 262.342 163.225 271.176 159.201 272.261 127.147 280.887 96.2603 272.153 64.8306 265.489 63.5374 273.527 66.9284 275.688 57.3527 276.665 45.9691 277.831 34.5943 276.99 23.5723 274.124 20.9682 273.446 10.57 270.29 8.98768 269.142 6.50115 267.343 7.27873 255.271 7.984 255.235 18.4636 257.36 29.7751 261.456 40.5802 260.823 45.8334 260.516 51.9729 258.5 57.371 258.056 94.1083 255.054 131.452 275.182 167.212 260.715 176.263 257.053 184.193 251.275 191.58 245.018 192.295 247.613 191.363 259.123 189.935 260.615Z" transform="matrix(1.00737 0 0 1 3068 541.415)"/><path d="M109.091 32.6052 109.091 45.6437 0.976526 44.7214C1.92593 42.7051-1.25683 30.9957 0.587725 30.7244L109.091 32.6052Z" transform="matrix(1.00737 0 0 1 3068 541.415)"/><path d="M154.761 1.86264 154.761 14.9011 46.6471 13.9698 46.6471 0 154.761 1.86264Z" transform="matrix(1.00737 0 0 1 3068 541.415)"/><path d="M236.645 229.972C226.988 233.137 217.639 237.983 207.874 240.813 199.13 243.345 196.589 245.886 195.758 234.765 211.454 232.667 225.84 225.072 237.242 214.266L236.645 229.972Z" transform="matrix(1.00737 0 0 1 3068 541.415)"/></g></g></g></g></svg>