<svg width="1297" height="358" xmlns="http://www.w3.org/2000/svg" xmlns:xlink="http://www.w3.org/1999/xlink" xml:space="preserve" overflow="hidden"><defs><clipPath id="clip0"><rect x="2010" y="996" width="1297" height="358"/></clipPath><clipPath id="clip1"><rect x="2009" y="1034" width="279" height="282"/></clipPath><clipPath id="clip2"><rect x="2009" y="1034" width="279" height="282"/></clipPath><clipPath id="clip3"><rect x="2009" y="1034" width="279" height="282"/></clipPath><clipPath id="clip4"><rect x="2009" y="1034" width="279" height="282"/></clipPath><clipPath id="clip5"><rect x="2504" y="1166" width="15" height="18"/></clipPath></defs><g clip-path="url(#clip0)" transform="translate(-2010 -996)"><g clip-path="url(#clip1)"><g clip-path="url(#clip2)"><g clip-path="url(#clip3)"><g clip-path="url(#clip4)"><path d="M59.6263 0C58.5445 7.08256 56.6607 14.3163 51.7758 19.6893L185.926 19.6893C182.402 13.7348 183.321 6.55922 182.007 0L189.066 0C190.357 8.66422 188.868 19.7242 200.719 19.8056 201.696 22.4921 201.65 24.7832 200.742 27.4813L191.415 27.5743 191.415 48.8453 185.926 48.0662C185.996 59.3469 189.124 77.1873 184.775 87.4796 183.042 91.5732 179.692 93.9807 178.041 97.2601 175.773 101.761 177.925 113.844 179.251 118.973 182.786 132.731 193.672 143.535 198.486 156.77L200.103 156.293C203.359 148.362 210.825 140.977 218.745 137.743L218.873 134.72 214.175 136.29 214.175 107.541 215.35 106.355 236.923 106.355C236.841 115.601 236.551 124.823 238.528 133.882 258.415 134.208 275.453 150.327 276.185 170.516L276.15 281.233 269.091 281.233 269.091 196.16 240.458 196.16 239.423 197.486C236.213 223.362 225.595 249.739 203.964 265.242L203.964 281.233C203.964 281.233 196.916 281.233 196.916 281.233L196.521 270.196C187.508 274.673 178.018 277.813 168.074 279.442L142.791 281.233 135.732 281.233C135.964 279.116 136.046 279.185 134.185 278.488 130.289 277.011 125.602 276.313 121.415 274.731 108.832 269.986 97.9346 262.787 87.5029 254.449L75.3264 281.233 65.1269 281.233 65.0921 228.887C54.9391 212.861 46.7867 195.614 41.5881 177.262L60.4519 172.063 68.1276 192.753 71.3955 198.521C74.024 181.262 89.4799 167.946 97.9464 153.107 100.621 151.269 96.2485 139.43 95.3297 139.453 94.3644 140.256 93.6085 141.523 92.5153 142.128 89.2008 143.989 68.744 143.849 63.9523 143.361 58.091 142.768 54.9975 140.419 52.4156 135.243 47.6822 125.753 45.019 112.844 40.7391 102.889 41.2162 99.9234 84.3396 89.3867 90.1891 87.0029 97.2368 84.1419 103.424 79.5479 104.343 71.2791 105.041 65.0223 105.227 43.3909 104.157 37.5876 103.308 32.9822 96.5508 27.5511 92.1779 27.5511L31.3773 27.5511C29.4583 17.5261 36.9479 20.4103 43.1814 16.9563 49.9035 13.2347 51.2063 7.00114 52.5553-0.0232596L59.6144-0.0232596ZM178.855 46.4844 127.091 37.8201C129.428 50.5432 133.115 63.3591 131.44 76.4662L100.551 130.568C102.145 140.674 109.1 146.303 103.889 156.723 94.4922 175.494 77.6523 184.472 76.9197 208.5 76.8266 211.663 82.7463 219.536 84.8629 222.397 85.7467 223.583 89.5845 229.468 90.98 228.445L122.183 156.979C143.547 126.44 194.939 146.792 184.577 184.972L151.397 261.532C167.144 261.171 186.74 257.682 196.881 244.587 195.649 222.281 198.579 198.126 196.928 176.041 195.276 153.956 177.006 139.837 172.18 119.752 170.772 113.891 168.842 101.784 170.761 96.26 172.68 90.7358 178.622 87.6308 179.564 80.6877 180.972 70.3022 178.96 57.0676 178.843 46.4959ZM240.831 179.599 269.068 179.599 269.068 167.388C269.068 166.144 267.242 161.131 266.602 159.631 262.183 149.327 250.646 140.698 239.26 141.012 240.958 153.595 242.04 166.876 240.831 179.599ZM221.222 179.599C221.222 168.028 221.63 156.375 219.641 144.942 213.919 147.722 209.395 152.56 206.685 158.317 206.232 159.271 203.964 164.667 203.964 165.027L203.964 179.599 221.222 179.599ZM144.245 260.648 175.854 188.008C190.38 157.282 149.176 134.452 128.789 159.643L95.7252 234.364C95.7599 236.062 102.238 241.191 103.971 242.586 115.193 251.681 129.801 258.95 144.256 260.636ZM219.653 196.149 203.964 196.149 203.964 236.713C203.964 236.9 202.475 237.772 203.58 237.9L204.732 237.9C212.407 225.072 217.873 211.116 219.653 196.149ZM72.1746 269.405C73.5469 269.207 73.5121 267.812 73.9656 266.87 76.7102 261.124 78.9085 255.007 81.4321 249.157 81.4321 248.064 73.861 239.958 72.1746 238.679L72.1746 269.405Z" transform="matrix(1.00661 0 0 1 2010 1034.39)"/><path d="M203.964 281.221 203.964 265.23C225.584 249.715 236.213 223.339 239.412 197.474L240.447 196.149 269.079 196.149 269.079 281.221 203.964 281.221Z" fill="#FFFFFF" transform="matrix(1.00661 0 0 1 2010 1034.39)"/><path d="M181.995 0C183.309 6.55922 182.402 13.7348 185.914 19.6893L51.7758 19.6893C56.6489 14.3163 58.5445 7.07092 59.6263 0L182.007 0Z" fill="#FFFFFF" transform="matrix(1.00661 0 0 1 2010 1034.39)"/><path d="M0 111.856 15.2002 107.076 16.4795 110.286 36.8666 103.982 49.4385 142.174 29.8072 148.106 31.3773 152.816 16.4446 157.212 0 112.646 0 111.856Z" transform="matrix(1.00661 0 0 1 2010 1034.39)"/><path d="M75.3146 281.221 87.4911 254.437C97.9346 262.787 108.832 269.975 121.404 274.72 125.591 276.302 130.266 276.999 134.173 278.476 136.034 279.185 135.953 279.104 135.72 281.221L75.3146 281.221Z" fill="#FFFFFF" transform="matrix(1.00661 0 0 1 2010 1034.39)"/><path d="M142.779 281.221 168.063 279.43C178.006 277.802 187.496 274.662 196.509 270.184L196.904 281.221 142.779 281.221Z" fill="#FFFFFF" transform="matrix(1.00661 0 0 1 2010 1034.39)"/><path d="M178.855 46.4844C178.971 57.0558 180.983 70.2908 179.576 80.6762 178.634 87.619 172.68 90.7476 170.772 96.2485 168.865 101.749 170.772 113.879 172.191 119.741 177.018 139.825 195.323 154.444 196.94 176.029 198.556 197.614 195.66 222.269 196.893 244.575 186.752 257.682 167.167 261.159 151.409 261.52L184.589 184.961C194.951 146.78 143.559 126.428 122.194 156.968L90.9919 228.433C89.5963 229.456 85.7467 223.572 84.8744 222.385 82.7578 219.524 76.8266 211.64 76.9312 208.488 77.6641 184.461 94.5041 175.482 103.901 156.712 109.123 146.292 102.168 140.674 100.563 130.556L131.452 76.4544C133.127 63.3477 129.44 50.5314 127.102 37.8086L178.867 46.4729Z" fill="#FFFFFF" transform="matrix(1.00661 0 0 1 2010 1034.39)"/><path d="M144.245 260.648C129.789 258.961 115.182 251.693 103.959 242.598 102.226 241.203 95.7485 236.062 95.7134 234.376L128.777 159.654C149.176 134.452 190.369 157.293 175.843 188.019L144.233 260.659Z" fill="#FFFFFF" transform="matrix(1.00661 0 0 1 2010 1034.39)"/><path d="M240.831 179.599C242.04 166.876 240.958 153.583 239.26 141.012 250.646 140.698 262.183 149.327 266.602 159.631 267.253 161.143 269.068 166.144 269.068 167.388L269.068 179.599 240.831 179.599Z" fill="#FFFFFF" transform="matrix(1.00661 0 0 1 2010 1034.39)"/><path d="M221.222 179.599 203.964 179.599 203.964 165.027C203.964 164.655 206.243 159.271 206.685 158.317 209.395 152.56 213.919 147.722 219.641 144.942 221.63 156.375 221.211 168.028 221.222 179.599Z" fill="#FFFFFF" transform="matrix(1.00661 0 0 1 2010 1034.39)"/><path d="M219.653 196.149C217.873 211.116 212.407 225.072 204.732 237.888L203.58 237.888C202.475 237.772 203.964 236.9 203.964 236.713L203.964 196.149 219.653 196.149Z" fill="#FFFFFF" transform="matrix(1.00661 0 0 1 2010 1034.39)"/><path d="M72.1746 269.405 72.1746 238.679C73.861 239.958 81.4435 248.064 81.4321 249.157 78.8967 255.007 76.7102 261.124 73.9656 266.87 73.5121 267.812 73.5469 269.207 72.1746 269.405Z" fill="#FFFFFF" transform="matrix(1.00661 0 0 1 2010 1034.39)"/><path d="M45.5308 32.3309C59.5098 33.2612 75.2913 30.9702 89.0611 32.2611 93.2944 32.6565 98.0743 35.2847 98.7954 39.8207 99.5164 44.3563 99.5512 68.36 98.6675 72.6864 97.7835 77.0129 93.3875 80.5831 89.4218 82.3043 76.3033 88.0145 54.8696 93.7597 40.6113 97.8884 38.1457 98.6091 30.8539 101.854 30.5748 98.0743L45.5308 32.3309Z" transform="matrix(1.00661 0 0 1 2010 1034.39)"/><path d="M47.7986 145.792 50.2176 154.398 54.1253 153.607 58.8002 168.528 41.9488 173.982 36.1921 160.143 38.4018 157.98 35.2965 148.897 47.7986 145.792Z" transform="matrix(1.00661 0 0 1 2010 1034.39)"/><path d="M239.272 98.4698 251.042 98.4698 251.042 129.196 239.272 129.196Z" transform="matrix(1.00661 0 0 1 2010 1034.39)"/></g></g></g></g><g><g><g><path d="M83.6452 0C99.3257 4.11399 103.566 16.8268 102.976 31.7485 102.765 37.0764 99.1232 51.821 101.467 56.0953 101.686 56.4914 103.785 56.6263 104.51 57.4523 108.127 61.5663 104.426 60.5633 104.46 62.2154 104.628 71.1768 106.382 80.8886 106.171 89.9511 109.172 88.3832 107.672 89.496 109.366 90.7521 110.344 86.4273 111.381 83.3251 114.703 80.349L113.008 63.438C124.802 65.141 138.855 82.052 140.432 93.1463 141.013 97.2265 134.008 97.977 134.252 104.788 134.59 114.197 144.908 112.941 145.616 113.623 148.786 116.692 152.453 171.16 151.931 178.629 151.754 181.125 149.781 182.76 149.536 185.121 148.55 194.588 153.844 198.668 145.591 208.439 132.431 224.009 138.83 202.259 138.324 195.97 135.66 196.763 134.379 211.018 131.276 205.025L121.43 119.668C117.274 124.92 122.214 162.274 120.637 163.843 113.665 161.372 110.732 168.268 105.69 166.271L104.561 141.359 102.934 159.821 99.7302 158.236C100.38 161.701 96.9906 156.533 94.3096 159.24L93.2979 167.063C80.8043 163.716 62.738 169.651 51.0538 167.122 49.4184 166.768 45.8859 161.339 40.2125 163.851L38.6192 112.452C35.9382 138.526 28.5197 164.138 25.0042 190.019 24.49 193.838 25.4426 198.238 24.9115 201.973 24.6417 203.903 22.7112 204.595 22.5257 205.21 22.3403 205.825 23.5795 205.244 24.1275 206.205 24.4478 206.761 24.001 208.818 24.1275 208.818L39.4115 208.818 39.4115 179.902C41.9071 179.582 45.4055 180.459 47.707 179.751 49.6376 179.16 48.9885 177.07 51.0538 176.623 62.8394 174.069 80.2479 180.223 92.4885 176.682L91.6708 186.739 92.8934 188.737 104.552 188.737 105.48 176.817C111.314 176.623 114.054 181.959 121.447 179.902 121.16 189.386 121.801 198.963 121.472 208.447 120.106 247.766 104.906 284.21 109.349 323.302 110.791 335.998 131.555 343.399 130.307 352.125 116.33 366.733 104.434 345.397 91.806 340.82 90.2632 324.17 91.0977 306.011 89.2598 289.555 88.2313 280.341 84.7751 272.045 83.6707 263.008 81.2932 243.517 83.8222 223.327 80.0288 204.005 76.8673 231.201 80.6019 259.307 71.6827 285.61 70.688 292.261 70.2748 340.06 68.1756 341.95 67.5014 342.549 62.8645 343.305 60.8667 344.691 55.758 348.22 54.0804 353.346 47.4625 355.397 43.1969 356.719 31.4956 358.288 30.5682 352.132 29.2447 343.399 49.7219 335.794 51.3911 323.976 52.5966 315.444 52.2848 293.627 51.5176 284.691 50.9528 278.124 48.1537 273.462 47.4795 267.839 46.4089 258.919 49.3003 214.011 46.2315 210.454 44.7397 208.725 42.2949 208.725 40.2292 208.827 40.3135 210.1 42.3116 210.116 42.691 210.985 44.0735 214.121 44.0989 259.425 43.4749 265.478 43.3234 266.937 43.3823 268.429 42.4464 269.668 40.8364 271.278 3.53229 271.236 1.81251 269.677 1.05379 268.985 1.24768 266.625 0.0168606 265.841L0.0168606 214.441C-0.143315 209.965 7.13203 208.827 7.30906 208.354 8.13524 206.213 5.66517 199.562 5.60615 196.4 5.47968 189.555 5.15935 183.502 4.9317 176.994 4.22357 156.264 9.48406 134.168 12.8225 113.75 13.4379 112.856 20.9746 113.311 23.6638 108.346 28.663 99.0981 18.7995 95.8102 18.8164 93.9135 18.8333 92.3202 24.1443 82.3554 25.4089 80.366 33.4092 67.83 43.4244 63.5812 57.7307 60.8413 63.615 38.9481 46.788 9.61053 77.2213-0.0084303L83.6536-0.0084303ZM86.9837 42.4548C98.3815 41.8562 98.6595 23.5795 88.0038 21.7417 85.6433 21.337 78.4017 21.337 75.9569 21.6405 60.4452 23.5879 66.9701 43.6098 73.4529 41.6876 75.8472 40.9796 81.4701 29.9612 86.9837 42.4548ZM115.006 126.893 115.006 109.627C115.006 105.277 109.72 103.853 109.509 103.482 108.767 102.2 109.526 93.9557 108.085 92.2781L105.488 91.6457C96.7628 105.775 77.0948 105.598 69.0355 90.4907 65.7395 84.3198 59.2648 62.0889 68.3275 59.0035 73.293 57.3091 73.0906 61.4904 73.9759 61.0437 74.1191 60.9761 74.001 59.1975 75.7799 58.422 80.5009 56.3733 85.8458 57.2078 89.2598 61.0437 90.9039 54.9738 85.4155 45.8525 78.3341 48.9042 75.4848 50.1264 73.2759 55.2351 72.391 55.8253 67.5436 59.0878 61.4315 55.9096 61.0521 67.0715 60.3692 87.3631 74.6501 113.168 98.2971 101.779L106.576 96.3666C110.024 103.676 103.052 104.097 102.167 108.051 101.619 110.479 101.762 127.154 103.49 127.736L115.006 126.901ZM76.606 64.8459C78.8738 66.2284 84.3786 66.7259 85.6771 64.2557L85.9384 61.6256C84.9856 58.2784 77.3648 58.6073 76.0496 61.8109L76.606 64.8459ZM19.0946 223.47C-0.455236 226.657 1.67763 258.852 24.4225 256.921 46.4761 255.05 43.2558 219.533 19.0946 223.47ZM53.878 284.311C55.0752 274.819 54.2658 264.947 48.2634 257.014L52.4785 282.111 53.8697 284.311ZM107.756 284.311 112.578 257.014C106.896 264.079 104.148 275.755 107.756 284.311ZM68.3613 273.47C67.7206 277.652 68.8334 283.165 68.3613 287.523L74.001 262.241C71.8597 263.91 68.7153 271.135 68.3613 273.47ZM92.4885 286.722 92.4885 274.271 86.8488 262.232 92.4885 286.722ZM101.332 289.934 98.9379 268.26C98.1118 274.423 98.5839 282.583 99.7302 288.754 99.9831 290.103 99.3424 290.103 101.34 289.934ZM61.1197 289.934C60.3525 282.802 63.6233 276.025 61.5242 269.044 60.4114 273.065 59.5853 278.941 59.4842 283.08 59.4421 284.767 58.5063 290.744 61.1197 289.934Z" transform="matrix(1.01328 0 0 1 2411 996.418)"/><path d="M115.006 126.893 103.49 127.727C101.762 127.146 101.619 110.47 102.167 108.042 103.052 104.089 110.032 103.667 106.576 96.3583L98.2971 101.77C74.6501 113.151 60.3692 87.3464 61.0521 67.0628 61.4231 55.9012 67.5436 59.0794 72.391 55.8169 73.2759 55.2184 75.4932 50.118 78.3341 48.8958 85.4242 45.8438 90.9123 54.9654 89.2598 61.0354 85.8458 57.1994 80.4925 56.365 75.7799 58.4136 74.001 59.1891 74.1191 60.9594 73.9759 61.0354 73.0906 61.482 73.293 57.3091 68.3275 58.9951 59.2564 62.0889 65.7395 84.3114 69.0355 90.4824 77.0948 105.589 96.7628 105.766 105.488 91.6373L108.085 92.2694C109.518 93.9386 108.767 102.192 109.509 103.473 109.729 103.853 115.006 105.277 115.006 109.619L115.006 126.884ZM112.586 109.231C108.869 100.177 97.901 111.145 106.963 114.846 101.248 109.374 107.183 103.558 112.586 109.231ZM112.603 119.668 105.353 119.668 105.353 123.689 112.603 123.689 112.603 119.668Z" fill="#FFFFFF" transform="matrix(1.01328 0 0 1 2411 996.418)"/><path d="M86.9837 42.4548C81.4701 29.9612 75.8556 40.9796 73.4529 41.6876 66.9701 43.6098 60.4452 23.5879 75.9569 21.6405 78.4017 21.337 85.6433 21.3286 88.0038 21.7417 98.6511 23.5795 98.3815 41.8562 86.9837 42.4548Z" fill="#FFFFFF" transform="matrix(1.01328 0 0 1 2411 996.418)"/><path d="M19.0946 223.47C43.2642 219.533 46.4761 255.05 24.4225 256.921 1.6692 258.852-0.455236 226.657 19.0946 223.47ZM31.8665 249.478C44.3602 237.009 24.9199 218.167 12.8309 230.863 0.741867 243.56 19.6341 261.684 31.8665 249.478Z" fill="#FFFFFF" transform="matrix(1.01328 0 0 1 2411 996.418)"/><path d="M76.606 64.8459 76.0496 61.8109C77.3648 58.6073 84.9856 58.2784 85.9384 61.6256L85.6771 64.2557C84.3786 66.7343 78.8738 66.2367 76.606 64.8459Z" fill="#FFFFFF" transform="matrix(1.01328 0 0 1 2411 996.418)"/><path d="M107.756 284.311C104.156 275.755 106.905 264.07 112.578 257.014L107.756 284.311Z" fill="#FFFFFF" transform="matrix(1.01328 0 0 1 2411 996.418)"/><path d="M53.878 284.311 52.4868 282.111 48.2718 257.014C54.2658 264.947 55.0752 274.811 53.8864 284.311Z" fill="#FFFFFF" transform="matrix(1.01328 0 0 1 2411 996.418)"/><path d="M92.4885 286.722 86.8488 262.232 92.4885 274.271 92.4885 286.722Z" fill="#FFFFFF" transform="matrix(1.01328 0 0 1 2411 996.418)"/><path d="M68.3613 273.47C68.7237 271.135 71.8597 263.91 74.001 262.241L68.3613 287.523C68.8334 283.165 67.7206 277.652 68.3613 273.47Z" fill="#FFFFFF" transform="matrix(1.01328 0 0 1 2411 996.418)"/><path d="M101.332 289.934C99.334 290.095 99.9747 290.103 99.7218 288.754 98.5752 282.583 98.1031 274.423 98.9295 268.26L101.324 289.934Z" fill="#FFFFFF" transform="matrix(1.01328 0 0 1 2411 996.418)"/><path d="M61.1197 289.934C58.5063 290.744 59.4421 284.775 59.4842 283.08 59.5853 278.941 60.4114 273.074 61.5242 269.044 63.615 276.025 60.3525 282.794 61.1197 289.934Z" fill="#FFFFFF" transform="matrix(1.01328 0 0 1 2411 996.418)"/><path d="M103.693 164.694 103.743 171.067 94.8998 170.275 94.8998 163.834 103.693 164.694Z" transform="matrix(1.01328 0 0 1 2411 996.418)"/><path d="M107.773 77.0948 106.972 61.8447C109.417 58.8857 114.643 77.4575 107.773 77.0948Z" transform="matrix(1.01328 0 0 1 2411 996.418)"/><path d="M105.353 119.668 112.603 119.668 112.603 123.689 105.353 123.689Z" transform="matrix(1.01328 0 0 1 2411 996.418)"/><path d="M112.586 109.231C107.183 103.558 101.248 109.374 106.963 114.846 97.901 111.145 108.86 100.177 112.586 109.231Z" transform="matrix(1.01328 0 0 1 2411 996.418)"/><path d="M31.8665 249.478C19.6341 261.684 1.12966 243.155 12.8309 230.863 24.5321 218.572 44.3602 237.001 31.8665 249.478Z" transform="matrix(1.01328 0 0 1 2411 996.418)"/><path d="M135.618 102.909 141.216 103.895C141.418 103.01 142.05 102.2 143.02 101.931L143.062 101.804 141.047 96.8555C138.223 97.8334 135.997 100.093 135.618 102.9Z" fill="#231F20" transform="matrix(1.01328 0 0 1 2411 996.418)"/><path d="M143.652 107.124C143.163 107.031 142.767 106.71 142.295 106.576L138.746 110.479C140.609 111.963 143.306 112.662 145.726 112.317 145.262 110.597 144.815 108.869 144.428 107.132 144.183 107.157 143.922 107.174 143.66 107.132Z" fill="#231F20" transform="matrix(1.01328 0 0 1 2411 996.418)"/><path d="M143.517 102.344C141.317 102.816 141.241 106.213 143.972 106.551 144.09 106.567 144.192 106.559 144.301 106.559 143.998 105.168 143.728 103.76 143.517 102.344Z" fill="#231F20" transform="matrix(1.01328 0 0 1 2411 996.418)"/><path d="M20.865 109.467 17.0713 105.235C16.3632 105.808 15.3684 106.053 14.4411 105.665L14.3315 105.733 12.8646 110.875C15.6888 111.845 18.8333 111.448 20.8734 109.467Z" fill="#231F20" transform="matrix(1.01328 0 0 1 2411 996.418)"/><path d="M17.1388 101.197C17.4676 101.576 17.5771 102.066 17.8722 102.47L23.0737 101.585C22.5173 99.2668 20.8312 97.0579 18.7152 95.827 18.0155 97.4711 17.3074 99.0981 16.5402 100.716 16.751 100.852 16.9617 100.995 17.1388 101.197Z" fill="#231F20" transform="matrix(1.01328 0 0 1 2411 996.418)"/><path d="M14.2893 105.025C16.3042 106.019 18.4792 103.414 16.5486 101.45 16.4644 101.366 16.38 101.307 16.2957 101.239 15.6635 102.521 15.0059 103.785 14.2893 105.033Z" fill="#231F20" transform="matrix(1.01328 0 0 1 2411 996.418)"/><g clip-path="url(#clip5)"><path d="M94.6954 172.807 96.9886 172.807 96.9886 175.184 94.6954 175.184Z" transform="matrix(1.01065 0.0711446 -0.0720896 0.9974 2423.79 990.044)"/><path d="M97.9328 173.035 100.226 173.035 100.226 175.412 97.9328 175.412Z" transform="matrix(1.01065 0.0711446 -0.0720896 0.9974 2423.81 989.807)"/><path d="M101.179 173.271 103.472 173.271 103.472 175.648 101.179 175.648Z" transform="matrix(1.01065 0.0711446 -0.0720896 0.9974 2423.84 989.579)"/><path d="M94.4591 176.137 96.7524 176.137 96.7524 178.515 94.4591 178.515Z" transform="matrix(1.01065 0.0711446 -0.0720896 0.9974 2424.03 990.068)"/><path d="M97.6965 176.365 99.9898 176.365 99.9898 178.742 97.6965 178.742Z" transform="matrix(1.01065 0.0711446 -0.0720896 0.9974 2424.05 989.834)"/><path d="M100.934 176.601 103.227 176.601 103.227 178.979 100.934 178.979Z" transform="matrix(1.01065 0.0711446 -0.0720896 0.9974 2424.08 989.606)"/><path d="M104.18 176.829 106.473 176.829 106.473 179.206 104.18 179.206Z" transform="matrix(1.01065 0.0711446 -0.0720896 0.9974 2424.1 989.378)"/><path d="M94.2233 179.467 96.5162 179.467 96.5162 181.845 94.2233 181.845Z" transform="matrix(1.01065 0.0711446 -0.0720896 0.9974 2424.27 990.094)"/><path d="M97.4607 179.695 99.7539 179.695 99.7539 182.072 97.4607 182.072Z" transform="matrix(1.01065 0.0711446 -0.0720896 0.9974 2424.29 989.857)"/><path d="M100.698 179.923 102.991 179.923 102.991 182.3 100.698 182.3Z" transform="matrix(1.01065 0.0711446 -0.0720896 0.9974 2424.32 989.629)"/><path d="M103.935 180.159 106.229 180.159 106.229 182.536 103.935 182.536Z" transform="matrix(1.01065 0.0711446 -0.0720896 0.9974 2424.34 989.402)"/><path d="M93.9871 182.797 96.2803 182.797 96.2803 185.175 93.9871 185.175Z" transform="matrix(1.01065 0.0711446 -0.0720896 0.9974 2424.51 990.118)"/><path d="M97.2245 183.025 99.5177 183.025 99.5177 185.403 97.2245 185.403Z" transform="matrix(1.01065 0.0711446 -0.0720896 0.9974 2424.53 989.884)"/><path d="M100.462 183.253 102.755 183.253 102.755 185.63 100.462 185.63Z" transform="matrix(1.01065 0.0711446 -0.0720896 0.9974 2424.56 989.656)"/><path d="M103.699 183.489 105.992 183.489 105.992 185.866 103.699 185.866Z" transform="matrix(1.01065 0.0711446 -0.0720896 0.9974 2424.58 989.429)"/><path d="M93.7508 186.119 96.0441 186.119 96.0441 188.497 93.7508 188.497Z" transform="matrix(1.01065 0.0711446 -0.0720896 0.9974 2424.74 990.145)"/><path d="M96.9886 186.355 99.2818 186.355 99.2818 188.733 96.9886 188.733Z" transform="matrix(1.01065 0.0711446 -0.0720896 0.9974 2424.77 989.907)"/></g><path d="M30.4586 239.563 25.1897 239.563C25.2571 238.451 24.4984 237.877 23.883 237.102L26.4037 232.676C28.899 234.067 30.3574 236.706 30.4502 239.563Z" fill="#F1F2F2" transform="matrix(1.01328 0 0 1 2411 996.418)"/><path d="M14.5591 239.563C14.4495 236.731 16.0934 234.126 18.4623 232.676L21.0504 237.186 21.0336 237.313C20.2158 237.751 19.7774 238.645 19.7353 239.555L14.5675 239.555Z" fill="#F1F2F2" transform="matrix(1.01328 0 0 1 2411 996.418)"/><path d="M21.101 242C21.5478 242.05 21.944 242.295 22.3993 242.303 22.9388 242.312 23.3687 242 23.8661 242.034L26.3531 246.443C24.0769 247.867 20.8481 247.817 18.5382 246.443L21.0926 241.991Z" fill="#F1F2F2" transform="matrix(1.01328 0 0 1 2411 996.418)"/><path d="M22.1295 237.464C25.1307 237.068 25.4342 241.536 22.6016 241.696 19.769 241.857 19.5583 237.81 22.1295 237.464Z" fill="#F1F2F2" transform="matrix(1.01328 0 0 1 2411 996.418)"/></g></g></g><g><g><g><path d="M154.761 1.86264 46.6471 0 46.6471 13.9698 154.761 14.9011 154.761 1.86264ZM154.771 18.6264 48.9892 17.7041 46.7285 19.2322 47.6329 26.0317 111.668 27.7044C113.919 28.8256 114.425 30.7064 114.706 33.0572 116.27 46.2945 114.245 70.5178 112.816 84.307 108.458 126.46 80.4912 182.638 134.272 204.474 154.653 212.747 181.101 208.082 193.913 230.605 207.603 230.433 226.337 220.948 235.877 211.038 240.199 206.554 231.365 196.49 227.368 193.389 212.051 181.489 186.616 185.513 167.502 173.117 125.122 145.638 147.763 99.6781 152.772 59.9751 154.499 46.2674 155.024 32.4514 154.761 18.6354ZM109.091 32.6052 0.587725 30.7244C-1.25683 30.9866 1.92593 42.7051 0.976526 44.7214L109.091 45.6525 109.091 32.6142ZM109.1 49.3689 0.976526 48.4374C1.46479 65.9969 3.10138 83.5655 5.79588 100.926 10.1541 128.965 21.3932 162.321 18.5721 190.396 17.4599 201.463 11.4923 213 9.63869 224.321 9.08714 227.703 6.59155 250.506 7.54999 251.492 16.4563 252.577 26.0769 256.664 35.0195 257.107 44.8659 257.595 55.7165 253.689 65.7617 253.581 107.319 253.129 141.768 276.52 181.164 248.562 182.529 247.595 190.613 241.627 190.929 241.094 192.801 237.911 186.526 228.752 184.12 226.383 170.549 213.01 143.36 216.048 125.258 206.038 78.8909 180.395 100.582 134.878 106.179 94.4249 108.232 79.5689 109.109 64.3423 109.109 49.3689ZM236.645 229.972 237.242 214.266C225.84 225.062 211.454 232.667 195.758 234.765 196.589 245.886 199.139 243.345 207.874 240.813 217.63 237.983 226.988 233.137 236.645 229.972ZM189.935 260.606C191.354 259.114 192.295 247.604 191.58 245.009 184.193 251.275 176.263 257.044 167.212 260.706 131.46 275.182 94.1174 255.045 57.371 258.047 51.9729 258.49 45.8246 260.507 40.5802 260.814 29.7751 261.456 18.4636 257.36 7.984 255.226 7.2697 255.262 6.49209 267.333 8.98768 269.133 10.57 270.281 20.9773 273.437 23.5723 274.115 34.5943 276.972 45.9691 277.813 57.3527 276.656 66.9284 275.679 63.5374 273.518 64.8306 265.48 96.2512 272.144 127.147 280.887 159.201 272.252 163.225 271.167 188.28 262.333 189.935 260.597Z" fill="#FFFFFF" transform="matrix(1.00737 0 0 1 3068 1036.41)"/><path d="M109.1 49.3689C109.1 64.3423 108.223 79.5689 106.17 94.4249 100.573 134.887 78.8817 180.395 125.249 206.038 143.351 216.048 170.54 213.01 184.112 226.383 186.517 228.752 192.792 237.911 190.92 241.094 190.613 241.627 182.52 247.586 181.155 248.562 141.768 276.52 107.309 253.129 65.7529 253.581 55.7073 253.689 44.8571 257.586 35.0104 257.107 26.0678 256.664 16.4472 252.577 7.54097 251.492 6.59155 250.515 9.07808 227.703 9.62963 224.321 11.4832 213 17.4509 201.472 18.563 190.396 21.3751 162.321 10.145 128.965 5.78682 100.926 3.10138 83.5655 1.46479 65.9969 0.976526 48.4374L109.1 49.3689Z" transform="matrix(1.00737 0 0 1 3068 1036.41)"/><path d="M154.771 18.6264C155.033 32.4424 154.508 46.2586 152.781 59.9659 147.772 99.6689 125.131 145.629 167.51 173.107 186.625 185.504 212.06 181.48 227.377 193.379 231.365 196.481 240.207 206.545 235.886 211.029 226.346 220.939 207.603 230.424 193.922 230.596 181.11 208.073 154.662 212.738 134.282 204.465 80.5003 182.638 108.467 126.451 112.825 84.2978 114.254 70.509 116.279 46.2857 114.715 33.0483 114.435 30.6973 113.928 28.8256 111.677 27.6954L47.642 26.0226 46.7377 19.2231 48.998 17.695 154.78 18.6173Z" transform="matrix(1.00737 0 0 1 3068 1036.41)"/><path d="M189.935 260.606C188.28 262.342 163.225 271.176 159.201 272.261 127.147 280.887 96.2603 272.153 64.8306 265.489 63.5374 273.527 66.9284 275.688 57.3527 276.665 45.9691 277.831 34.5943 276.99 23.5723 274.124 20.9682 273.446 10.57 270.29 8.98768 269.142 6.50115 267.343 7.27873 255.271 7.984 255.235 18.4636 257.36 29.7751 261.456 40.5802 260.823 45.8334 260.516 51.9729 258.5 57.371 258.056 94.1083 255.054 131.452 275.182 167.212 260.715 176.263 257.053 184.193 251.275 191.58 245.018 192.295 247.613 191.363 259.123 189.935 260.615Z" transform="matrix(1.00737 0 0 1 3068 1036.41)"/><path d="M109.091 32.6052 109.091 45.6437 0.976526 44.7214C1.92593 42.7051-1.25683 30.9957 0.587725 30.7244L109.091 32.6052Z" transform="matrix(1.00737 0 0 1 3068 1036.41)"/><path d="M154.761 1.86264 154.761 14.9011 46.6471 13.9698 46.6471 0 154.761 1.86264Z" transform="matrix(1.00737 0 0 1 3068 1036.41)"/><path d="M236.645 229.972C226.988 233.137 217.639 237.983 207.874 240.813 199.13 243.345 196.589 245.886 195.758 234.765 211.454 232.667 225.84 225.072 237.242 214.266L236.645 229.972Z" transform="matrix(1.00737 0 0 1 3068 1036.41)"/></g></g></g><g><g><g><path d="M156.526 253.324C155.17 259.943 147.835 261.629 144.231 255.558 144.174 260.006 138.842 261.439 135.251 260.336 133.424 259.774 133.186 258.123 131.935 257.238 131.647 262.163 126.855 264.495 122.401 263.132 120.574 262.57 120.335 260.919 119.084 260.034 118.487 266.786 109.712 269.168 106.508 262.83 104.323 267.847 99.6011 270.587 94.7463 266.758 94.0507 266.21 94.2544 265.001 93.3831 265.065 92.5752 269.674 88.4931 272.386 83.8489 270.952 82.0221 270.39 81.7832 268.739 80.5326 267.854 79.9071 272.625 75.6073 275.161 70.998 273.749 69.1713 273.187 68.9327 271.536 67.6818 270.65 66.6208 277.241 59.2297 279.503 55.0983 274.009 52.9833 280.199 45.9221 282.637 42.093 276.384L33.4229 214.084 0 58.5621C0.639369 44.4326 20.0032 40.7089 25.2938 53.9881 25.8558 55.4002 26.0877 56.925 26.4812 58.3865 30.3033 72.4526 32.383 87.6571 35.8046 101.878L40.8353 100.753 24.6965 26.6428C22.8909 12.5626 39.634 5.83163 48.3391 16.9679 54.1428 35.9381 57.8243 56.138 61.2601 75.6214 58.5761 79.5559 58.4286 83.5538 58.7165 88.1839 67.183 114.265 78.3967 139.453 87.8888 165.189 91.0435 168.667 94.3951 165.822 93.2287 161.529 85.514 138.764 73.7806 115.979 66.5226 93.2215 65.9676 91.479 65.1032 89.3431 64.9208 87.5657 63.6137 75.0452 77.3286 68.4195 86.6663 76.4365 100.051 97.8376 111.215 120.728 123.841 142.65 125.52 145.074 129.518 143.486 129.68 140.675L101.47 88.4578 86.1391 16.5604C86.4414 6.51313 96.1304-0.0843124 105.489 4.51775 110.379 6.92065 111.384 11.0098 112.648 15.8016 127.27 71.2089 135.568 129.869 149.627 185.6 155.023 206.973 163.377 227.953 169.342 249.2 169.222 256.746 161.346 258.931 156.519 253.324Z" transform="matrix(1.00941 0 0 1 2687 1033.2)"/><path d="M152.606 86.7786 157.601 87.8817 183.063 9.66785C189.429-2.91581 207.528 1.36305 207.943 15.5065L182.221 96.2848 187.244 97.409 210.704 24.4577C217.709 10.6726 237.501 16.8484 235.309 32.2987L211.835 105.784 216.578 106.367 230.96 62.0399C237.523 47.8615 257.448 52.2948 256.535 68.0542 235.365 138.617 208.189 207.437 193.378 279.854 190.68 286.459 180.668 283.627 181.089 276.798 176.403 281.892 168.464 279.461 168.794 272.329 167.81 272.674 167.965 273.714 166.77 274.493 162.119 277.536 156.063 273.721 156.498 268.416 154.088 271.374 150.891 272.66 147.364 270.566 146.795 270.229 144.898 268.535 144.814 268.058 144.329 265.303 151.699 266.357 153.379 266.132 156.006 265.774 157.461 263.856 159.147 263.491 160.981 263.09 162.252 263.961 163.967 263.912 167.67 263.8 173.276 261.067 175.503 258.081 178.602 253.928 176.867 250.612 175.658 246.2 170.234 226.365 162.175 207.1 156.997 187.181 146.914 148.418 140.809 107.66 131.338 68.6444 138.209 50.3065 142.348 28.9684 149.795 11.052 156.632-5.38898 178.047 2.00242 174.703 18.6401L152.599 86.7858Z" transform="matrix(1.00941 0 0 1 2687 1033.2)"/><path d="M92.8069 73.3729C88.3805 68.8974 82.2679 66.0166 75.825 66.7263 71.9538 67.1549 68.9395 69.2979 65.4336 70.5766L53.6721 13.8694C53.0678-0.625319 72.1784-5.34681 78.5652 7.42653L92.8069 73.3729Z" transform="matrix(1.00941 0 0 1 2687 1033.2)"/></g></g></g></g></svg>