<svg width="46" height="107" xmlns="http://www.w3.org/2000/svg" xmlns:xlink="http://www.w3.org/1999/xlink" xml:space="preserve" overflow="hidden"><defs><clipPath id="clip0"><rect x="-229" y="290" width="4" height="5"/></clipPath></defs><g transform="translate(257 -239)"><path d="M25.0001 0C29.6867 1.2296 30.9541 5.02925 30.7777 9.48906 30.7147 11.0815 29.6262 15.4884 30.3267 16.7659 30.3922 16.8843 31.0196 16.9246 31.2363 17.1715 32.3172 18.4011 31.2111 18.1013 31.2212 18.5951 31.2716 21.2735 31.7957 24.1762 31.7327 26.8848 32.6297 26.4162 32.1812 26.7488 32.6876 27.1242 32.9799 25.8316 33.2898 24.9044 34.2826 24.0149L33.7761 18.9605C37.3011 19.4695 41.5014 24.5239 41.9726 27.8398 42.1464 29.0593 40.0526 29.2836 40.1257 31.3194 40.2265 34.1314 43.3105 33.756 43.5222 33.96 44.4696 34.8772 45.5656 51.1568 45.4094 53.3892 45.3565 54.135 44.7669 54.6238 44.6938 55.3293 44.399 58.1589 45.9814 59.3784 43.5146 62.2987 39.5814 66.9525 41.4938 60.4518 41.3427 58.5721 40.5465 58.809 40.1635 63.0697 39.2362 61.2783L36.2933 35.7666C35.0511 37.3364 36.5276 48.501 36.0564 48.9697 33.9726 48.2314 33.0958 50.2925 31.589 49.6954L31.2514 42.2497 30.7651 47.7678 29.8076 47.2941C30.0017 48.3297 28.9888 46.7851 28.1875 47.594L27.8851 49.9322C24.151 48.9319 18.7513 50.7057 15.2591 49.9498 14.7703 49.844 13.7145 48.2214 12.0188 48.9722L11.5426 33.6098C10.7413 41.4031 8.52403 49.0579 7.47333 56.7933 7.31963 57.9347 7.60435 59.2499 7.44561 60.3661 7.36498 60.9431 6.78798 61.1498 6.73255 61.3337 6.67711 61.5176 7.0475 61.3438 7.21128 61.631 7.30703 61.7973 7.17349 62.4121 7.21128 62.4121L11.7794 62.4121 11.7794 53.7697C12.5253 53.6739 13.5709 53.936 14.2588 53.7243 14.8358 53.5479 14.6418 52.923 15.2591 52.7895 18.7816 52.0261 23.9847 53.8654 27.6432 52.8071L27.3988 55.8131 27.7642 56.4103 31.2489 56.4103 31.5261 52.8475C33.2697 52.7895 34.0886 54.3845 36.2983 53.7697 36.2126 56.6043 36.4041 59.4666 36.3059 62.3012 35.8977 74.053 31.3547 84.9455 32.6826 96.6292 33.1134 100.424 39.3194 102.636 38.9465 105.244 34.7689 109.61 31.2136 103.233 27.4392 101.865 26.9781 96.8887 27.2275 91.4613 26.6782 86.5429 26.3708 83.789 25.3378 81.3096 25.0077 78.6085 24.2971 72.7831 25.053 66.7485 23.9192 60.9734 22.9743 69.1018 24.0905 77.5024 21.4247 85.3637 21.1274 87.3518 21.0039 101.638 20.3765 102.203 20.175 102.382 18.7891 102.608 18.192 103.022 16.6651 104.077 16.1637 105.609 14.1857 106.222 12.9108 106.617 9.41347 107.086 9.13631 105.246 8.74072 102.636 14.861 100.363 15.3599 96.8307 15.7202 94.2808 15.627 87.7599 15.3977 85.0891 15.2289 83.1263 14.3923 81.7329 14.1908 80.0523 13.8708 77.3865 14.735 63.9642 13.8178 62.9009 13.3719 62.3844 12.6412 62.3844 12.0238 62.4146 12.049 62.7951 12.6462 62.8001 12.7596 63.0597 13.1728 63.997 13.1804 77.5377 12.9939 79.3468 12.9486 79.7827 12.9662 80.2287 12.6865 80.5991 12.2053 81.0803 1.05574 81.0677 0.541728 80.6016 0.314958 80.395 0.37291 79.6895 0.00503933 79.4551L0.00503933 64.0927C-0.0428343 62.7548 2.13164 62.4146 2.18455 62.2735 2.43148 61.6335 1.69322 59.6455 1.67558 58.7006 1.63778 56.6547 1.54204 54.8456 1.474 52.9004 1.26235 46.7045 2.83462 40.1005 3.83241 33.9978 4.01635 33.7308 6.26893 33.8668 7.0727 32.3827 8.56686 29.6187 5.61885 28.636 5.62389 28.0691 5.62893 27.5929 7.21632 24.6146 7.59427 24.02 9.98543 20.2732 12.9788 19.0033 17.2547 18.1844 19.0134 11.6409 13.9841 2.87242 23.0801-0.00251967L25.0026-0.00251967ZM25.9979 12.689C29.4045 12.5101 29.4876 7.0475 26.3028 6.49822 25.5973 6.37727 23.4329 6.37727 22.7022 6.46798 18.066 7.05002 20.0162 13.0342 21.9538 12.4597 22.6694 12.2481 24.35 8.95489 25.9979 12.689ZM34.3733 37.926 34.3733 32.7657C34.3733 31.4656 32.7934 31.0398 32.7304 30.9289 32.5087 30.5459 32.7355 28.0817 32.3046 27.5803L31.5286 27.3913C28.9207 31.6142 23.0423 31.5613 20.6335 27.0461 19.6484 25.2017 17.7132 18.5573 20.4219 17.6351 21.906 17.1287 21.8455 18.3784 22.1101 18.2449 22.1529 18.2247 22.1176 17.6931 22.6493 17.4613 24.0603 16.849 25.6578 17.0984 26.6782 18.2449 27.1696 16.4307 25.5292 13.7045 23.4127 14.6166 22.5611 14.9819 21.9009 16.5088 21.6364 16.6852 20.1876 17.6603 18.3608 16.7104 18.2474 20.0465 18.0433 26.1113 22.3116 33.824 29.3793 30.4199L31.8536 28.8023C32.8842 30.9868 30.8004 31.1128 30.5358 32.2946 30.372 33.0202 30.4149 38.0041 30.9314 38.178L34.3733 37.9285ZM22.8962 19.3813C23.574 19.7945 25.2193 19.9432 25.6074 19.2049L25.6855 18.4188C25.4007 17.4184 23.123 17.5167 22.7299 18.4742L22.8962 19.3813ZM5.70704 66.7913C-0.136062 67.7437 0.501413 77.3663 7.29947 76.7893 13.8909 76.23 12.9284 65.6146 5.70704 66.7913ZM16.1032 84.9757C16.461 82.1386 16.2191 79.188 14.4251 76.817L15.6849 84.3181 16.1007 84.9757ZM32.2064 84.9757 33.6476 76.817C31.9494 78.9285 31.1279 82.4183 32.2064 84.9757ZM20.432 81.7354C20.2405 82.9852 20.5731 84.633 20.432 85.9357L22.1176 78.3792C21.4776 78.8781 20.5378 81.0375 20.432 81.7354ZM27.6432 85.6963 27.6432 81.9748 25.9576 78.3767 27.6432 85.6963ZM30.2864 86.6563 29.5708 80.1783C29.3239 82.0201 29.465 84.4592 29.8076 86.3036 29.8832 86.7067 29.6917 86.7067 30.2889 86.6563ZM18.2676 86.6563C18.0383 84.5247 19.0159 82.4989 18.3885 80.4126 18.0559 81.6145 17.809 83.3707 17.7788 84.6078 17.7662 85.1118 17.4865 86.8982 18.2676 86.6563Z" transform="matrix(1.01267 0 0 1 -257 239.125)"/><path d="M34.3733 37.926 30.9314 38.1754C30.4149 38.0016 30.372 33.0177 30.5358 32.292 30.8004 31.1103 32.8867 30.9843 31.8536 28.7998L29.3793 30.4174C22.3116 33.819 18.0433 26.1063 18.2474 20.0439 18.3583 16.7079 20.1876 17.6578 21.6364 16.6827 21.9009 16.5038 22.5636 14.9794 23.4127 14.6141 25.5318 13.7019 27.1721 16.4282 26.6782 18.2424 25.6578 17.0959 24.0578 16.8465 22.6493 17.4588 22.1176 17.6906 22.1529 18.2197 22.1101 18.2424 21.8455 18.3759 21.906 17.1287 20.4219 17.6326 17.7107 18.5573 19.6484 25.1992 20.6335 27.0436 23.0423 31.5588 28.9207 31.6117 31.5286 27.3888L32.3046 27.5777C32.733 28.0766 32.5087 30.5434 32.7304 30.9264 32.796 31.0398 34.3733 31.4656 34.3733 32.7632L34.3733 37.9235ZM33.6501 32.6473C32.539 29.9412 29.2609 33.2193 31.9695 34.3254 30.2612 32.6901 32.035 30.9516 33.6501 32.6473ZM33.6552 35.7666 31.4883 35.7666 31.4883 36.9685 33.6552 36.9685 33.6552 35.7666Z" fill="#FFFFFF" transform="matrix(1.01267 0 0 1 -257 239.125)"/><path d="M25.9979 12.689C24.35 8.95489 22.6719 12.2481 21.9538 12.4597 20.0162 13.0342 18.066 7.05002 22.7022 6.46798 23.4329 6.37727 25.5973 6.37475 26.3028 6.49822 29.4851 7.0475 29.4045 12.5101 25.9979 12.689Z" fill="#FFFFFF" transform="matrix(1.01267 0 0 1 -257 239.125)"/><path d="M5.70704 66.7913C12.9309 65.6146 13.8909 76.23 7.29947 76.7893 0.498894 77.3663-0.136062 67.7437 5.70704 66.7913ZM9.52433 74.5645C13.2585 70.8379 7.44813 65.2064 3.83493 69.001 0.221731 72.7957 5.8683 78.2129 9.52433 74.5645Z" fill="#FFFFFF" transform="matrix(1.01267 0 0 1 -257 239.125)"/><path d="M22.8962 19.3813 22.7299 18.4742C23.123 17.5167 25.4007 17.4184 25.6855 18.4188L25.6074 19.2049C25.2193 19.9457 23.574 19.797 22.8962 19.3813Z" fill="#FFFFFF" transform="matrix(1.01267 0 0 1 -257 239.125)"/><path d="M32.2064 84.9757C31.1305 82.4183 31.9519 78.926 33.6476 76.817L32.2064 84.9757Z" fill="#FFFFFF" transform="matrix(1.01267 0 0 1 -257 239.125)"/><path d="M16.1032 84.9757 15.6874 84.3181 14.4276 76.817C16.2191 79.188 16.461 82.1361 16.1057 84.9757Z" fill="#FFFFFF" transform="matrix(1.01267 0 0 1 -257 239.125)"/><path d="M27.6432 85.6963 25.9576 78.3767 27.6432 81.9748 27.6432 85.6963Z" fill="#FFFFFF" transform="matrix(1.01267 0 0 1 -257 239.125)"/><path d="M20.432 81.7354C20.5403 81.0375 21.4776 78.8781 22.1176 78.3792L20.432 85.9357C20.5731 84.633 20.2405 82.9852 20.432 81.7354Z" fill="#FFFFFF" transform="matrix(1.01267 0 0 1 -257 239.125)"/><path d="M30.2864 86.6563C29.6892 86.7042 29.8807 86.7067 29.8051 86.3036 29.4624 84.4592 29.3213 82.0201 29.5683 80.1783L30.2839 86.6563Z" fill="#FFFFFF" transform="matrix(1.01267 0 0 1 -257 239.125)"/><path d="M18.2676 86.6563C17.4865 86.8982 17.7662 85.1143 17.7788 84.6078 17.809 83.3707 18.0559 81.617 18.3885 80.4126 19.0134 82.4989 18.0383 84.5222 18.2676 86.6563Z" fill="#FFFFFF" transform="matrix(1.01267 0 0 1 -257 239.125)"/><path d="M30.9919 49.2242 31.007 51.129 28.3639 50.8922 28.3639 48.9672 30.9919 49.2242Z" transform="matrix(1.01267 0 0 1 -257 239.125)"/><path d="M32.2114 23.0423 31.972 18.4843C32.7027 17.5999 34.2649 23.1507 32.2114 23.0423Z" transform="matrix(1.01267 0 0 1 -257 239.125)"/><path d="M31.4883 35.7666 33.6552 35.7666 33.6552 36.9685 31.4883 36.9685Z" transform="matrix(1.01267 0 0 1 -257 239.125)"/><path d="M33.6501 32.6473C32.035 30.9516 30.2612 32.6901 31.9695 34.3254 29.2609 33.2193 32.5364 29.9412 33.6501 32.6473Z" transform="matrix(1.01267 0 0 1 -257 239.125)"/><path d="M9.52433 74.5645C5.8683 78.2129 0.337635 72.6747 3.83493 69.001 7.33223 65.3274 13.2585 70.8354 9.52433 74.5645Z" transform="matrix(1.01267 0 0 1 -257 239.125)"/><path d="M40.5339 30.7576 42.2069 31.0524C42.2674 30.7878 42.4564 30.5459 42.7461 30.4653L42.7587 30.4275 42.1565 28.9484C41.3124 29.2407 40.6472 29.916 40.5339 30.755Z" fill="#231F20" transform="matrix(1.01267 0 0 1 -257 239.125)"/><path d="M42.9351 32.0174C42.789 31.9897 42.6705 31.8939 42.5294 31.8536L41.4687 33.0202C42.0255 33.4637 42.8318 33.6728 43.5549 33.5695 43.4164 33.0555 43.2828 32.539 43.1669 32.0199 43.0938 32.0275 43.0157 32.0325 42.9376 32.0199Z" fill="#231F20" transform="matrix(1.01267 0 0 1 -257 239.125)"/><path d="M42.8948 30.5887C42.2372 30.7298 42.2145 31.7453 43.0308 31.8461 43.0661 31.8511 43.0964 31.8486 43.1291 31.8486 43.0384 31.4328 42.9578 31.012 42.8948 30.5887Z" fill="#231F20" transform="matrix(1.01267 0 0 1 -257 239.125)"/><path d="M6.23617 32.7179 5.10232 31.453C4.89067 31.6243 4.59335 31.6974 4.31619 31.5815L4.28343 31.6016 3.84501 33.1386C4.6891 33.4284 5.62893 33.31 6.23869 32.7179Z" fill="#231F20" transform="matrix(1.01267 0 0 1 -257 239.125)"/><path d="M5.12248 30.2461C5.22075 30.3594 5.2535 30.5056 5.34169 30.6265L6.89632 30.362C6.73003 29.6691 6.22609 29.0089 5.59366 28.641 5.38453 29.1324 5.17287 29.6187 4.94358 30.1024 5.00658 30.1428 5.06957 30.1856 5.12248 30.2461Z" fill="#231F20" transform="matrix(1.01267 0 0 1 -257 239.125)"/><path d="M4.27083 31.39C4.87303 31.6873 5.52311 30.9087 4.9461 30.3217 4.92091 30.2965 4.89571 30.2788 4.87051 30.2587 4.68154 30.6417 4.485 31.0196 4.27083 31.3925Z" fill="#231F20" transform="matrix(1.01267 0 0 1 -257 239.125)"/><g clip-path="url(#clip0)"><path d="M28.3027 51.6488 28.9881 51.6488 28.9881 52.3594 28.3027 52.3594Z" transform="matrix(1.01004 0.0711448 -0.0720461 0.997403 -253.18 237.22)"/><path d="M29.2703 51.7169 29.9557 51.7169 29.9557 52.4275 29.2703 52.4275Z" transform="matrix(1.01004 0.0711448 -0.0720461 0.997403 -253.173 237.149)"/><path d="M30.2404 51.7874 30.9258 51.7874 30.9258 52.498 30.2404 52.498Z" transform="matrix(1.01004 0.0711448 -0.0720461 0.997403 -253.165 237.081)"/><path d="M28.2321 52.6442 28.9175 52.6442 28.9175 53.3548 28.2321 53.3548Z" transform="matrix(1.01004 0.0711448 -0.0720461 0.997403 -253.109 237.227)"/><path d="M29.1997 52.7122 29.8851 52.7122 29.8851 53.4228 29.1997 53.4228Z" transform="matrix(1.01004 0.0711448 -0.0720461 0.997403 -253.101 237.157)"/><path d="M30.1673 52.7828 30.8527 52.7828 30.8527 53.4934 30.1673 53.4934Z" transform="matrix(1.01004 0.0711448 -0.0720461 0.997403 -253.094 237.089)"/><path d="M31.1375 52.8508 31.8229 52.8508 31.8229 53.5614 31.1375 53.5614Z" transform="matrix(1.01004 0.0711448 -0.0720461 0.997403 -253.086 237.021)"/><path d="M28.1616 53.6395 28.8469 53.6395 28.8469 54.3501 28.1616 54.3501Z" transform="matrix(1.01004 0.0711448 -0.0720461 0.997403 -253.037 237.235)"/><path d="M29.1292 53.7075 29.8146 53.7075 29.8146 54.4181 29.1292 54.4181Z" transform="matrix(1.01004 0.0711448 -0.0720461 0.997403 -253.03 237.164)"/><path d="M30.0968 53.7756 30.7822 53.7756 30.7822 54.4862 30.0968 54.4862Z" transform="matrix(1.01004 0.0711448 -0.0720461 0.997403 -253.022 237.096)"/><path d="M31.0644 53.8461 31.7498 53.8461 31.7498 54.5567 31.0644 54.5567Z" transform="matrix(1.01004 0.0711448 -0.0720461 0.997403 -253.014 237.028)"/><path d="M28.091 54.6348 28.7764 54.6348 28.7764 55.3454 28.091 55.3454Z" transform="matrix(1.01004 0.0711448 -0.0720461 0.997403 -252.966 237.242)"/><path d="M29.0586 54.7029 29.744 54.7029 29.744 55.4135 29.0586 55.4135Z" transform="matrix(1.01004 0.0711448 -0.0720461 0.997403 -252.958 237.172)"/><path d="M30.0262 54.7709 30.7116 54.7709 30.7116 55.4815 30.0262 55.4815Z" transform="matrix(1.01004 0.0711448 -0.0720461 0.997403 -252.951 237.104)"/><path d="M30.9938 54.8415 31.6792 54.8415 31.6792 55.552 30.9938 55.552Z" transform="matrix(1.01004 0.0711448 -0.0720461 0.997403 -252.943 237.036)"/><path d="M28.0204 55.6276 28.7058 55.6276 28.7058 56.3382 28.0204 56.3382Z" transform="matrix(1.01004 0.0711448 -0.0720461 0.997403 -252.895 237.25)"/><path d="M28.9881 55.6982 29.6735 55.6982 29.6735 56.4088 28.9881 56.4088Z" transform="matrix(1.01004 0.0711448 -0.0720461 0.997403 -252.887 237.179)"/></g><path d="M9.10355 71.6013 7.52876 71.6013C7.54892 71.2687 7.32215 71.0974 7.13821 70.8656L7.89159 69.5428C8.63741 69.9585 9.07331 70.7472 9.10103 71.6013Z" fill="#F1F2F2" transform="matrix(1.01267 0 0 1 -257 239.125)"/><path d="M4.35146 71.6013C4.31871 70.7547 4.81004 69.9762 5.51807 69.5428L6.2916 70.8908 6.28657 70.9286C6.04216 71.0596 5.91113 71.3267 5.89854 71.5988L4.35398 71.5988Z" fill="#F1F2F2" transform="matrix(1.01267 0 0 1 -257 239.125)"/><path d="M6.30672 72.3295C6.44026 72.3446 6.55869 72.4177 6.69475 72.4202 6.85601 72.4227 6.98451 72.3295 7.13317 72.3396L7.87647 73.6574C7.19616 74.0832 6.23113 74.0681 5.54074 73.6574L6.3042 72.327Z" fill="#F1F2F2" transform="matrix(1.01267 0 0 1 -257 239.125)"/><path d="M6.61412 70.9739C7.51112 70.8555 7.60183 72.1909 6.75522 72.2388 5.90862 72.2867 5.84562 71.0772 6.61412 70.9739Z" fill="#F1F2F2" transform="matrix(1.01267 0 0 1 -257 239.125)"/></g></svg>