<svg width="73" height="85" xmlns="http://www.w3.org/2000/svg" xmlns:xlink="http://www.w3.org/1999/xlink" xml:space="preserve" overflow="hidden"><g transform="translate(508 -73)"><path d="M47.3191 0.569511 14.2626 0 14.2626 4.27133 47.3191 4.55608 47.3191 0.569511ZM47.3219 5.69511 14.9787 5.41312 14.2875 5.88034 14.564 7.95933 34.143 8.47078C34.8314 8.81359 34.9862 9.38863 35.0719 10.1074 35.5502 14.1548 34.9309 21.5612 34.4941 25.7773 33.1615 38.6659 24.6106 55.8424 41.0545 62.519 47.286 65.0486 55.3725 63.6221 59.2899 70.5087 63.4756 70.4562 69.2038 67.5561 72.1205 64.5261 73.442 63.1549 70.741 60.0778 69.519 59.1296 64.8357 55.4913 57.0589 56.7216 51.2145 52.9313 38.2567 44.5296 45.1793 30.4771 46.7109 18.3377 47.239 14.1465 47.3993 9.9222 47.3191 5.69787ZM33.3551 9.9692 0.1797 9.39416C-0.384281 9.47433 0.588863 13.0573 0.298578 13.6738L33.3551 13.9585 33.3551 9.97196ZM33.3578 15.0948 0.298578 14.81C0.447868 20.1789 0.948263 25.5506 1.77212 30.8586 3.10466 39.4317 6.54108 49.6304 5.67852 58.2145 5.33847 61.5984 3.51383 65.126 2.94708 68.5873 2.77844 69.6213 2.0154 76.5936 2.30845 76.895 5.0316 77.2267 7.97315 78.4763 10.7074 78.6118 13.718 78.7611 17.0356 77.5668 20.107 77.5336 32.8132 77.3954 43.3464 84.5474 55.3918 75.9993 55.8093 75.7034 58.2808 73.8788 58.3776 73.7157 58.9499 72.7425 57.0312 69.942 56.2958 69.2177 52.1462 65.1288 43.833 66.0577 38.2982 62.9973 24.1213 55.1568 30.7536 41.2398 32.4649 28.8709 33.0924 24.3286 33.3606 19.673 33.3606 15.0948ZM72.3555 70.3152 72.538 65.5131C69.0518 68.814 64.6533 71.1391 59.8539 71.7805 60.1082 75.1809 60.8879 74.4041 63.5585 73.63 66.5415 72.7647 69.4029 71.2828 72.3555 70.3152ZM58.0735 79.6817C58.5075 79.2256 58.7951 75.7062 58.5767 74.9128 56.318 76.8286 53.8934 78.5925 51.126 79.7121 40.1947 84.1383 28.7769 77.9815 17.5415 78.8993 15.891 79.0348 14.0111 79.6513 12.4076 79.7453 9.10388 79.9416 5.64534 78.6892 2.44115 78.0368 2.22275 78.0478 1.98499 81.7386 2.74803 82.2887 3.23183 82.6399 6.41391 83.6047 7.20735 83.8121 10.5774 84.6857 14.0553 84.9428 17.5359 84.5889 20.4637 84.2903 19.4269 83.6296 19.8223 81.1718 29.4293 83.2094 38.876 85.8828 48.6766 83.2425 49.9068 82.9108 57.5676 80.2098 58.0735 79.679Z" fill="#FFFFFF" transform="matrix(1.00633 0 0 1 -508 73.1268)"/><path d="M33.3578 15.0948C33.3578 19.673 33.0897 24.3286 32.4621 28.8709 30.7508 41.2425 24.1185 55.1568 38.2954 62.9973 43.8302 66.0577 52.1434 65.1288 56.2931 69.2177 57.0285 69.942 58.9471 72.7425 58.3748 73.7157 58.2808 73.8788 55.8065 75.7007 55.3891 75.9993 43.3464 84.5474 32.8104 77.3954 20.1043 77.5336 17.0328 77.5668 13.7153 78.7583 10.7046 78.6118 7.97038 78.4763 5.02883 77.2267 2.30569 76.895 2.0154 76.5964 2.77567 69.6213 2.94431 68.5873 3.51106 65.126 5.33571 61.6011 5.67575 58.2145 6.53555 49.6304 3.1019 39.4317 1.76935 30.8586 0.948263 25.5506 0.447868 20.1789 0.298578 14.81L33.3578 15.0948Z" transform="matrix(1.00633 0 0 1 -508 73.1268)"/><path d="M47.3219 5.69511C47.4021 9.91944 47.2417 14.1438 46.7137 18.3349 45.1821 30.4743 38.2595 44.5269 51.2172 52.9285 57.0616 56.7188 64.8385 55.4886 69.5218 59.1268 70.741 60.0751 73.4447 63.1521 72.1233 64.5233 69.2066 67.5534 63.4756 70.4534 59.2927 70.506 55.3752 63.6193 47.2887 65.0459 41.0573 62.5162 24.6134 55.8424 33.1643 38.6631 34.4969 25.7745 34.9337 21.5585 35.5529 14.1521 35.0747 10.1047 34.989 9.38587 34.8341 8.81359 34.1458 8.46801L14.5668 7.95656 14.2903 5.87757 14.9814 5.41035 47.3247 5.69234Z" transform="matrix(1.00633 0 0 1 -508 73.1268)"/><path d="M58.0735 79.6817C57.5676 80.2125 49.9068 82.9136 48.6766 83.2453 38.876 85.8828 29.4321 83.2121 19.8223 81.1746 19.4269 83.6324 20.4637 84.2931 17.5359 84.5917 14.0553 84.9483 10.5774 84.6912 7.20735 83.8148 6.41114 83.6075 3.23183 82.6426 2.74803 82.2915 1.98776 81.7414 2.22551 78.0506 2.44115 78.0395 5.64534 78.6892 9.10388 79.9416 12.4076 79.7481 14.0138 79.6541 15.891 79.0376 17.5415 78.9021 28.7741 77.9842 40.192 84.1383 51.126 79.7149 53.8934 78.5952 56.318 76.8286 58.5767 74.9155 58.7951 75.709 58.5103 79.2283 58.0735 79.6845Z" transform="matrix(1.00633 0 0 1 -508 73.1268)"/><path d="M33.3551 9.9692 33.3551 13.9558 0.298578 13.6738C0.588863 13.0573-0.384281 9.4771 0.1797 9.39416L33.3551 9.9692Z" transform="matrix(1.00633 0 0 1 -508 73.1268)"/><path d="M47.3191 0.569511 47.3191 4.55608 14.2626 4.27133 14.2626 0 47.3191 0.569511Z" transform="matrix(1.00633 0 0 1 -508 73.1268)"/><path d="M72.3555 70.3152C69.4029 71.2828 66.5443 72.7647 63.5585 73.63 60.8851 74.4041 60.1082 75.1809 59.8539 71.7805 64.6533 71.1391 69.0518 68.8168 72.538 65.5131L72.3555 70.3152Z" transform="matrix(1.00633 0 0 1 -508 73.1268)"/></g></svg>