<svg width="69" height="91" xmlns="http://www.w3.org/2000/svg" xmlns:xlink="http://www.w3.org/1999/xlink" xml:space="preserve" overflow="hidden"><defs><clipPath id="clip0"><rect x="-154" y="426" width="69" height="91"/></clipPath></defs><g clip-path="url(#clip0)" transform="translate(154 -426)"><path d="M53.276 21.0816C48.827 18.6792 43.269 17.5161 38.2068 17.7195 35.2197 17.8402 31.6986 17.8688 31.2919 21.3104 29.9985 32.2389 34.8637 38.4261 41.8263 46.1513 45.2488 49.952 47.95 51.3343 53.2823 51.1818 54.1467 52.8311 49.6406 59.425 49.9393 59.7809L53.991 57.0671 64.268 63.8485 58.548 70.0675C54.42 75.6541 50.4572 81.6157 48.7412 88.448L37.9526 81.4504C39.0839 75.3014 42.16 69.9626 45.4649 64.8019 44.108 59.9557 44.4544 56.2631 41.0986 52.132 35.3118 45.0105 24.4723 43.6313 17.2142 49.2815 12.0121 53.33 10.7759 58.1952 10.2707 64.5604 9.21247 65.4501 7.25176 62.3613 6.73378 61.6495 4.56016 58.6528 3.0793 54.8236 1.69695 51.4138 1.7764 50.4445 5.77408 50.7083 6.95305 50.4858 11.6626 49.5992 18.0182 40.5806 20.7002 36.5194 24.0624 31.4317 25.1015 27.1607 24.1037 20.8687 23.6365 17.926 19.8009 17.8498 17.2015 17.7385 12.4189 17.532 6.45731 18.4281 2.38971 21.0721 1.6461 16.9886 3.96273 12.492 6.46366 9.37771 19.4673-6.7878 51.8332-1.52853 53.276 21.0816Z" transform="matrix(1.01335 0 0 1 -154 426.081)"/><path d="M24.9744 47.0061C47.8133 43.6599 48.2963 79.0798 24.8918 75.9878 9.59381 73.9667 9.08853 49.3355 24.9744 47.0061ZM38.9504 56.9177C42.1536 76.4899 13.6392 76.8553 16.4833 56.9177 15.7206 56.9908 15.5808 58.9801 15.5395 59.549 14.1635 77.9294 38.4928 77.5068 39.926 63.3909 40.0595 62.0849 39.9991 59.9589 39.8561 58.6306 39.8052 58.1698 39.6463 56.8319 38.9504 56.9177Z" transform="matrix(1.01335 0 0 1 -154 426.081)"/><path d="M36.9293 19.3052C42.2966 18.6188 54.868 20.2554 55.6784 27.0432 56.0597 30.2178 55.9962 38.1305 55.6148 41.3369 54.7664 48.4298 49.7327 51.1023 43.9745 46.3928 41.5784 44.4321 33.0587 33.1763 32.7219 30.4085 32.563 29.0992 32.509 21.8188 32.8109 20.9195 33.1827 19.8136 35.8139 19.445 36.9293 19.302ZM52.6404 25.0666C49.809 22.108 38.1051 19.9821 35.1307 22.2828 33.4115 23.6143 33.9708 30.9042 34.9337 32.9761 35.8965 35.0481 42.84 43.93 44.7118 45.1757 49.0272 48.0517 52.24 46.4278 53.6223 41.7278 54.582 38.461 54.9856 27.5166 52.6404 25.0634Z" transform="matrix(1.01335 0 0 1 -154 426.081)"/><path d="M13.0449 19.3084C15.2376 19.0923 21.5138 18.8889 22.7277 20.8115 23.5221 22.0731 23.3251 28.9149 22.966 30.6627 22.3718 33.5608 14.0014 44.4194 11.4846 46.4151 6.58442 50.3015 1.43955 49.1671 0.355915 42.7066-0.0603784 40.2183-0.168424 27.987 0.343203 25.718 1.2171 21.8379 9.62558 19.642 13.0449 19.3084ZM10.6393 21.6822C7.92863 22.0476 2.43738 24.2308 1.7764 27.1544 1.30608 29.2358 1.43001 38.5119 1.79228 40.7935 3.20323 49.7136 9.76858 46.717 14.0872 41.8517 18.695 36.656 24.11 29.4774 20.7829 22.2828 19.6039 21.1451 12.5269 21.428 10.6393 21.6822Z" transform="matrix(1.01335 0 0 1 -154 426.081)"/><path d="M36.5512 85.5847C35.7758 85.6991 36.2683 84.8062 35.5025 84.4693 31.8607 82.8709 22.626 83.3222 18.8794 85.1081L18.9397 80.1571C19.7374 77.7991 33.0143 78.2281 35.4103 79.3245 37.5553 80.3064 36.208 83.551 36.5512 85.5847Z" transform="matrix(1.01335 0 0 1 -154 426.081)"/><path d="M68.0909 66.467C61.7671 70.6236 57.5183 78.0851 54.153 84.7871L52.0938 90.8377C48.3885 89.1693 50.6479 85.9089 51.9159 83.0266 53.8003 78.7397 57.3849 73.1246 60.461 69.594 62.2215 67.5729 65.7711 62.8348 68.0941 66.467Z" transform="matrix(1.01335 0 0 1 -154 426.081)"/><path d="M12.1933 76.0291C10.5662 71.9011 6.71471 68.6184 2.86321 66.4766L2.15773 67.4267C4.25826 59.5744 10.4772 66.2065 13.3881 69.8133 15.9526 72.9911 16.2767 74.0747 12.1933 76.0291Z" transform="matrix(1.01335 0 0 1 -154 426.081)"/><path d="M38.9504 56.9177C39.6495 56.8319 39.8084 58.1698 39.8561 58.6306 39.9991 59.9589 40.0595 62.0849 39.926 63.3909 38.4928 77.5068 14.1635 77.9262 15.5395 59.549 15.5808 58.9801 15.7206 56.9908 16.4833 56.9177 13.6392 76.8553 42.1536 76.4899 38.9504 56.9177Z" fill="#FFFFFF" transform="matrix(1.01335 0 0 1 -154 426.081)"/><path d="M52.6404 25.0666C54.9888 27.5198 54.5852 38.4642 53.6223 41.731 52.24 46.431 49.0272 48.0548 44.7118 45.1789 42.84 43.93 35.922 35.1084 34.9337 32.9793 33.9454 30.8502 33.4115 23.6143 35.1307 22.286 38.1019 19.9852 49.809 22.1112 52.6404 25.0697ZM35.8393 23.4713C38.0543 23.198 41.1367 23.4713 43.4851 23.4713 45.2774 23.4713 52.3258 26.7444 52.3258 28.9657L52.3258 41.3878C52.3258 41.6547 51.1468 43.0561 52.3194 43.0561 53.5238 38.979 53.6954 33.2208 53.3046 28.9403 52.7103 22.4544 40.2533 20.6081 35.3658 22.9914 33.5481 25.1396 35.1497 23.5539 35.8425 23.4681Z" fill="#FFFFFF" transform="matrix(1.01335 0 0 1 -154 426.081)"/><path d="M10.6393 21.6822C12.5269 21.428 19.6039 21.1451 20.7829 22.2828 24.11 29.4774 18.695 36.656 14.0872 41.8517 9.77176 46.717 3.20323 49.7168 1.79228 40.7935 1.43001 38.5087 1.30926 29.2327 1.7764 27.1544 2.43738 24.2308 7.92863 22.0508 10.6393 21.6822ZM3.1079 40.9111C2.88863 37.2249 3.1079 33.1795 3.1079 29.4424 3.1079 26.6269 10.0895 23.4681 12.4252 23.4681L19.5912 23.4681C20.0424 23.4681 21.9714 25.2064 20.0679 22.9914 16.21 20.767 6.09822 22.4417 3.31445 25.8292 1.05503 28.578 2.11642 39.4048 3.11107 43.0561 4.36631 42.9576 3.12379 41.2321 3.10472 40.9079Z" fill="#FFFFFF" transform="matrix(1.01335 0 0 1 -154 426.081)"/><path d="M35.8393 23.4713C35.1466 23.5571 33.5449 25.1396 35.3627 22.9946 40.2501 20.6144 52.7071 22.4576 53.3014 28.9435 53.6954 33.224 53.5207 38.9822 52.3163 43.0593 51.1405 43.0593 52.3226 41.6547 52.3226 41.391L52.3226 28.9689C52.3226 26.7476 45.2742 23.4745 43.482 23.4745 41.1336 23.4745 38.0511 23.2012 35.8361 23.4745Z" transform="matrix(1.01335 0 0 1 -154 426.081)"/><path d="M3.1079 40.9111C3.12696 41.2352 4.36949 42.9608 3.11425 43.0593 2.1196 39.4048 1.05821 28.5812 3.31763 25.8324 6.10139 22.448 16.21 20.7702 20.071 22.9946 21.9745 25.2096 20.0456 23.4713 19.5944 23.4713L12.4284 23.4713C10.0927 23.4713 3.11107 26.6269 3.11107 29.4456 3.11107 33.1795 2.89181 37.228 3.11107 40.9143Z" transform="matrix(1.01335 0 0 1 -154 426.081)"/></g></svg>