<svg width="1297" height="386" xmlns="http://www.w3.org/2000/svg" xmlns:xlink="http://www.w3.org/1999/xlink" xml:space="preserve" overflow="hidden"><g transform="translate(-2010 -1446)"><g><g><g><path d="M154.761 1.86263 46.647 0 46.647 13.9697 154.761 14.901 154.761 1.86263ZM154.77 18.6263 48.9891 17.7041 46.7285 19.2322 47.6328 26.0317 111.668 27.7044C113.919 28.8256 114.425 30.7063 114.706 33.0571 116.27 46.2945 114.244 70.5177 112.816 84.3069 108.458 126.46 80.4911 182.637 134.272 204.474 154.653 212.747 181.1 208.081 193.913 230.605 207.602 230.433 226.337 220.948 235.876 211.038 240.198 206.553 231.364 196.49 227.368 193.388 212.051 181.489 186.616 185.513 167.501 173.116 125.122 145.638 147.763 99.6779 152.772 59.975 154.499 46.2673 155.023 32.4514 154.761 18.6354ZM109.091 32.6051 0.587724 30.7244C-1.25682 30.9866 1.92593 42.705 0.976525 44.7213L109.091 45.6525 109.091 32.6141ZM109.1 49.3688 0.976525 48.4374C1.46479 65.9968 3.10137 83.5654 5.79587 100.926 10.1541 128.965 21.3932 162.32 18.5721 190.395 17.4599 201.463 11.4923 213 9.63868 224.321 9.08712 227.702 6.59154 250.506 7.54998 251.492 16.4563 252.576 26.0769 256.663 35.0195 257.107 44.8659 257.595 55.7164 253.689 65.7617 253.58 107.318 253.128 141.768 276.519 181.164 248.562 182.529 247.594 190.612 241.627 190.929 241.093 192.801 237.911 186.525 228.751 184.12 226.382 170.549 213.009 143.36 216.047 125.258 206.038 78.8908 180.395 100.582 134.878 106.179 94.4247 108.232 79.5688 109.109 64.3422 109.109 49.3688ZM236.645 229.972 237.242 214.266C225.84 225.062 211.454 232.666 195.757 234.764 196.589 245.886 199.139 243.345 207.873 240.813 217.63 237.983 226.988 233.136 236.645 229.972ZM189.934 260.606C191.354 259.114 192.294 247.604 191.58 245.009 184.193 251.274 176.263 257.043 167.212 260.705 131.46 275.181 94.1173 255.045 57.371 258.047 51.9729 258.49 45.8245 260.506 40.5801 260.814 29.775 261.456 18.4636 257.36 7.98399 255.226 7.26969 255.262 6.49208 267.333 8.98767 269.132 10.57 270.281 20.9772 273.436 23.5723 274.115 34.5943 276.972 45.9691 277.813 57.3527 276.655 66.9283 275.679 63.5373 273.518 64.8305 265.479 96.251 272.143 127.147 280.887 159.201 272.252 163.224 271.167 188.28 262.333 189.934 260.597Z" fill="#FFFFFF" transform="matrix(1.00737 0 0 1 3068 1500.41)"/><path d="M109.1 49.3688C109.1 64.3422 108.223 79.5688 106.17 94.4247 100.573 134.887 78.8816 180.395 125.248 206.038 143.35 216.047 170.539 213.009 184.111 226.382 186.517 228.751 192.792 237.911 190.92 241.093 190.612 241.627 182.52 247.586 181.155 248.562 141.768 276.519 107.309 253.128 65.7528 253.58 55.7072 253.689 44.8571 257.586 35.0103 257.107 26.0678 256.663 16.4472 252.576 7.54096 251.492 6.59154 250.515 9.07806 227.702 9.62962 224.321 11.4832 213 17.4509 201.472 18.563 190.395 21.3751 162.32 10.145 128.965 5.78681 100.926 3.10137 83.5654 1.46479 65.9968 0.976525 48.4374L109.1 49.3688Z" transform="matrix(1.00737 0 0 1 3068 1500.41)"/><path d="M154.77 18.6263C155.033 32.4424 154.508 46.2585 152.781 59.9659 147.772 99.6688 125.131 145.629 167.51 173.107 186.625 185.504 212.06 181.48 227.377 193.379 231.364 196.481 240.207 206.544 235.885 211.029 226.346 220.939 207.602 230.424 193.922 230.596 181.109 208.072 154.662 212.738 134.281 204.465 80.5002 182.637 108.467 126.451 112.825 84.2977 114.254 70.5089 116.279 46.2856 114.715 33.0483 114.434 30.6973 113.928 28.8256 111.677 27.6953L47.642 26.0226 46.7376 19.2231 48.9979 17.695 154.779 18.6173Z" transform="matrix(1.00737 0 0 1 3068 1500.41)"/><path d="M189.934 260.606C188.28 262.342 163.224 271.176 159.201 272.261 127.147 280.887 96.2602 272.152 64.8305 265.488 63.5373 273.527 66.9283 275.688 57.3527 276.664 45.9691 277.831 34.5943 276.99 23.5723 274.123 20.9682 273.445 10.57 270.29 8.98767 269.141 6.50114 267.342 7.27872 255.271 7.98399 255.235 18.4636 257.36 29.775 261.456 40.5801 260.823 45.8333 260.516 51.9729 258.499 57.371 258.056 94.1081 255.054 131.451 275.181 167.212 260.714 176.263 257.052 184.193 251.274 191.58 245.018 192.294 247.613 191.363 259.123 189.934 260.615Z" transform="matrix(1.00737 0 0 1 3068 1500.41)"/><path d="M109.091 32.6051 109.091 45.6436 0.976525 44.7213C1.92593 42.705-1.25682 30.9957 0.587724 30.7244L109.091 32.6051Z" transform="matrix(1.00737 0 0 1 3068 1500.41)"/><path d="M154.761 1.86263 154.761 14.901 46.647 13.9697 46.647 0 154.761 1.86263Z" transform="matrix(1.00737 0 0 1 3068 1500.41)"/><path d="M236.645 229.972C226.988 233.136 217.639 237.983 207.873 240.813 199.13 243.345 196.589 245.886 195.757 234.764 211.454 232.666 225.84 225.071 237.242 214.266L236.645 229.972Z" transform="matrix(1.00737 0 0 1 3068 1500.41)"/></g></g></g><g><g><g><g><path d="M201.395 79.693C184.577 70.6114 163.566 66.2147 144.43 66.9836 133.138 67.4398 119.828 67.5479 118.29 80.5579 113.401 121.87 131.792 145.259 158.112 174.462 171.05 188.829 181.261 194.055 201.419 193.478 204.686 199.713 187.652 224.639 188.781 225.985L204.098 215.726 242.947 241.361 221.324 264.87C205.719 285.989 190.739 308.525 184.252 334.353L143.469 307.9C147.746 284.656 159.374 264.474 171.867 244.965 166.738 226.646 168.047 212.687 155.362 197.07 133.486 170.149 92.5106 164.936 65.0734 186.295 45.4083 201.599 40.7352 219.99 38.8255 244.052 34.8251 247.416 27.4132 235.739 25.4551 233.048 17.2384 221.72 11.6404 207.245 6.41484 194.355 6.71518 190.691 21.8273 191.688 26.284 190.847 44.0872 187.496 68.1127 153.403 78.2512 138.051 90.9611 118.819 94.8891 102.673 91.1172 78.8882 89.3511 67.7642 74.8517 67.4761 65.0254 67.0554 46.9461 66.2748 24.41 69.6622 9.03362 79.6571 6.22262 64.2206 14.98 47.2225 24.434 35.4498 73.5906-25.6594 195.941-5.77817 201.395 79.693Z" transform="matrix(1.09169 0 0 1 2010 1467.31)"/><path d="M94.4086 177.693C180.745 165.044 182.57 298.939 94.0964 287.25 36.2667 279.61 34.3566 186.499 94.4086 177.693ZM147.241 215.161C159.35 289.148 51.5591 290.53 62.3104 215.161 59.4273 215.438 58.8988 222.958 58.7427 225.108 53.5411 294.59 145.511 292.993 150.929 239.631 151.434 234.694 151.205 226.658 150.665 221.636 150.472 219.894 149.872 214.837 147.241 215.161Z" transform="matrix(1.09169 0 0 1 2010 1467.31)"/><path d="M139.601 72.9778C159.89 70.3831 207.413 76.5698 210.476 102.229 211.918 114.23 211.678 144.142 210.236 156.262 207.029 183.075 188 193.178 166.233 175.375 157.175 167.963 124.969 125.414 123.696 114.951 123.095 110.001 122.891 82.4798 124.032 79.0802 125.438 74.8997 135.384 73.5063 139.601 72.9657ZM198.992 94.7572C188.289 83.573 144.046 75.5367 132.802 84.2338 126.303 89.2672 128.417 116.825 132.057 124.657 135.697 132.489 161.944 166.065 169.02 170.774 185.333 181.646 197.479 175.507 202.704 157.74 206.332 145.391 207.857 104.019 198.992 94.7451Z" transform="matrix(1.09169 0 0 1 2010 1467.31)"/><path d="M49.3126 72.9899C57.6014 72.173 81.3268 71.4041 85.9156 78.672 88.9186 83.4411 88.1739 109.305 86.8165 115.912 84.5703 126.867 52.9283 167.915 43.4143 175.459 24.8905 190.151 5.44181 185.862 1.34544 161.44-0.228243 152.034-0.636679 105.797 1.29738 97.2196 4.6009 82.552 36.3868 74.251 49.3126 72.9899ZM40.2189 81.9634C29.9719 83.3447 9.21383 91.5977 6.71518 102.65 4.93727 110.518 5.40575 145.583 6.77521 154.208 12.1089 187.928 36.9274 176.6 53.2527 158.209 70.6712 138.568 91.141 111.431 78.5639 84.2338 74.107 79.9331 47.3544 81.0025 40.2189 81.9634Z" transform="matrix(1.09169 0 0 1 2010 1467.31)"/><path d="M138.171 323.529C135.24 323.961 137.102 320.586 134.207 319.312 120.44 313.27 85.5312 314.976 71.3682 321.727L71.5962 303.011C74.6117 294.097 124.801 295.719 133.859 299.864 141.967 303.576 136.874 315.841 138.171 323.529Z" transform="matrix(1.09169 0 0 1 2010 1467.31)"/><path d="M257.398 251.26C233.493 266.973 217.432 295.179 204.71 320.514L196.926 343.386C182.919 337.079 191.46 324.754 196.253 313.859 203.377 297.653 216.927 276.427 228.556 263.08 235.211 255.44 248.629 237.529 257.41 251.26Z" transform="matrix(1.09169 0 0 1 2010 1467.31)"/><path d="M46.0933 287.406C39.9425 271.802 25.3831 259.392 10.8236 251.296L8.15669 254.888C16.0971 225.204 39.6061 250.275 50.6099 263.909 60.3043 275.922 61.5295 280.018 46.0933 287.406Z" transform="matrix(1.09169 0 0 1 2010 1467.31)"/><path d="M147.241 215.161C149.884 214.837 150.484 219.894 150.665 221.636 151.205 226.658 151.434 234.694 150.929 239.631 145.511 292.993 53.5411 294.578 58.7427 225.108 58.8988 222.958 59.4273 215.438 62.3104 215.161 51.5591 290.53 159.35 289.148 147.241 215.161Z" fill="#FFFFFF" transform="matrix(1.09169 0 0 1 2010 1467.31)"/><path d="M198.992 94.7572C207.87 104.031 206.344 145.403 202.704 157.752 197.479 175.519 185.333 181.658 169.02 170.786 161.944 166.065 135.793 132.717 132.057 124.669 128.321 116.62 126.303 89.2672 132.802 84.2459 144.033 75.5484 188.289 83.5851 198.992 94.7689ZM135.48 88.7266C143.854 87.6935 155.506 88.7266 164.383 88.7266 171.158 88.7266 197.803 101.1 197.803 109.497L197.803 156.455C197.803 157.464 193.346 162.761 197.779 162.761 202.332 147.349 202.98 125.582 201.503 109.401 199.256 84.8825 152.166 77.9031 133.69 86.9125 126.819 95.0331 132.873 89.0388 135.492 88.7145Z" fill="#FFFFFF" transform="matrix(1.09169 0 0 1 2010 1467.31)"/><path d="M40.2189 81.9634C47.3544 81.0025 74.107 79.9331 78.5639 84.2338 91.141 111.431 70.6712 138.568 53.2527 158.209 36.9394 176.6 12.1089 187.94 6.77521 154.208 5.40575 145.571 4.94929 110.506 6.71518 102.65 9.21383 91.5977 29.9719 83.3568 40.2189 81.9634ZM11.7485 154.653C10.9196 140.718 11.7485 125.426 11.7485 111.299 11.7485 100.655 38.1405 88.7145 46.97 88.7145L74.059 88.7145C75.7646 88.7145 83.0567 95.2857 75.861 86.9125 61.2773 78.5038 23.0526 84.8345 12.5293 97.64 3.98824 108.031 8.00053 148.959 11.7605 162.761 16.5056 162.389 11.8086 155.866 11.7365 154.641Z" fill="#FFFFFF" transform="matrix(1.09169 0 0 1 2010 1467.31)"/><path d="M135.48 88.7266C132.862 89.0509 126.807 95.0331 133.679 86.9246 152.154 77.9269 199.244 84.8946 201.491 109.413 202.98 125.594 202.32 147.361 197.767 162.773 193.322 162.773 197.791 157.464 197.791 156.467L197.791 109.509C197.791 101.112 171.146 88.7387 164.371 88.7387 155.494 88.7387 143.841 87.7056 135.468 88.7387Z" transform="matrix(1.09169 0 0 1 2010 1467.31)"/><path d="M11.7485 154.653C11.8206 155.878 16.5176 162.401 11.7725 162.773 8.01255 148.959 4.00026 108.043 12.5414 97.6521 23.0646 84.8583 61.2773 78.5159 75.8727 86.9246 83.0684 95.2978 75.7767 88.7266 74.0711 88.7266L46.982 88.7266C38.1526 88.7266 11.7605 100.655 11.7605 111.311 11.7605 125.426 10.9317 140.73 11.7605 154.665Z" transform="matrix(1.09169 0 0 1 2010 1467.31)"/></g></g></g></g><g><g><g><path d="M77.4891 19.8391 81.7861 19.822C81.7861 19.822 81.7861 17.2388 82.7665 19.2764 83.4145 21.2544 86.1342 20.6746 87.7966 20.6916 87.7966 20.6916 87.7711 20.1631 88.726 21.4675L92.1021 22.0558 93.2104 22.8657 95.9726 25.7388C95.9726 25.7388 100.815 32.0307 98.9311 37.4871L98.9311 39.2689C100.005 42.952 96.5441 47.1296 99.8349 49.5849L99.8179 52.1682C94.7109 56.3883 93.7135 61.1967 96.3907 67.25 91.5565 67.949 87.7116 65.0844 87.8735 60.0118 87.933 58.0851 89.6383 55.2801 89.5529 53.95 89.5189 53.4469 87.9674 53.5493 87.8136 52.8842 87.1744 50.1731 88.0354 47.317 86.6883 43.8044 85.3413 40.2922 81.3684 33.9915 77.6085 37.6235 72.2546 42.79 73.7465 47.1891 72.3311 52.8757 72.1607 53.5748 70.6006 53.4642 70.5748 53.9415 70.5153 55.1181 72.1692 57.3772 72.3141 59.159 72.8002 65.2634 68.8188 66.9516 63.7629 68.1195 66.44 61.8362 65.724 56.6016 60.3357 52.1682L60.3187 50.0027C62.6801 47.4449 61.4354 43.6939 61.2055 40.0534 61.0691 37.7939 61.231 37.4871 61.231 37.4871 59.3468 32.0307 64.1895 25.7388 64.1895 25.7388L66.7982 23.292 68.0514 22.0558 72.3569 21.5442 72.7832 19.8306C77.3017 23.471 77.5064 19.8306 77.5064 19.8306Z" fill="#FFFFFF" transform="matrix(1.00944 0 0 1 2414 1446.1)"/><g><path d="M48.5362 179.899 51.0939 179.899 51.0939 182.559 48.5362 182.559Z" transform="matrix(1.00934 -0.0136131 0.0137416 0.999906 2411.5 1446.8)"/><path d="M52.1597 179.848 54.7174 179.848 54.7174 182.508 52.1597 182.508Z" transform="matrix(1.00934 -0.0136131 0.0137416 0.999906 2411.51 1446.85)"/><path d="M55.7832 179.805 58.3409 179.805 58.3409 182.465 55.7832 182.465Z" transform="matrix(1.00934 -0.0136131 0.0137416 0.999906 2411.51 1446.91)"/><path d="M59.4067 179.754 61.9641 179.754 61.9641 182.414 59.4067 182.414Z" transform="matrix(1.00934 -0.0136131 0.0137416 0.999906 2411.51 1446.95)"/><path d="M48.5876 183.625 51.1453 183.625 51.1453 186.285 48.5876 186.285Z" transform="matrix(1.00934 -0.0136131 0.0137416 0.999906 2411.45 1446.8)"/><path d="M52.2111 183.574 54.7685 183.574 54.7685 186.234 52.2111 186.234Z" transform="matrix(1.00934 -0.0136131 0.0137416 0.999906 2411.45 1446.85)"/><path d="M55.8342 183.523 58.392 183.523 58.392 186.182 55.8342 186.182Z" transform="matrix(1.00934 -0.0136131 0.0137416 0.999906 2411.45 1446.91)"/><path d="M48.6386 187.351 51.1963 187.351 51.1963 190.01 48.6386 190.01Z" transform="matrix(1.00934 -0.0136131 0.0137416 0.999906 2411.4 1446.8)"/><path d="M52.2621 187.3 54.8198 187.3 54.8198 189.959 52.2621 189.959Z" transform="matrix(1.00934 -0.0136131 0.0137416 0.999906 2411.4 1446.85)"/><path d="M55.8856 187.248 58.443 187.248 58.443 189.908 55.8856 189.908Z" transform="matrix(1.00934 -0.0136131 0.0137416 0.999906 2411.4 1446.91)"/><path d="M48.6899 191.076 51.2474 191.076 51.2474 193.736 48.6899 193.736Z" transform="matrix(1.00934 -0.0136131 0.0137416 0.999906 2411.35 1446.8)"/><path d="M52.3131 191.025 54.8709 191.025 54.8709 193.685 52.3131 193.685Z" transform="matrix(1.00934 -0.0136131 0.0137416 0.999906 2411.35 1446.85)"/><path d="M55.9366 190.974 58.4944 190.974 58.4944 193.634 55.9366 193.634Z" transform="matrix(1.00934 -0.0136131 0.0137416 0.999906 2411.35 1446.91)"/></g><path d="M47.2575 195.748 60.1482 195.748 60.1482 187.12C60.1482 187.12 123.732 187.12 123.732 187.12 124.363 211.069 125.002 235.111 124.619 259.161 124.585 261.199 123.724 263.083 123.689 265.129 123.187 294.338 123.63 323.64 120.288 352.696 110.262 350.324 100.585 350.131 90.7125 353.481 89.1692 353.078 88.1293 343.965 87.7881 341.773 82.11 305.592 83.3975 267.951 81.6667 231.504 81.4878 227.77 80.0897 223.882 80.7632 219.901 79.2114 220.225 79.1604 221.589 79.0154 222.885 74.9402 260.005 77.6769 298.848 72.9281 336.634 72.6039 339.225 70.9075 353.003 69.1087 353.471 59.2359 350.148 49.5679 350.318 39.5247 352.696 35.6628 320.495 37.6065 287.927 35.1937 255.717L36.0805 187.12 46.4475 187.504 47.249 195.748Z" transform="matrix(1.00944 0 0 1 2414 1446.1)"/><path d="M141.764 211.273C138.43 212.518 138.899 223.32 135.335 222.484 131.772 221.649 134.133 208.758 134.031 205.689 133.673 194.512 129.359 181.34 128.865 169.89L124.934 175.781C120.501 174.698 116.912 175.508 112.555 173.76 110.577 172.967 103.313 167.272 102.708 165.618 102.248 164.374 103.714 161.535 102.964 159.25 100.713 152.438 86.1512 163.001 100.96 167.289L110.824 175.917 59.2699 175.934 58.3236 164.817 48.11 164.715C48.1698 158.568 47.965 152.267 47.249 146.163 47.0956 144.875 46.5669 143.52 45.5352 144.893 45.6376 152.293 48.1613 160.844 45.4842 167.69L46.3877 175.926 36.933 175.926C36.933 175.926 51.5542 98.1126 51.5542 98.1126 52.1852 96.7315 55.0072 96.5012 56.2689 96.5271 63.4561 96.672 72.7577 99.1869 79.5097 99.2209 84.7191 99.2467 90.7466 96.5526 96.2199 97.4734 95.3844 99.093 93.3894 98.3854 91.5565 100.108 83.2271 107.934 94.5915 120.816 103.543 113.859 108.053 110.355 107.585 101.975 102.725 99.1358 101.105 98.1895 98.9311 98.9226 98.8117 97.4734 101.992 96.9363 105.069 95.7511 108.079 97.6524L122.871 174.204C126.648 173.999 126.511 168.961 126.298 166.028 125.949 161.202 122.811 157.468 122.88 152.651L126.315 160.401C127.841 160.546 127.228 157.493 127.151 156.539 126.486 147.783 123.672 139.095 123.715 130.229L121.157 141.431C120.825 135.335 119.034 129.461 117.986 123.485 116.835 116.903 114.311 105.751 114.252 99.5706 114.226 96.757 115.744 94.0887 115.13 91.0109 114.746 89.0927 112.939 88.581 112.572 86.6713 112.163 84.5653 111.097 69.6458 111.702 69.0063 130.502 71.8794 139.905 88.1973 145.072 104.967L140.136 109.247C139.462 111.37 141.355 113.399 141.5 115.241 141.687 117.636 140.596 118.796 141.5 122.308 143.46 129.939 150.383 128.779 151.091 130.791 151.952 139.675 153.759 148.525 154.654 157.391 155.592 166.676 157.246 181.143 156.266 190.044 155.891 193.463 154.058 196.745 153.759 199.618 153.06 206.465 156.3 210.625 153.103 218.775 151.901 221.836 144.816 231.231 141.38 230.234 137.322 229.057 143.452 214.683 141.755 211.273Z" transform="matrix(1.00944 0 0 1 2414 1446.1)"/><path d="M48.9709 68.9893 38.6553 141.414 37.8368 134.057 36.0975 131.073 25.7644 205.697C25.5939 210.523 27.9896 215.553 25.8496 220.395 22.7634 227.37 21.0242 215.434 19.984 213.157 19.4213 211.921 20.487 210.813 18.0402 211.273 15.832 217.778 24.315 226.218 17.631 230.277 10.5377 227.02 5.56723 219.492 5.14946 211.682 4.92781 207.462 6.488 203.745 6.02761 199.61 5.33703 193.318 1.67102 186.276 3.38466 178.91L8.70465 130.791 9.40374 129.768C21.0497 128.259 18.296 117.926 19.66 109.247L14.7237 104.959C20.1119 88.2058 29.5924 70.8735 48.9539 69.0063Z" transform="matrix(1.00944 0 0 1 2414 1446.1)"/><path d="M104.234 67.0367C104.37 67.267 105.53 67.2245 105.675 67.8466 106.221 70.234 107.44 85.094 107.32 87.5751 107.269 88.6919 105.3 91.7868 104.268 92.1277 103.45 92.4005 94.9667 93.0995 93.2703 93.1679 89.0073 93.3298 84.7361 92.3409 81.1126 92.3579 72.7063 92.392 65.2464 93.7901 56.4394 92.0766 50.4119 90.9085 53.6772 79.9618 54.1289 75.4515 54.3592 73.1584 53.8306 70.6772 54.0779 68.5117 54.2742 66.7812 56.4309 67.2415 56.3628 65.127 56.2859 62.8424 54.6405 60.8473 54.9562 57.3517 55.2375 54.2912 57.2922 53.2424 57.6245 50.4888 58.0082 47.3255 56.7465 44.7423 56.6782 41.8692 56.3713 28.5011 56.6867 11.9785 71.7089 6.86311 87.3874 1.52608 101.139 11.0066 103.023 27.2649 103.91 34.8954 101.787 42.9009 102.179 49.6189 102.376 53.0805 104.345 53.8306 104.788 56.5333 105.308 59.6791 103.356 65.5022 104.234 67.0455ZM77.3272 19.8391C77.3272 19.8391 77.1227 23.471 72.6039 19.8391L72.1777 21.5527 67.8725 22.0643 66.619 23.3005 64.0102 25.7473C64.0102 25.7473 59.1679 32.0392 61.0517 37.4956 61.0517 37.4956 60.8898 37.8025 61.0262 40.0619 61.2565 43.7024 64.4279 50.0282 64.4279 50.0282 64.4279 50.0282 66.2611 61.8447 63.584 68.128 68.6396 66.9687 72.6298 65.2719 72.1352 59.1679 71.9902 57.3857 70.3363 55.1266 70.3959 53.95 70.4214 53.4727 71.9732 53.5833 72.1522 52.8842 73.5676 47.1976 72.0756 42.7985 77.4296 37.632 81.1895 34 85.1453 40.2836 86.5094 43.8133 87.8735 47.3425 86.9952 50.1816 87.6347 52.8927 87.7966 53.5578 89.34 53.4554 89.374 53.9585 89.4594 55.2886 87.7541 58.0936 87.6945 60.0203 87.5323 65.093 91.3861 67.9575 96.2114 67.2585 93.5346 61.1967 94.5235 56.3968 99.6386 52.1767L99.656 49.5934C96.3563 47.1381 99.8264 42.9605 98.7436 39.2774L98.7436 37.4956C100.636 32.0392 95.7937 25.7473 95.7937 25.7473L93.0315 22.8742 91.9232 22.0643 88.547 21.476C87.5837 20.1716 87.6177 20.7002 87.6177 20.7002 85.9553 20.6916 83.2356 21.2714 82.5876 19.2849 81.5987 17.2388 81.6072 19.8306 81.6072 19.8306L77.3102 19.8476ZM78.8277 48.4253C72.2716 49.5849 73.4397 60.8218 81.1551 59.5087 87.8136 58.3749 86.2706 47.1126 78.8277 48.4253ZM78.7937 61.3331C71.9902 63.3367 78.8447 74.2408 83.2526 67.5823 85.5205 64.1551 82.0334 60.3782 78.7937 61.3331Z" transform="matrix(1.00944 0 0 1 2414 1446.1)"/><path d="M106.391 358.093C109.469 357.939 112.223 358.247 115.147 359.14 123.161 361.587 143.853 380.933 125.872 382.869 108.105 384.776 107.482 370.965 92.7757 366.935 87.7966 359.398 101.335 358.348 106.382 358.1Z" transform="matrix(1.00944 0 0 1 2414 1446.1)"/><path d="M49.6618 358.077C52.5604 357.854 64.2065 359.235 66.4485 360.583 67.4888 361.204 67.6592 361.358 67.898 362.604 69.0233 368.535 63.8653 367.154 60.1823 369.542 52.5005 374.511 51.0344 381.973 39.1325 382.902 12.8907 384.94 35.7648 359.133 49.6618 358.077Z" transform="matrix(1.00944 0 0 1 2414 1446.1)"/><path d="M103.714 111.864C97.3455 119.316 85.5205 109.725 92.3154 101.702 98.8375 94.0033 110.066 104.439 103.714 111.864ZM97.0982 103.484 92.8097 105.214 93.884 106.059 94.532 108.642 96.2284 106.067 96.2454 112.095 103.1 106.042C101.975 104.157 100.261 102.87 97.9592 103.484L99.673 105.189 96.2369 105.189C96.2369 105.189 97.1067 103.484 97.1067 103.484Z" transform="matrix(1.00944 0 0 1 2414 1446.1)"/><path d="M17.1876 109.52C15.0392 115.872 19.2252 126.716 9.44636 126.759L13.7518 108.65 17.1876 109.528Z" transform="matrix(1.00944 0 0 1 2414 1446.1)"/><path d="M150.358 126.759C141.252 126.418 144.356 116.869 142.915 110.756L145.643 108.676 150.358 126.759Z" transform="matrix(1.00944 0 0 1 2414 1446.1)"/><path d="M48.127 176.77 48.0759 170.282 57.1643 169.839C59.5257 178.373 54.5725 176.898 48.127 176.778Z" transform="matrix(1.00944 0 0 1 2414 1446.1)"/><path d="M78.8277 48.4253C86.2706 47.1126 87.8051 58.3749 81.1551 59.5087 73.4397 60.8218 72.2716 49.5849 78.8277 48.4253Z" fill="#FFFFFF" transform="matrix(1.00944 0 0 1 2414 1446.1)"/><path d="M78.7937 61.3331C82.0334 60.3782 85.5205 64.1551 83.2526 67.5823 78.8447 74.2408 71.9902 63.3367 78.7937 61.3331Z" fill="#FFFFFF" transform="matrix(1.00944 0 0 1 2414 1446.1)"/><path d="M97.0982 103.484 96.2284 105.197 99.6645 105.197C99.6645 105.197 97.9507 103.492 97.9507 103.492 100.253 102.887 101.966 104.174 103.092 106.05L96.2369 112.103 96.2199 106.076 94.5235 108.65 93.8755 106.067 92.8012 105.223 97.0897 103.492Z" fill="#FFFFFF" transform="matrix(1.00944 0 0 1 2414 1446.1)"/></g></g></g><g><g><g><path d="M157.077 254.216C155.716 260.858 148.356 262.55 144.738 256.458 144.682 260.921 139.331 262.36 135.727 261.253 133.894 260.689 133.655 259.032 132.4 258.143 132.111 263.086 127.302 265.427 122.832 264.059 120.999 263.495 120.759 261.838 119.504 260.95 118.904 267.725 110.098 270.115 106.883 263.756 104.69 268.79 99.9518 271.54 95.0799 267.697 94.3818 267.147 94.5862 265.934 93.7119 265.998 92.9011 270.623 88.8047 273.345 84.1441 271.906 82.3109 271.342 82.0712 269.685 80.8162 268.797 80.1885 273.585 75.8735 276.13 71.248 274.713 69.4149 274.149 69.1754 272.492 67.9201 271.603 66.8554 278.217 59.4382 280.487 55.2923 274.974 53.1699 281.185 46.0838 283.632 42.2413 277.357L33.5406 214.838 0 58.7683C0.64162 44.5891 20.0736 40.8523 25.3828 54.1782 25.9469 55.5953 26.1796 57.1255 26.5744 58.5921 30.41 72.7077 32.4971 87.9657 35.9306 102.236L40.9791 101.108 24.7835 26.7366C22.9715 12.6068 39.7735 5.85216 48.5093 17.0276 54.3334 36.0646 58.028 56.3357 61.4758 75.8876 58.7824 79.836 58.6343 83.848 58.9233 88.4945 67.4195 114.667 78.6728 139.944 88.1983 165.771 91.3641 169.261 94.7274 166.406 93.557 162.098 85.8151 139.253 74.0404 116.387 66.7568 93.5498 66.1999 91.8011 65.3325 89.6577 65.1494 87.874 63.8377 75.3094 77.6009 68.6604 86.9715 76.7056 100.403 98.1822 111.607 121.153 124.277 143.152 125.962 145.585 129.974 143.991 130.136 141.171L101.828 88.7693 86.4425 16.6187C86.7458 6.53606 96.4689-0.0846093 105.86 4.53366 110.768 6.94502 111.776 11.0486 113.045 15.8572 127.718 71.4596 136.045 130.327 150.153 186.253 155.568 207.702 163.952 228.756 169.938 250.077 169.818 257.65 161.914 259.843 157.07 254.216Z" transform="matrix(1.00199 0 0 1 2695 1497.2)"/><path d="M153.143 87.0842 158.156 88.1911 183.708 9.70189C190.096-2.92607 208.259 1.36785 208.675 15.5611L182.862 96.6238 187.903 97.752 211.446 24.5438C218.476 10.7101 238.338 16.9078 236.138 32.4125L212.581 106.157 217.34 106.742 231.773 62.2584C238.359 48.03 258.355 52.479 257.438 68.2939 236.194 139.105 208.922 208.167 194.059 280.84 191.351 287.468 181.304 284.626 181.727 277.773 177.024 282.884 169.057 280.445 169.388 273.288 168.401 273.634 168.556 274.677 167.358 275.46 162.69 278.513 156.612 274.685 157.049 269.361 154.631 272.33 151.423 273.62 147.883 271.519 147.312 271.18 145.408 269.481 145.324 269.002 144.837 266.237 152.234 267.295 153.919 267.07 156.556 266.71 158.015 264.785 159.707 264.418 161.547 264.017 162.824 264.891 164.544 264.842 168.26 264.729 173.886 261.986 176.121 258.989 179.231 254.822 177.489 251.494 176.277 247.066 170.834 227.162 162.746 207.829 157.55 187.84 147.432 148.941 141.305 108.039 131.8 68.8861 138.696 50.4837 142.849 29.0704 150.323 11.0909 157.183-5.40796 178.674 2.00947 175.318 18.7057L153.136 87.0914Z" transform="matrix(1.00199 0 0 1 2695 1497.2)"/><path d="M93.1337 73.6312C88.6917 69.14 82.5576 66.2491 76.092 66.9612 72.2072 67.3914 69.1823 69.542 65.664 70.8251L53.8611 13.9183C53.2547-0.627521 72.4326-5.36563 78.8418 7.45268L93.1337 73.6312Z" transform="matrix(1.00199 0 0 1 2695 1497.2)"/></g></g></g></g></svg>