<svg width="53" height="118" xmlns="http://www.w3.org/2000/svg" xmlns:xlink="http://www.w3.org/1999/xlink" xml:space="preserve" overflow="hidden"><defs><clipPath id="clip0"><rect x="-235" y="470" width="5" height="6"/></clipPath></defs><g transform="translate(249 -416)"><path d="M23.6884 6.0648 25.002 6.05959C25.002 6.05959 25.002 5.26989 25.3017 5.89279 25.4998 6.49745 26.3312 6.32022 26.8394 6.32543 26.8394 6.32543 26.8316 6.16384 27.1235 6.5626L28.1556 6.74244 28.4944 6.99003 29.3388 7.86835C29.3388 7.86835 30.8192 9.79178 30.2432 11.4598L30.2432 12.0045C30.5716 13.1304 29.5135 14.4075 30.5195 15.1581L30.5143 15.9478C28.9531 17.2379 28.6482 18.7078 29.4666 20.5583 27.9888 20.772 26.8134 19.8963 26.8629 18.3456 26.8811 17.7566 27.4024 16.8991 27.3763 16.4925 27.3659 16.3387 26.8916 16.37 26.8446 16.1667 26.6492 15.3379 26.9124 14.4648 26.5006 13.391 26.0888 12.3173 24.8743 10.3912 23.7249 11.5015 22.0882 13.0809 22.5443 14.4257 22.1116 16.1641 22.0595 16.3778 21.5826 16.344 21.5747 16.4899 21.5565 16.8496 22.0621 17.5402 22.1064 18.0849 22.255 19.951 21.0379 20.4671 19.4923 20.8241 20.3107 18.9033 20.0918 17.3031 18.4446 15.9478L18.4394 15.2858C19.1613 14.5039 18.7808 13.3572 18.7105 12.2443 18.6688 11.5536 18.7183 11.4598 18.7183 11.4598 18.1423 9.79178 19.6227 7.86835 19.6227 7.86835L20.4202 7.12035 20.8033 6.74244 22.1195 6.58606 22.2498 6.0622C23.6311 7.17508 23.6937 6.0622 23.6937 6.0622Z" fill="#FFFFFF" transform="matrix(1.00726 0 0 1 -249 416.032)"/><g clip-path="url(#clip0)"><path d="M14.8375 54.9951 15.6194 54.9951 15.6194 55.8083 14.8375 55.8083Z" transform="matrix(1.00716 -0.0136131 0.0137119 0.999906 -249.764 416.245)"/><path d="M15.9452 54.9795 16.7271 54.9795 16.7271 55.7926 15.9452 55.7926Z" transform="matrix(1.00716 -0.0136131 0.0137119 0.999906 -249.761 416.261)"/><path d="M17.0529 54.9664 17.8348 54.9664 17.8348 55.7796 17.0529 55.7796Z" transform="matrix(1.00716 -0.0136131 0.0137119 0.999906 -249.761 416.277)"/><path d="M18.1606 54.9508 18.9424 54.9508 18.9424 55.764 18.1606 55.764Z" transform="matrix(1.00716 -0.0136131 0.0137119 0.999906 -249.761 416.29)"/><path d="M14.8532 56.134 15.6351 56.134 15.6351 56.9472 14.8532 56.9472Z" transform="matrix(1.00716 -0.0136131 0.0137119 0.999906 -249.777 416.245)"/><path d="M15.9609 56.1184 16.7427 56.1184 16.7427 56.9316 15.9609 56.9316Z" transform="matrix(1.00716 -0.0136131 0.0137119 0.999906 -249.777 416.261)"/><path d="M17.0685 56.1028 17.8504 56.1028 17.8504 56.9159 17.0685 56.9159Z" transform="matrix(1.00716 -0.0136131 0.0137119 0.999906 -249.777 416.277)"/><path d="M14.8688 57.273 15.6507 57.273 15.6507 58.0861 14.8688 58.0861Z" transform="matrix(1.00716 -0.0136131 0.0137119 0.999906 -249.793 416.245)"/><path d="M15.9765 57.2574 16.7584 57.2574 16.7584 58.0705 15.9765 58.0705Z" transform="matrix(1.00716 -0.0136131 0.0137119 0.999906 -249.793 416.261)"/><path d="M17.0842 57.2417 17.866 57.2417 17.866 58.0549 17.0842 58.0549Z" transform="matrix(1.00716 -0.0136131 0.0137119 0.999906 -249.793 416.277)"/><path d="M14.8845 58.4119 15.6663 58.4119 15.6663 59.2251 14.8845 59.2251Z" transform="matrix(1.00716 -0.0136131 0.0137119 0.999906 -249.809 416.245)"/><path d="M15.9921 58.3963 16.774 58.3963 16.774 59.2094 15.9921 59.2094Z" transform="matrix(1.00716 -0.0136131 0.0137119 0.999906 -249.809 416.261)"/><path d="M17.0998 58.3807 17.8817 58.3807 17.8817 59.1938 17.0998 59.1938Z" transform="matrix(1.00716 -0.0136131 0.0137119 0.999906 -249.809 416.277)"/></g><path d="M14.4466 59.8401 18.3873 59.8401 18.3873 57.2025C18.3873 57.2025 37.8249 57.2025 37.8249 57.2025 38.0177 64.5236 38.2132 71.8733 38.0959 79.2256 38.0855 79.8485 37.8223 80.4245 37.8118 81.05 37.6581 89.9791 37.7936 98.9368 36.7719 107.819 33.707 107.094 30.7488 107.035 27.7308 108.059 27.259 107.936 26.9411 105.15 26.8368 104.48 25.101 93.4193 25.4946 81.9126 24.9655 70.7708 24.9108 69.6293 24.4834 68.4408 24.6893 67.2237 24.2149 67.3227 24.1993 67.7397 24.155 68.1359 22.9092 79.4836 23.7458 91.3578 22.2941 102.909 22.195 103.701 21.6764 107.913 21.1265 108.056 18.1084 107.04 15.1529 107.092 12.0827 107.819 10.9021 97.9751 11.4963 88.0191 10.7587 78.1726L11.0298 57.2025 14.199 57.3198 14.444 59.8401Z" transform="matrix(1.00726 0 0 1 -249 416.032)"/><path d="M43.3372 64.5861C42.3181 64.9666 42.4614 68.2688 41.372 68.0134 40.2826 67.758 41.0045 63.8173 40.9733 62.879 40.8638 59.4622 39.545 55.4355 39.3939 51.9353L38.1924 53.7362C36.8371 53.4052 35.7399 53.6528 34.4081 53.1185 33.8034 52.8761 31.5828 51.1351 31.3978 50.6295 31.2571 50.249 31.7053 49.3811 31.476 48.6826 30.7879 46.6002 26.3364 49.8294 30.8635 51.1403L33.879 53.7779 18.1188 53.7831 17.8295 50.3845 14.7072 50.3532C14.7255 48.4741 14.6629 46.5481 14.444 44.682 14.3971 44.2884 14.2355 43.874 13.9201 44.2937 13.9514 46.5559 14.7229 49.17 13.9045 51.2628L14.1807 53.7805 11.2904 53.7805C11.2904 53.7805 15.7601 29.993 15.7601 29.993 15.953 29.5708 16.8157 29.5004 17.2014 29.5083 19.3985 29.5526 22.242 30.3214 24.3061 30.3318 25.8986 30.3397 27.7412 29.5161 29.4144 29.7976 29.159 30.2927 28.5491 30.0764 27.9888 30.6029 25.4425 32.9954 28.9166 36.9335 31.6532 34.8068 33.0319 33.7356 32.8886 31.1737 31.403 30.3058 30.9078 30.0165 30.2432 30.2406 30.2067 29.7976 31.1789 29.6334 32.1197 29.2711 33.0398 29.8523L37.5616 53.254C38.7162 53.1915 38.6745 51.6512 38.6094 50.7546 38.5025 49.2795 37.5434 48.1379 37.5643 46.6654L38.6146 49.0345C39.0811 49.0788 38.8935 48.1457 38.87 47.8538 38.6667 45.1772 37.8066 42.5214 37.8197 39.8109L37.0378 43.2355C36.9361 41.372 36.3888 39.5763 36.0682 37.7493 35.7164 35.7373 34.9449 32.3282 34.9267 30.4387 34.9189 29.5786 35.3828 28.7629 35.1951 27.822 35.0779 27.2356 34.5253 27.0792 34.4133 26.4954 34.2882 25.8516 33.9624 21.2907 34.1474 21.0952 39.8943 21.9735 42.769 26.9619 44.3484 32.0885L42.8394 33.3968C42.6335 34.0458 43.2121 34.6661 43.2564 35.229 43.3137 35.9614 42.9801 36.3158 43.2564 37.3896 43.8558 39.7222 45.9721 39.3678 46.1884 39.9829 46.4516 42.6986 47.0042 45.4039 47.2778 48.1145 47.5645 50.9527 48.0701 55.3755 47.7704 58.0965 47.6558 59.1416 47.0954 60.145 47.0042 61.0233 46.7905 63.1162 47.7809 64.388 46.8035 66.8796 46.436 67.8153 44.2702 70.6874 43.2199 70.3825 41.9793 70.0228 43.8532 65.6286 43.3345 64.5861Z" transform="matrix(1.00726 0 0 1 -249 416.032)"/><path d="M14.9704 21.09 11.8169 43.2303 11.5667 40.9811 11.035 40.0689 7.87616 62.8816C7.82404 64.3568 8.5564 65.8945 7.90223 67.3748 6.95876 69.5068 6.42708 65.858 6.10911 65.1621 5.9371 64.7842 6.26288 64.4454 5.51488 64.5861 4.83985 66.5747 7.4331 69.1549 5.38978 70.3955 3.22136 69.3999 1.7019 67.0986 1.57419 64.7112 1.50643 63.4211 1.98338 62.2848 1.84264 61.0207 1.63153 59.0973 0.51083 56.9445 1.03469 54.6927L2.66101 39.9829 2.87472 39.6701C6.43489 39.2088 5.59307 36.05 6.01007 33.3968L4.50104 32.0859C6.1482 26.9645 9.04638 21.666 14.9652 21.0952Z" transform="matrix(1.00726 0 0 1 -249 416.032)"/><path d="M31.8643 20.4931C31.906 20.5635 32.2605 20.5505 32.3048 20.7407 32.4716 21.4705 32.8443 26.0132 32.8078 26.7717 32.7922 27.1131 32.1901 28.0592 31.8748 28.1634 31.6245 28.2468 29.0313 28.4605 28.5127 28.4814 27.2095 28.5309 25.9038 28.2286 24.7961 28.2338 22.2263 28.2442 19.9458 28.6716 17.2535 28.1478 15.4109 27.7907 16.4091 24.4443 16.5472 23.0655 16.6176 22.3645 16.456 21.606 16.5316 20.944 16.5916 20.415 17.2509 20.5557 17.2301 19.9093 17.2066 19.2109 16.7036 18.601 16.8001 17.5324 16.8861 16.5968 17.5142 16.2762 17.6158 15.4344 17.7331 14.4674 17.3474 13.6777 17.3265 12.7994 17.2327 8.71278 17.3291 3.66182 21.9214 2.09805 26.7143 0.466523 30.9182 3.3647 31.4942 8.33487 31.7653 10.6675 31.1163 13.1148 31.2362 15.1685 31.2962 16.2267 31.8982 16.456 32.0337 17.2822 32.1927 18.2439 31.5959 20.024 31.8643 20.4958ZM23.6389 6.0648C23.6389 6.0648 23.5764 7.17508 22.195 6.0648L22.0647 6.58867 20.7486 6.74504 20.3654 7.12295 19.5679 7.87095C19.5679 7.87095 18.0876 9.79438 18.6635 11.4624 18.6635 11.4624 18.614 11.5562 18.6557 12.2469 18.7261 13.3598 19.6956 15.2936 19.6956 15.2936 19.6956 15.2936 20.256 18.9059 19.4376 20.8267 20.9831 20.4723 22.2029 19.9536 22.0517 18.0876 22.0074 17.5428 21.5018 16.8522 21.52 16.4925 21.5278 16.3466 22.0022 16.3804 22.0569 16.1667 22.4896 14.4283 22.0335 13.0835 23.6702 11.5041 24.8196 10.3938 26.0289 12.3147 26.4459 13.3937 26.8629 14.4726 26.5944 15.3405 26.7899 16.1693 26.8394 16.3726 27.3112 16.3413 27.3216 16.4951 27.3477 16.9017 26.8264 17.7592 26.8082 18.3482 26.7586 19.8989 27.9367 20.7746 29.4118 20.5609 28.5935 18.7078 28.8958 17.2405 30.4595 15.9504L30.4648 15.1607C29.4561 14.4101 30.5169 13.133 30.1859 12.0071L30.1859 11.4624C30.7645 9.79438 29.2841 7.87095 29.2841 7.87095L28.4397 6.99264 28.1009 6.74504 27.0688 6.56521C26.7743 6.16645 26.7847 6.32804 26.7847 6.32804 26.2765 6.32543 25.4451 6.50266 25.247 5.8954 24.9447 5.26989 24.9473 6.0622 24.9473 6.0622L23.6337 6.06741ZM24.0976 14.8036C22.0934 15.1581 22.4505 18.5932 24.8091 18.1918 26.8446 17.8452 26.3729 14.4023 24.0976 14.8036ZM24.0872 18.7495C22.0074 19.362 24.1028 22.6954 25.4503 20.6599 26.1436 19.6122 25.0776 18.4576 24.0872 18.7495Z" transform="matrix(1.00726 0 0 1 -249 416.032)"/><path d="M32.5237 109.469C33.4646 109.422 34.3064 109.516 35.2004 109.789 37.6503 110.537 43.9757 116.451 38.4791 117.043 33.0476 117.626 32.8573 113.404 28.3615 112.172 26.8394 109.868 30.9782 109.547 32.5211 109.471Z" transform="matrix(1.00726 0 0 1 -249 416.032)"/><path d="M15.1816 109.464C16.0677 109.396 19.6279 109.818 20.3133 110.23 20.6313 110.42 20.6834 110.467 20.7564 110.848 21.1004 112.661 19.5236 112.239 18.3977 112.969 16.0494 114.488 15.6012 116.769 11.9628 117.053 3.94069 117.676 10.9333 109.787 15.1816 109.464Z" transform="matrix(1.00726 0 0 1 -249 416.032)"/><path d="M31.7053 34.1969C29.7585 36.4748 26.1436 33.5428 28.2208 31.0903 30.2146 28.7368 33.647 31.9269 31.7053 34.1969ZM29.6829 31.635 28.3719 32.164 28.7003 32.4221 28.8984 33.2118 29.417 32.4247 29.4222 34.2673 31.5177 32.4169C31.1737 31.8409 30.6498 31.4473 29.9461 31.635L30.47 32.1562 29.4196 32.1562C29.4196 32.1562 29.6855 31.635 29.6855 31.635Z" transform="matrix(1.00726 0 0 1 -249 416.032)"/><path d="M5.25425 33.4802C4.59747 35.4219 5.87715 38.7371 2.88775 38.7501L4.20392 33.2144 5.25425 33.4828Z" transform="matrix(1.00726 0 0 1 -249 416.032)"/><path d="M45.9643 38.7501C43.1808 38.6459 44.1295 35.7268 43.689 33.8581L44.523 33.2222 45.9643 38.7501Z" transform="matrix(1.00726 0 0 1 -249 416.032)"/><path d="M14.7124 54.0385 14.6968 52.0551 17.4751 51.9196C18.197 54.5285 16.6828 54.0776 14.7124 54.0411Z" transform="matrix(1.00726 0 0 1 -249 416.032)"/><path d="M24.0976 14.8036C26.3729 14.4023 26.842 17.8452 24.8091 18.1918 22.4505 18.5932 22.0934 15.1581 24.0976 14.8036Z" fill="#FFFFFF" transform="matrix(1.00726 0 0 1 -249 416.032)"/><path d="M24.0872 18.7495C25.0776 18.4576 26.1436 19.6122 25.4503 20.6599 24.1028 22.6954 22.0074 19.362 24.0872 18.7495Z" fill="#FFFFFF" transform="matrix(1.00726 0 0 1 -249 416.032)"/><path d="M29.6829 31.635 29.417 32.1588 30.4674 32.1588C30.4674 32.1588 29.9435 31.6376 29.9435 31.6376 30.6472 31.4525 31.1711 31.8461 31.5151 32.4195L29.4196 34.2699 29.4144 32.4273 28.8958 33.2144 28.6977 32.4247 28.3693 32.1667 29.6803 31.6376Z" fill="#FFFFFF" transform="matrix(1.00726 0 0 1 -249 416.032)"/></g></svg>