<svg width="1145" height="870" xmlns="http://www.w3.org/2000/svg" xmlns:xlink="http://www.w3.org/1999/xlink" xml:space="preserve" overflow="hidden"><g transform="translate(1744 38)"><g><g><g><path d="M303.35 546.37 57.1637 305.098 306.837 59.8874 556.518 305.098Z" stroke="#323031" stroke-width="0.820375" stroke-miterlimit="10" stroke-dasharray="4.92225 4.92225" fill="#FFFFFF" transform="matrix(1 0 0 1.00152 -1744 224)"/><path d="M303.859 510.864 93.613 304.81 306.837 95.3932 520.069 304.81Z" stroke="#3B3A3C" stroke-width="0.820375" stroke-miterlimit="10" fill="none" transform="matrix(1 0 0 1.00152 -1744 224)"/><path d="M249.607 198.695C253.955 197.661 253.955 201.55 258.049 205.209 258.049 205.209 278.427 221.313 302.382 228.581 326.288 235.866 341.785 241.313 343.147 241.83 344.5 242.347 350.481 243.66 355.37 241.576 360.284 239.5 368.701 243.389 367.594 247.007 366.503 250.641 360.547 250.633 358.652 255.785 356.74 260.978 355.912 264.948 350.751 263.906 345.575 262.865 345.846 259.214 345.05 254.546 344.221 249.87 335.78 246.744 314.86 239.5 293.924 232.199 271.905 223.897 268.632 222.855 265.383 221.821 258.049 218.179 251.502 221.034 244.972 223.897 241.182 216.612 244.447 213.248 247.704 209.86 248.5 209.598 246.892 207.268 245.268 204.93 241.33 200.68 249.607 198.695Z" stroke="#221F1F" stroke-width="0.427662" fill="#FFFFFF" transform="matrix(1 0 0 1.00152 -1744 224)"/><path d="M267.828 242.864C275.211 240.132 339.865 216.358 343.138 214.274 346.395 212.19 354.287 204.667 356.724 201.295 359.177 197.907 365.978 200.254 365.428 204.15 364.911 208.064 363.541 209.335 365.174 210.648 366.798 211.944 371.146 210.131 370.317 213.257 369.497 216.358 367.331 221.313 364.082 220.779 360.817 220.263 358.086 215.849 350.76 218.712 343.409 221.559 282.504 246.244 277.073 248.344 271.643 250.395 267.836 257.409 266.187 260.01 264.571 262.61 257.22 266.253 255.867 258.968 254.497 251.683 254.242 254.07 252.897 253.02 251.511 251.962 247.712 247.54 252.897 244.931 258.049 242.355 259.403 245.973 267.828 242.864Z" stroke="#221F1F" stroke-width="0.427662" fill="#FFFFFF" transform="matrix(1 0 0 1.00152 -1744 224)"/><path d="M308.322 150.637C295.015 150.9 274.35 166.733 272.988 167.775 271.643 168.833 267.286 179.473 269.731 186.996 272.192 194.536 275.982 198.687 275.433 202.854 274.9 207.005 273.833 213.503 278.427 215.324 283.046 217.145 285.491 217.662 286.04 221.821 286.598 225.972 287.131 230.648 287.394 232.461 287.697 234.283 293.661 239.213 297.189 241.822 300.7 244.447 303.424 245.965 307.805 245.965 315.41 245.965 319.758 240.534 321.398 239.213 324.926 236.358 328.511 237.31 327.953 231.329 327.896 229.18 328.084 220.681 329.586 219.122 331.768 217.563 337.978 213.248 338.52 210.385 339.061 207.53 338.52 199.729 338.79 197.136 339.069 194.527 345.058 188.818 344.754 184.404 344.5 179.99 346.937 172.984 336.879 166.216 326.821 159.473 316.763 150.481 308.322 150.637" fill="#221F1F" transform="matrix(1 0 0 1.00152 -1744 224)"/><path d="M308.248 154.444C304.745 154.756 301.595 155.108 298.879 156.93 296.172 158.767 276.491 168.661 274.596 172.033 272.701 175.404 267.893 181.106 276.319 190.196 276.319 190.196 274.301 179.449 279.764 174.51 279.764 174.51 278.526 186.291 280.15 203.962 280.519 207.85 279.198 210.722 284.358 213.33 289.527 215.923 295.901 219.237 295.639 224.422 295.639 224.422 298.879 227.482 307.304 227.482 315.746 227.482 318.117 225.808 318.396 223.462 318.658 221.116 316.681 218.745 322.407 216.39 328.117 214.06 333.351 211.435 333.876 207.022 334.442 202.608 336.625 185.758 331.202 174.322 331.202 174.322 336.575 177.948 337.125 188.85 337.125 188.85 340.759 187.169 340.759 179.096 340.759 171.056 335.197 168.267 329.479 164.379 323.761 160.506 316.977 153.664 308.248 154.444ZM290.47 193.838C291.832 193.805 294.228 193.896 298.313 194.027 306.451 194.289 298.526 201.738 295.253 204.347 291.996 206.931 287.968 204.2 286.073 201.862 284.17 199.54 283.587 194.027 288.747 194.027 288.747 194.027 289.108 193.871 290.47 193.838ZM324.499 193.838C325.861 193.871 326.222 194.027 326.222 194.027 331.374 194.027 330.8 199.54 328.897 201.862 326.985 204.2 322.785 206.931 319.528 204.347 316.263 201.738 308.486 194.289 316.657 194.027 320.734 193.896 323.138 193.797 324.499 193.838ZM289.51 222.133C289.51 222.133 289.322 231.969 291.233 233.799 293.12 235.62 301.43 242.265 302.513 242.79 303.604 243.307 304.581 244.513 307.87 244.513 311.119 244.513 312.99 242.306 314.376 241.264 315.713 240.222 323.228 235.62 324.319 234.57 325.41 233.536 325.927 225.718 325.656 222.33L322.883 223.667C322.883 223.667 323.08 229.303 321.989 230.862 320.906 232.412 316.427 235.521 308.838 235.521 301.217 235.521 293.046 231.969 292.775 230.936 292.513 229.902 292.39 224.241 292.39 224.241L289.51 222.133Z" fill="#FFFFFF" transform="matrix(1 0 0 1.00152 -1744 224)"/><path d="M306.689 218.441C308.051 218.441 309.372 220.525 311.578 220.016 313.736 219.475 312.908 216.907 311.849 214.815 310.758 212.748 309.692 208.064 306.689 207.793 303.686 207.538 302.604 212.748 301.521 214.815 300.479 216.907 299.634 219.475 301.8 220.016 303.998 220.517 305.311 218.441 306.689 218.441" fill="#221F1F" transform="matrix(1 0 0 1.00152 -1744 224)"/><path d="M312.571 471.921C312.054 474.119 311.62 476.392 311.267 477.901L297.845 477.901 297.845 477.015C299.626 475.137 301.586 473.16 303.235 471.059 305.606 468.122 306.886 465.3 306.886 462.634 306.886 460.116 305.713 458.335 303.416 458.335 301.299 458.335 299.962 459.869 298.879 461.6L297.886 460.739 300.052 457.326C301.291 455.94 303.006 455.054 305.106 455.054 308.42 455.054 311.193 457.474 311.193 461.502 311.193 464.217 309.93 466.416 306.525 469.952L302.62 473.98 307.879 473.98C309.979 473.98 310.2 473.882 311.488 471.535L312.571 471.921Z" fill="#231F20" transform="matrix(1 0 0 1.00152 -1744 224)"/><path d="M232.379 305.606 232.207 315.59C232.199 315.836 231.707 318.15 231.436 319.306L212.789 318.986 213.043 304.154C213.076 302.251 213.224 300.963 213.404 300.183 212.288 300.167 210.877 300.06 210.426 299.88L211.197 296.205C212.272 296.426 214.635 296.467 216.915 296.508L225.283 296.656C231.37 296.762 232.503 298.526 232.379 305.606ZM225.045 300.421 216.218 300.266 215.956 315.27 229.049 315.5 229.205 306.55C229.278 302.448 228.86 300.487 225.045 300.421Z" fill="#231F20" transform="matrix(1 0 0 1.00152 -1744 224)"/><path d="M238.852 309.577C240.6 306.952 241.543 304.942 241.576 303.284 241.6 301.914 240.821 301.447 238.926 300.873 237.933 300.569 237.113 300.307 236.416 300.003L237.187 296.369C237.761 296.59 238.59 296.853 239.623 297.115 243.545 298.051 244.89 299.322 244.841 302.39 244.792 304.999 243.504 307.879 241.42 310.873L238.852 309.577Z" fill="#231F20" transform="matrix(1 0 0 1.00152 -1744 224)"/><path d="M251.141 315.803C256.679 314.245 261.068 310.003 261.166 304.162 261.207 301.553 260.182 301.037 257.992 300.996L248.131 300.823 248.237 294.859C248.278 292.332 248.213 289.305 247.77 288.263L251.133 287.738C251.371 288.28 251.494 291.102 251.437 294.17L251.388 297.115 259.386 297.255C263.611 297.329 264.571 299.462 264.505 303.145 264.341 312.473 256.9 318.683 250.329 320.02L251.141 315.803Z" fill="#231F20" transform="matrix(1 0 0 1.00152 -1744 224)"/><path d="M269.969 310.118C271.716 307.493 272.66 305.483 272.693 303.826 272.717 302.456 271.938 301.988 270.043 301.414 269.05 301.111 268.23 300.848 267.533 300.544L268.304 296.91C268.878 297.132 269.707 297.394 270.74 297.657 274.662 298.592 276.007 299.864 275.958 302.932 275.909 305.541 274.621 308.42 272.537 311.414L269.969 310.118Z" fill="#231F20" transform="matrix(1 0 0 1.00152 -1744 224)"/><path d="M287.066 316.501C285.778 311.964 281.635 302.226 278.722 297.788L283.12 297.493C285.326 301.553 288.706 309.987 290.06 315.607 293.153 314.376 294.81 311.71 294.9 306.615 294.941 304.253 294.383 300.758 293.309 298.051L297.419 297.706C297.895 299.125 298.42 302.161 298.362 305.598 298.215 311.652 296.639 316.427 289.789 319.339 286.614 320.693 281.668 321.645 277.845 322.038L278.616 317.986C281.405 317.731 284.892 317.214 287.066 316.501Z" fill="#231F20" transform="matrix(1 0 0 1.00152 -1744 224)"/><path d="M313.818 307.887C313.892 303.785 313.465 301.955 309.569 301.882L305.467 301.808C303.022 301.767 301.447 301.652 300.873 301.48L301.644 297.804C302.472 297.985 304.581 298.018 307.403 298.067L309.971 298.108C316.025 298.215 317.157 299.683 317.034 306.771L316.796 320.775 313.605 320.717 313.818 307.887Z" fill="#231F20" transform="matrix(1 0 0 1.00152 -1744 224)"/><path d="M352.285 307.682 352.113 317.666C352.113 317.912 351.613 320.225 351.342 321.382L332.695 321.062 332.949 306.23C332.982 304.326 333.13 303.038 333.31 302.259 332.194 302.243 330.783 302.136 330.332 301.955L331.103 298.28C332.178 298.51 334.541 298.551 336.821 298.584L345.189 298.731C351.276 298.838 352.409 300.594 352.285 307.682ZM344.96 302.497 336.132 302.341 335.87 317.346 348.963 317.575 349.119 308.625C349.193 304.523 348.766 302.563 344.96 302.497Z" fill="#231F20" transform="matrix(1 0 0 1.00152 -1744 224)"/><path d="M359.095 311.652C360.842 309.027 361.785 307.017 361.818 305.36 361.843 303.99 361.064 303.522 359.168 302.948 358.176 302.645 357.355 302.382 356.658 302.079L357.421 298.444C357.995 298.666 358.824 298.928 359.858 299.191 363.779 300.126 365.124 301.398 365.075 304.466 365.034 307.075 363.738 309.954 361.654 312.949L359.095 311.652Z" fill="#231F20" transform="matrix(1 0 0 1.00152 -1744 224)"/><path d="M370.588 308.453C370.711 306.09 371.113 304.564 372.163 303.506 370.555 303.227 367.946 302.686 367.003 302.3L367.774 298.625C369.587 299.445 376.659 300.52 379.391 300.733L378.702 304.449C377.832 304.392 376.306 304.121 375.724 304.064 374.559 304.006 374.017 304.613 373.837 307.559 373.755 309.716 373.919 317.173 374.132 321.784L370.859 321.727C370.645 314.712 370.514 310.405 370.588 308.453Z" fill="#231F20" transform="matrix(1 0 0 1.00152 -1744 224)"/><path d="M381.86 318.1C385.347 318.035 389.695 315.787 389.744 310.364L389.768 308.748C389.785 305.352 389.014 304.343 385.921 303.498 385.051 303.235 383.156 302.825 382.541 302.53L383.353 298.895C383.968 299.158 385.33 299.47 386.651 299.781 392.139 301.078 392.935 303.161 393.009 308.551L393.075 314.606C393.107 317.674 393.304 320.496 393.69 322.12L390.458 322.063C390.097 321.144 389.818 318.281 389.9 315.959 388.546 319.831 385.191 322.301 381.13 322.235L381.86 318.1Z" fill="#231F20" transform="matrix(1 0 0 1.00152 -1744 224)"/><path d="M241.436 352.4 236.801 352.4 236.801 350.727 248.081 350.727 248.081 352.4 243.422 352.4 243.422 365.961 241.428 365.961 241.428 352.4Z" fill="#231F20" transform="matrix(1 0 0 1.00152 -1744 224)"/><path d="M262.192 358.323C262.192 363.385 258.96 366.215 255.112 366.215 250.994 366.215 248.262 362.983 248.262 358.438 248.262 353.754 251.174 350.481 255.383 350.481 259.723 350.472 262.192 353.91 262.192 358.323ZM250.37 358.364C250.37 361.826 252.134 364.608 255.235 364.608 258.443 364.608 260.116 361.695 260.116 358.364 260.116 355.247 258.599 352.08 255.26 352.08 252.085 352.08 250.37 354.927 250.37 358.364Z" fill="#231F20" transform="matrix(1 0 0 1.00152 -1744 224)"/><path d="M272.471 365.961 270.527 362.589C269.715 361.301 269.239 360.465 268.763 359.579L268.714 359.579C268.287 360.481 267.836 361.277 267.065 362.606L265.235 365.953 262.971 365.953 267.631 358.241 263.152 350.71 265.416 350.71 267.451 354.279C268.017 355.272 268.443 356.043 268.878 356.88L268.927 356.88C269.354 355.953 269.739 355.272 270.305 354.279L272.389 350.71 274.653 350.71 270.018 358.127 274.768 365.953 272.471 365.953Z" fill="#231F20" transform="matrix(1 0 0 1.00152 -1744 224)"/><path d="M279.001 350.727 279.001 365.961 277.016 365.961 277.016 350.727 279.001 350.727Z" fill="#231F20" transform="matrix(1 0 0 1.00152 -1744 224)"/><path d="M293.087 365.485C292.365 365.822 290.913 366.207 289.043 366.207 284.769 366.207 281.536 363.475 281.536 358.479 281.536 353.713 284.769 350.497 289.494 350.497 291.373 350.497 292.595 350.883 293.112 351.153L292.636 352.761C291.889 352.4 290.831 352.13 289.56 352.13 285.991 352.13 283.612 354.41 283.612 358.414 283.612 362.146 285.761 364.542 289.469 364.542 290.667 364.542 291.889 364.296 292.677 363.91L293.087 365.485Z" fill="#231F20" transform="matrix(1 0 0 1.00152 -1744 224)"/><path d="M311.964 365.288C311.086 365.6 309.339 366.125 307.288 366.125 304.983 366.125 303.079 365.535 301.595 364.115 300.282 362.852 299.47 360.817 299.47 358.438 299.494 353.918 302.612 350.571 307.723 350.571 309.487 350.571 310.889 350.981 311.521 351.268L311.045 352.876C310.233 352.515 309.216 352.22 307.673 352.22 303.965 352.22 301.545 354.525 301.545 358.348 301.545 362.212 303.851 364.501 307.427 364.501 308.715 364.501 309.601 364.32 310.053 364.091L310.053 359.546 306.96 359.546 306.96 357.962 311.98 357.962 311.98 365.288Z" fill="#231F20" transform="matrix(1 0 0 1.00152 -1744 224)"/><path d="M317.428 361.17 315.869 365.961 313.81 365.961 319.011 350.727 321.366 350.727 326.567 365.961 324.467 365.961 322.842 361.17 317.428 361.17ZM322.424 359.636 320.931 355.247C320.594 354.254 320.365 353.352 320.143 352.466L320.078 352.466C319.872 353.368 319.626 354.295 319.331 355.222L317.838 359.636 322.424 359.636Z" fill="#231F20" transform="matrix(1 0 0 1.00152 -1744 224)"/><path d="M328.527 363.566C329.405 364.107 330.701 364.558 332.055 364.558 334.065 364.558 335.246 363.5 335.246 361.958 335.246 360.53 334.434 359.718 332.35 358.931 329.889 358.069 328.347 356.74 328.347 354.615 328.347 352.261 330.316 350.497 333.277 350.497 334.811 350.497 335.968 350.858 336.649 351.219L336.108 352.827C335.607 352.556 334.59 352.105 333.212 352.105 331.128 352.105 330.34 353.352 330.34 354.386 330.34 355.813 331.267 356.51 333.368 357.323 335.944 358.34 337.256 359.562 337.256 361.802 337.256 364.156 335.517 366.207 331.924 366.207 330.431 366.207 328.823 365.756 328.011 365.215L328.527 363.566Z" fill="#231F20" transform="matrix(1 0 0 1.00152 -1744 224)"/><path d="M347.806 358.816 341.908 358.816 341.908 364.329 348.512 364.329 348.512 365.953 339.922 365.953 339.922 350.719 348.175 350.719 348.175 352.343 341.916 352.343 341.916 357.183 347.814 357.183 347.814 358.816Z" fill="#231F20" transform="matrix(1 0 0 1.00152 -1744 224)"/><path d="M350.768 363.566C351.654 364.107 352.942 364.558 354.295 364.558 356.305 364.558 357.487 363.5 357.487 361.958 357.487 360.53 356.674 359.718 354.591 358.931 352.13 358.069 350.587 356.74 350.587 354.615 350.587 352.261 352.556 350.497 355.518 350.497 357.052 350.497 358.209 350.858 358.89 351.219L358.348 352.827C357.848 352.556 356.83 352.105 355.452 352.105 353.368 352.105 352.581 353.352 352.581 354.386 352.581 355.813 353.508 356.51 355.608 357.323 358.184 358.34 359.497 359.562 359.497 361.802 359.497 364.156 357.757 366.207 354.164 366.207 352.671 366.207 351.063 365.756 350.251 365.215L350.768 363.566Z" fill="#231F20" transform="matrix(1 0 0 1.00152 -1744 224)"/></g></g></g><g><g><g><path d="M302.44 551.653 51.3227 305.541 306 55.4245 560.677 305.541Z" fill="#C82127" transform="matrix(1 0 0 1.00152 -1211 224)"/><path d="M302.956 515.433 88.5021 305.253 306 91.6441 523.498 305.253Z" stroke="#FFFFFF" stroke-width="0.820375" stroke-miterlimit="10" fill="none" transform="matrix(1 0 0 1.00152 -1211 224)"/><path d="M305.992 127.166C295.647 146.708 307.715 157.627 294.498 185.799 287.025 180.048 291.053 158.784 277.254 158.209 278.977 165.109 277.828 167.406 277.254 169.703 275.531 179.473 272.652 187.521 278.977 199.589 269.206 194.987 268.632 186.365 260.584 180.622 262.307 189.818 258.287 208.785 269.206 227.178 259.435 226.03 255.982 222.576 245.637 212.231 256.556 269.715 265.178 271.438 305.992 274.883 302.546 274.309 281.848 270.863 274.374 247.294 274.374 241.543 273.8 252.47 293.916 253.045 281.274 232.929 284.719 236.949 285.868 225.456 291.619 232.929 287.016 234.078 301.389 239.828 296.787 224.881 308.863 215.111 305.992 197.866 309.437 205.34 320.939 204.191 320.365 239.828 330.135 228.909 330.71 236.383 335.312 224.881 335.886 231.206 338.758 239.254 325.541 253.045 328.987 254.193 334.738 254.767 343.36 248.442 334.738 258.787 342.786 258.787 320.365 274.883 348.528 275.457 366.921 257.639 366.347 219.13 365.198 222.576 364.624 229.475 349.677 231.198 358.873 222.002 364.05 203.035 356.576 188.087 353.705 190.384 349.677 201.886 339.906 204.757 344.508 196.71 343.352 186.365 343.352 186.365 343.352 186.365 345.074 171.992 336.452 160.498 334.155 177.742 334.155 186.939 323.228 189.236 324.951 179.465 325.525 174.289 319.782 162.795 314.04 150.736 307.14 138.66 305.992 127.166ZM259.435 284.662 259.435 295.007 357.725 295.007 357.725 284.662 259.435 284.662Z" transform="matrix(1 0 0 1.00152 -1211 224)"/><text fill="#231F20" font-family="Arial,Arial_MSFontService,sans-serif" font-weight="400" font-size="62.9084" transform="matrix(0.749085 0 0 0.821621 -913.995 718)">2</text><path d="M214.881 333.671 214.709 343.86C214.7 344.115 214.2 346.469 213.921 347.65L194.905 347.322 195.167 332.194C195.2 330.25 195.348 328.946 195.536 328.142 194.396 328.125 192.96 328.011 192.501 327.838L193.289 324.089C194.388 324.319 196.792 324.36 199.121 324.401L207.662 324.549C213.855 324.647 215.004 326.444 214.881 333.671ZM207.407 328.388 198.408 328.232 198.145 343.532 211.501 343.762 211.657 334.631C211.722 330.447 211.296 328.454 207.407 328.388Z" fill="#231F20" transform="matrix(1 0 0 1.00152 -1211 224)"/><path d="M220.599 337.699C222.379 335.025 223.347 332.966 223.372 331.276 223.396 329.881 222.601 329.405 220.665 328.823 219.655 328.511 218.81 328.24 218.105 327.937L218.884 324.229C219.475 324.45 220.312 324.721 221.362 324.992 225.365 325.951 226.735 327.239 226.678 330.365 226.629 333.031 225.316 335.968 223.191 339.012L220.599 337.699Z" fill="#231F20" transform="matrix(1 0 0 1.00152 -1211 224)"/><path d="M232.363 334.647C232.412 331.817 232.576 329.619 232.806 328.782 232.043 328.724 230.017 328.56 229.721 328.519L230.509 324.729C231.395 324.959 233.503 324.992 236.383 325.041L244.037 325.172C250.206 325.279 251.355 327.198 251.24 334.221L250.994 348.298 247.696 348.241 247.917 335.394C247.999 330.742 247.606 329.085 243.586 329.02L235.727 328.88 235.398 348.028 232.142 347.97 232.363 334.647Z" fill="#231F20" transform="matrix(1 0 0 1.00152 -1211 224)"/><path d="M263.234 344.27C268.328 342.876 272.619 339.529 272.726 333.187 272.775 330.48 271.815 329.495 268.607 329.438L262.815 329.34C259.944 329.29 257.237 329.241 256.564 328.938L257.343 325.23C258.525 325.459 260.805 325.459 263.554 325.508L269.469 325.607C274.875 325.697 276.114 327.584 276.032 332.318 275.876 341.448 269.69 347.134 262.512 348.824L263.234 344.27ZM257.294 335.632 260.592 335.689 260.231 356.568 256.933 356.51 257.294 335.632Z" fill="#231F20" transform="matrix(1 0 0 1.00152 -1211 224)"/><path d="M281.864 344.894C287.517 343.302 291.988 338.979 292.086 333.023 292.136 330.357 291.086 329.832 288.846 329.799L278.788 329.627 278.895 323.54C278.936 320.964 278.87 317.871 278.419 316.812L281.856 316.279C282.102 316.837 282.217 319.708 282.168 322.834L282.119 325.837 290.273 325.976C294.58 326.05 295.565 328.224 295.499 331.989 295.335 341.498 287.738 347.839 281.036 349.201L281.864 344.894Z" fill="#231F20" transform="matrix(1 0 0 1.00152 -1211 224)"/><path d="M298.51 345.476C299.15 345.362 299.74 345.288 301.98 345.329L302.612 345.337C302.636 341.235 302.448 332.736 302.202 330.021L302.07 330.021C301.307 330.004 299.535 329.938 298.863 329.668L299.691 325.96C300.996 326.239 303.744 326.198 306.328 326.247L313.26 326.37C319.47 326.476 320.627 327.978 320.504 335.205L320.258 349.496 316.96 349.439 317.19 336.337C317.264 332.154 316.829 330.283 312.899 330.217L305.458 330.086C305.623 332.793 305.918 342.482 305.828 345.444L305.171 349.234 301.832 349.176C300.142 349.143 298.617 349.16 297.649 349.275L298.51 345.476Z" fill="#231F20" transform="matrix(1 0 0 1.00152 -1211 224)"/><path d="M328.125 336.649C328.79 332.432 327.133 330.759 324.475 330.078L325.303 326.157C328.675 326.764 330.669 328.954 330.989 332.219 332.006 329.66 334.598 326.362 339.291 326.444 345.887 326.559 347.388 332.629 347.24 340.784L347.15 346.198C347.142 346.576 346.633 349.357 346.494 349.947L338.167 349.8C336.477 349.767 334.278 349.775 333.384 349.841L334.172 346.092C335.058 345.936 337.051 345.969 339.373 346.01L343.811 346.083C343.885 344.311 343.918 342.572 343.942 340.882 344.033 335.558 343.45 330.349 338.503 330.258 333.811 330.176 332.08 334.795 331.399 337.658 330.677 340.48 329.701 345.575 328.864 349.619L325.566 349.562C326.501 345.238 327.609 339.767 328.125 336.649Z" fill="#231F20" transform="matrix(1 0 0 1.00152 -1211 224)"/><path d="M383.009 336.584 382.836 346.773C382.836 347.027 382.328 349.381 382.049 350.563L363.024 350.235 363.287 335.107C363.32 333.163 363.467 331.858 363.656 331.054 362.516 331.038 361.08 330.923 360.62 330.751L361.408 327.002C362.499 327.231 364.911 327.272 367.233 327.313L375.773 327.461C381.983 327.559 383.132 329.356 383.009 336.584ZM375.527 331.292 366.527 331.136 366.265 346.436 379.62 346.666 379.776 337.535C379.85 333.351 379.415 331.358 375.527 331.292Z" fill="#231F20" transform="matrix(1 0 0 1.00152 -1211 224)"/><path d="M389.949 340.628C391.729 337.954 392.697 335.894 392.722 334.204 392.746 332.81 391.951 332.334 390.015 331.752 389.005 331.44 388.169 331.169 387.455 330.857L388.243 327.149C388.833 327.371 389.67 327.641 390.72 327.912 394.724 328.872 396.094 330.16 396.036 333.286 395.987 335.952 394.674 338.889 392.549 341.932L389.949 340.628Z" fill="#231F20" transform="matrix(1 0 0 1.00152 -1211 224)"/><path d="M401.68 337.371C401.803 334.967 402.214 333.409 403.288 332.326 401.647 332.047 398.989 331.489 398.021 331.095L398.809 327.346C400.655 328.183 407.866 329.282 410.655 329.495L409.958 333.286C409.072 333.228 407.513 332.949 406.922 332.892 405.741 332.826 405.175 333.45 405.003 336.452 404.921 338.651 405.085 346.264 405.298 350.956L401.959 350.899C401.738 343.754 401.598 339.356 401.68 337.371Z" fill="#231F20" transform="matrix(1 0 0 1.00152 -1211 224)"/><path d="M413.174 347.207C416.726 347.142 421.164 344.853 421.213 339.315L421.238 337.666C421.254 334.196 420.467 333.171 417.317 332.309 416.431 332.039 414.495 331.628 413.863 331.317L414.691 327.609C415.323 327.871 416.71 328.191 418.055 328.511 423.658 329.832 424.462 331.965 424.536 337.461L424.602 343.639C424.634 346.764 424.839 349.644 425.233 351.301L421.935 351.244C421.574 350.308 421.287 347.388 421.369 345.017 419.991 348.963 416.562 351.49 412.419 351.416L413.174 347.207Z" fill="#231F20" transform="matrix(1 0 0 1.00152 -1211 224)"/><path d="M188.022 371.958 197.784 371.958 197.784 373.894 190.384 373.894 190.384 379.949 197.243 379.949 197.243 381.885 190.384 381.885 190.384 390.088 188.014 390.088 188.014 371.958Z" fill="#231F20" transform="matrix(1 0 0 1.00152 -1211 224)"/><path d="M201.099 371.958 203.469 371.958 203.469 388.095 211.214 388.095 211.214 390.088 201.099 390.088 201.099 371.958Z" fill="#231F20" transform="matrix(1 0 0 1.00152 -1211 224)"/><path d="M216.751 384.387 214.897 390.088 212.453 390.088 218.638 371.958 221.436 371.958 227.621 390.088 225.119 390.088 223.183 384.387 216.751 384.387ZM222.699 382.557 220.927 377.34C220.525 376.158 220.254 375.084 219.984 374.034L219.902 374.034C219.664 375.108 219.36 376.216 219.016 377.315L217.244 382.557 222.699 382.557Z" fill="#231F20" transform="matrix(1 0 0 1.00152 -1211 224)"/><path d="M245.481 382.131C245.317 379.629 245.161 376.56 245.186 374.329L245.103 374.329C244.488 376.429 243.676 378.874 242.79 381.294L239.64 389.982 237.786 389.982 234.906 381.343C234.02 378.784 233.323 376.446 232.831 374.321L232.749 374.321C232.667 376.552 232.585 379.563 232.396 382.311L231.912 390.088 229.68 390.088 230.944 371.958 233.93 371.958 237.023 380.753C237.778 382.935 238.368 385.084 238.828 386.971L238.91 386.971C239.369 385.142 240.009 383.017 240.846 380.728L244.07 371.958 247.056 371.958 248.188 390.088 245.875 390.088 245.481 382.131Z" fill="#231F20" transform="matrix(1 0 0 1.00152 -1211 224)"/><path d="M267.106 382.131C266.942 379.629 266.786 376.56 266.811 374.329L266.729 374.329C266.113 376.429 265.301 378.874 264.415 381.294L261.265 389.982 259.411 389.982 256.531 381.343C255.645 378.784 254.948 376.446 254.464 374.321L254.382 374.321C254.3 376.552 254.218 379.563 254.029 382.311L253.545 390.088 251.314 390.088 252.577 371.958 255.563 371.958 258.656 380.753C259.411 382.935 260.001 385.084 260.461 386.971L260.543 386.971C261.002 385.142 261.642 383.017 262.479 380.728L265.711 371.958 268.697 371.958 269.83 390.088 267.516 390.088 267.106 382.131Z" fill="#231F20" transform="matrix(1 0 0 1.00152 -1211 224)"/><path d="M276.089 384.387 274.235 390.088 271.79 390.088 277.976 371.958 280.773 371.958 286.959 390.088 284.457 390.088 282.521 384.387 276.089 384.387ZM282.037 382.557 280.265 377.34C279.863 376.158 279.592 375.084 279.321 374.034L279.239 374.034C279.001 375.108 278.698 376.216 278.353 377.315L276.581 382.557 282.037 382.557Z" fill="#231F20" transform="matrix(1 0 0 1.00152 -1211 224)"/><path d="M289.592 372.204C290.643 371.991 292.283 371.827 293.899 371.827 296.237 371.827 297.747 372.229 298.846 373.148 299.814 373.845 300.38 374.92 300.38 376.347 300.38 378.095 299.199 379.653 297.312 380.326L297.312 380.383C299.035 380.818 301.053 382.213 301.053 384.961 301.053 386.495 300.462 387.676 299.494 388.562 298.256 389.719 296.213 390.261 293.251 390.261 291.611 390.261 290.396 390.154 289.592 390.047L289.592 372.204ZM291.955 379.653 294.08 379.653C296.525 379.653 298.009 378.332 298.009 376.585 298.009 374.46 296.393 373.623 294.031 373.623 292.956 373.623 292.332 373.705 291.955 373.788L291.955 379.653ZM291.955 388.316C292.439 388.398 293.054 388.423 293.916 388.423 296.336 388.423 298.6 387.537 298.6 384.928 298.6 382.426 296.451 381.401 293.891 381.401L291.955 381.401 291.955 388.316Z" fill="#231F20" transform="matrix(1 0 0 1.00152 -1211 224)"/><path d="M304.17 371.958 306.541 371.958 306.541 388.095 314.286 388.095 314.286 390.088 304.17 390.088 304.17 371.958Z" fill="#231F20" transform="matrix(1 0 0 1.00152 -1211 224)"/><path d="M326.255 381.589 319.233 381.589 319.233 388.152 327.092 388.152 327.092 390.088 316.87 390.088 316.87 371.958 326.69 371.958 326.69 373.894 319.241 373.894 319.241 379.653 326.263 379.653 326.263 381.589Z" fill="#231F20" transform="matrix(1 0 0 1.00152 -1211 224)"/><path d="M349.627 389.284C348.577 389.662 346.51 390.277 344.057 390.277 341.317 390.277 339.053 389.58 337.281 387.882 335.722 386.372 334.754 383.952 334.754 381.13 334.779 375.748 338.495 371.769 344.574 371.769 346.674 371.769 348.339 372.253 349.094 372.606L348.528 374.518C347.56 374.091 346.346 373.738 344.517 373.738 340.103 373.738 337.223 376.478 337.223 381.031 337.223 385.634 339.963 388.349 344.221 388.349 345.755 388.349 346.805 388.136 347.339 387.865L347.339 382.459 343.655 382.459 343.655 380.572 349.627 380.572 349.627 389.284Z" fill="#231F20" transform="matrix(1 0 0 1.00152 -1211 224)"/><path d="M356.141 384.387 354.287 390.088 351.842 390.088 358.028 371.958 360.826 371.958 367.011 390.088 364.509 390.088 362.573 384.387 356.141 384.387ZM362.081 382.557 360.309 377.34C359.907 376.158 359.636 375.084 359.365 374.034L359.283 374.034C359.045 375.108 358.742 376.216 358.397 377.315L356.625 382.557 362.081 382.557Z" fill="#231F20" transform="matrix(1 0 0 1.00152 -1211 224)"/><path d="M369.341 387.242C370.391 387.89 371.925 388.423 373.541 388.423 375.937 388.423 377.332 387.16 377.332 385.33 377.332 383.632 376.363 382.664 373.886 381.729 370.957 380.703 369.128 379.12 369.128 376.593 369.128 373.796 371.466 371.696 374.993 371.696 376.823 371.696 378.193 372.122 379.005 372.557L378.357 374.468C377.766 374.148 376.552 373.607 374.911 373.607 372.434 373.607 371.499 375.084 371.499 376.322 371.499 378.021 372.598 378.849 375.1 379.817 378.168 381.031 379.727 382.484 379.727 385.142 379.727 387.939 377.66 390.384 373.377 390.384 371.605 390.384 369.694 389.842 368.726 389.202L369.341 387.242Z" fill="#231F20" transform="matrix(1 0 0 1.00152 -1211 224)"/><path d="M392.287 381.589 385.265 381.589 385.265 388.152 393.124 388.152 393.124 390.088 382.902 390.088 382.902 371.958 392.722 371.958 392.722 373.894 385.273 373.894 385.273 379.653 392.295 379.653 392.295 381.589Z" fill="#231F20" transform="matrix(1 0 0 1.00152 -1211 224)"/><path d="M395.815 387.242C396.865 387.89 398.399 388.423 400.015 388.423 402.41 388.423 403.805 387.16 403.805 385.33 403.805 383.632 402.837 382.664 400.359 381.729 397.431 380.703 395.601 379.12 395.601 376.593 395.601 373.796 397.939 371.696 401.467 371.696 403.296 371.696 404.666 372.122 405.479 372.557L404.831 374.468C404.24 374.148 403.026 373.607 401.385 373.607 398.907 373.607 397.972 375.084 397.972 376.322 397.972 378.021 399.072 378.849 401.574 379.817 404.642 381.031 406.201 382.484 406.201 385.142 406.201 387.939 404.125 390.384 399.851 390.384 398.079 390.384 396.167 389.842 395.199 389.202L395.815 387.242Z" fill="#231F20" transform="matrix(1 0 0 1.00152 -1211 224)"/></g></g></g><g><g><g><path d="M302.549 547.014 55.9506 305.337 306.051 59.7157 556.143 305.337Z" fill="#4BAA48" transform="matrix(1.00013 0 0 1 -1477 -38.0002)"/><path d="M303.057 511.447 92.4609 305.05 306.051 95.2826 519.633 305.05Z" stroke="#FFFFFF" stroke-width="0.82027" stroke-miterlimit="10" fill="none" transform="matrix(1.00013 0 0 1 -1477 -38.0002)"/><path d="M403.081 216.699C403.696 219.603 402.236 222.367 399.824 222.876L376.324 227.871C374.511 228.257 373.346 230.037 373.74 231.849 374.355 234.753 372.895 237.517 370.483 238.026L219.636 270.09C217.224 270.599 211.982 265.85 209.751 255.768 207.512 245.687 209.973 236.476 212.384 235.959L363.232 203.895C365.644 203.378 368.105 205.314 368.72 208.217 369.253 210.752 371.747 212.376 374.281 211.835 374.289 211.835 374.289 211.835 374.298 211.835L396.469 207.118C398.897 206.601 401.342 208.537 401.957 211.441L403.081 216.699Z" fill="#231F20" fill-rule="evenodd" transform="matrix(1.00013 0 0 1 -1477 -38.0002)"/><text fill="#231F20" font-family="Arial,Arial_MSFontService,sans-serif" font-weight="400" font-size="61.7852" transform="matrix(0.749085 0 0 0.82027 -1179.69 451)">2</text><path d="M154.244 308.356 154.121 315.632C154.121 315.812 153.76 317.494 153.563 318.339L139.979 318.101 140.168 307.298C140.192 305.912 140.299 304.977 140.43 304.402 139.618 304.386 138.593 304.312 138.257 304.181L138.814 301.507C139.594 301.671 141.316 301.704 142.981 301.728L149.076 301.835C153.514 301.909 154.334 303.197 154.244 308.356ZM148.904 304.583 142.473 304.468 142.284 315.394 151.824 315.558 151.939 309.037C151.988 306.051 151.684 304.632 148.904 304.583Z" fill="#231F20" transform="matrix(1.00013 0 0 1 -1477 -38.0002)"/><path d="M158.96 311.243C160.232 309.332 160.921 307.864 160.945 306.658 160.962 305.666 160.396 305.321 159.009 304.903 158.288 304.681 157.689 304.484 157.18 304.271L157.738 301.622C158.156 301.777 158.755 301.974 159.51 302.163 162.364 302.844 163.349 303.771 163.308 306.002 163.275 307.905 162.331 310.005 160.814 312.178L158.96 311.243Z" fill="#231F20" transform="matrix(1.00013 0 0 1 -1477 -38.0002)"/><path d="M167.909 315.779C171.945 314.639 175.136 311.555 175.21 307.298 175.243 305.395 174.496 305.018 172.897 304.993L165.711 304.87 165.785 300.522C165.818 298.685 165.76 296.479 165.449 295.716L167.901 295.338C168.073 295.732 168.164 297.791 168.123 300.022L168.09 302.163 173.914 302.261C176.99 302.311 177.687 303.869 177.646 306.551 177.531 313.343 172.109 317.871 167.319 318.839L167.909 315.779Z" fill="#231F20" transform="matrix(1.00013 0 0 1 -1477 -38.0002)"/><path d="M181.632 311.637C182.904 309.726 183.593 308.258 183.618 307.052 183.634 306.059 183.068 305.715 181.682 305.296 180.96 305.075 180.361 304.878 179.852 304.665L180.41 302.015C180.829 302.171 181.427 302.368 182.182 302.557 185.037 303.238 186.021 304.164 185.98 306.396 185.947 308.299 185.004 310.398 183.486 312.572L181.632 311.637Z" fill="#231F20" transform="matrix(1.00013 0 0 1 -1477 -38.0002)"/><path d="M194.084 316.288C193.141 312.982 190.13 305.895 188.006 302.655L191.213 302.442C192.821 305.395 195.282 311.539 196.266 315.632 198.514 314.738 199.728 312.794 199.793 309.078 199.826 307.355 199.416 304.812 198.637 302.836L201.631 302.581C201.975 303.615 202.361 305.821 202.32 308.331 202.213 312.736 201.065 316.222 196.077 318.339 193.764 319.323 190.163 320.02 187.374 320.299L187.94 317.346C189.958 317.19 192.501 316.805 194.084 316.288Z" fill="#231F20" transform="matrix(1.00013 0 0 1 -1477 -38.0002)"/><path d="M213.574 310.013C213.623 307.027 213.32 305.69 210.481 305.641L207.496 305.592C205.716 305.559 204.567 305.477 204.149 305.354L204.707 302.68C205.305 302.811 206.848 302.836 208.898 302.877L210.768 302.909C215.173 302.983 216.002 304.058 215.912 309.217L215.731 319.421 213.41 319.38 213.574 310.013Z" fill="#231F20" transform="matrix(1.00013 0 0 1 -1477 -38.0002)"/><path d="M226.009 315.574C226.058 312.613 226.805 309.882 228.987 307.651 227.682 306.092 226.173 304.525 224.984 303.385L225.074 303.238 228.306 303.049C229.815 304.648 232.005 307.216 235.106 311.202 236.328 310.407 237.099 309.217 237.14 307.281 237.132 306.133 236.853 304.771 236.303 303.459L239.265 303.238C239.634 304.394 239.798 305.485 239.773 306.806 239.732 309.283 238.428 311.465 236.23 312.695 237.829 314.713 240.331 318.38 241.209 319.848L238.01 319.791C237.009 318.142 234.482 314.352 230.25 309.267 228.896 310.874 228.585 313.015 228.609 314.943 228.609 316.665 229.003 318.363 229.372 319.635L226.477 319.586C226.173 318.421 225.984 316.936 226.009 315.574Z" fill="#231F20" transform="matrix(1.00013 0 0 1 -1477 -38.0002)"/><path d="M243.916 317.092C247.951 315.952 251.142 312.868 251.216 308.61 251.249 306.707 250.502 306.33 248.903 306.305L241.717 306.182 241.791 301.835C241.824 299.997 241.766 297.791 241.455 297.028L243.907 296.651C244.08 297.044 244.17 299.103 244.129 301.335L244.096 303.475 249.92 303.574C252.996 303.623 253.693 305.182 253.652 307.864 253.537 314.656 248.115 319.184 243.325 320.152L243.916 317.092Z" fill="#231F20" transform="matrix(1.00013 0 0 1 -1477 -38.0002)"/><path d="M259.968 310.727C260.017 308.126 259.73 307.191 257.384 306.576 256.334 306.289 255.76 306.158 255.342 305.969L255.9 303.32C256.293 303.475 256.892 303.639 257.975 303.836 261.346 304.616 262.413 305.756 262.331 310.341L262.158 320.209 259.804 320.168 259.968 310.727Z" fill="#231F20" transform="matrix(1.00013 0 0 1 -1477 -38.0002)"/><path d="M287.989 310.669 287.866 317.945C287.866 318.125 287.505 319.815 287.308 320.652L273.724 320.414 273.913 309.611C273.937 308.225 274.044 307.29 274.175 306.716 273.363 306.699 272.338 306.625 272.002 306.494L272.559 303.82C273.339 303.984 275.061 304.017 276.718 304.041L282.813 304.148C287.259 304.222 288.079 305.51 287.989 310.669ZM282.649 306.896 276.218 306.789 276.029 317.715 285.569 317.879 285.684 311.358C285.733 308.364 285.429 306.945 282.649 306.896Z" fill="#231F20" transform="matrix(1.00013 0 0 1 -1477 -38.0002)"/><path d="M292.082 313.548C293.353 311.637 294.042 310.169 294.059 308.963 294.075 307.971 293.509 307.626 292.131 307.208 291.409 306.986 290.81 306.789 290.302 306.568L290.86 303.918C291.278 304.074 291.885 304.271 292.631 304.46 295.486 305.141 296.47 306.067 296.429 308.299 296.396 310.202 295.453 312.302 293.936 314.475L292.082 313.548Z" fill="#231F20" transform="matrix(1.00013 0 0 1 -1477 -38.0002)"/><path d="M300.481 311.366C300.514 309.34 300.637 307.774 300.793 307.175 300.252 307.134 298.8 307.019 298.595 306.986L299.153 304.279C299.784 304.443 301.294 304.468 303.344 304.501L308.807 304.599C313.212 304.673 314.032 306.051 313.95 311.063L313.778 321.111 311.424 321.07 311.58 311.891C311.637 308.569 311.358 307.388 308.487 307.339L302.877 307.24 302.639 320.914 300.317 320.873 300.481 311.366Z" fill="#231F20" transform="matrix(1.00013 0 0 1 -1477 -38.0002)"/><path d="M322.522 318.24C326.164 317.248 329.224 314.853 329.298 310.325 329.33 308.389 328.65 307.683 326.353 307.642L322.219 307.569C320.168 307.536 318.232 307.503 317.756 307.281L318.314 304.632C319.159 304.796 320.783 304.796 322.752 304.829L326.976 304.903C330.84 304.968 331.726 306.314 331.66 309.693 331.545 316.214 327.132 320.275 322.005 321.48L322.522 318.24ZM318.281 312.072 320.635 312.113 320.381 327.025 318.027 326.984 318.281 312.072Z" fill="#231F20" transform="matrix(1.00013 0 0 1 -1477 -38.0002)"/><path d="M335.835 318.683C339.871 317.543 343.062 314.459 343.135 310.202 343.168 308.299 342.422 307.921 340.822 307.897L333.637 307.774 333.711 303.426C333.743 301.589 333.686 299.382 333.374 298.619L335.827 298.242C335.999 298.636 336.089 300.695 336.048 302.926L336.007 305.067 341.831 305.165C344.907 305.223 345.613 306.773 345.564 309.455 345.449 316.247 340.027 320.775 335.236 321.743L335.835 318.683Z" fill="#231F20" transform="matrix(1.00013 0 0 1 -1477 -38.0002)"/><path d="M347.721 319.102C348.172 319.02 348.599 318.962 350.198 318.995L350.649 319.003C350.674 316.075 350.534 310.005 350.354 308.069L350.264 308.069C349.722 308.061 348.451 308.003 347.975 307.815L348.566 305.165C349.501 305.362 351.461 305.337 353.299 305.37L358.253 305.46C362.691 305.534 363.519 306.609 363.429 311.768L363.257 321.973 360.903 321.932 361.067 312.572C361.116 309.586 360.812 308.249 357.999 308.2L352.683 308.11C352.798 310.046 353.012 316.961 352.946 319.077L352.478 321.784 350.091 321.743C348.886 321.718 347.795 321.735 347.097 321.808L347.721 319.102Z" fill="#231F20" transform="matrix(1.00013 0 0 1 -1477 -38.0002)"/><path d="M368.876 312.794C369.351 309.783 368.162 308.586 366.267 308.102L366.858 305.305C369.261 305.739 370.688 307.306 370.918 309.636 371.64 307.806 373.494 305.452 376.849 305.51 381.557 305.592 382.632 309.931 382.525 315.755L382.459 319.618C382.451 319.889 382.09 321.874 381.992 322.301L376.045 322.194C374.839 322.169 373.264 322.178 372.632 322.227L373.19 319.553C373.83 319.446 375.241 319.471 376.906 319.495L380.072 319.553C380.121 318.29 380.146 317.051 380.171 315.837 380.236 312.031 379.818 308.315 376.283 308.249 372.936 308.192 371.697 311.489 371.213 313.54 370.697 315.558 369.999 319.192 369.401 322.087L367.046 322.046C367.711 318.929 368.506 315.025 368.876 312.794Z" fill="#231F20" transform="matrix(1.00013 0 0 1 -1477 -38.0002)"/><path d="M392.483 318.454C392.532 315.492 393.279 312.761 395.461 310.53 394.156 308.971 392.647 307.405 391.458 306.264L391.548 306.117 394.78 305.928C396.289 307.528 398.479 310.095 401.58 314.073 402.802 313.278 403.581 312.088 403.614 310.152 403.606 309.004 403.327 307.642 402.777 306.33L405.739 306.108C406.108 307.265 406.272 308.356 406.247 309.685 406.206 312.162 404.902 314.344 402.704 315.574 404.303 317.592 406.805 321.259 407.683 322.727L404.483 322.67C403.483 321.021 400.956 317.231 396.724 312.146 395.37 313.753 395.059 315.894 395.083 317.822 395.083 319.545 395.477 321.242 395.846 322.514L392.951 322.465C392.639 321.3 392.458 319.815 392.483 318.454Z" fill="#231F20" transform="matrix(1.00013 0 0 1 -1477 -38.0002)"/><path d="M410.783 319.979C414.819 318.839 418.01 315.755 418.084 311.498 418.116 309.595 417.37 309.217 415.77 309.193L408.585 309.07 408.659 304.722C408.691 302.885 408.634 300.678 408.322 299.915L410.775 299.538C410.947 299.932 411.037 301.991 410.996 304.222L410.955 306.363 416.779 306.461C419.855 306.51 420.561 308.069 420.512 310.751 420.397 317.543 414.975 322.071 410.184 323.047L410.783 319.979Z" fill="#231F20" transform="matrix(1.00013 0 0 1 -1477 -38.0002)"/><path d="M445.464 313.392 445.341 320.668C445.341 320.849 444.98 322.539 444.783 323.375L431.2 323.137 431.388 312.334C431.413 310.948 431.52 310.013 431.651 309.439 430.839 309.422 429.813 309.349 429.485 309.217L430.043 306.543C430.822 306.707 432.545 306.74 434.202 306.765L440.297 306.871C444.734 306.953 445.554 308.233 445.464 313.392ZM440.124 309.619 433.693 309.504 433.505 320.43 443.044 320.594 443.159 314.073C443.208 311.088 442.905 309.668 440.124 309.619Z" fill="#231F20" transform="matrix(1.00013 0 0 1 -1477 -38.0002)"/><path d="M450.427 316.288C451.698 314.377 452.387 312.909 452.412 311.703 452.428 310.71 451.862 310.366 450.476 309.947 449.754 309.726 449.155 309.529 448.647 309.308L449.205 306.658C449.623 306.814 450.23 307.011 450.976 307.199 453.831 307.88 454.815 308.807 454.774 311.038 454.741 312.941 453.798 315.041 452.281 317.215L450.427 316.288Z" fill="#231F20" transform="matrix(1.00013 0 0 1 -1477 -38.0002)"/><path d="M458.802 313.958C458.892 312.236 459.179 311.129 459.95 310.357 458.777 310.152 456.882 309.759 456.193 309.48L456.751 306.806C458.072 307.405 463.223 308.184 465.208 308.34L464.708 311.047C464.076 311.005 462.961 310.809 462.542 310.768 461.697 310.727 461.295 311.17 461.172 313.31 461.115 314.877 461.23 320.316 461.386 323.67L458.999 323.629C458.843 318.519 458.744 315.378 458.802 313.958Z" fill="#231F20" transform="matrix(1.00013 0 0 1 -1477 -38.0002)"/><path d="M467.013 320.98C469.547 320.931 472.722 319.298 472.755 315.345L472.779 314.172C472.796 311.695 472.23 310.965 469.974 310.349 469.342 310.161 467.956 309.865 467.513 309.644L468.104 306.994C468.555 307.183 469.547 307.413 470.507 307.642 474.51 308.586 475.084 310.103 475.133 314.032L475.174 318.445C475.199 320.676 475.338 322.735 475.626 323.917L473.271 323.876C473.009 323.203 472.804 321.119 472.861 319.43 471.877 322.251 469.432 324.048 466.471 323.999L467.013 320.98Z" fill="#231F20" transform="matrix(1.00013 0 0 1 -1477 -38.0002)"/><path d="M222.096 354.644 222.096 339.387 224.295 339.387 229.167 347.081C230.275 348.894 231.185 350.502 231.907 352.06L231.956 352.035C231.776 350.001 231.726 348.139 231.726 345.785L231.726 339.379 233.58 339.379 233.58 354.636 231.587 354.636 226.739 346.892C225.673 345.194 224.656 343.447 223.885 341.798L223.819 341.823C223.934 343.751 223.975 345.58 223.975 348.115L223.975 354.636 222.096 354.636Z" fill="#231F20" transform="matrix(1.00013 0 0 1 -1477 -38.0002)"/><path d="M250.059 346.991C250.059 352.06 246.819 354.89 242.972 354.89 238.855 354.89 236.115 351.65 236.115 347.097 236.115 342.414 239.035 339.124 243.243 339.124 247.59 339.133 250.059 342.578 250.059 346.991ZM238.215 347.04C238.215 350.502 239.978 353.29 243.079 353.29 246.294 353.29 247.968 350.37 247.968 347.04 247.968 343.915 246.45 340.749 243.104 340.749 239.937 340.74 238.215 343.595 238.215 347.04Z" fill="#231F20" transform="matrix(1.00013 0 0 1 -1477 -38.0002)"/><path d="M252.594 354.644 252.594 339.387 254.792 339.387 259.665 347.081C260.772 348.894 261.683 350.502 262.404 352.06L262.454 352.035C262.273 350.001 262.224 348.139 262.224 345.785L262.224 339.379 264.078 339.379 264.078 354.636 262.085 354.636 257.237 346.892C256.17 345.194 255.153 343.447 254.382 341.798L254.317 341.823C254.431 343.751 254.472 345.58 254.472 348.115L254.472 354.636 252.594 354.636Z" fill="#231F20" transform="matrix(1.00013 0 0 1 -1477 -38.0002)"/><path d="M272.248 347.467 272.248 349.279 266.653 349.279 266.653 347.467 272.248 347.467Z" fill="#231F20" transform="matrix(1.00013 0 0 1 -1477 -38.0002)"/><path d="M274.782 339.387 283.001 339.387 283.001 341.019 276.776 341.019 276.776 346.113 282.55 346.113 282.55 347.745 276.776 347.745 276.776 354.652 274.782 354.652 274.782 339.387Z" fill="#231F20" transform="matrix(1.00013 0 0 1 -1477 -38.0002)"/><path d="M285.782 339.387 287.775 339.387 287.775 352.971 294.297 352.971 294.297 354.644 285.782 354.644 285.782 339.387Z" fill="#231F20" transform="matrix(1.00013 0 0 1 -1477 -38.0002)"/><path d="M298.964 349.845 297.405 354.644 295.347 354.644 300.555 339.387 302.909 339.387 308.118 354.644 306.01 354.644 304.378 349.845 298.964 349.845ZM303.968 348.303 302.475 343.907C302.138 342.914 301.909 342.004 301.679 341.118L301.613 341.118C301.408 342.02 301.162 342.955 300.867 343.882L299.374 348.295 303.968 348.295Z" fill="#231F20" transform="matrix(1.00013 0 0 1 -1477 -38.0002)"/><path d="M323.146 347.942C323.006 345.834 322.875 343.259 322.899 341.38L322.834 341.38C322.317 343.144 321.636 345.211 320.89 347.245L318.24 354.562 316.682 354.562 314.262 347.294C313.516 345.145 312.925 343.177 312.523 341.38L312.457 341.38C312.392 343.259 312.318 345.793 312.162 348.106L311.752 354.652 309.874 354.652 310.94 339.395 313.45 339.395 316.05 346.802C316.682 348.639 317.182 350.444 317.568 352.035L317.633 352.035C318.019 350.493 318.56 348.705 319.266 346.786L321.981 339.403 324.491 339.403 325.442 354.66 323.498 354.66 323.146 347.942Z" fill="#231F20" transform="matrix(1.00013 0 0 1 -1477 -38.0002)"/><path d="M341.347 347.942C341.208 345.834 341.077 343.259 341.101 341.38L341.036 341.38C340.519 343.144 339.838 345.211 339.092 347.245L336.442 354.562 334.884 354.562 332.464 347.294C331.717 345.145 331.127 343.177 330.725 341.38L330.659 341.38C330.594 343.259 330.52 345.793 330.364 348.106L329.954 354.652 328.075 354.652 329.142 339.395 331.652 339.395 334.252 346.802C334.884 348.639 335.384 350.444 335.769 352.035L335.835 352.035C336.221 350.493 336.762 348.705 337.467 346.786L340.183 339.403 342.693 339.403 343.644 354.66 341.7 354.66 341.347 347.942Z" fill="#231F20" transform="matrix(1.00013 0 0 1 -1477 -38.0002)"/><path d="M348.91 349.845 347.352 354.644 345.293 354.644 350.502 339.387 352.856 339.387 358.064 354.644 355.956 354.644 354.324 349.845 348.91 349.845ZM353.914 348.303 352.421 343.907C352.085 342.914 351.855 342.004 351.625 341.118L351.56 341.118C351.355 342.02 351.109 342.955 350.813 343.882L349.32 348.295 353.914 348.295Z" fill="#231F20" transform="matrix(1.00013 0 0 1 -1477 -38.0002)"/><path d="M360.271 339.592C361.157 339.411 362.535 339.272 363.897 339.272 365.865 339.272 367.137 339.608 368.064 340.379 368.876 340.97 369.351 341.872 369.351 343.07 369.351 344.538 368.359 345.859 366.767 346.425L366.767 346.466C368.219 346.827 369.917 348.008 369.917 350.313 369.917 351.601 369.417 352.601 368.605 353.348 367.563 354.324 365.841 354.775 363.355 354.775 361.977 354.775 360.952 354.685 360.279 354.595L360.279 339.592ZM362.264 345.859 364.052 345.859C366.111 345.859 367.358 344.751 367.358 343.275 367.358 341.487 365.996 340.781 364.003 340.781 363.101 340.781 362.576 340.847 362.264 340.921L362.264 345.859ZM362.264 353.151C362.674 353.217 363.191 353.241 363.913 353.241 365.947 353.241 367.85 352.495 367.85 350.296 367.85 348.188 366.037 347.327 363.888 347.327L362.256 347.327 362.256 353.151Z" fill="#231F20" transform="matrix(1.00013 0 0 1 -1477 -38.0002)"/><path d="M372.542 339.387 374.535 339.387 374.535 352.971 381.057 352.971 381.057 354.644 372.542 354.644 372.542 339.387Z" fill="#231F20" transform="matrix(1.00013 0 0 1 -1477 -38.0002)"/><path d="M391.13 347.491 385.224 347.491 385.224 353.02 391.835 353.02 391.835 354.652 383.23 354.652 383.23 339.395 391.499 339.395 391.499 341.027 385.224 341.027 385.224 345.875 391.13 345.875 391.13 347.491Z" fill="#231F20" transform="matrix(1.00013 0 0 1 -1477 -38.0002)"/><path d="M214.476 381.811 214.476 366.554 216.674 366.554 221.547 374.248C222.654 376.061 223.565 377.669 224.287 379.227L224.336 379.203C224.155 377.169 224.106 375.307 224.106 372.952L224.106 366.546 225.96 366.546 225.96 381.803 223.967 381.803 219.119 374.06C218.052 372.362 217.035 370.615 216.264 368.966L216.199 368.99C216.313 370.918 216.355 372.747 216.355 375.282L216.355 381.803 214.476 381.803Z" fill="#231F20" transform="matrix(1.00013 0 0 1 -1477 -38.0002)"/><path d="M242.439 374.158C242.439 379.227 239.199 382.057 235.352 382.057 231.234 382.057 228.495 378.817 228.495 374.265 228.495 369.581 231.415 366.292 235.623 366.292 239.97 366.3 242.439 369.745 242.439 374.158ZM230.594 374.207C230.594 377.669 232.358 380.458 235.459 380.458 238.674 380.458 240.347 377.538 240.347 374.207 240.347 371.082 238.83 367.916 235.483 367.916 232.317 367.908 230.594 370.762 230.594 374.207Z" fill="#231F20" transform="matrix(1.00013 0 0 1 -1477 -38.0002)"/><path d="M244.974 381.811 244.974 366.554 247.172 366.554 252.044 374.248C253.152 376.061 254.062 377.669 254.784 379.227L254.833 379.203C254.653 377.169 254.604 375.307 254.604 372.952L254.604 366.546 256.458 366.546 256.458 381.803 254.464 381.803 249.616 374.06C248.55 372.362 247.533 370.615 246.762 368.966L246.696 368.99C246.811 370.918 246.852 372.747 246.852 375.282L246.852 381.803 244.974 381.803Z" fill="#231F20" transform="matrix(1.00013 0 0 1 -1477 -38.0002)"/><path d="M264.627 374.634 264.627 376.447 259.033 376.447 259.033 374.634 264.627 374.634Z" fill="#231F20" transform="matrix(1.00013 0 0 1 -1477 -38.0002)"/><path d="M268.975 368.228 264.332 368.228 264.332 366.554 275.627 366.554 275.627 368.228 270.96 368.228 270.96 381.811 268.967 381.811 268.967 368.228Z" fill="#231F20" transform="matrix(1.00013 0 0 1 -1477 -38.0002)"/><path d="M289.76 374.158C289.76 379.227 286.52 382.057 282.673 382.057 278.556 382.057 275.816 378.817 275.816 374.265 275.816 369.581 278.736 366.292 282.944 366.292 287.291 366.3 289.76 369.745 289.76 374.158ZM277.916 374.207C277.916 377.669 279.679 380.458 282.78 380.458 285.995 380.458 287.669 377.538 287.669 374.207 287.669 371.082 286.151 367.916 282.796 367.916 279.638 367.908 277.916 370.762 277.916 374.207Z" fill="#231F20" transform="matrix(1.00013 0 0 1 -1477 -38.0002)"/><path d="M300.055 381.811 298.111 378.44C297.299 377.152 296.823 376.315 296.347 375.43L296.298 375.43C295.872 376.332 295.412 377.128 294.641 378.465L292.804 381.811 290.54 381.811 295.207 374.092 290.72 366.554 292.984 366.554 295.018 370.131C295.584 371.123 296.011 371.894 296.446 372.731L296.495 372.731C296.921 371.804 297.307 371.123 297.873 370.131L299.956 366.554 302.22 366.554 297.578 373.978 302.335 381.811 300.055 381.811Z" fill="#231F20" transform="matrix(1.00013 0 0 1 -1477 -38.0002)"/><path d="M306.601 366.554 306.601 381.811 304.607 381.811 304.607 366.554 306.601 366.554Z" fill="#231F20" transform="matrix(1.00013 0 0 1 -1477 -38.0002)"/><path d="M320.709 381.336C319.987 381.672 318.536 382.057 316.657 382.057 312.375 382.057 309.143 379.318 309.143 374.314 309.143 369.54 312.384 366.325 317.117 366.325 318.995 366.325 320.217 366.71 320.742 366.981L320.266 368.589C319.52 368.228 318.454 367.957 317.19 367.957 313.614 367.957 311.235 370.245 311.235 374.248 311.235 377.981 313.384 380.384 317.1 380.384 318.298 380.384 319.52 380.138 320.316 379.752L320.709 381.336Z" fill="#231F20" transform="matrix(1.00013 0 0 1 -1477 -38.0002)"/><path d="M339.617 381.13C338.731 381.45 336.992 381.967 334.933 381.967 332.62 381.967 330.725 381.376 329.224 379.949 327.911 378.678 327.099 376.644 327.099 374.265 327.124 369.737 330.249 366.382 335.368 366.382 337.131 366.382 338.534 366.792 339.174 367.087L338.698 368.695C337.886 368.334 336.86 368.039 335.327 368.039 331.611 368.039 329.191 370.352 329.191 374.175 329.191 378.046 331.504 380.335 335.08 380.335 336.368 380.335 337.254 380.154 337.705 379.925L337.705 375.372 334.605 375.372 334.605 373.789 339.633 373.789 339.633 381.13Z" fill="#231F20" transform="matrix(1.00013 0 0 1 -1477 -38.0002)"/><path d="M345.088 377.013 343.529 381.811 341.47 381.811 346.679 366.554 349.033 366.554 354.242 381.811 352.134 381.811 350.502 377.013 345.088 377.013ZM350.091 375.471 348.599 371.074C348.262 370.081 348.033 369.171 347.803 368.285L347.737 368.285C347.532 369.187 347.286 370.122 346.991 371.049L345.498 375.462 350.091 375.462Z" fill="#231F20" transform="matrix(1.00013 0 0 1 -1477 -38.0002)"/><path d="M356.211 379.416C357.096 379.957 358.384 380.409 359.746 380.409 361.764 380.409 362.937 379.342 362.937 377.808 362.937 376.381 362.125 375.569 360.041 374.773 357.572 373.912 356.03 372.575 356.03 370.451 356.03 368.096 357.999 366.333 360.968 366.333 362.51 366.333 363.667 366.694 364.34 367.055L363.798 368.662C363.298 368.392 362.281 367.94 360.903 367.94 358.819 367.94 358.023 369.187 358.023 370.229 358.023 371.656 358.95 372.354 361.058 373.174 363.642 374.191 364.955 375.413 364.955 377.652 364.955 380.007 363.208 382.066 359.615 382.066 358.122 382.066 356.514 381.614 355.694 381.073L356.211 379.416Z" fill="#231F20" transform="matrix(1.00013 0 0 1 -1477 -38.0002)"/><path d="M375.52 374.658 369.614 374.658 369.614 380.187 376.225 380.187 376.225 381.819 367.621 381.819 367.621 366.562 375.889 366.562 375.889 368.195 369.614 368.195 369.614 373.043 375.52 373.043 375.52 374.658Z" fill="#231F20" transform="matrix(1.00013 0 0 1 -1477 -38.0002)"/><path d="M378.489 379.416C379.375 379.957 380.663 380.409 382.025 380.409 384.042 380.409 385.215 379.342 385.215 377.808 385.215 376.381 384.403 375.569 382.32 374.773 379.851 373.912 378.309 372.575 378.309 370.451 378.309 368.096 380.277 366.333 383.247 366.333 384.789 366.333 385.945 366.694 386.618 367.055L386.077 368.662C385.576 368.392 384.559 367.94 383.181 367.94 381.098 367.94 380.302 369.187 380.302 370.229 380.302 371.656 381.229 372.354 383.337 373.174 385.921 374.191 387.233 375.413 387.233 377.652 387.233 380.007 385.486 382.066 381.893 382.066 380.4 382.066 378.793 381.614 377.972 381.073L378.489 379.416Z" fill="#231F20" transform="matrix(1.00013 0 0 1 -1477 -38.0002)"/></g></g></g></g></svg>