<svg width="178" height="176" xmlns="http://www.w3.org/2000/svg" xmlns:xlink="http://www.w3.org/1999/xlink" xml:space="preserve" overflow="hidden"><g transform="translate(-109 -131)"><path d="M87.7194 157.211 17.6714 88.5589 88.7135 18.7892 159.756 88.5589Z" fill="#C82127" transform="matrix(1.00323 0 0 1 109 131)"/><path d="M87.8644 147.107 28.0435 88.4781 88.7135 28.8925 149.384 88.4781Z" fill="#C82127" transform="matrix(1.00323 0 0 1 109 131)"/><path d="M88.7111 39.3503C85.8262 44.8015 89.1916 47.8482 85.5051 55.704 83.4216 54.101 84.5442 48.1669 80.696 48.0076 81.1764 49.9317 80.8553 50.5738 80.696 51.2136 80.2156 53.9392 79.4141 56.1844 81.1764 59.5522 78.4508 58.2703 78.2915 55.8634 76.0463 54.2603 76.5267 56.8266 75.4041 62.1161 78.4508 67.2486 75.7252 66.9276 74.7619 65.9667 71.877 63.0793 74.9237 79.1144 77.3282 79.5948 88.7135 80.5557 87.7526 80.3963 81.9803 79.4331 79.8945 72.8592 79.8945 71.2562 79.7351 74.3029 85.3457 74.4623 81.8186 68.8493 82.7795 69.9719 83.1005 66.7658 84.7036 68.8493 83.4216 69.1704 87.4292 70.7734 86.1472 66.6041 89.5126 63.8785 88.7111 59.0694 89.672 61.1529 92.8804 60.8342 92.7187 70.7734 95.4443 67.7267 95.6037 69.8125 96.888 66.6041 97.0474 68.3689 97.8489 70.6117 94.1624 74.4599 95.1232 74.781 96.7287 74.9403 99.1332 73.1779 96.7287 76.0629 98.9738 76.0629 92.7187 80.5533 100.574 80.7126 105.707 75.7442 105.545 65.0011 105.224 65.9619 105.065 67.8861 100.896 68.3689 103.462 65.8026 104.903 60.5131 102.82 56.3438 102.018 56.9859 100.896 60.192 98.1699 60.9935 99.4519 58.7483 99.1308 55.8634 99.1308 55.8634 99.1308 55.8634 99.6112 51.8558 97.2067 48.6474 96.5645 53.4564 96.5645 56.0227 93.5178 56.6649 93.9983 53.9392 94.16 52.4956 92.557 49.2895 90.9563 45.9241 89.0322 42.5563 88.7111 39.3503ZM75.7252 83.2837 75.7252 86.1686 103.143 86.1686 103.143 83.2837 75.7252 83.2837Z" fill="#C82127" transform="matrix(1.00323 0 0 1 109 131)"/><path d="M87.7194 157.211 17.6714 88.5589 88.7135 18.7892 159.756 88.5589Z" fill="#C82127" transform="matrix(1.00323 0 0 1 109 131)"/><path d="M87.8644 147.107 28.0435 88.4781 88.7135 28.8925 149.384 88.4781Z" stroke="#FFFFFF" stroke-width="0.237838" stroke-miterlimit="10" fill="none" transform="matrix(1.00323 0 0 1 109 131)"/><path d="M88.7111 39.3503C85.8262 44.8015 89.1916 47.8482 85.5051 55.704 83.4216 54.101 84.5442 48.1669 80.696 48.0076 81.1764 49.9317 80.8553 50.5738 80.696 51.2136 80.2156 53.9392 79.4141 56.1844 81.1764 59.5522 78.4508 58.2703 78.2915 55.8634 76.0463 54.2603 76.5267 56.8266 75.4041 62.1161 78.4508 67.2486 75.7252 66.9276 74.7619 65.9667 71.877 63.0793 74.9237 79.1144 77.3282 79.5948 88.7135 80.5557 87.7526 80.3963 81.9803 79.4331 79.8945 72.8592 79.8945 71.2562 79.7351 74.3029 85.3457 74.4623 81.8186 68.8493 82.7795 69.9719 83.1005 66.7658 84.7036 68.8493 83.4216 69.1704 87.4292 70.7734 86.1472 66.6041 89.5126 63.8785 88.7111 59.0694 89.672 61.1529 92.8804 60.8342 92.7187 70.7734 95.4443 67.7267 95.6037 69.8125 96.888 66.6041 97.0474 68.3689 97.8489 70.6117 94.1624 74.4599 95.1232 74.781 96.7287 74.9403 99.1332 73.1779 96.7287 76.0629 98.9738 76.0629 92.7187 80.5533 100.574 80.7126 105.707 75.7442 105.545 65.0011 105.224 65.9619 105.065 67.8861 100.896 68.3689 103.462 65.8026 104.903 60.5131 102.82 56.3438 102.018 56.9859 100.896 60.192 98.1699 60.9935 99.4519 58.7483 99.1308 55.8634 99.1308 55.8634 99.1308 55.8634 99.6112 51.8558 97.2067 48.6474 96.5645 53.4564 96.5645 56.0227 93.5178 56.6649 93.9983 53.9392 94.16 52.4956 92.557 49.2895 90.9563 45.9241 89.0322 42.5563 88.7111 39.3503ZM75.7252 83.2837 75.7252 86.1686 103.143 86.1686 103.143 83.2837 75.7252 83.2837Z" transform="matrix(1.00323 0 0 1 109 131)"/><text fill="#231F20" font-family="Arial,Arial_MSFontService,sans-serif" font-weight="400" font-size="60.5294" transform="matrix(0.217871 0 0 0.237838 195.918 270)">3</text><path d="M55.6184 95.6869 55.5684 98.5291C55.5684 98.6004 55.4257 99.2569 55.3496 99.5875L50.0435 99.4971 50.1172 95.2755C50.1267 94.7332 50.1671 94.3693 50.2195 94.1457 49.9008 94.141 49.5012 94.1101 49.3728 94.0601L49.5916 93.0136C49.896 93.0778 50.5691 93.0897 51.2184 93.1016L53.5991 93.1421C55.333 93.1706 55.6541 93.6701 55.6184 95.6869ZM53.5325 94.2123 51.021 94.1695 50.9472 98.4363 54.6718 98.5005 54.717 95.9533C54.7384 94.7879 54.6171 94.2314 53.5325 94.2123Z" fill="#231F20" transform="matrix(1.00323 0 0 1 109 131)"/><path d="M57.2143 96.8119C57.7113 96.0651 57.9801 95.4919 57.9872 95.021 57.9944 94.6333 57.7732 94.4977 57.2333 94.336 56.9526 94.248 56.7172 94.1743 56.5174 94.0886L56.7362 93.0541C56.9003 93.1159 57.1358 93.1896 57.4283 93.2657 58.5438 93.5321 58.9267 93.8936 58.9124 94.7665 58.9005 95.5085 58.5319 96.3291 57.9397 97.1782L57.2143 96.8119Z" fill="#231F20" transform="matrix(1.00323 0 0 1 109 131)"/><path d="M60.4964 95.9604C60.5107 95.1708 60.5559 94.5572 60.6201 94.3241 60.4084 94.3075 59.8424 94.2646 59.7615 94.2504L59.9803 93.192C60.2277 93.2562 60.8175 93.2657 61.619 93.28L63.7524 93.318C65.4744 93.3466 65.7955 93.8841 65.7598 95.8415L65.6908 99.7682 64.7704 99.7516 64.8322 96.1674C64.8536 94.8711 64.7442 94.4097 63.624 94.3883L61.4311 94.3503 61.3384 99.6897 60.4298 99.6731 60.4964 95.9604Z" fill="#231F20" transform="matrix(1.00323 0 0 1 109 131)"/><path d="M69.1062 98.6456C70.5284 98.2579 71.7224 97.3232 71.7533 95.5537 71.7676 94.7998 71.5012 94.5239 70.6045 94.5072L68.9896 94.4787C68.1881 94.4644 67.4342 94.4525 67.2463 94.3669L67.4651 93.3323C67.7933 93.3965 68.4307 93.3965 69.1965 93.4084L70.8471 93.437C72.355 93.4631 72.6999 93.9888 72.6785 95.3088 72.6333 97.856 70.909 99.44 68.9088 99.9133L69.1062 98.6456ZM67.4508 96.2339 68.3712 96.2506 68.2713 102.075 67.3509 102.059 67.4508 96.2339Z" fill="#231F20" transform="matrix(1.00323 0 0 1 109 131)"/><path d="M74.3053 98.8169C75.8822 98.3721 77.1284 97.1686 77.157 95.5062 77.1689 94.7641 76.8787 94.6167 76.2532 94.6071L73.4467 94.5596 73.4752 92.8614C73.4871 92.1431 73.4681 91.2822 73.342 90.9849L74.3005 90.8374C74.3695 90.992 74.4028 91.7935 74.3862 92.6664L74.3719 93.5036 76.648 93.544C77.8515 93.5654 78.1226 94.1719 78.1059 95.2207 78.0608 97.8727 75.9416 99.6398 74.0722 100.02L74.3053 98.8169Z" fill="#231F20" transform="matrix(1.00323 0 0 1 109 131)"/><path d="M78.9479 98.981C79.1263 98.9477 79.2904 98.9286 79.9159 98.9382L80.0919 98.9405C80.099 97.7965 80.0467 95.4253 79.9777 94.669L79.9421 94.669C79.7304 94.6642 79.2357 94.6452 79.0478 94.5715L79.2785 93.5369C79.6424 93.613 80.4082 93.6035 81.1289 93.6153L83.0625 93.6487C84.7963 93.6796 85.1174 94.0958 85.0841 96.1126L85.0151 100.096 84.0947 100.08 84.1589 96.4242C84.1779 95.2564 84.059 94.7356 82.9626 94.7165L80.8886 94.6809C80.9338 95.4372 81.0171 98.139 80.9909 98.9643L80.8078 100.023 79.8755 100.006C79.4045 99.9989 78.9788 100.004 78.7077 100.032L78.9479 98.981Z" fill="#231F20" transform="matrix(1.00323 0 0 1 109 131)"/><path d="M87.2104 96.517C87.3959 95.342 86.9321 94.8735 86.1924 94.6832L86.4231 93.5916C87.365 93.7604 87.9191 94.3717 88.0095 95.2826 88.2925 94.5691 89.0179 93.6487 90.326 93.6724 92.1645 93.7034 92.5831 95.3968 92.5451 97.6729L92.5189 99.1784C92.5165 99.2854 92.3738 100.061 92.3358 100.225L90.0121 100.184C89.5412 100.177 88.9276 100.177 88.6802 100.196L88.899 99.1498C89.1464 99.107 89.7005 99.1165 90.3498 99.1284L91.589 99.1498C91.6104 98.6551 91.6175 98.1723 91.627 97.699 91.6532 96.2125 91.4891 94.7594 90.1096 94.7356 88.8015 94.7142 88.3187 96.0009 88.1284 96.8 87.9263 97.5872 87.6551 99.0095 87.4221 100.137L86.5016 100.12C86.7561 98.9144 87.0653 97.3875 87.2104 96.517Z" fill="#231F20" transform="matrix(1.00323 0 0 1 109 131)"/><path d="M102.518 96.4979 102.468 99.3401C102.468 99.4115 102.325 100.068 102.249 100.398L96.9427 100.306 97.0164 96.0841C97.0259 95.5418 97.0664 95.1779 97.1187 94.9544 96.8 94.9496 96.4004 94.9187 96.272 94.8688L96.4908 93.8223C96.7976 93.8865 97.4683 93.8984 98.1176 93.9103L100.498 93.9507C102.23 93.9816 102.553 94.4835 102.518 96.4979ZM100.432 95.0234 97.9202 94.9805 97.8465 99.2474 101.571 99.3116 101.616 96.7643C101.638 95.5989 101.516 95.0424 100.432 95.0234Z" fill="#231F20" transform="matrix(1.00323 0 0 1 109 131)"/><path d="M104.361 97.6277C104.858 96.8809 105.127 96.3077 105.134 95.8368 105.141 95.4491 104.917 95.3135 104.38 95.1518 104.099 95.0638 103.864 94.9901 103.664 94.9044L103.883 93.8698C104.047 93.9317 104.282 94.0054 104.575 94.0815 105.69 94.3479 106.073 94.7094 106.059 95.5823 106.047 96.3243 105.678 97.1449 105.086 97.9939L104.361 97.6277Z" fill="#231F20" transform="matrix(1.00323 0 0 1 109 131)"/><path d="M108.033 99.4019C109.61 98.9572 110.856 97.7514 110.885 96.0912 110.897 95.3492 110.606 95.2017 109.981 95.1922L107.174 95.1423 107.203 93.4441C107.215 92.7258 107.196 91.8649 107.07 91.5676L108.028 91.4201C108.097 91.5747 108.131 92.3762 108.114 93.2491L108.1 94.0863 110.376 94.1267C111.579 94.1481 111.85 94.7546 111.834 95.8035 111.789 98.4553 109.669 100.222 107.8 100.603L108.033 99.4019Z" fill="#231F20" transform="matrix(1.00323 0 0 1 109 131)"/><path d="M113.444 96.8167C113.48 96.1459 113.594 95.7107 113.893 95.4086 113.434 95.3302 112.695 95.1756 112.426 95.0638L112.645 94.0173C113.161 94.2504 115.171 94.5572 115.948 94.6167L115.753 95.675C115.506 95.6584 115.071 95.5799 114.907 95.5656 114.576 95.549 114.421 95.7226 114.371 96.5598 114.35 97.1734 114.395 99.2949 114.455 100.605L113.522 100.589C113.461 98.5981 113.422 97.3708 113.444 96.8167Z" fill="#231F20" transform="matrix(1.00323 0 0 1 109 131)"/><path d="M117.922 96.9784C117.939 95.9652 117.83 95.5965 116.912 95.3563 116.5 95.2422 116.277 95.1922 116.115 95.1185L116.334 94.0839C116.486 94.1457 116.721 94.2076 117.145 94.286 118.46 94.5929 118.876 95.0352 118.845 96.8285L118.779 100.684 117.858 100.667 117.922 96.9784Z" fill="#231F20" transform="matrix(1.00323 0 0 1 109 131)"/><path d="M120.094 99.6802C120.389 99.6493 120.767 99.6445 121.545 99.6588L122.37 99.6731 122.415 97.045C122.432 96.0199 122.32 95.7345 121.276 95.4681 120.853 95.3658 120.441 95.2659 120.256 95.1898L120.474 94.1552C120.627 94.2171 120.979 94.3051 121.485 94.4073 122.848 94.7142 123.371 95.1232 123.34 96.8571L123.29 99.7206 123.072 100.755 121.433 100.727C120.926 100.717 120.113 100.715 119.877 100.736L120.094 99.6802Z" fill="#231F20" transform="matrix(1.00323 0 0 1 109 131)"/><path d="M53.4612 105.678 56.1844 105.678 56.1844 106.218 54.12 106.218 54.12 107.907 56.0346 107.907 56.0346 108.447 54.12 108.447 54.12 110.735 53.4588 110.735 53.4588 105.678Z" fill="#231F20" transform="matrix(1.00323 0 0 1 109 131)"/><path d="M57.1072 105.678 57.7684 105.678 57.7684 110.181 59.9304 110.181 59.9304 110.735 57.1096 110.735 57.1096 105.678Z" fill="#231F20" transform="matrix(1.00323 0 0 1 109 131)"/><path d="M61.4739 109.146 60.9555 110.737 60.2729 110.737 61.9996 105.678 62.7797 105.678 64.5064 110.737 63.8095 110.737 63.2696 109.146 61.4739 109.146ZM63.1341 108.637 62.6394 107.182C62.5276 106.851 62.4515 106.551 62.3777 106.259L62.3563 106.259C62.2897 106.558 62.2065 106.868 62.109 107.174L61.6143 108.637 63.1341 108.637Z" fill="#231F20" transform="matrix(1.00323 0 0 1 109 131)"/><path d="M69.4891 108.516C69.4439 107.817 69.3987 106.963 69.4058 106.34L69.3844 106.34C69.2108 106.925 68.9872 107.607 68.7399 108.283L67.8623 110.706 67.3438 110.706 66.5399 108.297C66.2925 107.584 66.0975 106.932 65.9619 106.337L65.9405 106.337C65.9191 106.96 65.8953 107.8 65.843 108.566L65.7075 110.735 65.0843 110.735 65.4363 105.676 66.2688 105.676 67.1321 108.131C67.3414 108.739 67.5079 109.339 67.6339 109.864L67.6553 109.864C67.7838 109.353 67.9622 108.761 68.1952 108.123L69.0966 105.676 69.9291 105.676 70.2454 110.735 69.6009 110.735 69.4891 108.516Z" fill="#231F20" transform="matrix(1.00323 0 0 1 109 131)"/><path d="M75.5206 108.516C75.4755 107.817 75.4303 106.963 75.4374 106.34L75.416 106.34C75.2424 106.925 75.0188 107.607 74.7715 108.283L73.8938 110.706 73.3754 110.706 72.5715 108.297C72.3241 107.584 72.1291 106.932 71.9935 106.337L71.9721 106.337C71.9507 106.96 71.9269 107.8 71.8746 108.566L71.739 110.735 71.1159 110.735 71.4679 105.676 72.3003 105.676 73.1637 108.131C73.373 108.739 73.5395 109.339 73.6655 109.864L73.6869 109.864C73.8153 109.353 73.9937 108.761 74.2268 108.123L75.1282 105.676 75.9606 105.676 76.277 110.735 75.6324 110.735 75.5206 108.516Z" fill="#231F20" transform="matrix(1.00323 0 0 1 109 131)"/><path d="M78.0275 109.146 77.509 110.737 76.8264 110.737 78.5531 105.678 79.3332 105.678 81.0599 110.737 80.363 110.737 79.8231 109.146 78.0275 109.146ZM79.6852 108.637 79.1905 107.182C79.0787 106.851 79.0026 106.551 78.9289 106.259L78.9075 106.259C78.8409 106.558 78.7576 106.868 78.6601 107.174L78.1654 108.637 79.6852 108.637Z" fill="#231F20" transform="matrix(1.00323 0 0 1 109 131)"/><path d="M81.7924 105.747C82.085 105.688 82.544 105.643 82.9935 105.643 83.6476 105.643 84.0662 105.755 84.3754 106.011 84.6465 106.206 84.8035 106.506 84.8035 106.903 84.8035 107.391 84.4729 107.826 83.9472 108.014L83.9472 108.028C84.4277 108.147 84.9914 108.54 84.9914 109.303 84.9914 109.731 84.8272 110.062 84.5561 110.309 84.2112 110.633 83.6404 110.782 82.8151 110.782 82.3585 110.782 82.0208 110.752 81.7948 110.723L81.7948 105.747ZM82.4536 107.826 83.0458 107.826C83.7284 107.826 84.1423 107.458 84.1423 106.97 84.1423 106.378 83.6928 106.145 83.0316 106.145 82.7319 106.145 82.5583 106.166 82.4536 106.19L82.4536 107.826ZM82.4536 110.243C82.5892 110.264 82.7604 110.274 83.0006 110.274 83.6761 110.274 84.3064 110.026 84.3064 109.298 84.3064 108.602 83.707 108.316 82.9935 108.316L82.4536 108.316 82.4536 110.243Z" fill="#231F20" transform="matrix(1.00323 0 0 1 109 131)"/><path d="M85.8595 105.678 86.5206 105.678 86.5206 110.181 88.6826 110.181 88.6826 110.735 85.8595 110.735 85.8595 105.678Z" fill="#231F20" transform="matrix(1.00323 0 0 1 109 131)"/><path d="M92.0195 108.366 90.0597 108.366 90.0597 110.197 92.2502 110.197 92.2502 110.737 89.3985 110.737 89.3985 105.678 92.1384 105.678 92.1384 106.218 90.0597 106.218 90.0597 107.824 92.0195 107.824 92.0195 108.366Z" fill="#231F20" transform="matrix(1.00323 0 0 1 109 131)"/><path d="M94.6832 105.678 95.3444 105.678 95.3444 110.181 97.5064 110.181 97.5064 110.735 94.6832 110.735 94.6832 105.678Z" fill="#231F20" transform="matrix(1.00323 0 0 1 109 131)"/><path d="M98.8858 105.678 98.8858 110.737 98.2246 110.737 98.2246 105.678 98.8858 105.678Z" fill="#231F20" transform="matrix(1.00323 0 0 1 109 131)"/><path d="M104.19 111.482C103.612 111.325 102.967 111.123 102.261 110.897 102.125 110.851 102.028 110.83 101.947 110.821 100.558 110.744 99.7254 109.724 99.7254 108.247 99.7254 106.694 100.686 105.598 102.09 105.598 103.531 105.598 104.349 106.746 104.349 108.195 104.349 109.441 103.74 110.288 102.908 110.59L102.908 110.621C103.41 110.74 103.959 110.861 104.394 110.937L104.19 111.482ZM103.657 108.209C103.657 107.151 103.138 106.13 102.051 106.13 100.972 106.13 100.422 107.129 100.422 108.223 100.422 109.32 100.969 110.288 102.028 110.288 103.096 110.288 103.657 109.327 103.657 108.209Z" fill="#231F20" transform="matrix(1.00323 0 0 1 109 131)"/><path d="M105.847 105.678 105.847 108.687C105.847 109.805 106.342 110.285 107.027 110.285 107.769 110.285 108.257 109.791 108.257 108.687L108.257 105.678 108.911 105.678 108.911 108.635C108.911 110.188 108.1 110.818 107.003 110.818 105.969 110.818 105.186 110.233 105.186 108.663L105.186 105.676 105.847 105.676Z" fill="#231F20" transform="matrix(1.00323 0 0 1 109 131)"/><path d="M110.704 105.678 110.704 110.737 110.043 110.737 110.043 105.678 110.704 105.678Z" fill="#231F20" transform="matrix(1.00323 0 0 1 109 131)"/><path d="M111.836 105.747C112.24 105.688 112.714 105.643 113.232 105.643 114.169 105.643 114.838 105.862 115.28 106.273 115.73 106.687 115.994 107.279 115.994 108.09 115.994 108.915 115.739 109.584 115.266 110.057 114.785 110.53 114.012 110.785 113.03 110.785 112.564 110.785 112.174 110.763 111.836 110.725L111.836 105.747ZM112.495 110.219C112.661 110.25 112.902 110.257 113.156 110.257 114.552 110.257 115.311 109.477 115.311 108.112 115.318 106.918 114.643 106.159 113.261 106.159 112.923 106.159 112.669 106.197 112.495 106.226L112.495 110.219Z" fill="#231F20" transform="matrix(1.00323 0 0 1 109 131)"/><path d="M116.75 109.943C117.042 110.124 117.47 110.274 117.92 110.274 118.588 110.274 118.978 109.922 118.978 109.41 118.978 108.937 118.707 108.668 118.018 108.404 117.199 108.119 116.69 107.676 116.69 106.97 116.69 106.19 117.342 105.605 118.327 105.605 118.838 105.605 119.219 105.724 119.445 105.845L119.264 106.378C119.1 106.287 118.762 106.138 118.303 106.138 117.613 106.138 117.349 106.551 117.349 106.896 117.349 107.37 117.656 107.603 118.355 107.871 119.211 108.209 119.647 108.613 119.647 109.358 119.647 110.138 119.069 110.821 117.875 110.821 117.38 110.821 116.847 110.671 116.576 110.49L116.75 109.943Z" fill="#231F20" transform="matrix(1.00323 0 0 1 109 131)"/></g></svg>