<svg width="178" height="176" xmlns="http://www.w3.org/2000/svg" xmlns:xlink="http://www.w3.org/1999/xlink" xml:space="preserve" overflow="hidden"><g transform="translate(53 -56)"><path d="M85.5907 153.998 18.7963 88.5328 86.5397 22.0024 154.283 88.5328Z" stroke="#323031" stroke-width="0.237838" stroke-miterlimit="10" stroke-dasharray="1.42703 1.42703" fill="#FFFFFF" transform="matrix(1.00323 0 0 1 -53 56)"/><path d="M85.7287 144.363 28.6856 88.4543 86.5397 31.6372 144.394 88.4543Z" stroke="#3B3A3C" stroke-width="0.237838" stroke-miterlimit="10" fill="none" transform="matrix(1.00323 0 0 1 -53 56)"/><path d="M143.768 77.723 143.69 88.4566 154.692 88.4519Z" fill="#231F20" transform="matrix(1.00323 0 0 1 -53 56)"/><path d="M111.508 46.0383 103.322 37.9994 102.958 88.4733 111.203 88.4709Z" fill="#231F20" transform="matrix(1.00323 0 0 1 -53 56)"/><path d="M131.731 65.9001 123.545 57.8612 123.324 88.4638 131.57 88.4614Z" fill="#231F20" transform="matrix(1.00323 0 0 1 -53 56)"/><path d="M50.3217 58.0538 42.0188 66.2093 41.8595 88.5018 50.1029 88.4971Z" fill="#231F20" transform="matrix(1.00323 0 0 1 -53 56)"/><path d="M91.2845 26.1788 87.032 22.0024 83.0411 25.9219 82.5916 88.4828 90.835 88.4781Z" fill="#231F20" transform="matrix(1.00323 0 0 1 -53 56)"/><path d="M70.8329 37.9114 62.5299 46.0644 62.2255 88.4923 70.469 88.4876Z" fill="#231F20" transform="matrix(1.00323 0 0 1 -53 56)"/><path d="M29.8106 78.1987 19.3124 88.5114 29.7369 88.5066Z" fill="#231F20" transform="matrix(1.00323 0 0 1 -53 56)"/><text fill="#231F20" font-family="Arial,Arial_MSFontService,sans-serif" font-weight="400" font-size="57.7195" transform="matrix(0.217871 0 0 0.237838 32.9941 191)">9</text><path d="M47.4653 93.4964 47.4344 95.2207C47.4344 95.2636 47.3488 95.6631 47.3012 95.8629L44.0809 95.8082 44.1261 93.2467C44.1308 92.9185 44.157 92.6973 44.1879 92.5617 43.9952 92.5594 43.7527 92.5403 43.6742 92.5094L43.8074 91.8744C43.9929 91.9124 44.3996 91.9196 44.7944 91.9267L46.2404 91.9529C47.2917 91.9695 47.4867 92.2739 47.4653 93.4964ZM46.2 92.6022 44.6755 92.576 44.6303 95.1661 46.8921 95.2065 46.9183 93.6605C46.9325 92.9494 46.8588 92.6117 46.2 92.6022Z" fill="#231F20" transform="matrix(1.00323 0 0 1 -53 56)"/><path d="M48.4333 94.179C48.7354 93.7271 48.8971 93.3775 48.9018 93.0921 48.9066 92.8567 48.771 92.7758 48.4428 92.6759 48.2716 92.6236 48.1289 92.5784 48.0076 92.5261L48.1408 91.8982C48.2407 91.9362 48.3834 91.9814 48.5617 92.0266 49.2396 92.1883 49.4703 92.4071 49.4631 92.9375 49.456 93.3894 49.2324 93.8865 48.8733 94.4026L48.4333 94.179Z" fill="#231F20" transform="matrix(1.00323 0 0 1 -53 56)"/><path d="M52.0342 93.7271C52.0461 93.0184 51.9723 92.702 51.3016 92.6902L50.5929 92.6783C50.1719 92.6711 49.8984 92.6521 49.7985 92.6212L49.9317 91.9862C50.0744 92.0171 50.4383 92.0242 50.9258 92.0314L51.3706 92.0385C52.4147 92.0575 52.6121 92.3096 52.5907 93.5345L52.5479 95.9533 51.9961 95.9438 52.0342 93.7271Z" fill="#231F20" transform="matrix(1.00323 0 0 1 -53 56)"/><path d="M53.7442 93.72C53.7514 93.2396 53.7799 92.8685 53.8179 92.7258 53.6895 92.7163 53.347 92.6902 53.2971 92.6806L53.4303 92.0385C53.5801 92.0765 53.9369 92.0837 54.4244 92.0908L55.7206 92.1122C56.7648 92.1312 56.9598 92.4547 56.9408 93.6439L56.9003 96.027 56.3414 96.0175 56.3795 93.8413C56.3937 93.0541 56.3271 92.7734 55.6469 92.7615L54.315 92.7377 54.2579 95.9795 53.7062 95.9699 53.7442 93.72Z" fill="#231F20" transform="matrix(1.00323 0 0 1 -53 56)"/><path d="M57.8636 95.0947C57.8755 94.3931 58.0515 93.7462 58.5699 93.2182 58.2608 92.8471 57.904 92.4761 57.621 92.2074L57.6424 92.1717 58.4082 92.1265C58.7673 92.5046 59.2858 93.1159 60.0208 94.0577 60.3109 93.8698 60.4941 93.5868 60.5012 93.1278 60.4988 92.8567 60.4322 92.5332 60.3014 92.2216L61.003 92.1693C61.091 92.4428 61.1291 92.702 61.1243 93.016 61.1148 93.6035 60.8056 94.1196 60.2848 94.4121 60.6629 94.8902 61.2551 95.7607 61.4644 96.1079L60.7057 96.0936C60.4703 95.7036 59.8685 94.8045 58.8672 93.5987 58.5462 93.9792 58.4724 94.4858 58.4796 94.9449 58.4796 95.354 58.5723 95.7559 58.6603 96.0579L57.973 96.0461C57.904 95.7678 57.8588 95.4158 57.8636 95.0947Z" fill="#231F20" transform="matrix(1.00323 0 0 1 -53 56)"/><path d="M67.1178 93.8365 67.0869 95.5609C67.0869 95.6037 67.0013 96.0032 66.9537 96.203L63.7334 96.1483 63.7786 93.5868C63.7833 93.2586 63.8095 93.0374 63.8404 92.9018 63.6478 92.8995 63.4052 92.8804 63.3267 92.8495L63.4599 92.2145C63.6454 92.2525 64.0545 92.2597 64.4469 92.2668L65.893 92.293C66.9442 92.3096 67.1392 92.6141 67.1178 93.8365ZM65.8525 92.9423 64.328 92.9161 64.2828 95.5062 66.5446 95.5466 66.5708 94.0006C66.5827 93.2895 66.5114 92.9518 65.8525 92.9423Z" fill="#231F20" transform="matrix(1.00323 0 0 1 -53 56)"/><path d="M67.9717 94.5168C68.2737 94.0649 68.4378 93.7152 68.4426 93.4298 68.4473 93.1944 68.3118 93.1135 67.9836 93.0136 67.8123 92.9613 67.6696 92.9161 67.5507 92.8638L67.6839 92.2359C67.7838 92.2739 67.9265 92.3191 68.1049 92.3643 68.7827 92.5261 69.0134 92.7449 69.0063 93.2752 68.9991 93.7271 68.7756 94.2242 68.4164 94.7403L67.9717 94.5168Z" fill="#231F20" transform="matrix(1.00323 0 0 1 -53 56)"/><path d="M69.5129 95.6251C69.6912 95.6061 69.9219 95.6037 70.3929 95.6108L70.8947 95.6203 70.9232 94.0244C70.9351 93.4013 70.8662 93.23 70.2311 93.0683 69.9743 93.0065 69.7245 92.9446 69.6104 92.8995L69.7436 92.2716C69.8363 92.3096 70.0504 92.3619 70.3572 92.4262 71.1849 92.6117 71.5012 92.8614 71.4845 93.9126L71.4536 95.6512 71.3204 96.2791 70.3263 96.2625C70.0195 96.2577 69.5248 96.2553 69.3821 96.2672L69.5129 95.6251Z" fill="#231F20" transform="matrix(1.00323 0 0 1 -53 56)"/><path d="M72.1885 95.6703C72.3312 95.6512 72.7403 95.6584 73.1613 95.6655L74.5289 95.6893C74.6074 95.3325 74.6811 94.7831 74.6882 94.3598 74.7049 93.4013 74.4956 93.0897 73.7155 93.0755L73.0566 93.0636C72.6333 93.0564 72.3408 93.0374 72.2337 93.0065L72.3741 92.3715C72.5168 92.4024 72.8664 92.4095 73.2683 92.4166L73.8629 92.4262C75.0426 92.4476 75.2638 92.9732 75.24 94.3098 75.2257 95.0757 75.0925 95.8249 74.9689 96.3386L73.0019 96.3053C72.6951 96.3005 72.229 96.2839 72.0577 96.3101L72.1885 95.6703Z" fill="#231F20" transform="matrix(1.00323 0 0 1 -53 56)"/><path d="M76.9096 94.1338C76.9191 93.5178 76.8525 93.2943 76.296 93.1492 76.0463 93.0802 75.9107 93.0493 75.8108 93.0041L75.944 92.3762C76.0368 92.4143 76.1795 92.4523 76.4363 92.4999 77.2355 92.6854 77.4876 92.9542 77.4685 94.0435L77.4281 96.3838 76.8692 96.3743 76.9096 94.1338Z" fill="#231F20" transform="matrix(1.00323 0 0 1 -53 56)"/><path d="M78.3438 93.1516C78.1797 93.1421 78.0726 93.1254 77.9799 93.1016L78.1202 92.4666C78.2344 92.4975 78.691 92.5118 79.1358 92.5189L80.7602 92.5475C81.6331 92.5617 81.7829 93.0231 81.771 93.7604 81.7425 95.4419 80.7483 96.2054 79.7946 96.36 79.4212 96.4242 79.0692 96.448 78.8694 96.4575 78.7029 95.4895 78.4342 93.6891 78.3438 93.1516ZM79.9016 95.7178C80.7911 95.5537 81.1836 94.8236 81.2002 93.9079 81.2074 93.437 81.0765 93.2039 80.5818 93.1968L78.9146 93.1682C78.9907 93.6915 79.2095 95.1137 79.3118 95.7939 79.4426 95.7821 79.6662 95.7654 79.9016 95.7178Z" fill="#231F20" transform="matrix(1.00323 0 0 1 -53 56)"/><path d="M82.9103 94.2813C83.0221 93.5678 82.7414 93.2824 82.2919 93.1682L82.4322 92.5046C83.003 92.6069 83.3408 92.9779 83.3955 93.5297 83.5667 93.0969 84.0067 92.5379 84.8011 92.5522 85.9165 92.5712 86.171 93.5987 86.1472 94.9805L86.1306 95.8962C86.1306 95.9604 86.0426 96.4314 86.0188 96.5312L84.6084 96.5075C84.323 96.5027 83.9496 96.5027 83.7998 96.5146L83.933 95.8796C84.0828 95.8534 84.4205 95.8605 84.813 95.8653L85.5645 95.8772C85.5764 95.5775 85.5812 95.2826 85.5859 94.9972 85.6026 94.0958 85.5027 93.2134 84.6655 93.1991 83.8711 93.1849 83.5786 93.9673 83.4621 94.4525 83.3384 94.9306 83.1743 95.7939 83.0339 96.4789L82.475 96.4694C82.6344 95.7369 82.8223 94.8093 82.9103 94.2813Z" fill="#231F20" transform="matrix(1.00323 0 0 1 -53 56)"/><path d="M92.2002 94.2718 92.1717 95.9961C92.1717 96.0389 92.0861 96.4385 92.0385 96.6383L88.8182 96.5836 88.8633 94.0221C88.8681 93.6938 88.8943 93.4703 88.9252 93.3371 88.7325 93.3347 88.4899 93.3157 88.4115 93.2848L88.5446 92.6497C88.7302 92.6878 89.1369 92.6949 89.5317 92.702L90.9777 92.7258C92.0266 92.7425 92.2216 93.0469 92.2002 94.2718ZM90.9349 93.3751 89.4104 93.349 89.3652 95.939 91.627 95.9795 91.6532 94.4335C91.6651 93.7248 91.5937 93.387 90.9349 93.3751Z" fill="#231F20" transform="matrix(1.00323 0 0 1 -53 56)"/><path d="M93.3537 94.9568C93.6558 94.5049 93.8199 94.1552 93.8246 93.8698 93.8294 93.6344 93.6938 93.5535 93.3656 93.4536 93.1944 93.4013 93.0517 93.3561 92.9304 93.3038L93.0636 92.6759C93.1635 92.7139 93.3062 92.7591 93.4845 92.8043 94.1624 92.9661 94.3931 93.1849 94.3859 93.7152 94.3788 94.1671 94.1552 94.6642 93.7961 95.1803L93.3537 94.9568Z" fill="#231F20" transform="matrix(1.00323 0 0 1 -53 56)"/><path d="M95.0448 96.0746C95.2089 96.0484 95.6179 96.0484 96.0246 96.0556L97.133 96.0746C96.9356 95.8701 96.4956 95.2969 95.7392 94.2623 95.3825 93.77 94.9639 93.1968 94.6761 92.8186L95.48 92.7615C95.7725 93.1968 96.2625 93.9341 96.6525 94.4858 97.1996 94.2742 97.2923 93.9602 97.2995 93.5654 97.3042 93.3513 97.2305 93.0636 97.1472 92.8614L97.8489 92.8091C97.9036 92.9827 97.9345 93.1968 97.9321 93.4251 97.9202 94.1053 97.6538 94.5572 96.8975 94.8592 97.485 95.6703 97.8703 96.115 97.9892 96.2102L97.8584 96.7382 95.9414 96.7049C95.461 96.6977 95.04 96.6954 94.883 96.7072L95.0448 96.0746Z" fill="#231F20" transform="matrix(1.00323 0 0 1 -53 56)"/><path d="M98.6361 96.1364C98.8074 96.1103 99.2878 96.1198 99.7254 96.1198L101.264 96.1459 101.286 94.864C101.293 94.0768 101.055 93.7723 100.17 93.6058 99.8491 93.544 99.5637 93.4941 99.3782 93.4631 99.2592 93.6819 99.1712 93.8817 99.1665 94.0458 99.1617 94.3027 99.3306 94.4787 99.8515 94.5738L99.6969 95.1875C98.9049 95.0733 98.6385 94.6975 98.648 94.1743 98.6551 93.7295 98.9881 93.1849 99.1451 92.7805 99.2592 92.8115 99.6517 92.8828 100.251 92.9779 101.321 93.1397 101.866 93.4917 101.837 94.7379L101.811 96.1983C101.809 96.2768 101.73 96.7049 101.709 96.8048L99.4757 96.7667C99.1189 96.7596 98.667 96.7524 98.5029 96.7715L98.6361 96.1364Z" fill="#231F20" transform="matrix(1.00323 0 0 1 -53 56)"/><path d="M103 94.5715C103.01 94.091 103.036 93.72 103.074 93.5773 102.946 93.5678 102.603 93.5392 102.553 93.5321L102.686 92.8899C102.836 92.928 103.193 92.9351 103.681 92.9423L104.977 92.9637C106.021 92.9827 106.216 93.3062 106.197 94.4954L106.157 96.8785 105.598 96.869 105.636 94.6928C105.65 93.9055 105.583 93.6249 104.903 93.613L103.571 93.5892 103.514 96.8309 102.962 96.8214 103 94.5715Z" fill="#231F20" transform="matrix(1.00323 0 0 1 -53 56)"/><path d="M107.859 94.6713C107.869 94.0554 107.802 93.8318 107.246 93.6867 106.996 93.6177 106.861 93.5868 106.761 93.5416L106.894 92.9137C106.987 92.9518 107.129 92.9898 107.386 93.0374 108.185 93.2229 108.437 93.4917 108.418 94.581L108.378 96.9213 107.819 96.9118 107.859 94.6713Z" fill="#231F20" transform="matrix(1.00323 0 0 1 -53 56)"/><path d="M114.5 94.6571 114.471 96.3814C114.471 96.4242 114.386 96.8238 114.338 97.0236L111.118 96.9689 111.163 94.4073C111.168 94.0791 111.194 93.8579 111.225 93.7224 111.032 93.72 110.79 93.701 110.711 93.6701L110.844 93.035C111.03 93.0731 111.437 93.0802 111.831 93.0874L113.277 93.1135C114.326 93.1278 114.521 93.4322 114.5 94.6571ZM113.235 93.7604 111.71 93.7343 111.665 96.3243 113.927 96.3624 113.953 94.8164C113.965 94.1101 113.893 93.7723 113.235 93.7604Z" fill="#231F20" transform="matrix(1.00323 0 0 1 -53 56)"/><path d="M115.468 95.3397C115.77 94.8878 115.932 94.5382 115.936 94.2528 115.941 94.0173 115.806 93.9364 115.48 93.8365 115.309 93.7842 115.166 93.739 115.045 93.6867L115.178 93.0588C115.278 93.0969 115.42 93.1421 115.599 93.1872 116.277 93.349 116.507 93.5678 116.5 94.0982 116.493 94.5501 116.269 95.0471 115.91 95.5632L115.468 95.3397Z" fill="#231F20" transform="matrix(1.00323 0 0 1 -53 56)"/><path d="M118.933 94.883C118.945 94.1743 118.871 93.8579 118.201 93.846L117.492 93.8342C117.071 93.827 116.797 93.808 116.698 93.7771L116.831 93.1421C116.973 93.173 117.337 93.1801 117.825 93.1872L118.27 93.1944C119.314 93.2134 119.511 93.4655 119.49 94.6904L119.447 97.1092 118.895 97.0997 118.933 94.883Z" fill="#231F20" transform="matrix(1.00323 0 0 1 -53 56)"/><path d="M120.75 94.9353C120.862 94.2218 120.581 93.9364 120.132 93.8223L120.272 93.1587C120.843 93.261 121.181 93.632 121.235 94.1838 121.407 93.7509 121.847 93.192 122.641 93.2063 123.757 93.2253 124.011 94.2528 123.987 95.6346L123.971 96.5503C123.971 96.6145 123.883 97.0854 123.859 97.1853L122.448 97.1615C122.163 97.1568 121.79 97.1568 121.64 97.1686L121.773 96.5336C121.923 96.5075 122.261 96.5146 122.653 96.5194L123.405 96.5312C123.416 96.2316 123.421 95.9366 123.426 95.6512 123.443 94.7498 123.343 93.8675 122.506 93.8532 121.711 93.8389 121.419 94.6214 121.302 95.1066 121.178 95.5846 121.014 96.448 120.874 97.133L120.315 97.1235C120.474 96.3909 120.662 95.4633 120.75 94.9353Z" fill="#231F20" transform="matrix(1.00323 0 0 1 -53 56)"/><path d="M125.593 94.9782C125.602 94.3622 125.536 94.1386 124.979 93.9935 124.729 93.9245 124.594 93.8936 124.494 93.8484L124.627 93.2205C124.72 93.2586 124.862 93.2966 125.119 93.3442 125.918 93.5297 126.171 93.7985 126.152 94.8878L126.111 97.2281 125.552 97.2186 125.593 94.9782Z" fill="#231F20" transform="matrix(1.00323 0 0 1 -53 56)"/><path d="M127.303 94.9924C127.312 94.512 127.338 94.141 127.376 93.9983 127.248 93.9888 126.906 93.9626 126.856 93.9531L126.989 93.3109C127.139 93.349 127.495 93.3561 127.983 93.3632L129.279 93.3847C130.323 93.4037 130.518 93.7271 130.499 94.9163L130.459 97.2995 129.9 97.2899 129.938 95.1137C129.952 94.3265 129.886 94.0458 129.205 94.0339L127.874 94.0102 127.816 97.2519 127.265 97.2424 127.303 94.9924Z" fill="#231F20" transform="matrix(1.00323 0 0 1 -53 56)"/><path d="M68.8017 103.248C68.7661 102.677 68.728 101.978 68.7351 101.469L68.7161 101.469C68.5758 101.947 68.3903 102.506 68.1881 103.058L67.4698 105.039 67.0465 105.039 66.3901 103.069C66.1879 102.487 66.0285 101.954 65.9168 101.469L65.8977 101.469C65.8787 101.978 65.8621 102.665 65.8169 103.291L65.7075 105.062 65.1985 105.062 65.4863 100.929 66.1665 100.929 66.8729 102.934C67.0441 103.431 67.1797 103.921 67.2843 104.351L67.3034 104.351C67.408 103.935 67.5555 103.45 67.7457 102.929L68.4806 100.929 69.1609 100.929 69.4177 105.062 68.8897 105.062 68.8017 103.248Z" fill="#231F20" transform="matrix(1.00323 0 0 1 -53 56)"/><path d="M70.7758 100.931 70.7758 105.065 70.2359 105.065 70.2359 100.931 70.7758 100.931Z" fill="#231F20" transform="matrix(1.00323 0 0 1 -53 56)"/><path d="M71.6344 104.413C71.8746 104.561 72.2242 104.682 72.5905 104.682 73.1351 104.682 73.4562 104.394 73.4562 103.976 73.4562 103.59 73.235 103.369 72.6713 103.153 72.003 102.92 71.5868 102.558 71.5868 101.98 71.5868 101.343 72.1196 100.865 72.9235 100.865 73.3397 100.865 73.6536 100.962 73.8368 101.062L73.6893 101.497C73.5537 101.424 73.2778 101.3 72.9044 101.3 72.3408 101.3 72.1267 101.638 72.1267 101.918 72.1267 102.304 72.3788 102.494 72.9496 102.715 73.6489 102.991 74.0056 103.322 74.0056 103.93 74.0056 104.568 73.5323 105.127 72.5572 105.127 72.1529 105.127 71.7176 105.003 71.4964 104.858L71.6344 104.413Z" fill="#231F20" transform="matrix(1.00323 0 0 1 -53 56)"/><path d="M77.6208 104.934C77.4233 105.027 77.0309 105.131 76.5219 105.131 75.3637 105.131 74.4861 104.389 74.4861 103.034 74.4861 101.74 75.3637 100.869 76.6456 100.869 77.1546 100.869 77.4852 100.974 77.6279 101.048L77.4995 101.483C77.2973 101.386 77.0095 101.312 76.6646 101.312 75.6966 101.312 75.0521 101.93 75.0521 103.017 75.0521 104.028 75.6348 104.68 76.6409 104.68 76.9667 104.68 77.2973 104.613 77.5114 104.508L77.6208 104.934Z" fill="#231F20" transform="matrix(1.00323 0 0 1 -53 56)"/><path d="M80.4225 103.126 78.8218 103.126 78.8218 104.622 80.6128 104.622 80.6128 105.065 78.282 105.065 78.282 100.931 80.52 100.931 80.52 101.374 78.8218 101.374 78.8218 102.686 80.4225 102.686 80.4225 103.126Z" fill="#231F20" transform="matrix(1.00323 0 0 1 -53 56)"/><path d="M81.2953 100.931 81.8352 100.931 81.8352 104.611 83.6024 104.611 83.6024 105.065 81.2953 105.065 81.2953 100.931Z" fill="#231F20" transform="matrix(1.00323 0 0 1 -53 56)"/><path d="M84.1898 100.931 84.7297 100.931 84.7297 104.611 86.4969 104.611 86.4969 105.065 84.1898 105.065 84.1898 100.931Z" fill="#231F20" transform="matrix(1.00323 0 0 1 -53 56)"/><path d="M87.7574 103.764 87.3341 105.065 86.7751 105.065 88.1855 100.931 88.8229 100.931 90.2333 105.065 89.6649 105.065 89.2225 103.764 87.7574 103.764ZM89.1131 103.348 88.7088 102.158C88.616 101.89 88.5565 101.642 88.4947 101.405L88.4757 101.405C88.421 101.65 88.352 101.902 88.2735 102.154L87.8692 103.35 89.1131 103.35Z" fill="#231F20" transform="matrix(1.00323 0 0 1 -53 56)"/><path d="M90.8374 105.065 90.8374 100.931 91.432 100.931 92.7496 103.017C93.0493 103.507 93.2943 103.942 93.4917 104.366L93.5036 104.358C93.4536 103.807 93.4417 103.302 93.4417 102.665L93.4417 100.929 93.9459 100.929 93.9459 105.062 93.4061 105.062 92.0932 102.965C91.8054 102.506 91.5295 102.032 91.3202 101.585L91.3012 101.592C91.3321 102.113 91.344 102.61 91.344 103.298L91.344 105.065 90.8374 105.065Z" fill="#231F20" transform="matrix(1.00323 0 0 1 -53 56)"/><path d="M97.0117 103.126 95.411 103.126 95.411 104.622 97.2019 104.622 97.2019 105.065 94.8711 105.065 94.8711 100.931 97.1092 100.931 97.1092 101.374 95.411 101.374 95.411 102.686 97.0117 102.686 97.0117 103.126Z" fill="#231F20" transform="matrix(1.00323 0 0 1 -53 56)"/><path d="M101.421 102.991C101.421 104.366 100.544 105.131 99.5018 105.131 98.3864 105.131 97.6443 104.254 97.6443 103.022 97.6443 101.752 98.4363 100.862 99.5756 100.862 100.753 100.862 101.421 101.795 101.421 102.991ZM98.2151 103.003C98.2151 103.942 98.6932 104.696 99.5328 104.696 100.403 104.696 100.858 103.904 100.858 103.003 100.858 102.156 100.446 101.298 99.5399 101.298 98.6813 101.298 98.2151 102.07 98.2151 103.003Z" fill="#231F20" transform="matrix(1.00323 0 0 1 -53 56)"/><path d="M102.648 100.931 102.648 103.39C102.648 104.304 103.053 104.696 103.612 104.696 104.218 104.696 104.618 104.292 104.618 103.39L104.618 100.931 105.15 100.931 105.15 103.348C105.15 104.618 104.487 105.131 103.593 105.131 102.746 105.131 102.109 104.653 102.109 103.371L102.109 100.931 102.648 100.931Z" fill="#231F20" transform="matrix(1.00323 0 0 1 -53 56)"/><path d="M106.009 104.413C106.249 104.561 106.599 104.682 106.965 104.682 107.51 104.682 107.831 104.394 107.831 103.976 107.831 103.59 107.61 103.369 107.046 103.153 106.378 102.92 105.962 102.558 105.962 101.98 105.962 101.343 106.494 100.865 107.298 100.865 107.714 100.865 108.028 100.962 108.211 101.062L108.064 101.497C107.928 101.424 107.653 101.3 107.279 101.3 106.715 101.3 106.501 101.638 106.501 101.918 106.501 102.304 106.754 102.494 107.324 102.715 108.024 102.991 108.38 103.322 108.38 103.93 108.38 104.568 107.907 105.127 106.932 105.127 106.528 105.127 106.092 105.003 105.871 104.858L106.009 104.413Z" fill="#231F20" transform="matrix(1.00323 0 0 1 -53 56)"/><path d="M54.491 108.345C54.8216 108.295 55.2093 108.259 55.6326 108.259 56.3985 108.259 56.9455 108.437 57.307 108.775 57.6757 109.113 57.8897 109.598 57.8897 110.259 57.8897 110.935 57.6804 111.479 57.2951 111.867 56.9027 112.252 56.2701 112.462 55.4685 112.462 55.088 112.462 54.7693 112.443 54.4934 112.412L54.4934 108.345ZM55.0309 112C55.1665 112.024 55.3615 112.031 55.5708 112.031 56.7124 112.031 57.3308 111.394 57.3308 110.276 57.3379 109.301 56.7862 108.68 55.6564 108.68 55.3805 108.68 55.1712 108.711 55.0309 108.735L55.0309 112Z" fill="#231F20" transform="matrix(1.00323 0 0 1 -53 56)"/><path d="M59.1645 111.123 58.7412 112.424 58.1823 112.424 59.5926 108.29 60.2301 108.29 61.6404 112.424 61.0696 112.424 60.6272 111.123 59.1645 111.123ZM60.5202 110.706 60.1159 109.517C60.0231 109.248 59.9637 109.001 59.9018 108.763L59.8828 108.763C59.8281 109.008 59.7591 109.26 59.6806 109.512L59.2763 110.709 60.5202 110.709Z" fill="#231F20" transform="matrix(1.00323 0 0 1 -53 56)"/><path d="M62.2445 112.424 62.2445 108.29 62.8391 108.29 64.1568 110.376C64.4564 110.866 64.7038 111.301 64.8988 111.724L64.9107 111.717C64.8608 111.165 64.8489 110.661 64.8489 110.024L64.8489 108.288 65.3507 108.288 65.3507 112.421 64.8108 112.421 63.4979 110.323C63.2102 109.864 62.9343 109.391 62.725 108.944L62.7059 108.951C62.7369 109.472 62.7488 109.969 62.7488 110.656L62.7488 112.424 62.2445 112.424Z" fill="#231F20" transform="matrix(1.00323 0 0 1 -53 56)"/><path d="M69.432 112.238C69.1918 112.324 68.7209 112.464 68.1619 112.464 67.5364 112.464 67.0203 112.305 66.616 111.919 66.2592 111.577 66.0404 111.023 66.0404 110.381 66.0476 109.153 66.8919 108.247 68.2785 108.247 68.7565 108.247 69.1371 108.357 69.3083 108.437L69.1799 108.873C68.9587 108.775 68.6828 108.694 68.2666 108.694 67.2605 108.694 66.6041 109.32 66.6041 110.357 66.6041 111.406 67.2296 112.024 68.1976 112.024 68.5472 112.024 68.7875 111.974 68.9088 111.915L68.9088 110.683 68.0692 110.683 68.0692 110.252 69.432 110.252 69.432 112.238Z" fill="#231F20" transform="matrix(1.00323 0 0 1 -53 56)"/><path d="M70.2406 108.345C70.5165 108.29 70.9042 108.259 71.2705 108.259 71.8413 108.259 72.2099 108.364 72.4668 108.597 72.669 108.78 72.7926 109.063 72.7926 109.382 72.7926 109.929 72.4502 110.29 72.0149 110.438L72.0149 110.45C72.3336 110.566 72.5239 110.866 72.6214 111.289 72.757 111.872 72.8545 112.264 72.9401 112.424L72.3883 112.424C72.3217 112.307 72.229 111.95 72.1124 111.437 71.9888 110.873 71.77 110.652 71.2848 110.633L70.7829 110.633 70.7829 112.424 70.243 112.424 70.243 108.345ZM70.7805 110.228 71.3276 110.228C71.8984 110.228 72.2599 109.914 72.2599 109.443 72.2599 108.904 71.8746 108.678 71.3085 108.67 71.0445 108.67 70.8662 108.694 70.7805 108.72L70.7805 110.228Z" fill="#231F20" transform="matrix(1.00323 0 0 1 -53 56)"/><path d="M77.0975 110.35C77.0975 111.724 76.2199 112.49 75.1782 112.49 74.0627 112.49 73.3206 111.613 73.3206 110.381 73.3206 109.11 74.1126 108.221 75.2519 108.221 76.4292 108.221 77.0975 109.153 77.0975 110.35ZM73.8891 110.362C73.8891 111.301 74.3671 112.055 75.2067 112.055 76.0772 112.055 76.5315 111.263 76.5315 110.362 76.5315 109.515 76.12 108.656 75.2138 108.656 74.3552 108.656 73.8891 109.429 73.8891 110.362Z" fill="#231F20" transform="matrix(1.00323 0 0 1 -53 56)"/><path d="M78.3224 108.29 78.3224 110.749C78.3224 111.662 78.7267 112.055 79.2856 112.055 79.8921 112.055 80.2917 111.651 80.2917 110.749L80.2917 108.29 80.8244 108.29 80.8244 110.706C80.8244 111.976 80.1609 112.49 79.2666 112.49 78.4199 112.49 77.7825 112.012 77.7825 110.73L77.7825 108.29 78.3224 108.29Z" fill="#231F20" transform="matrix(1.00323 0 0 1 -53 56)"/><path d="M81.6854 111.772C81.9256 111.919 82.2752 112.041 82.6415 112.041 83.1862 112.041 83.5072 111.753 83.5072 111.334 83.5072 110.949 83.286 110.728 82.7224 110.511 82.0541 110.278 81.6378 109.917 81.6378 109.339 81.6378 108.701 82.1706 108.223 82.9745 108.223 83.3907 108.223 83.7047 108.321 83.8878 108.421L83.7403 108.856C83.6048 108.782 83.3289 108.659 82.9555 108.659 82.3918 108.659 82.1777 108.996 82.1777 109.277 82.1777 109.662 82.4298 109.853 83.0006 110.074 83.6999 110.35 84.0566 110.68 84.0566 111.289 84.0566 111.926 83.5834 112.485 82.6082 112.485 82.2039 112.485 81.7686 112.362 81.5475 112.217L81.6854 111.772Z" fill="#231F20" transform="matrix(1.00323 0 0 1 -53 56)"/><path d="M86.0141 111.772C86.2543 111.919 86.6039 112.041 86.9702 112.041 87.5148 112.041 87.8359 111.753 87.8359 111.334 87.8359 110.949 87.6147 110.728 87.051 110.511 86.3827 110.278 85.9665 109.917 85.9665 109.339 85.9665 108.701 86.4992 108.223 87.3031 108.223 87.7194 108.223 88.0333 108.321 88.2164 108.421L88.069 108.856C87.9334 108.782 87.6575 108.659 87.2841 108.659 86.7204 108.659 86.5064 108.996 86.5064 109.277 86.5064 109.662 86.7585 109.853 87.3293 110.074 88.0285 110.35 88.3853 110.68 88.3853 111.289 88.3853 111.926 87.912 112.485 86.9369 112.485 86.5325 112.485 86.0973 112.362 85.8761 112.217L86.0141 111.772Z" fill="#231F20" transform="matrix(1.00323 0 0 1 -53 56)"/><path d="M89.6435 108.29 89.6435 110.749C89.6435 111.662 90.0478 112.055 90.6067 112.055 91.2132 112.055 91.6128 111.651 91.6128 110.749L91.6128 108.29 92.1455 108.29 92.1455 110.706C92.1455 111.976 91.4819 112.49 90.5877 112.49 89.741 112.49 89.1036 112.012 89.1036 110.73L89.1036 108.29 89.6435 108.29Z" fill="#231F20" transform="matrix(1.00323 0 0 1 -53 56)"/><path d="M93.0731 108.345C93.3133 108.295 93.6867 108.259 94.0554 108.259 94.5881 108.259 94.933 108.352 95.1827 108.559 95.4039 108.718 95.5323 108.963 95.5323 109.289 95.5323 109.688 95.2636 110.043 94.8331 110.197L94.8331 110.209C95.2255 110.307 95.6845 110.626 95.6845 111.251 95.6845 111.601 95.549 111.869 95.3278 112.074 95.0448 112.338 94.5786 112.459 93.9055 112.459 93.5321 112.459 93.2562 112.435 93.0707 112.409L93.0707 108.345ZM93.613 110.043 94.0982 110.043C94.6571 110.043 94.9948 109.743 94.9948 109.344 94.9948 108.858 94.6262 108.668 94.0863 108.668 93.8413 108.668 93.701 108.687 93.613 108.706L93.613 110.043ZM93.613 112.017C93.7224 112.036 93.8651 112.041 94.0601 112.041 94.6119 112.041 95.128 111.838 95.128 111.244 95.128 110.673 94.6381 110.44 94.0554 110.44L93.613 110.44 93.613 112.017Z" fill="#231F20" transform="matrix(1.00323 0 0 1 -53 56)"/><path d="M96.3291 111.772C96.5693 111.919 96.9189 112.041 97.2852 112.041 97.8298 112.041 98.1509 111.753 98.1509 111.334 98.1509 110.949 97.9297 110.728 97.3661 110.511 96.6977 110.278 96.2815 109.917 96.2815 109.339 96.2815 108.701 96.8143 108.223 97.6182 108.223 98.0344 108.223 98.3483 108.321 98.5315 108.421L98.384 108.856C98.2484 108.782 97.9725 108.659 97.5991 108.659 97.0355 108.659 96.8214 108.996 96.8214 109.277 96.8214 109.662 97.0735 109.853 97.6443 110.074 98.3436 110.35 98.7003 110.68 98.7003 111.289 98.7003 111.926 98.227 112.485 97.2519 112.485 96.8476 112.485 96.4123 112.362 96.1911 112.217L96.3291 111.772Z" fill="#231F20" transform="matrix(1.00323 0 0 1 -53 56)"/><path d="M100.211 108.742 98.9524 108.742 98.9524 108.288 102.013 108.288 102.013 108.742 100.75 108.742 100.75 112.421 100.211 112.421 100.211 108.742Z" fill="#231F20" transform="matrix(1.00323 0 0 1 -53 56)"/><path d="M102.682 111.123 102.258 112.424 101.699 112.424 103.11 108.29 103.747 108.29 105.158 112.424 104.587 112.424 104.144 111.123 102.682 111.123ZM104.037 110.706 103.633 109.517C103.54 109.248 103.481 109.001 103.419 108.763L103.4 108.763C103.345 109.008 103.276 109.26 103.198 109.512L102.794 110.709 104.037 110.709Z" fill="#231F20" transform="matrix(1.00323 0 0 1 -53 56)"/><path d="M105.762 112.424 105.762 108.29 106.356 108.29 107.674 110.376C107.974 110.866 108.219 111.301 108.416 111.724L108.428 111.717C108.378 111.165 108.366 110.661 108.366 110.024L108.366 108.288 108.868 108.288 108.868 112.421 108.328 112.421 107.015 110.323C106.727 109.864 106.451 109.391 106.242 108.944L106.223 108.951C106.254 109.472 106.266 109.969 106.266 110.656L106.266 112.424 105.762 112.424Z" fill="#231F20" transform="matrix(1.00323 0 0 1 -53 56)"/><path d="M112.692 112.293C112.497 112.386 112.105 112.49 111.594 112.49 110.435 112.49 109.558 111.748 109.558 110.392 109.558 109.099 110.435 108.228 111.717 108.228 112.226 108.228 112.557 108.333 112.699 108.406L112.571 108.842C112.369 108.744 112.081 108.67 111.736 108.67 110.766 108.67 110.124 109.289 110.124 110.376 110.124 111.387 110.706 112.038 111.712 112.038 112.038 112.038 112.369 111.972 112.583 111.867L112.692 112.293Z" fill="#231F20" transform="matrix(1.00323 0 0 1 -53 56)"/><path d="M115.494 110.485 113.893 110.485 113.893 111.981 115.684 111.981 115.684 112.424 113.354 112.424 113.354 108.29 115.592 108.29 115.592 108.732 113.893 108.732 113.893 110.045 115.494 110.045 115.494 110.485Z" fill="#231F20" transform="matrix(1.00323 0 0 1 -53 56)"/><path d="M116.298 111.772C116.538 111.919 116.885 112.041 117.254 112.041 117.799 112.041 118.12 111.753 118.12 111.334 118.12 110.949 117.899 110.728 117.335 110.511 116.667 110.278 116.25 109.917 116.25 109.339 116.25 108.701 116.783 108.223 117.587 108.223 118.003 108.223 118.317 108.321 118.5 108.421L118.353 108.856C118.217 108.782 117.941 108.659 117.568 108.659 117.004 108.659 116.788 108.996 116.788 109.277 116.788 109.662 117.04 109.853 117.611 110.074 118.31 110.35 118.667 110.68 118.667 111.289 118.667 111.926 118.194 112.485 117.218 112.485 116.814 112.485 116.379 112.362 116.158 112.217L116.298 111.772Z" fill="#231F20" transform="matrix(1.00323 0 0 1 -53 56)"/></g></svg>