<svg xmlns="http://www.w3.org/2000/svg" xmlns:xlink="http://www.w3.org/1999/xlink" width="91" zoomAndPan="magnify" viewBox="0 0 68.25 62.999997" height="84" preserveAspectRatio="xMidYMid meet" version="1.0"><defs><clipPath id="035779af5f"><path d="M 0 0.34375 L 67.292969 0.34375 L 67.292969 12.371094 L 0 12.371094 Z M 0 0.34375 " clip-rule="nonzero"/></clipPath><clipPath id="173c69b852"><path d="M 6.015625 0.34375 L 61.257812 0.34375 C 62.855469 0.34375 64.382812 0.976562 65.511719 2.105469 C 66.640625 3.230469 67.273438 4.761719 67.273438 6.359375 C 67.273438 7.953125 66.640625 9.484375 65.511719 10.609375 C 64.382812 11.738281 62.855469 12.371094 61.257812 12.371094 L 6.015625 12.371094 C 4.417969 12.371094 2.890625 11.738281 1.761719 10.609375 C 0.632812 9.484375 0 7.953125 0 6.359375 C 0 4.761719 0.632812 3.230469 1.761719 2.105469 C 2.890625 0.976562 4.417969 0.34375 6.015625 0.34375 Z M 6.015625 0.34375 " clip-rule="nonzero"/></clipPath><clipPath id="5ab026d8c7"><path d="M 0 25.429688 L 67.292969 25.429688 L 67.292969 37.460938 L 0 37.460938 Z M 0 25.429688 " clip-rule="nonzero"/></clipPath><clipPath id="ac3fbff5dc"><path d="M 6.015625 25.429688 L 61.257812 25.429688 C 62.855469 25.429688 64.382812 26.0625 65.511719 27.191406 C 66.640625 28.320312 67.273438 29.847656 67.273438 31.445312 C 67.273438 33.039062 66.640625 34.570312 65.511719 35.699219 C 64.382812 36.824219 62.855469 37.460938 61.257812 37.460938 L 6.015625 37.460938 C 4.417969 37.460938 2.890625 36.824219 1.761719 35.699219 C 0.632812 34.570312 0 33.039062 0 31.445312 C 0 29.847656 0.632812 28.320312 1.761719 27.191406 C 2.890625 26.0625 4.417969 25.429688 6.015625 25.429688 Z M 6.015625 25.429688 " clip-rule="nonzero"/></clipPath><clipPath id="f8cdfad619"><path d="M 0 50.515625 L 67.292969 50.515625 L 67.292969 62.546875 L 0 62.546875 Z M 0 50.515625 " clip-rule="nonzero"/></clipPath><clipPath id="b30bb35382"><path d="M 6.015625 50.515625 L 61.257812 50.515625 C 62.855469 50.515625 64.382812 51.152344 65.511719 52.277344 C 66.640625 53.40625 67.273438 54.9375 67.273438 56.53125 C 67.273438 58.128906 66.640625 59.65625 65.511719 60.785156 C 64.382812 61.914062 62.855469 62.546875 61.257812 62.546875 L 6.015625 62.546875 C 4.417969 62.546875 2.890625 61.914062 1.761719 60.785156 C 0.632812 59.65625 0 58.128906 0 56.53125 C 0 54.9375 0.632812 53.40625 1.761719 52.277344 C 2.890625 51.152344 4.417969 50.515625 6.015625 50.515625 Z M 6.015625 50.515625 " clip-rule="nonzero"/></clipPath></defs><g clip-path="url(#035779af5f)"><g clip-path="url(#173c69b852)"><path fill="#ffffff" d="M 0 0.34375 L 67.292969 0.34375 L 67.292969 12.371094 L 0 12.371094 Z M 0 0.34375 " fill-opacity="1" fill-rule="nonzero"/></g></g><g clip-path="url(#5ab026d8c7)"><g clip-path="url(#ac3fbff5dc)"><path fill="#ffffff" d="M 0 25.429688 L 67.292969 25.429688 L 67.292969 37.460938 L 0 37.460938 Z M 0 25.429688 " fill-opacity="1" fill-rule="nonzero"/></g></g><g clip-path="url(#f8cdfad619)"><g clip-path="url(#b30bb35382)"><path fill="#ffffff" d="M 0 50.515625 L 67.292969 50.515625 L 67.292969 62.546875 L 0 62.546875 Z M 0 50.515625 " fill-opacity="1" fill-rule="nonzero"/></g></g></svg>