<svg width="47" height="47" xmlns="http://www.w3.org/2000/svg" xmlns:xlink="http://www.w3.org/1999/xlink" xml:space="preserve" overflow="hidden"><g transform="translate(-208 -438)"><path d="M23.2196 42.838 3.45696 23.4685 23.5 3.78394 43.543 23.4685Z" fill="#F18421" transform="matrix(1 0 0 1.00811 208 438)"/><path d="M23.2606 39.9872 6.3828 23.4458 23.5 6.63481 40.6172 23.4458Z" stroke="#3B3A3C" stroke-width="0.0630027" stroke-miterlimit="10" fill="none" transform="matrix(1 0 0 1.00811 208 438)"/><path d="M18.9569 18.3067C19.0848 18.0988 19.2662 17.9085 19.5 17.7901L18.6759 16.5206C18.6066 16.4135 18.8334 16.3183 18.9058 16.4254L19.3336 17.0542 19.2977 16.4784C19.2908 16.3649 19.4829 16.3127 19.563 16.4254 19.5056 15.8017 19.6241 15.6051 19.7898 16.4784L19.8534 17.0838C20.0059 17.1638 20.0519 17.3031 19.992 17.5021L20.0802 17.5664C20.2226 17.5229 20.3965 17.4946 20.5742 17.4814L20.348 15.4457C20.336 15.3374 20.5187 15.2712 20.5742 15.3922 20.7487 15.7689 20.8816 16.1432 20.9282 16.5225 20.9415 16.6283 20.8167 16.6686 20.9043 16.9175 20.9339 17.0019 21.0492 16.9792 21.0788 17.1304 21.0624 17.2048 21.0964 17.2791 21.1053 17.3541L21.0662 17.5192C21.0586 17.5519 21.1821 17.5796 21.1809 17.5462L21.1613 16.9231C21.1582 16.8198 21.2773 16.7845 21.3447 16.9912L21.3579 16.7152C21.3031 16.5829 21.2716 16.4191 21.3006 16.1715 21.2212 16.1419 21.2111 15.9964 21.2319 15.7986L21.288 15.7658C21.2099 15.7286 21.2042 15.2214 21.2754 14.7162 21.2319 14.8264 21.1607 15.1786 21.1267 14.989 21.0706 14.6803 21.1973 14.1038 20.9925 14.0824L21.8827 13.2923C21.8865 13.4032 21.884 13.5399 21.7882 13.6716 21.8991 13.7484 21.9634 13.8808 21.833 14.1895L21.5091 14.6916C21.4795 15.0129 21.4745 14.9253 21.6112 15.2082 21.7038 15.1143 21.797 15.0198 21.9149 15.0104 22.01 15.0028 22.0661 15.0891 22.0919 15.1811L22.0919 15.4583C22.0919 15.51 22.2595 15.4665 22.2689 15.4155 22.3017 15.2448 22.3634 15.0822 22.446 14.9253 22.4403 14.7017 22.4674 14.5234 22.5279 14.3974L22.5405 13.63C22.5424 13.5166 22.7383 13.5172 22.7244 13.6458 22.6621 14.2084 22.7641 14.3961 22.7307 14.8661 22.7244 14.9581 22.9292 14.9537 22.9645 14.8661 23.1037 14.524 23.2033 14.4503 23.3097 14.2323 23.3929 14.0628 23.4357 13.8656 23.5397 13.6987 23.6147 13.5777 23.7438 13.555 23.6859 13.7522 23.6518 13.8656 23.6115 13.962 23.6285 14.0723 23.6575 14.2651 23.8579 14.163 23.8887 14.221 23.9549 14.347 23.6392 14.9801 23.6922 15.0419 23.7564 15.1421 23.8131 14.6135 24.2176 13.6237 24.2775 13.4769 24.1162 13.3849 24.091 13.5386 24.0614 13.7163 24.1262 13.8896 24.0021 14.0716 23.9379 14.1655 23.7892 14.1617 23.8629 14.0023 23.975 13.7592 23.8314 13.7894 23.8755 13.5701 23.9108 13.3969 23.9971 13.0201 23.9839 12.9956 23.866 12.7807 24.21 12.3618 24.3694 12.5583 24.4709 12.6717 24.7027 12.4544 24.6668 12.8998 24.8848 13.0598 24.6845 13.2362 24.6032 13.4807L24.4583 13.7844 23.333 16.4393 23.3658 16.45 23.9839 15.3204C24.0721 15.1597 24.2825 15.171 24.193 15.3304L23.0294 17.3988 23.0703 17.4001 26.8492 13.022C26.957 12.8973 27.1327 13.0365 27.0017 13.177L26.2041 14.0301C26.2986 14.3104 25.9004 14.4062 26.0277 14.5498 26.1984 14.5435 26.2299 14.6122 26.1222 14.7244L22.5839 18.41C22.4951 18.502 22.5902 18.5726 22.6898 18.4881L26.6464 15.1547C26.7787 15.0432 26.9507 15.1603 26.8114 15.275L25.8834 16.0424C25.8758 16.1362 25.7366 16.2553 25.5785 16.3775 25.632 16.5036 25.5822 16.6485 25.4858 16.8022L26.182 16.3328 26.3685 16.2604 27.2235 15.7236 27.4736 15.5176C27.7993 15.3493 28.1086 15.1666 28.401 14.9701 28.5415 14.9398 28.6505 14.8623 28.8092 14.7956L29.1167 14.7023C29.1923 14.7514 29.2099 14.8151 29.1696 14.8919 29.0134 14.8926 28.8981 14.9631 28.825 15.1043L25.2735 17.3043C25.0959 17.4146 25.4657 17.3075 25.593 17.3037L25.8796 17.293 28.5194 16.2207 28.7047 16.1425 30.6212 15.3556 30.7825 15.5188 28.413 16.4891C28.4911 16.5288 30.0151 15.9542 30.8379 15.7406 31.0181 15.694 31.1882 15.8288 31.0124 15.8861L25.9615 17.5381C25.7404 17.9192 25.4443 18.1467 25.0738 18.2191 24.9465 18.2405 24.8363 18.2481 24.7424 18.2412 24.5446 18.3558 24.3153 18.2834 24.1729 18.0175L22.7421 18.8888 22.8612 18.8882 27.9102 17.4706C28.1968 17.2709 28.3027 17.0775 28.3216 16.9402 28.338 16.8205 28.5169 16.7518 28.6921 16.7562 28.9819 16.7638 29.2547 16.8154 29.5136 16.8677 29.6333 16.8923 29.811 16.8475 29.8267 16.7562 29.8589 16.5703 30.0277 16.467 30.3616 16.5105 30.4933 16.5275 30.5595 16.5168 30.6136 16.4324 30.7415 16.2308 30.9154 16.2358 31.1038 16.4324 31.2059 16.4191 31.2966 16.4538 31.3823 16.5105 31.5593 16.5804 31.5417 16.6692 31.4352 16.7675 31.2663 16.8072 31.1454 16.8835 31.0376 16.9238 30.9028 16.9742 30.7403 16.9402 30.6004 16.9799 30.4712 17.0164 30.3654 17.0977 30.2425 17.1474 30.1443 17.1871 30.0561 17.2004 29.9376 17.2482 29.8815 17.2709 29.811 17.3579 30.0302 17.349L30.2955 17.3377 30.7062 17.2262C30.7982 17.201 30.9331 17.2356 30.9526 17.327L31.4749 17.2262C31.6469 17.1928 31.6368 17.3843 31.4881 17.4158L30.865 17.55 30.8921 17.6011 30.7863 17.6842 30.7327 17.5941 30.0164 17.751C29.9313 17.7699 29.942 17.8795 30.0296 17.8695L30.9727 17.7611C31.0956 17.7472 31.1321 17.9161 31.0112 17.9406L28.5862 18.4321C28.5894 18.7383 28.4646 18.8561 28.268 18.8674 28.3436 19.1125 28.0022 19.2946 27.7911 19.2026 27.6298 19.132 27.4559 18.9304 27.2134 18.8655 27.0137 18.812 26.9444 18.9588 26.7598 18.863 26.6753 18.8195 26.6791 18.6513 26.5455 18.4768L22.7559 19.3242 31.4743 19.3034C31.57 19.3034 31.6784 19.4017 31.6777 19.4748 31.759 19.5226 31.8182 19.5982 31.8661 19.6594 32.1874 19.6625 32.309 19.7148 32.4741 19.7167 32.6115 19.7179 32.59 19.8868 32.4533 19.895 32.2252 19.9076 32.161 20.0115 31.7269 19.8509 31.5467 19.8326 31.3949 19.9347 31.2235 19.907 31.0389 19.8767 30.86 19.6669 30.7995 19.6726 30.601 19.6915 30.4032 19.7306 30.2035 19.7287 30.0724 19.7274 29.9502 19.6657 29.8192 19.6619 29.7121 19.6587 29.6068 19.6915 29.501 19.7066 29.3952 19.7104 29.2887 19.7236 29.1828 19.7179 29.0927 19.7129 29.0077 19.6701 28.9176 19.6732 28.8042 19.6776 28.6864 19.7375 28.5736 19.7243 28.4287 19.7079 28.3556 19.7671 28.2416 19.752 28.0979 19.7331 27.994 19.6984 27.8497 19.6871 27.5725 19.665 27.2449 19.6846 26.996 19.6619 26.9664 19.6171 26.9532 19.5724 26.9563 19.5277L26.6779 19.5277C26.9992 19.568 26.9828 19.6934 26.698 19.6852L26.2671 19.6726C26.1694 19.7035 26.0636 19.7192 25.9489 19.7224 25.8254 19.7261 25.7108 19.7104 25.6043 19.6726 25.3926 19.6833 25.1897 19.6871 24.9951 19.6839 24.8627 19.699 24.7298 19.7135 24.5975 19.7287 24.4419 19.7186 24.268 19.6606 24.0941 19.6505 23.9732 19.6108 23.7949 19.6197 23.5907 19.6505 23.449 19.6108 23.2984 19.5926 23.1403 19.5945 22.9979 19.6241 23.047 19.6461 23.1006 19.6612L30.9318 20.2087C31.0836 20.2194 31.0307 20.3757 30.8789 20.365L28.8351 20.2201 29.5275 20.3209C29.5829 20.3291 29.6037 20.404 29.6598 20.4103L30.8455 20.5439C30.9809 20.559 30.9349 20.748 30.7995 20.7336L22.8725 19.8792 24.956 20.3763C25.249 20.3032 25.5211 20.2648 25.7643 20.2755 25.976 20.2251 26.1127 20.2585 26.1751 20.3763 26.4706 20.3429 26.6457 20.4368 26.7925 20.6334 26.8851 20.7575 27.4364 20.6882 27.553 20.7235L28.0696 20.8791C28.2246 20.8457 28.3682 20.8407 28.5068 20.8495L28.7053 20.9686C28.8766 21.0586 29.0852 21.0908 29.169 21.1922 29.2137 21.2458 29.2471 21.3188 29.3277 21.3819L29.7914 21.4713C29.9351 21.499 29.9061 21.666 29.7385 21.6383L29.5401 21.6055C29.4821 21.6408 29.4122 21.6515 29.3353 21.6383L28.8911 21.5608C28.762 21.6042 28.5774 21.6685 28.4281 21.6282L22.5575 20.0418 22.5386 20.0997 30.0176 22.8007C30.1619 22.853 30.075 23.0338 29.9118 22.9683L29.1035 22.6444C29.0442 22.7055 28.8691 22.744 28.8143 22.6961 28.6083 22.5172 28.5282 22.6073 28.1893 22.376L27.8579 22.33 27.553 22.2084C27.4635 22.1725 27.4314 22.2973 27.4736 22.32 27.5933 22.3842 27.5404 22.5392 27.4207 22.4428L27.129 22.2084C27.0275 22.1889 26.9261 22.1083 26.824 22.0188 26.5481 21.9123 26.2847 21.7958 26.0422 21.6616 25.954 21.5979 25.8658 21.5904 25.7769 21.6395 25.5715 21.6326 25.3989 21.5772 25.2603 21.4719 25.0436 21.5053 24.8766 21.4392 24.7437 21.3044 24.595 21.3119 24.3745 21.2155 24.176 21.1103L24.1565 21.1922C24.4778 21.4102 24.8483 21.5797 25.2074 21.7731 25.2559 21.7996 25.249 21.8733 25.3 21.896L25.8563 22.1417C25.9886 22.2003 25.9691 22.3338 25.7845 22.3603 25.5911 22.388 26.0025 22.5953 26.1323 22.6721 26.2312 22.7314 26.1039 22.8864 26.0069 22.8227L25.3012 22.359 25.0744 22.2866 22.1669 20.4614C22.0106 20.5886 21.8443 20.7033 21.6547 20.7884L21.0196 23.2133C20.9818 23.3576 20.7298 23.3463 20.7676 23.202L21.3768 20.9011C21.0057 20.9982 20.6548 21.0196 20.3165 20.9906L17.494 23.425C17.3175 23.5769 17.1059 23.3885 17.2419 23.224 17.4202 23.0086 17.7724 22.7175 17.8455 22.5991 17.986 22.371 18.0679 22.2563 18.2229 22.158L18.7477 21.6666C18.8391 21.5809 18.7112 21.5173 18.5889 21.569 18.4718 21.6181 18.3546 21.6616 18.2494 21.7265 18.0805 21.8311 17.9797 22.0031 17.7731 22.0736 17.6187 22.1259 17.3364 21.9262 17.2961 21.884 16.9433 21.9816 16.6497 22.2097 16.5936 22.2078 16.5099 22.2053 16.278 22.2154 16.1564 22.2078 16.06 22.2015 16.026 22.0963 16.1167 22.0289L17.7718 20.8016 14.7187 21.5583C14.5032 21.6118 14.4566 21.3976 14.6387 21.3352L17.1909 20.4645C17.1739 20.2232 17.1216 20.2837 17.3894 20.1407 17.3012 20.1413 17.213 20.1564 17.1241 20.1854 17.0359 20.1816 16.9383 20.2069 16.8589 20.1735 16.8129 20.1539 16.886 20.0462 16.806 20.0512L16.3668 20.0783C16.2793 20.084 16.1602 20.2031 16.1885 20.2352 16.2635 20.3203 16.2547 20.4765 16.084 20.5603 15.9157 20.6428 15.7734 20.7291 15.5736 20.8331 15.4533 20.8955 15.2983 20.7959 15.3481 20.6989 15.4111 20.5773 15.3487 20.5042 15.229 20.4532 15.0658 20.4557 14.902 20.4255 14.7388 20.3864 14.6563 20.3952 14.599 20.3612 14.5669 20.2856 14.4043 20.2226 14.3841 20.1136 14.5536 20.096L18.1712 19.7167 15.2561 19.5264C15.1251 19.5176 15.1509 19.328 15.2693 19.3368L18.594 19.5806 18.5971 19.476C18.4289 19.4666 18.2147 19.4741 18.0919 19.4483L16.581 19.1289C16.4538 19.1018 16.3139 19.1232 16.1898 19.0873L15.333 18.8397 15.5075 18.6217 16.5653 18.8624C16.6648 18.9014 16.7644 18.9014 16.8639 18.8838 16.7808 18.8183 16.6195 18.8113 16.5017 18.7666 16.4009 18.7288 16.4128 18.6381 16.3032 18.6217L16.0695 18.5858C15.9775 18.5713 16.0273 18.4579 16.1199 18.4636L16.4891 18.4869C16.5363 18.49 16.5502 18.3224 16.6094 18.2714 16.7247 18.2531 16.8066 18.2065 16.8551 18.1322 16.9899 18.1561 17.1418 18.2078 17.3106 18.2872L17.3238 18.1864 16.9263 17.8846C16.816 17.8008 16.9849 17.7044 17.1235 17.7951 17.1222 17.7353 17.0844 17.6678 17.1191 17.6162 17.1588 17.557 17.1985 17.5393 17.2142 17.4643 17.2419 17.3308 17.4511 17.5431 17.6357 17.47 17.7182 17.4373 17.8663 17.6817 17.8726 17.5469 17.8789 17.4127 17.5072 17.2092 17.6156 17.08 17.6584 17.029 17.8556 17.172 17.9022 17.2199L18.9569 18.3067 18.9569 18.3067ZM24.5912 11.0727 25.0007 10.7426 25.707 11.3273C25.5955 11.3997 25.4525 11.4375 25.2742 11.4476 25.1034 11.5358 25.1526 11.7721 24.9749 11.7494 24.3209 11.4829 24.7097 11.1729 24.5912 11.0727L24.5912 11.0727ZM22.0547 19.4767C22.1681 19.4168 22.3042 19.3859 22.451 19.3683L22.4227 19.5245 22.0547 19.4767ZM19.0577 19.4678C18.955 19.3884 18.9707 19.1755 19.0312 19.166 19.1912 19.1415 19.4622 19.064 19.6291 19.0375 19.9933 18.9789 20.6214 19.5145 20.6567 19.5226 20.8545 19.568 20.8854 19.7482 21.0681 19.9561 21.1179 20.0122 21.4014 19.8162 21.4089 19.7539 21.4486 19.4036 21.506 19.4533 21.4442 19.3122 21.3882 19.1843 21.4883 19.1308 21.4568 19.0545 21.1784 18.3854 21.5992 18.3476 21.9734 18.3401 22.1996 18.335 22.4516 18.6236 22.3124 18.7534 22.1662 18.8888 21.9419 19.0583 21.7744 19.2448 21.6187 19.4181 21.8411 19.5189 21.814 19.5239 21.6156 19.5623 21.4795 19.6379 21.5223 19.803 21.5457 19.8925 21.2325 20.0701 21.1254 20.0664 20.9314 20.0588 20.8722 19.8465 20.7134 19.7532 20.5899 19.6808 20.4601 19.7154 20.3423 19.7476 20.1363 19.8036 19.9662 20.0298 19.9057 20.0267 19.7671 20.0197 19.5598 20.0613 19.3626 20.1048 19.2234 20.1357 18.9695 19.9548 19.0772 19.8748 19.1616 19.8118 19.4174 19.7142 19.5875 19.6468 19.723 19.5932 19.7369 19.4584 19.5743 19.4571 19.4023 19.4552 19.0955 19.4968 19.0577 19.4678L19.0577 19.4678ZM24.3184 20.8967C24.3612 20.9528 24.5301 20.9994 24.7556 21.0416 24.617 20.9692 24.4734 20.9137 24.3184 20.8967ZM23.2184 20.7298C23.2114 20.7732 23.3085 20.8123 23.3784 20.8715L23.2184 20.7298ZM23.0432 20.549C22.8719 20.3984 23.2871 20.5899 23.5895 20.629 23.6625 20.7254 23.8075 20.7833 23.9807 20.8243L23.0432 20.549ZM19.2826 21.4669C19.2524 21.5488 19.1805 21.6307 19.0174 21.7126 19.0898 21.6162 19.178 21.5343 19.2826 21.4669ZM18.0566 20.7329C18.4522 20.5754 18.6444 20.6346 18.7307 20.5912 18.8662 20.5219 19.0804 20.3946 19.1673 20.4702 19.2637 20.5534 19.3929 20.6592 19.5352 20.7071 19.5838 20.7235 19.5283 20.8022 19.4918 20.8331 19.4401 20.8772 19.3651 20.9175 19.2921 20.9119 19.1988 20.9049 19.0634 20.9364 18.9304 21.0435 18.771 21.1714 18.5669 21.2823 18.4125 21.3907 18.3691 21.4209 18.204 21.4033 18.2815 21.3119 18.3306 21.2533 18.4239 21.1935 18.3439 21.1122 18.2475 21.0145 18.163 20.9024 17.957 20.944 17.8871 20.9572 18.0093 20.7518 18.0566 20.7329ZM16.3145 20.9641 16.8116 20.7569C16.8551 20.7386 16.852 20.8545 16.8047 20.864L16.3145 20.9641ZM17.441 20.5049C17.5765 20.4526 17.6899 20.4841 17.865 20.4727 18.1479 20.4545 18.4125 20.3461 18.6866 20.2831 18.524 20.37 18.335 20.4658 17.918 20.5288 17.7428 20.5546 17.5601 20.5685 17.441 20.5049L17.441 20.5049ZM18.1171 18.2972C18.2437 18.3804 18.3817 18.444 18.5247 18.4988 18.4466 18.4384 18.3999 18.3785 18.3098 18.3237 18.289 18.3432 18.175 18.3048 18.1171 18.2972ZM17.8783 18.3842C17.94 18.4919 18.1202 18.5587 18.3817 18.5965 18.2216 18.4925 18.0547 18.4176 17.8783 18.3842ZM17.5399 18.5411C17.4625 18.565 17.6849 18.6267 17.7661 18.6696 17.848 18.7124 17.9558 18.8233 17.9986 18.7824 18.0396 18.7433 17.9022 18.6627 17.7945 18.6406 17.7113 18.6236 17.654 18.5064 17.5399 18.5411ZM18.3539 18.9531 18.4239 18.8825 18.4818 18.9991 18.3539 18.9531 18.3539 18.9531ZM21.5223 16.3738 21.4959 16.2509 21.562 16.0273 21.5778 16.261 21.5223 16.3738ZM22.3905 18.2027C22.1593 18.0005 21.9117 17.7907 21.7076 17.7472 21.666 17.6219 21.6471 17.5305 21.6408 17.424 21.6295 17.2457 21.6742 17.0725 21.6736 16.9194 21.6723 16.6907 21.826 16.4607 21.9596 16.2616 22.0352 16.1488 22.1398 16.0865 22.2261 15.9687 22.2633 15.9183 22.1347 15.7664 22.3571 15.7482 22.4567 15.74 22.5291 15.6568 22.5896 15.6864 22.6495 15.716 22.6961 15.8584 22.7679 15.8603 22.8271 15.8616 22.8807 15.8067 22.9002 15.7595 22.9979 15.5283 23.0231 15.2788 23.1125 15.045 23.1787 14.8718 23.27 14.6519 23.3645 14.5423 23.345 14.6727 23.4767 14.8157 23.5101 14.9108 23.4716 15.1156 23.2637 15.3311 23.1258 15.447 22.9223 15.6177 23.1333 15.6429 23.0054 15.8798 22.921 16.0367 23.1314 15.9806 23.1182 16.048 23.0722 16.2868 22.9053 16.5615 22.8467 16.8097 22.7767 17.1071 22.72 17.3906 22.6419 17.6874 22.5991 17.8512 22.4712 18.0566 22.3905 18.2027L22.3905 18.2027ZM23.2392 18.2758 23.4036 18.1385 23.4698 18.25 23.2392 18.2758ZM23.9606 17.7699 23.6027 18.1271 23.5233 18.0603 23.9606 17.7699ZM24.6095 18.708C24.8123 18.7017 25.0158 18.628 25.2187 18.5631 25.0095 18.606 24.8029 18.6513 24.6095 18.708ZM26.6829 18.2298C26.8058 18.2676 26.9809 18.1952 27.1271 18.1385 26.9614 18.187 26.7635 18.1838 26.6829 18.2298" fill-rule="evenodd" transform="matrix(1 0 0 1.00811 208 438)"/><path d="M13.7472 25.5917 13.7333 26.3937C13.7327 26.4139 13.693 26.5991 13.6716 26.6923L12.1746 26.6665 12.1954 25.4758C12.1979 25.3227 12.2099 25.22 12.2244 25.157 12.1343 25.1551 12.0215 25.1469 11.985 25.133L12.0467 24.8382C12.1331 24.8564 12.3227 24.8596 12.5054 24.8627L13.1776 24.8741C13.6665 24.8816 13.7573 25.0228 13.7472 25.5917ZM13.1587 25.1759 12.45 25.1639 12.4292 26.3679 13.4807 26.3862 13.4933 25.6679C13.499 25.3378 13.4649 25.1809 13.1587 25.1759Z" fill="#231F20" transform="matrix(1 0 0 1.00811 208 438)"/><path d="M14.284 25.9105C14.4238 25.7001 14.5001 25.5381 14.5026 25.4052 14.5045 25.2956 14.4421 25.2578 14.2896 25.2118 14.2103 25.1872 14.1441 25.1658 14.088 25.1419L14.1498 24.8501C14.1958 24.8678 14.2625 24.8886 14.3451 24.91 14.6601 24.9856 14.7678 25.087 14.7634 25.3334 14.7596 25.5432 14.6557 25.7744 14.4887 26.0144L14.284 25.9105Z" fill="#231F20" transform="matrix(1 0 0 1.00811 208 438)"/><path d="M15.1232 26.4309C15.2 26.4189 15.3897 26.4189 15.5793 26.4221L16.0947 26.4309C16.0033 26.3364 15.7979 26.0699 15.447 25.5879 15.2813 25.3586 15.086 25.0927 14.9531 24.9169L15.326 24.8898C15.4621 25.0921 15.6896 25.4354 15.871 25.6912 16.1255 25.5923 16.1677 25.4468 16.1715 25.2641 16.1734 25.1645 16.1388 25.0303 16.101 24.9365L16.4273 24.9119C16.4525 24.9919 16.4676 25.0921 16.4658 25.1986 16.4601 25.5148 16.3366 25.7253 15.985 25.8658 16.2578 26.2431 16.4374 26.4492 16.4935 26.4933L16.4324 26.7383 15.5409 26.7232C15.3178 26.7194 15.1219 26.7194 15.0482 26.7245L15.1232 26.4309Z" fill="#231F20" transform="matrix(1 0 0 1.00811 208 438)"/><path d="M16.7934 26.4599C16.8702 26.4479 17.0599 26.4479 17.2495 26.451L17.7649 26.4599C17.6735 26.3654 17.4681 26.0989 17.1172 25.6169 16.9515 25.3876 16.7562 25.1217 16.6233 24.9459L16.9962 24.9188C17.1323 25.1211 17.3598 25.4644 17.5412 25.7202 17.7957 25.6213 17.8379 25.4758 17.8417 25.2931 17.8436 25.1935 17.809 25.0593 17.7712 24.9654L18.0975 24.9409C18.1227 25.0215 18.1378 25.1217 18.136 25.2275 18.1303 25.5438 18.0068 25.7542 17.6552 25.8947 17.928 26.2721 18.1076 26.4781 18.1637 26.5222L18.1026 26.7673 17.2111 26.7516C16.988 26.7478 16.7921 26.7478 16.7184 26.7528L16.7934 26.4599Z" fill="#231F20" transform="matrix(1 0 0 1.00811 208 438)"/><path d="M18.7754 25.7385C18.7805 25.4525 18.749 25.3485 18.4907 25.2811 18.3747 25.249 18.3117 25.2345 18.2657 25.2137L18.3275 24.922C18.3703 24.9396 18.4365 24.9573 18.5562 24.9793 18.9273 25.0656 19.0451 25.191 19.0363 25.6963L19.0174 26.7843 18.7578 26.7799 18.7754 25.7385Z" fill="#231F20" transform="matrix(1 0 0 1.00811 208 438)"/><path d="M19.4307 26.5052C19.5107 26.4933 19.7337 26.497 19.9366 26.4977L20.6516 26.5103 20.6617 25.9149C20.6649 25.5488 20.554 25.4071 20.1426 25.3302 19.9933 25.3012 19.8603 25.2786 19.7747 25.2641 19.7198 25.3661 19.6783 25.4588 19.677 25.535 19.6751 25.6547 19.7532 25.736 19.9958 25.7801L19.9246 26.0648C19.556 26.0119 19.4325 25.8368 19.437 25.5936 19.4407 25.3876 19.5945 25.1337 19.6675 24.9453 19.7205 24.9598 19.9032 24.9925 20.1816 25.0373 20.6794 25.1122 20.9326 25.2767 20.9194 25.8557L20.9074 26.5342C20.9068 26.5708 20.8703 26.7698 20.8596 26.8165L19.8219 26.7982C19.6556 26.795 19.4458 26.7919 19.3695 26.8001L19.4307 26.5052Z" fill="#231F20" transform="matrix(1 0 0 1.00811 208 438)"/><path d="M21.2407 26.5367C21.2905 26.5273 21.3377 26.5216 21.5135 26.5248L21.5633 26.5254C21.5658 26.2028 21.5507 25.5337 21.5312 25.3201L21.5211 25.3201C21.4612 25.3189 21.3214 25.3132 21.2684 25.2924L21.3333 25.0007C21.436 25.0228 21.6528 25.0196 21.8556 25.0234L22.4012 25.0329C22.8901 25.041 22.9815 25.1595 22.9714 25.7284L22.9519 26.853 22.6923 26.8486 22.7099 25.8172C22.7156 25.4877 22.6816 25.3409 22.3723 25.3353L21.787 25.3252C21.8002 25.5381 21.8235 26.3011 21.8159 26.5336L21.7643 26.8322 21.5016 26.8278C21.3686 26.8253 21.2489 26.8265 21.1721 26.8354L21.2407 26.5367Z" fill="#231F20" transform="matrix(1 0 0 1.00811 208 438)"/><path d="M23.5718 25.8418C23.6241 25.5098 23.4931 25.3781 23.2845 25.3246L23.3501 25.0165C23.6153 25.0644 23.7722 25.237 23.798 25.4934 23.878 25.2918 24.0821 25.0322 24.4513 25.0392 24.9705 25.048 25.0883 25.5262 25.0776 26.1682L25.07 26.5941C25.0694 26.6243 25.0291 26.8429 25.0184 26.8895L24.3631 26.8782C24.2302 26.8757 24.0569 26.8763 23.987 26.8814L24.0488 26.5865C24.1187 26.5745 24.2749 26.5771 24.4583 26.5802L24.8073 26.5865C24.813 26.4466 24.8155 26.3105 24.818 26.1776 24.8256 25.7586 24.779 25.3485 24.3896 25.3416 24.0204 25.3353 23.8843 25.6988 23.8301 25.9243 23.7728 26.1461 23.6966 26.5474 23.631 26.8662L23.3715 26.8618C23.4433 26.5185 23.5309 26.0869 23.5718 25.8418Z" fill="#231F20" transform="matrix(1 0 0 1.00811 208 438)"/><path d="M27.8907 25.8368 27.8768 26.6382C27.8762 26.6583 27.8365 26.8436 27.8151 26.9368L26.3181 26.911 26.3389 25.7202C26.3414 25.5671 26.3534 25.4644 26.3679 25.4014 26.2778 25.4002 26.165 25.3913 26.1291 25.3775L26.1908 25.0826C26.2772 25.1009 26.4668 25.104 26.6495 25.1072L27.3217 25.1185C27.81 25.1261 27.9007 25.2679 27.8907 25.8368ZM27.3022 25.4203 26.5934 25.4077 26.5726 26.6123 27.6242 26.6306 27.6368 25.9117C27.6424 25.5829 27.6084 25.4254 27.3022 25.4203Z" fill="#231F20" transform="matrix(1 0 0 1.00811 208 438)"/><path d="M28.3405 26.1537C28.4804 25.9432 28.5566 25.7813 28.5591 25.6484 28.561 25.5388 28.4986 25.501 28.3462 25.455 28.2668 25.4304 28.2006 25.409 28.1446 25.385L28.2063 25.0933C28.2523 25.111 28.3191 25.1318 28.4016 25.1532 28.7166 25.2288 28.8244 25.3302 28.8199 25.5766 28.8162 25.7864 28.7122 26.0176 28.5453 26.257L28.3405 26.1537Z" fill="#231F20" transform="matrix(1 0 0 1.00811 208 438)"/><path d="M29.9515 25.942C29.9571 25.6125 29.9231 25.4657 29.6106 25.46L29.2811 25.4543C29.0846 25.4512 28.9586 25.4424 28.9119 25.4279L28.9737 25.133C29.0398 25.1475 29.2099 25.1507 29.4361 25.1545L29.6421 25.1582C30.1279 25.1664 30.2192 25.2849 30.2092 25.8538L30.1896 26.9784 29.9332 26.974 29.9515 25.942Z" fill="#231F20" transform="matrix(1 0 0 1.00811 208 438)"/><path d="M30.7963 25.9666C30.8486 25.6345 30.7176 25.5029 30.509 25.4493L30.5746 25.1412C30.8398 25.1891 30.9967 25.3617 31.0225 25.6182 31.1025 25.4165 31.3067 25.157 31.6759 25.1639 32.195 25.1727 32.3128 25.6509 32.3021 26.2929L32.2945 26.7188C32.2939 26.7491 32.2536 26.9677 32.2429 27.0143L31.5877 27.003C31.4547 27.0004 31.2815 27.0011 31.2115 27.0061L31.2733 26.7112C31.3432 26.6993 31.4995 26.7018 31.6828 26.7049L32.0318 26.7112C32.0375 26.5714 32.04 26.4353 32.0425 26.3024 32.0501 25.8834 32.0035 25.4732 31.6141 25.4663 31.2449 25.46 31.1088 25.8235 31.0547 26.0491 30.9973 26.2709 30.9211 26.6722 30.8556 26.991L30.596 26.9866C30.6678 26.6432 30.7554 26.2123 30.7963 25.9666Z" fill="#231F20" transform="matrix(1 0 0 1.00811 208 438)"/><path d="M33.0487 25.9855C33.0537 25.6994 33.0222 25.5955 32.7639 25.5281 32.648 25.4959 32.585 25.4814 32.539 25.4606L32.6007 25.1689C32.6436 25.1866 32.7097 25.2042 32.8294 25.2263 33.2005 25.3126 33.3183 25.438 33.3095 25.9432L33.2906 27.0313 33.031 27.0269 33.0487 25.9855Z" fill="#231F20" transform="matrix(1 0 0 1.00811 208 438)"/><path d="M33.8438 25.993C33.8476 25.77 33.8608 25.5974 33.8784 25.5312 33.8186 25.5268 33.6592 25.5142 33.6359 25.5104L33.6976 25.2118C33.7675 25.2294 33.9339 25.2326 34.1601 25.2364L34.7624 25.2471C35.2481 25.2553 35.3388 25.4071 35.3288 25.959L35.3099 27.0666 35.0503 27.0622 35.0679 26.051C35.0742 25.6849 35.0434 25.5545 34.7271 25.5495L34.1084 25.5388 34.0826 27.0458 33.8261 27.0414 33.8438 25.993Z" fill="#231F20" transform="matrix(1 0 0 1.00811 208 438)"/><path d="M15.0085 29.1306 14.5347 29.1306 14.5347 29.5735 15.0646 29.5735 15.0646 29.7039 14.3753 29.7039 14.3753 28.481 15.0375 28.481 15.0375 28.6114 14.5347 28.6114 14.5347 28.9995 15.0085 28.9995 15.0085 29.1306Z" fill="#231F20" transform="matrix(1 0 0 1.00811 208 438)"/><path d="M15.9372 29.7039 15.7809 29.4336C15.7154 29.3303 15.6776 29.2629 15.6392 29.1923L15.6354 29.1923C15.6007 29.2647 15.5648 29.3284 15.5031 29.4355L15.3563 29.7039 15.1748 29.7039 15.5484 29.0852 15.1893 28.481 15.3708 28.481 15.5339 28.7677C15.5793 28.8477 15.614 28.9094 15.648 28.9762L15.6518 28.9762C15.6864 28.9018 15.7173 28.8477 15.7626 28.7677L15.9296 28.481 16.111 28.481 15.7393 29.0757 16.1205 29.7032 15.9372 29.7032Z" fill="#231F20" transform="matrix(1 0 0 1.00811 208 438)"/><path d="M16.3019 28.4955C16.3782 28.4829 16.4815 28.4722 16.6069 28.4722 16.7631 28.4722 16.8772 28.5087 16.9496 28.5736 17.0151 28.6316 17.0567 28.7204 17.0567 28.8313 17.0567 28.9441 17.024 29.031 16.9622 29.094 16.879 29.1828 16.743 29.2282 16.5924 29.2282 16.5414 29.2282 16.4941 29.2244 16.462 29.2194L16.462 29.7039 16.3026 29.7039 16.3026 28.4955ZM16.462 29.0902C16.4872 29.0978 16.5401 29.1009 16.5924 29.1009 16.7827 29.1009 16.8992 29.0064 16.8992 28.8395 16.8992 28.6744 16.7852 28.5963 16.6107 28.5963 16.5401 28.5963 16.4891 28.602 16.462 28.607L16.462 29.0902Z" fill="#231F20" transform="matrix(1 0 0 1.00811 208 438)"/><path d="M17.2678 28.481 17.4272 28.481 17.4272 29.5697 17.9495 29.5697 17.9495 29.7039 17.2671 29.7039 17.2671 28.481Z" fill="#231F20" transform="matrix(1 0 0 1.00811 208 438)"/><path d="M19.0999 29.0902C19.0999 29.4966 18.8403 29.7234 18.5322 29.7234 18.2021 29.7234 17.9829 29.4638 17.9829 29.0997 17.9829 28.7242 18.2166 28.4608 18.5543 28.4608 18.9021 28.4608 19.0999 28.7368 19.0999 29.0902ZM18.1511 29.094C18.1511 29.3719 18.2928 29.5949 18.5411 29.5949 18.7987 29.5949 18.9329 29.3611 18.9329 29.094 18.9329 28.8439 18.8113 28.59 18.5429 28.59 18.289 28.59 18.1511 28.8187 18.1511 29.094Z" fill="#231F20" transform="matrix(1 0 0 1.00811 208 438)"/><path d="M19.2832 29.5117C19.3538 29.5552 19.4571 29.5917 19.5661 29.5917 19.7274 29.5917 19.8219 29.5067 19.8219 29.3832 19.8219 29.2692 19.7564 29.2036 19.5894 29.14 19.3916 29.0713 19.2681 28.9642 19.2681 28.7935 19.2681 28.6045 19.4262 28.4634 19.6638 28.4634 19.7873 28.4634 19.8799 28.4923 19.934 28.5213L19.8906 28.6498C19.8509 28.6278 19.769 28.5919 19.6581 28.5919 19.4911 28.5919 19.4275 28.6914 19.4275 28.7752 19.4275 28.8893 19.5019 28.946 19.6707 29.0108 19.8773 29.0927 19.9826 29.1904 19.9826 29.37 19.9826 29.5583 19.8427 29.7234 19.5541 29.7234 19.4344 29.7234 19.3059 29.6869 19.2404 29.6434L19.2832 29.5117Z" fill="#231F20" transform="matrix(1 0 0 1.00811 208 438)"/><path d="M20.3574 28.481 20.3574 29.7039 20.198 29.7039 20.198 28.481 20.3574 28.481Z" fill="#231F20" transform="matrix(1 0 0 1.00811 208 438)"/><path d="M20.9018 29.7039 20.5011 28.481 20.6737 28.481 20.864 29.0833C20.915 29.2484 20.9616 29.3989 20.9944 29.5407L21.0001 29.5407C21.0347 29.3989 21.0832 29.2452 21.138 29.0871L21.3447 28.481 21.5135 28.481 21.0763 29.7039 20.9018 29.7039Z" fill="#231F20" transform="matrix(1 0 0 1.00811 208 438)"/><path d="M22.2752 29.1306 21.8014 29.1306 21.8014 29.5735 22.3313 29.5735 22.3313 29.7039 21.6421 29.7039 21.6421 28.481 22.3042 28.481 22.3042 28.6114 21.8014 28.6114 21.8014 28.9995 22.2752 28.9995 22.2752 29.1306Z" fill="#231F20" transform="matrix(1 0 0 1.00811 208 438)"/><path d="M22.8996 29.5117C22.9701 29.5552 23.0735 29.5917 23.1825 29.5917 23.3438 29.5917 23.4383 29.5067 23.4383 29.3832 23.4383 29.2692 23.3727 29.2036 23.2058 29.14 23.0079 29.0713 22.8845 28.9642 22.8845 28.7935 22.8845 28.6045 23.0426 28.4634 23.2801 28.4634 23.4036 28.4634 23.4962 28.4923 23.5504 28.5213L23.5069 28.6498C23.4672 28.6278 23.3853 28.5919 23.2745 28.5919 23.1075 28.5919 23.0439 28.6914 23.0439 28.7752 23.0439 28.8893 23.1182 28.946 23.2871 29.0108 23.4937 29.0927 23.5989 29.1904 23.5989 29.37 23.5989 29.5583 23.459 29.7234 23.1705 29.7234 23.0508 29.7234 22.9223 29.6869 22.8567 29.6434L22.8996 29.5117Z" fill="#231F20" transform="matrix(1 0 0 1.00811 208 438)"/><path d="M23.9738 28.481 23.9738 29.2087C23.9738 29.479 24.0935 29.5949 24.2586 29.5949 24.4381 29.5949 24.5559 29.4752 24.5559 29.2087L24.5559 28.481 24.7134 28.481 24.7134 29.1954C24.7134 29.5709 24.5175 29.7234 24.2529 29.7234 24.0028 29.7234 23.8138 29.5816 23.8138 29.203L23.8138 28.481 23.9738 28.481Z" fill="#231F20" transform="matrix(1 0 0 1.00811 208 438)"/><path d="M24.9881 28.4974C25.0587 28.4829 25.1696 28.4722 25.2786 28.4722 25.4361 28.4722 25.5381 28.4993 25.6125 28.561 25.678 28.6083 25.7158 28.6807 25.7158 28.7771 25.7158 28.8949 25.6358 29.0001 25.5092 29.0455L25.5092 29.0493C25.6251 29.0783 25.7612 29.1728 25.7612 29.3574 25.7612 29.4607 25.7215 29.5407 25.656 29.6005 25.5728 29.6787 25.4348 29.7146 25.2351 29.7146 25.1242 29.7146 25.0429 29.707 24.9881 29.7001L24.9881 28.4974ZM25.1482 28.9995 25.2912 28.9995C25.4562 28.9995 25.5558 28.9107 25.5558 28.7929 25.5558 28.6498 25.4468 28.5931 25.2874 28.5931 25.2149 28.5931 25.1734 28.5988 25.1475 28.6038L25.1475 28.9995ZM25.1482 29.5842C25.1809 29.5898 25.2225 29.5917 25.2805 29.5917 25.4436 29.5917 25.5961 29.5319 25.5961 29.3561 25.5961 29.1873 25.4512 29.1186 25.2786 29.1186L25.1482 29.1186 25.1482 29.5842Z" fill="#231F20" transform="matrix(1 0 0 1.00811 208 438)"/><path d="M25.9521 29.5117C26.0226 29.5552 26.126 29.5917 26.2349 29.5917 26.3962 29.5917 26.4907 29.5067 26.4907 29.3832 26.4907 29.2692 26.4252 29.2036 26.2583 29.14 26.0604 29.0713 25.9369 28.9642 25.9369 28.7935 25.9369 28.6045 26.0944 28.4634 26.3326 28.4634 26.4561 28.4634 26.5487 28.4923 26.6029 28.5213L26.5594 28.6498C26.5197 28.6278 26.4378 28.5919 26.3269 28.5919 26.16 28.5919 26.0963 28.6914 26.0963 28.7752 26.0963 28.8893 26.1707 28.946 26.3395 29.0108 26.5462 29.0927 26.6514 29.1904 26.6514 29.37 26.6514 29.5583 26.5115 29.7234 26.223 29.7234 26.1033 29.7234 25.9747 29.6869 25.9092 29.6434L25.9521 29.5117Z" fill="#231F20" transform="matrix(1 0 0 1.00811 208 438)"/><path d="M27.1 28.6152 26.7283 28.6152 26.7283 28.481 27.6336 28.481 27.6336 28.6152 27.26 28.6152 27.26 29.7039 27.1006 29.7039 27.1006 28.6152Z" fill="#231F20" transform="matrix(1 0 0 1.00811 208 438)"/><path d="M27.8314 29.3189 27.7061 29.7032 27.541 29.7032 27.9581 28.4804 28.1471 28.4804 28.5642 29.7032 28.3953 29.7032 28.2649 29.3189 27.8314 29.3189ZM28.2321 29.1954 28.1124 28.8433C28.0853 28.7632 28.0671 28.6908 28.0488 28.6202L28.0431 28.6202C28.0267 28.6927 28.0066 28.767 27.9833 28.8414L27.8636 29.1948 28.2321 29.1948Z" fill="#231F20" transform="matrix(1 0 0 1.00811 208 438)"/><path d="M28.7425 29.7039 28.7425 28.481 28.9182 28.481 29.3082 29.0978C29.3971 29.2427 29.4695 29.3719 29.5275 29.4966L29.5312 29.4947C29.5168 29.3315 29.513 29.1828 29.513 28.9938L29.513 28.4804 29.6617 28.4804 29.6617 29.7032 29.5023 29.7032 29.1142 29.0827C29.0291 28.9466 28.9472 28.8067 28.8855 28.6744L28.8798 28.6763C28.8886 28.8307 28.8924 28.9775 28.8924 29.1803L28.8924 29.7026 28.7425 29.7026Z" fill="#231F20" transform="matrix(1 0 0 1.00811 208 438)"/><path d="M30.7926 29.6654C30.7346 29.6925 30.6187 29.7234 30.4681 29.7234 30.1254 29.7234 29.8658 29.5042 29.8658 29.1028 29.8658 28.7198 30.1254 28.4627 30.504 28.4627 30.6546 28.4627 30.7529 28.4936 30.7945 28.515L30.7566 28.6435C30.6968 28.6146 30.6117 28.5925 30.5097 28.5925 30.223 28.5925 30.0327 28.7758 30.0327 29.0965 30.0327 29.3958 30.2054 29.5879 30.5027 29.5879 30.5991 29.5879 30.6968 29.5678 30.7604 29.5369L30.7926 29.6654Z" fill="#231F20" transform="matrix(1 0 0 1.00811 208 438)"/><path d="M31.6217 29.1306 31.1479 29.1306 31.1479 29.5735 31.6777 29.5735 31.6777 29.7039 30.9885 29.7039 30.9885 28.481 31.6507 28.481 31.6507 28.6114 31.1479 28.6114 31.1479 28.9995 31.6217 28.9995 31.6217 29.1306Z" fill="#231F20" transform="matrix(1 0 0 1.00811 208 438)"/><path d="M31.8598 29.5117C31.9304 29.5552 32.0337 29.5917 32.1427 29.5917 32.304 29.5917 32.3985 29.5067 32.3985 29.3832 32.3985 29.2692 32.333 29.2036 32.166 29.14 31.9682 29.0713 31.8447 28.9642 31.8447 28.7935 31.8447 28.6045 32.0022 28.4634 32.2404 28.4634 32.3638 28.4634 32.4565 28.4923 32.5106 28.5213L32.4672 28.6498C32.4275 28.6278 32.3456 28.5919 32.2347 28.5919 32.0677 28.5919 32.0041 28.6914 32.0041 28.7752 32.0041 28.8893 32.0784 28.946 32.2473 29.0108 32.4539 29.0927 32.5592 29.1904 32.5592 29.37 32.5592 29.5583 32.4193 29.7234 32.1307 29.7234 32.011 29.7234 31.8825 29.6869 31.817 29.6434L31.8598 29.5117Z" fill="#231F20" transform="matrix(1 0 0 1.00811 208 438)"/><text fill="#231F20" font-family="Arial,Arial_MSFontService,sans-serif" font-weight="400" font-size="64.4684" transform="matrix(0.0575277 0 0 0.0635135 230.699 477)">1</text></g></svg>