<svg width="1134" height="870" xmlns="http://www.w3.org/2000/svg" xmlns:xlink="http://www.w3.org/1999/xlink" xml:space="preserve" overflow="hidden"><g transform="translate(2677 -420)"><g><g><g><path d="M303.041 535.809 65.1623 302.672 306.412 65.7365 547.662 302.672Z" stroke="#323031" stroke-width="0.82027" stroke-miterlimit="10" stroke-dasharray="4.92162 4.92162" fill="#FFFFFF" transform="matrix(1.00013 0 0 1 -2155 672)"/><path d="M303.533 501.497 100.385 302.393 306.412 100.048 512.448 302.393Z" stroke="#3B3A3C" stroke-width="0.82027" stroke-miterlimit="10" fill="none" transform="matrix(1.00013 0 0 1 -2155 672)"/><path d="M303.516 534.611 65.6544 301.466 305.707 65.7283 546.948 302.672Z" stroke="#323031" stroke-width="0.82027" stroke-miterlimit="10" stroke-dasharray="4.92162 4.92162" fill="#FFFFFF" transform="matrix(1.00013 0 0 1 -2155 672)"/><path d="M550.04 302.458 61.8812 302.672 305.559 541.272Z" fill="#C82127" transform="matrix(1.00013 0 0 1 -2155 672)"/><path d="M302.811 501.497 99.6628 302.393 305.698 100.048 511.734 302.393Z" stroke="#3B3A3C" stroke-width="0.82027" stroke-miterlimit="10" fill="none" transform="matrix(1.00013 0 0 1 -2155 672)"/><path d="M305.953 141.177C296.15 159.69 307.585 170.034 295.059 196.717 287.98 191.271 291.795 171.125 278.728 170.583 280.36 177.121 279.269 179.295 278.728 181.477 277.096 190.729 274.372 198.358 280.36 209.792 271.108 205.437 270.558 197.267 262.938 191.82 264.57 200.531 260.756 218.504 271.108 235.926 261.855 234.835 258.582 231.571 248.78 221.768 259.123 276.218 267.293 277.85 305.953 281.123 302.688 280.582 283.083 277.309 276.005 254.989 276.005 249.543 275.463 259.886 294.518 260.436 282.542 241.381 285.807 245.187 286.898 234.302 292.344 241.381 287.989 242.472 301.597 247.919 297.241 233.761 308.676 224.508 305.953 208.168 309.217 215.247 320.111 214.156 319.569 247.919 328.822 237.575 329.371 244.654 333.727 233.761 334.268 239.749 336.992 247.377 324.474 260.444 327.739 261.535 333.186 262.076 341.355 256.088 333.186 265.891 340.814 265.891 319.577 281.139 346.261 281.681 363.683 264.808 363.134 228.322 362.043 231.587 361.501 238.124 347.344 239.757 356.055 231.046 360.96 213.073 353.881 198.916 351.158 201.097 347.344 211.982 338.091 214.706 342.446 207.085 341.355 197.283 341.355 197.283 341.355 197.283 342.988 183.667 334.818 172.782 332.636 189.113 332.636 197.833 322.292 200.007 323.925 190.754 324.474 185.849 319.028 174.955 313.581 163.496 307.044 152.062 305.953 141.177ZM261.847 290.367 261.847 300.17 354.956 300.17 354.956 290.367 261.847 290.367Z" transform="matrix(1.00013 0 0 1 -2155 672)"/><path d="M308.988 468.547 308.988 470.622C308.988 472.796 309.209 473.132 311.645 473.435L311.645 474.633 301.909 474.633 301.909 473.435C304.804 473.124 304.895 472.623 304.895 470.45L304.895 468.538 296.634 468.538 296.634 467.078C300.162 461.755 303.582 456.817 306.683 452.756L308.996 452.756 308.996 466.529 311.982 466.529 311.982 468.53 308.988 468.53ZM304.886 457.448 304.821 457.448C303.336 459.548 301.203 462.887 299.046 466.545L304.886 466.545 304.886 457.448Z" fill="#231F20" transform="matrix(1.00013 0 0 1 -2155 672)"/><path d="M162.455 333.497C162.947 333.407 163.406 333.35 165.145 333.382L165.637 333.391C165.662 330.208 165.514 323.621 165.317 321.521L165.219 321.521C164.628 321.513 163.25 321.456 162.733 321.251L163.373 318.38C164.382 318.593 166.515 318.56 168.516 318.601L173.889 318.691C178.704 318.773 179.606 319.938 179.508 325.541L179.319 336.614 176.76 336.573 176.932 326.418C176.99 323.178 176.653 321.726 173.61 321.677L167.844 321.579C167.975 323.679 168.205 331.184 168.131 333.481L167.622 336.417 165.03 336.376C163.718 336.352 162.537 336.368 161.782 336.45L162.455 333.497Z" fill="#231F20" transform="matrix(1.00013 0 0 1 -2155 672)"/><path d="M183.347 328.879C184.725 326.804 185.471 325.213 185.496 323.9 185.512 322.817 184.897 322.448 183.396 321.997 182.617 321.751 181.961 321.546 181.411 321.308L182.018 318.437C182.477 318.609 183.125 318.814 183.937 319.028 187.038 319.766 188.104 320.767 188.063 323.195 188.031 325.262 187.005 327.534 185.356 329.896L183.347 328.879Z" fill="#231F20" transform="matrix(1.00013 0 0 1 -2155 672)"/><path d="M193.436 326.788C193.953 323.523 192.665 322.219 190.606 321.694L191.246 318.659C193.863 319.126 195.405 320.824 195.651 323.359 196.438 321.374 198.448 318.814 202.09 318.88 207.2 318.97 208.365 323.679 208.258 329.995L208.185 334.186C208.176 334.482 207.783 336.639 207.676 337.09L201.221 336.975C199.908 336.951 198.202 336.959 197.513 337.008L198.12 334.104C198.809 333.981 200.351 334.014 202.156 334.039L205.593 334.096C205.65 332.718 205.675 331.373 205.691 330.069 205.765 325.943 205.305 321.899 201.475 321.833 197.841 321.767 196.496 325.352 195.971 327.575 195.405 329.765 194.65 333.711 194.01 336.852L191.451 336.811C192.173 333.456 193.034 329.207 193.436 326.788Z" fill="#231F20" transform="matrix(1.00013 0 0 1 -2155 672)"/><path d="M212.376 334.359C213.131 334.244 215.001 334.244 216.871 334.268L221.949 334.359C221.046 333.423 219.029 330.799 215.567 326.057 213.935 323.802 212.015 321.177 210.703 319.454L214.378 319.192C215.723 321.185 217.954 324.565 219.75 327.083 222.26 326.107 222.679 324.679 222.703 322.875 222.72 321.891 222.383 320.578 222.006 319.651L225.222 319.413C225.468 320.201 225.615 321.193 225.599 322.235 225.542 325.344 224.328 327.427 220.866 328.805 223.556 332.521 225.32 334.555 225.87 334.99L225.271 337.402 216.494 337.254C214.296 337.213 212.368 337.213 211.646 337.271L212.376 334.359Z" fill="#231F20" transform="matrix(1.00013 0 0 1 -2155 672)"/><path d="M234.917 334.588C233.9 330.995 230.619 323.301 228.322 319.791L231.8 319.553C233.547 322.76 236.213 329.429 237.288 333.875 239.732 332.899 241.045 330.79 241.118 326.763 241.151 324.893 240.708 322.137 239.855 319.987L243.104 319.717C243.481 320.841 243.891 323.236 243.85 325.959 243.735 330.741 242.488 334.523 237.075 336.819 234.564 337.886 230.652 338.64 227.633 338.952L228.248 335.753C230.447 335.556 233.203 335.146 234.917 334.588Z" fill="#231F20" transform="matrix(1.00013 0 0 1 -2155 672)"/><path d="M253.488 335.072C253.98 334.982 254.44 334.925 256.179 334.957L256.671 334.966C256.695 331.783 256.548 325.196 256.351 323.096L256.252 323.096C255.662 323.088 254.284 323.031 253.767 322.826L254.407 319.955C255.416 320.168 257.548 320.143 259.55 320.176L264.923 320.266C269.738 320.348 270.632 321.513 270.542 327.116L270.353 338.189 267.794 338.148 267.966 327.993C268.023 324.753 267.687 323.301 264.636 323.252L258.869 323.154C258.992 325.254 259.23 332.759 259.156 335.056L258.648 338.001 256.056 337.96C254.743 337.935 253.562 337.951 252.807 338.033L253.488 335.072Z" fill="#231F20" transform="matrix(1.00013 0 0 1 -2155 672)"/><path d="M278.022 328.059C278.072 325.245 277.76 324.22 275.217 323.556 274.077 323.244 273.454 323.096 273.002 322.891L273.609 320.02C274.036 320.193 274.684 320.365 275.865 320.586 279.524 321.439 280.68 322.67 280.59 327.649L280.401 338.362 277.842 338.321 278.022 328.059Z" fill="#231F20" transform="matrix(1.00013 0 0 1 -2155 672)"/><path d="M285.848 328.125C285.889 325.926 286.012 324.228 286.192 323.572 285.602 323.531 284.035 323.4 283.805 323.367L284.412 320.43C285.101 320.603 286.734 320.635 288.965 320.676L294.895 320.775C299.678 320.857 300.572 322.35 300.473 327.788L300.285 338.698 297.725 338.657 297.898 328.699C297.963 325.098 297.651 323.81 294.543 323.761L288.448 323.654 288.194 338.493 285.667 338.452 285.848 328.125Z" fill="#231F20" transform="matrix(1.00013 0 0 1 -2155 672)"/><path d="M309.775 335.589C313.729 334.514 317.051 331.914 317.133 327.001 317.166 324.901 316.427 324.138 313.934 324.097L309.447 324.023C307.216 323.982 305.124 323.949 304.599 323.712L305.206 320.841C306.125 321.021 307.888 321.021 310.021 321.054L314.607 321.136C318.798 321.21 319.758 322.67 319.692 326.336 319.569 333.415 314.771 337.82 309.209 339.133L309.775 335.589ZM305.173 328.887 307.733 328.928 307.454 345.112 304.895 345.071 305.173 328.887Z" fill="#231F20" transform="matrix(1.00013 0 0 1 -2155 672)"/><path d="M324.212 336.065C328.592 334.826 332.062 331.479 332.136 326.861 332.168 324.794 331.356 324.392 329.626 324.359L321.833 324.22 321.915 319.504C321.948 317.502 321.891 315.115 321.546 314.287L324.212 313.876C324.401 314.303 324.491 316.534 324.45 318.962L324.409 321.292 330.733 321.398C334.08 321.456 334.834 323.137 334.785 326.057 334.654 333.432 328.773 338.345 323.572 339.395L324.212 336.065Z" fill="#231F20" transform="matrix(1.00013 0 0 1 -2155 672)"/><path d="M337.279 336.516C337.771 336.426 338.23 336.368 339.969 336.401L340.461 336.409C340.486 333.227 340.338 326.64 340.142 324.54L340.043 324.54C339.452 324.532 338.074 324.474 337.558 324.269L338.197 321.398C339.206 321.612 341.339 321.579 343.341 321.62L348.713 321.71C353.528 321.792 354.422 322.957 354.332 328.559L354.144 339.633 351.584 339.592 351.757 329.437C351.814 326.197 351.478 324.745 348.426 324.696L342.66 324.597C342.791 326.697 343.021 334.203 342.947 336.5L342.438 339.436 339.846 339.395C338.534 339.37 337.353 339.387 336.598 339.469L337.279 336.516Z" fill="#231F20" transform="matrix(1.00013 0 0 1 -2155 672)"/><path d="M371.107 330.159C371.172 326.525 370.869 325.073 367.785 325.024L362.215 324.925C360.279 324.893 358.909 324.802 358.45 324.663L359.057 321.759C359.713 321.899 361.345 321.932 363.577 321.964L368.064 322.038C372.714 322.12 373.74 323.482 373.65 328.855L373.461 339.961 370.934 339.92 371.107 330.159ZM359.016 330.339 361.575 330.38 361.411 339.748 358.852 339.707 359.016 330.339Z" fill="#231F20" transform="matrix(1.00013 0 0 1 -2155 672)"/><path d="M379.014 337.016C383.394 335.778 386.864 332.431 386.938 327.813 386.971 325.746 386.159 325.344 384.428 325.311L376.635 325.18 376.717 320.463C376.75 318.462 376.693 316.075 376.348 315.246L379.006 314.836C379.195 315.263 379.285 317.494 379.244 319.922L379.203 322.251 385.527 322.358C388.866 322.415 389.628 324.097 389.579 327.017 389.448 334.391 383.567 339.305 378.366 340.355L379.014 337.016Z" fill="#231F20" transform="matrix(1.00013 0 0 1 -2155 672)"/><path d="M402.761 330.249C402.81 327.403 402.498 326.41 399.956 325.746 398.783 325.434 398.192 325.254 397.741 325.024L398.348 322.186C398.774 322.358 399.422 322.563 400.825 322.883 404.352 323.761 405.41 324.893 405.328 329.716L405.033 346.819 402.474 346.777 402.761 330.249Z" fill="#231F20" transform="matrix(1.00013 0 0 1 -2155 672)"/><path d="M412.85 330.388C412.899 327.575 412.588 326.55 410.045 325.885 408.905 325.574 408.281 325.426 407.83 325.221L408.437 322.35C408.864 322.522 409.512 322.694 410.693 322.916 414.351 323.769 415.508 324.999 415.418 329.978L415.229 340.691 412.67 340.65 412.85 330.388Z" fill="#231F20" transform="matrix(1.00013 0 0 1 -2155 672)"/><path d="M418.682 337.927C419.175 337.837 419.634 337.779 421.373 337.812L421.865 337.82C421.89 334.637 421.742 328.051 421.545 325.951L421.447 325.951C420.856 325.943 419.486 325.885 418.961 325.68L419.601 322.809C420.61 323.022 422.743 322.998 424.744 323.031L430.117 323.121C434.932 323.203 435.826 324.368 435.736 329.97L435.547 341.044 432.988 341.003 433.16 330.848C433.218 327.608 432.881 326.156 429.83 326.107L424.063 326.008C424.195 328.108 424.424 335.614 424.35 337.91L423.842 340.855 421.25 340.814C419.937 340.79 418.756 340.806 418.002 340.888L418.682 337.927Z" fill="#231F20" transform="matrix(1.00013 0 0 1 -2155 672)"/><path d="M439.189 338.255C440.009 338.173 441.059 338.156 443.225 338.189L445.522 338.23 445.645 330.922C445.694 328.075 445.382 327.28 442.478 326.541 441.305 326.263 440.165 325.975 439.64 325.77L440.247 322.899C440.674 323.072 441.65 323.318 443.053 323.605 446.842 324.458 448.294 325.598 448.212 330.413L448.073 338.378 447.466 341.249 442.913 341.167C441.502 341.142 439.247 341.134 438.59 341.191L439.189 338.255Z" fill="#231F20" transform="matrix(1.00013 0 0 1 -2155 672)"/><path d="M218.438 373.395C219.291 373.92 220.538 374.355 221.842 374.355 223.786 374.355 224.918 373.33 224.918 371.845 224.918 370.467 224.131 369.679 222.121 368.917 219.742 368.088 218.258 366.8 218.258 364.75 218.258 362.477 220.161 360.771 223.015 360.771 224.5 360.771 225.615 361.124 226.272 361.469L225.747 363.019C225.263 362.756 224.287 362.322 222.949 362.322 220.94 362.322 220.177 363.519 220.177 364.528 220.177 365.906 221.071 366.579 223.105 367.366 225.599 368.351 226.862 369.532 226.862 371.689 226.862 373.961 225.181 375.946 221.711 375.946 220.267 375.946 218.717 375.512 217.929 374.987L218.438 373.395Z" fill="#231F20" transform="matrix(1.00013 0 0 1 -2155 672)"/><path d="M229.446 361.165C230.365 361.009 231.612 360.878 233.113 360.878 234.991 360.878 236.369 361.313 237.239 362.1 238.026 362.797 238.526 363.872 238.526 365.201 238.526 366.554 238.133 367.604 237.394 368.367 236.394 369.433 234.753 369.983 232.94 369.983 232.325 369.983 231.759 369.942 231.365 369.876L231.365 375.708 229.446 375.708 229.446 361.165ZM231.365 368.334C231.669 368.424 232.301 368.465 232.94 368.465 235.237 368.465 236.632 367.333 236.632 365.324 236.632 363.339 235.254 362.395 233.162 362.395 232.309 362.395 231.702 362.461 231.374 362.527L231.374 368.334Z" fill="#231F20" transform="matrix(1.00013 0 0 1 -2155 672)"/><path d="M253.66 368.334C253.66 373.223 250.535 375.954 246.828 375.954 242.849 375.954 240.208 372.829 240.208 368.441 240.208 363.921 243.03 360.755 247.09 360.755 251.282 360.755 253.66 364.069 253.66 368.334ZM242.242 368.375C242.242 371.714 243.948 374.404 246.934 374.404 250.035 374.404 251.651 371.591 251.651 368.375 251.651 365.365 250.191 362.305 246.951 362.305 243.899 362.305 242.242 365.053 242.242 368.375Z" fill="#231F20" transform="matrix(1.00013 0 0 1 -2155 672)"/><path d="M256.113 375.717 256.113 360.993 258.229 360.993 262.929 368.416C263.996 370.163 264.874 371.714 265.571 373.223L265.612 373.198C265.439 371.23 265.39 369.442 265.39 367.169L265.39 360.985 267.178 360.985 267.178 375.708 265.259 375.708 260.583 368.236C259.558 366.595 258.574 364.914 257.836 363.322L257.77 363.347C257.877 365.201 257.926 366.973 257.926 369.417L257.926 375.708 256.113 375.708Z" fill="#231F20" transform="matrix(1.00013 0 0 1 -2155 672)"/><path d="M273.298 362.609 268.819 362.609 268.819 360.993 279.72 360.993 279.72 362.609 275.217 362.609 275.217 375.717 273.298 375.717 273.298 362.609Z" fill="#231F20" transform="matrix(1.00013 0 0 1 -2155 672)"/><path d="M282.099 371.082 280.59 375.708 278.605 375.708 283.625 360.985 285.897 360.985 290.917 375.708 288.883 375.708 287.308 371.082 282.099 371.082ZM286.922 369.597 285.479 365.357C285.151 364.397 284.929 363.519 284.716 362.666L284.65 362.666C284.453 363.544 284.215 364.438 283.928 365.332L282.485 369.589 286.922 369.589Z" fill="#231F20" transform="matrix(1.00013 0 0 1 -2155 672)"/><path d="M293.066 375.717 293.066 360.993 295.182 360.993 299.883 368.416C300.949 370.163 301.827 371.714 302.524 373.223L302.565 373.198C302.393 371.23 302.343 369.442 302.343 367.169L302.343 360.985 304.132 360.985 304.132 375.708 302.212 375.708 297.537 368.236C296.511 366.595 295.527 364.914 294.789 363.322L294.723 363.347C294.83 365.201 294.879 366.973 294.879 369.417L294.879 375.708 293.066 375.708Z" fill="#231F20" transform="matrix(1.00013 0 0 1 -2155 672)"/><path d="M315.058 368.81 309.357 368.81 309.357 374.142 315.73 374.142 315.73 375.717 307.429 375.717 307.429 360.993 315.402 360.993 315.402 362.568 309.349 362.568 309.349 367.243 315.049 367.243 315.049 368.81Z" fill="#231F20" transform="matrix(1.00013 0 0 1 -2155 672)"/><path d="M330.758 368.334C330.758 373.223 327.632 375.954 323.925 375.954 319.946 375.954 317.305 372.829 317.305 368.441 317.305 363.921 320.119 360.755 324.187 360.755 328.379 360.755 330.758 364.069 330.758 368.334ZM319.339 368.375C319.339 371.714 321.046 374.404 324.031 374.404 327.132 374.404 328.748 371.591 328.748 368.375 328.748 365.365 327.288 362.305 324.056 362.305 320.996 362.305 319.339 365.053 319.339 368.375Z" fill="#231F20" transform="matrix(1.00013 0 0 1 -2155 672)"/><path d="M335.13 360.993 335.13 369.753C335.13 373.01 336.573 374.404 338.558 374.404 340.724 374.404 342.143 372.961 342.143 369.753L342.143 360.993 344.046 360.993 344.046 369.597C344.046 374.117 341.684 375.954 338.501 375.954 335.491 375.954 333.218 374.248 333.218 369.688L333.218 360.993 335.13 360.993Z" fill="#231F20" transform="matrix(1.00013 0 0 1 -2155 672)"/><path d="M347.097 373.395C347.951 373.92 349.197 374.355 350.502 374.355 352.446 374.355 353.578 373.33 353.578 371.845 353.578 370.467 352.79 369.679 350.78 368.917 348.402 368.088 346.917 366.8 346.917 364.75 346.917 362.477 348.82 360.771 351.675 360.771 353.159 360.771 354.275 361.124 354.931 361.469L354.406 363.019C353.922 362.756 352.946 362.322 351.609 362.322 349.599 362.322 348.836 363.519 348.836 364.528 348.836 365.906 349.73 366.579 351.765 367.366 354.258 368.351 355.522 369.532 355.522 371.689 355.522 373.961 353.84 375.946 350.37 375.946 348.927 375.946 347.376 375.512 346.589 374.987L347.097 373.395Z" fill="#231F20" transform="matrix(1.00013 0 0 1 -2155 672)"/><path d="M358.105 360.993 360.025 360.993 360.025 374.101 366.316 374.101 366.316 375.717 358.105 375.717 358.105 360.993Z" fill="#231F20" transform="matrix(1.00013 0 0 1 -2155 672)"/><path d="M369.876 375.717 369.876 369.491 365.225 360.993 367.391 360.993 369.466 365.053C370.032 366.185 370.467 367.087 370.926 368.088L370.967 368.088C371.361 367.128 371.886 366.169 372.452 365.053L374.568 360.993 376.709 360.993 371.796 369.442 371.796 375.708 369.876 375.708Z" fill="#231F20" transform="matrix(1.00013 0 0 1 -2155 672)"/><path d="M245.105 401.465C244.408 401.793 243.005 402.162 241.192 402.162 237.066 402.162 233.941 399.521 233.941 394.69 233.941 390.08 237.066 386.979 241.627 386.979 243.44 386.979 244.621 387.348 245.121 387.611L244.662 389.161C243.94 388.808 242.915 388.546 241.693 388.546 238.239 388.546 235.951 390.752 235.951 394.616 235.951 398.217 238.026 400.538 241.611 400.538 242.767 400.538 243.948 400.3 244.711 399.923L245.105 401.465Z" fill="#231F20" transform="matrix(1.00013 0 0 1 -2155 672)"/><path d="M259.607 394.542C259.607 399.431 256.482 402.162 252.775 402.162 248.796 402.162 246.155 399.037 246.155 394.648 246.155 390.129 248.977 386.963 253.037 386.963 257.22 386.963 259.607 390.276 259.607 394.542ZM248.181 394.583C248.181 397.921 249.887 400.612 252.873 400.612 255.974 400.612 257.59 397.798 257.59 394.583 257.59 391.572 256.129 388.513 252.889 388.513 249.838 388.513 248.181 391.261 248.181 394.583Z" fill="#231F20" transform="matrix(1.00013 0 0 1 -2155 672)"/><path d="M274.503 395.452C274.372 393.418 274.241 390.933 274.266 389.12L274.2 389.12C273.7 390.826 273.043 392.811 272.322 394.78L269.762 401.834 268.253 401.834 265.915 394.821C265.193 392.745 264.627 390.842 264.234 389.12L264.168 389.12C264.102 390.933 264.037 393.377 263.881 395.608L263.487 401.924 261.674 401.924 262.7 387.2 265.128 387.2 267.638 394.345C268.253 396.117 268.729 397.864 269.098 399.39L269.164 399.39C269.533 397.905 270.058 396.182 270.738 394.32L273.363 387.2 275.791 387.2 276.71 401.924 274.832 401.924 274.503 395.452Z" fill="#231F20" transform="matrix(1.00013 0 0 1 -2155 672)"/><path d="M279.606 387.397C280.459 387.225 281.787 387.094 283.1 387.094 285.003 387.094 286.225 387.422 287.119 388.16 287.907 388.726 288.366 389.604 288.366 390.76 288.366 392.179 287.406 393.451 285.872 393.992L285.872 394.033C287.267 394.386 288.907 395.518 288.907 397.749 288.907 398.996 288.423 399.956 287.644 400.677 286.643 401.613 284.978 402.056 282.575 402.056 281.246 402.056 280.262 401.965 279.606 401.883L279.606 387.397ZM281.533 393.443 283.256 393.443C285.241 393.443 286.447 392.376 286.447 390.949 286.447 389.227 285.134 388.546 283.215 388.546 282.345 388.546 281.837 388.611 281.533 388.677L281.533 393.443ZM281.533 400.481C281.927 400.546 282.427 400.571 283.125 400.571 285.093 400.571 286.922 399.849 286.922 397.733 286.922 395.698 285.175 394.87 283.1 394.87L281.525 394.87 281.525 400.481Z" fill="#231F20" transform="matrix(1.00013 0 0 1 -2155 672)"/><path d="M293.37 387.2 293.37 395.961C293.37 399.217 294.813 400.612 296.798 400.612 298.964 400.612 300.383 399.168 300.383 395.961L300.383 387.2 302.286 387.2 302.286 395.805C302.286 400.325 299.924 402.162 296.741 402.162 293.731 402.162 291.458 400.456 291.458 395.895L291.458 387.2 293.37 387.2Z" fill="#231F20" transform="matrix(1.00013 0 0 1 -2155 672)"/><path d="M305.337 399.603C306.191 400.128 307.437 400.563 308.742 400.563 310.686 400.563 311.818 399.537 311.818 398.053 311.818 396.675 311.03 395.887 309.02 395.124 306.642 394.296 305.157 393.008 305.157 390.957 305.157 388.685 307.06 386.979 309.915 386.979 311.399 386.979 312.515 387.332 313.171 387.676L312.646 389.227C312.162 388.964 311.186 388.529 309.849 388.529 307.839 388.529 307.076 389.727 307.076 390.736 307.076 392.114 307.971 392.786 310.005 393.574 312.498 394.558 313.762 395.739 313.762 397.897 313.762 400.169 312.08 402.154 308.61 402.154 307.167 402.154 305.616 401.719 304.829 401.194L305.337 399.603Z" fill="#231F20" transform="matrix(1.00013 0 0 1 -2155 672)"/><path d="M319.159 388.816 314.68 388.816 314.68 387.2 325.582 387.2 325.582 388.816 321.078 388.816 321.078 401.924 319.159 401.924 319.159 388.816Z" fill="#231F20" transform="matrix(1.00013 0 0 1 -2155 672)"/><path d="M329.117 387.2 329.117 401.924 327.198 401.924 327.198 387.2 329.117 387.2Z" fill="#231F20" transform="matrix(1.00013 0 0 1 -2155 672)"/><path d="M332.415 387.397C333.268 387.225 334.596 387.094 335.909 387.094 337.812 387.094 339.034 387.422 339.928 388.16 340.716 388.726 341.175 389.604 341.175 390.76 341.175 392.179 340.215 393.451 338.681 393.992L338.681 394.033C340.076 394.386 341.716 395.518 341.716 397.749 341.716 398.996 341.232 399.956 340.453 400.677 339.452 401.613 337.787 402.056 335.384 402.056 334.055 402.056 333.071 401.965 332.415 401.883L332.415 387.397ZM334.342 393.443 336.065 393.443C338.05 393.443 339.256 392.376 339.256 390.949 339.256 389.227 337.943 388.546 336.024 388.546 335.146 388.546 334.646 388.611 334.342 388.677L334.342 393.443ZM334.342 400.481C334.736 400.546 335.236 400.571 335.934 400.571 337.902 400.571 339.731 399.849 339.731 397.733 339.731 395.698 337.984 394.87 335.909 394.87L334.334 394.87 334.334 400.481Z" fill="#231F20" transform="matrix(1.00013 0 0 1 -2155 672)"/><path d="M344.259 387.2 346.179 387.2 346.179 400.308 352.47 400.308 352.47 401.924 344.259 401.924 344.259 387.2Z" fill="#231F20" transform="matrix(1.00013 0 0 1 -2155 672)"/><path d="M362.182 395.018 356.481 395.018 356.481 400.349 362.863 400.349 362.863 401.924 354.562 401.924 354.562 387.2 362.535 387.2 362.535 388.775 356.481 388.775 356.481 393.451 362.182 393.451 362.182 395.018Z" fill="#231F20" transform="matrix(1.00013 0 0 1 -2155 672)"/></g></g></g><g><g><g><path d="M302.622 536.047 67.2622 305.378 305.961 70.9534 544.66 305.378Z" fill="#3B88C8" transform="matrix(1.00013 0 0 1 -2416 420)"/><path d="M303.106 502.104 102.107 305.108 305.961 104.896 509.814 305.108Z" stroke="#3B3A3C" stroke-width="0.82027" stroke-miterlimit="10" fill="none" transform="matrix(1.00013 0 0 1 -2416 420)"/><path d="M305.953 140.037C296.257 158.353 307.569 168.59 295.174 194.986 288.169 189.597 291.942 169.665 279.015 169.123 280.631 175.587 279.556 177.744 279.015 179.902 277.399 189.064 274.709 196.602 280.631 207.914 271.468 203.608 270.935 195.52 263.389 190.139 265.005 198.76 261.232 216.535 271.468 233.777 262.306 232.702 259.074 229.471 249.379 219.767 259.616 273.642 267.695 275.258 305.944 278.49 302.713 277.949 283.321 274.717 276.316 252.627 276.316 247.238 275.775 257.475 294.633 258.016 282.78 239.158 286.012 242.931 287.086 232.153 292.476 239.158 288.161 240.233 301.63 245.622 297.323 231.612 308.635 222.457 305.936 206.29 309.168 213.295 319.946 212.212 319.405 245.622 328.568 235.385 329.101 242.39 333.415 231.612 333.957 237.534 336.647 245.08 324.253 258.008 327.485 259.082 332.874 259.624 340.954 253.701 332.874 263.397 340.412 263.397 319.405 278.482 345.801 279.023 363.043 262.322 362.502 226.222 361.428 229.454 360.886 235.918 346.876 237.534 355.497 228.913 360.345 211.138 353.34 197.127 350.649 199.285 346.876 210.055 337.714 212.754 342.02 205.207 340.945 195.511 340.945 195.511 340.945 195.511 342.561 182.043 334.482 171.264 332.324 187.424 332.324 196.045 322.087 198.202 323.703 189.04 324.245 184.192 318.855 173.422 313.499 162.126 307.035 150.807 305.953 140.037ZM262.314 287.652 262.314 297.348 354.439 297.348 354.439 287.652 262.314 287.652Z" transform="matrix(1.00013 0 0 1 -2416 420)"/><text fill="#231F20" font-family="Arial,Arial_MSFontService,sans-serif" font-weight="400" font-size="58.9694" transform="matrix(0.749085 0 0 0.82027 -2122.31 897)">4</text><path d="M197.324 330.446 197.193 338.255C197.193 338.452 196.799 340.256 196.594 341.159L182.01 340.904 182.207 329.298C182.231 327.805 182.346 326.804 182.486 326.189 181.608 326.172 180.509 326.09 180.156 325.951L180.755 323.08C181.591 323.26 183.445 323.285 185.225 323.318L191.771 323.433C196.537 323.531 197.423 324.909 197.324 330.446ZM191.591 326.394 184.684 326.279 184.479 338.009 194.724 338.189 194.847 331.184C194.904 327.977 194.576 326.443 191.591 326.394Z" fill="#231F20" transform="matrix(1.00013 0 0 1 -2416 420)"/><path d="M201.163 333.53C202.525 331.479 203.271 329.905 203.288 328.608 203.304 327.542 202.697 327.173 201.212 326.722 200.441 326.484 199.793 326.279 199.244 326.041L199.842 323.195C200.294 323.367 200.942 323.572 201.745 323.777 204.813 324.507 205.863 325.5 205.822 327.903 205.789 329.946 204.772 332.201 203.148 334.539L201.163 333.53Z" fill="#231F20" transform="matrix(1.00013 0 0 1 -2416 420)"/><path d="M210.826 331.463C211.334 328.231 210.063 326.943 208.029 326.418L208.66 323.416C211.244 323.884 212.77 325.565 213.024 328.059 213.803 326.098 215.797 323.572 219.389 323.629 224.451 323.72 225.599 328.371 225.492 334.629L225.419 338.78C225.41 339.075 225.017 341.208 224.918 341.659L218.536 341.552C217.24 341.528 215.551 341.536 214.87 341.585L215.469 338.706C216.149 338.591 217.675 338.616 219.455 338.649L222.859 338.706C222.917 337.344 222.941 336.016 222.958 334.72 223.032 330.635 222.58 326.64 218.791 326.574 215.19 326.509 213.869 330.052 213.344 332.25 212.786 334.416 212.04 338.321 211.4 341.429L208.874 341.388C209.579 338.05 210.424 333.85 210.826 331.463Z" fill="#231F20" transform="matrix(1.00013 0 0 1 -2416 420)"/><path d="M252.775 331.406 252.643 339.215C252.643 339.411 252.25 341.216 252.044 342.118L237.46 341.864 237.657 330.257C237.682 328.764 237.796 327.764 237.936 327.148 237.058 327.132 235.959 327.05 235.606 326.911L236.205 324.031C237.042 324.212 238.896 324.236 240.676 324.269L247.221 324.384C251.987 324.491 252.873 325.869 252.775 331.406ZM247.041 327.353 240.134 327.23 239.929 338.96 250.174 339.141 250.297 332.136C250.355 328.937 250.027 327.403 247.041 327.353Z" fill="#231F20" transform="matrix(1.00013 0 0 1 -2416 420)"/><path d="M262.692 339.362C261.683 335.81 258.443 328.198 256.17 324.729L259.607 324.499C261.338 327.673 263.979 334.268 265.038 338.665 267.449 337.705 268.753 335.614 268.819 331.627 268.852 329.781 268.409 327.05 267.572 324.925L270.788 324.655C271.157 325.762 271.567 328.141 271.526 330.823 271.411 335.556 270.181 339.297 264.824 341.569 262.339 342.627 258.467 343.373 255.481 343.677L256.088 340.511C258.262 340.322 260.994 339.912 262.692 339.362Z" fill="#231F20" transform="matrix(1.00013 0 0 1 -2416 420)"/><path d="M287.546 339.789C286.537 336.237 283.297 328.625 281.025 325.155L284.462 324.925C286.192 328.1 288.834 334.695 289.892 339.092 292.303 338.132 293.608 336.048 293.673 332.054 293.706 330.208 293.263 327.477 292.426 325.352L295.642 325.081C296.011 326.189 296.421 328.568 296.38 331.258 296.265 335.991 295.035 339.731 289.678 342.004 287.193 343.062 283.321 343.808 280.336 344.112L280.943 340.945C283.125 340.757 285.856 340.347 287.546 339.789Z" fill="#231F20" transform="matrix(1.00013 0 0 1 -2416 420)"/><path d="M298.923 339.953C301.646 339.904 305.05 338.148 305.091 333.899L305.116 332.636C305.132 329.978 304.525 329.191 302.106 328.535 301.425 328.33 299.94 328.01 299.456 327.78L300.088 324.942C300.572 325.147 301.638 325.393 302.672 325.631 306.97 326.648 307.585 328.28 307.642 332.497L307.692 337.23C307.716 339.633 307.872 341.839 308.176 343.111L305.649 343.07C305.37 342.348 305.149 340.109 305.214 338.296 304.156 341.323 301.531 343.259 298.357 343.201L298.923 339.953Z" fill="#231F20" transform="matrix(1.00013 0 0 1 -2416 420)"/><path d="M313.532 333.235C314.041 330.003 312.769 328.715 310.735 328.19L311.375 325.188C313.958 325.656 315.484 327.337 315.738 329.839 316.518 327.878 318.511 325.344 322.104 325.409 327.157 325.5 328.313 330.151 328.207 336.409L328.133 340.56C328.125 340.855 327.731 342.988 327.632 343.439L321.251 343.332C319.955 343.308 318.265 343.316 317.584 343.365L318.183 340.486C318.864 340.371 320.389 340.396 322.169 340.429L325.574 340.486C325.631 339.124 325.656 337.796 325.672 336.5 325.746 332.415 325.295 328.42 321.505 328.354 317.904 328.289 316.583 331.832 316.058 334.03 315.501 336.196 314.754 340.1 314.114 343.201L311.588 343.16C312.285 339.83 313.138 335.63 313.532 333.235Z" fill="#231F20" transform="matrix(1.00013 0 0 1 -2416 420)"/><path d="M331.496 340.716C332.472 340.568 334.802 340.609 336.623 340.642L341.552 340.724C341.593 338.517 341.675 335.441 341.643 333.784 341.634 330.315 341.273 328.978 338.189 328.928L335.368 328.879C333.489 328.846 332.259 328.764 331.775 328.625L332.406 325.754C333.054 325.893 334.482 325.918 336.557 325.959L339.116 326C343.751 326.082 344.235 328.231 344.153 332.669L344.062 338.017C344.054 338.698 343.956 340.224 343.882 340.773L346.244 340.814 345.646 343.751 335.08 343.57C333.686 343.546 331.643 343.513 330.897 343.595L331.496 340.716Z" fill="#231F20" transform="matrix(1.00013 0 0 1 -2416 420)"/><path d="M358.975 333.858C359.024 331.037 358.712 330.06 356.202 329.404 355.038 329.092 354.463 328.92 354.012 328.682L354.611 325.869C355.029 326.041 355.677 326.246 357.064 326.558 360.55 327.427 361.6 328.551 361.518 333.317L361.222 350.239 358.696 350.198 358.975 333.858Z" fill="#231F20" transform="matrix(1.00013 0 0 1 -2416 420)"/><path d="M364.717 341.257C365.365 341.167 367.21 341.2 369.13 341.232L375.323 341.339C375.676 339.723 376.012 337.238 376.045 335.318 376.119 330.979 375.167 329.568 371.64 329.503L368.654 329.453C366.743 329.421 365.414 329.33 364.93 329.191L365.562 326.32C366.21 326.459 367.793 326.492 369.614 326.517L372.304 326.566C377.652 326.656 378.645 329.043 378.547 335.105 378.489 338.575 377.874 341.971 377.316 344.292L368.4 344.136C367.005 344.112 364.897 344.046 364.118 344.161L364.717 341.257Z" fill="#231F20" transform="matrix(1.00013 0 0 1 -2416 420)"/><path d="M386.101 334.301C386.15 331.512 385.839 330.503 383.329 329.847 382.197 329.535 381.59 329.396 381.139 329.191L381.737 326.345C382.156 326.517 382.804 326.689 383.96 326.902 387.578 327.747 388.726 328.961 388.636 333.891L388.455 344.489 385.929 344.448 386.101 334.301Z" fill="#231F20" transform="matrix(1.00013 0 0 1 -2416 420)"/><path d="M392.598 329.839C391.851 329.79 391.367 329.724 390.949 329.617L391.581 326.738C392.097 326.878 394.173 326.943 396.182 326.976L403.54 327.107C407.494 327.173 408.175 329.265 408.117 332.603 407.986 340.224 403.483 343.677 399.16 344.382 397.47 344.678 395.879 344.776 394.968 344.825 394.23 340.437 393.008 332.275 392.598 329.839ZM399.66 341.47C403.696 340.732 405.468 337.418 405.542 333.276 405.574 331.135 404.984 330.093 402.745 330.052L395.19 329.921C395.534 332.292 396.527 338.731 396.994 341.815 397.585 341.757 398.586 341.684 399.66 341.47Z" fill="#231F20" transform="matrix(1.00013 0 0 1 -2416 420)"/><path d="M413.293 334.966C413.802 331.734 412.53 330.446 410.496 329.921L411.136 326.919C413.72 327.386 415.245 329.068 415.5 331.57 416.279 329.609 418.272 327.075 421.865 327.14 426.918 327.23 428.074 331.881 427.968 338.14L427.894 342.291C427.886 342.586 427.492 344.719 427.394 345.17L421.012 345.063C419.716 345.039 418.026 345.047 417.345 345.096L417.944 342.225C418.625 342.11 420.151 342.135 421.931 342.168L425.335 342.225C425.392 340.863 425.417 339.535 425.433 338.238 425.507 334.154 425.056 330.159 421.258 330.093 417.657 330.028 416.336 333.571 415.811 335.769 415.254 337.935 414.507 341.839 413.867 344.94L411.341 344.899C412.046 341.552 412.891 337.353 413.293 334.966Z" fill="#231F20" transform="matrix(1.00013 0 0 1 -2416 420)"/><path d="M198.153 365.529C199.318 365.357 200.679 365.225 202.172 365.225 204.871 365.225 206.798 365.849 208.07 367.038 209.366 368.228 210.12 369.934 210.12 372.263 210.12 374.642 209.382 376.562 208.029 377.923 206.643 379.285 204.42 380.015 201.59 380.015 200.253 380.015 199.129 379.949 198.153 379.843L198.153 365.529ZM200.048 378.407C200.523 378.497 201.212 378.514 201.951 378.514 205.97 378.514 208.152 376.266 208.152 372.337 208.176 368.9 206.232 366.718 202.254 366.718 201.278 366.718 200.548 366.825 200.048 366.915L200.048 378.407Z" fill="#231F20" transform="matrix(1.00013 0 0 1 -2416 420)"/><path d="M214.616 375.315 213.123 379.892 211.154 379.892 216.125 365.332 218.372 365.332 223.343 379.892 221.334 379.892 219.775 375.315 214.616 375.315ZM219.389 373.846 217.962 369.655C217.634 368.703 217.421 367.842 217.208 366.997L217.142 366.997C216.945 367.858 216.707 368.744 216.428 369.63L215.001 373.846 219.389 373.846Z" fill="#231F20" transform="matrix(1.00013 0 0 1 -2416 420)"/><path d="M225.468 379.892 225.468 365.332 227.559 365.332 232.202 372.673C233.26 374.404 234.122 375.938 234.819 377.423L234.86 377.398C234.688 375.454 234.647 373.682 234.647 371.435L234.647 365.324 236.418 365.324 236.418 379.884 234.515 379.884 229.889 372.493C228.872 370.869 227.904 369.212 227.166 367.629L227.1 367.653C227.207 369.491 227.248 371.238 227.248 373.658L227.248 379.875 225.468 379.875Z" fill="#231F20" transform="matrix(1.00013 0 0 1 -2416 420)"/><path d="M250.789 379.244C249.945 379.547 248.279 380.039 246.319 380.039 244.112 380.039 242.3 379.482 240.872 378.12 239.617 376.906 238.838 374.962 238.838 372.698 238.863 368.375 241.84 365.176 246.721 365.176 248.402 365.176 249.748 365.562 250.347 365.849L249.895 367.383C249.116 367.038 248.148 366.759 246.68 366.759 243.136 366.759 240.823 368.966 240.823 372.616 240.823 376.307 243.03 378.489 246.442 378.489 247.672 378.489 248.517 378.317 248.944 378.104L248.944 373.764 245.983 373.764 245.983 372.255 250.781 372.255 250.781 379.244Z" fill="#231F20" transform="matrix(1.00013 0 0 1 -2416 420)"/><path d="M261.182 373.067 255.547 373.067 255.547 378.341 261.855 378.341 261.855 379.9 253.644 379.9 253.644 365.34 261.527 365.34 261.527 366.899 255.539 366.899 255.539 371.525 261.174 371.525 261.174 373.067Z" fill="#231F20" transform="matrix(1.00013 0 0 1 -2416 420)"/><path d="M264.25 365.529C265.226 365.332 266.58 365.225 267.876 365.225 269.885 365.225 271.181 365.595 272.092 366.415 272.806 367.063 273.24 368.055 273.24 369.179 273.24 371.099 272.034 372.378 270.501 372.895L270.501 372.936C271.624 373.346 272.297 374.404 272.641 375.897 273.117 377.948 273.462 379.334 273.765 379.892L271.821 379.892C271.583 379.482 271.263 378.227 270.845 376.414 270.41 374.429 269.639 373.65 267.925 373.584L266.153 373.584 266.153 379.892 264.25 379.892 264.25 365.529ZM266.153 372.165 268.073 372.165C270.082 372.165 271.354 371.066 271.354 369.401 271.354 367.498 269.992 366.702 268.007 366.677 267.08 366.677 266.448 366.767 266.153 366.85L266.153 372.165Z" fill="#231F20" transform="matrix(1.00013 0 0 1 -2416 420)"/><path d="M288.407 372.591C288.407 377.431 285.315 380.13 281.648 380.13 277.719 380.13 275.102 377.037 275.102 372.698 275.102 368.228 277.891 365.094 281.911 365.094 286.053 365.094 288.407 368.383 288.407 372.591ZM277.112 372.641C277.112 375.946 278.793 378.604 281.755 378.604 284.822 378.604 286.422 375.815 286.422 372.641 286.422 369.663 284.978 366.636 281.779 366.636 278.752 366.628 277.112 369.351 277.112 372.641Z" fill="#231F20" transform="matrix(1.00013 0 0 1 -2416 420)"/><path d="M292.73 365.332 292.73 373.994C292.73 377.21 294.157 378.596 296.118 378.596 298.258 378.596 299.661 377.169 299.661 373.994L299.661 365.332 301.54 365.332 301.54 373.846C301.54 378.317 299.21 380.13 296.052 380.13 293.074 380.13 290.827 378.448 290.827 373.928L290.827 365.332 292.73 365.332Z" fill="#231F20" transform="matrix(1.00013 0 0 1 -2416 420)"/><path d="M304.575 377.603C305.419 378.12 306.65 378.555 307.946 378.555 309.865 378.555 310.989 377.538 310.989 376.069 310.989 374.708 310.21 373.928 308.225 373.174 305.871 372.354 304.402 371.082 304.402 369.048 304.402 366.8 306.281 365.119 309.111 365.119 310.579 365.119 311.678 365.463 312.326 365.808L311.809 367.342C311.334 367.079 310.366 366.653 309.045 366.653 307.06 366.653 306.297 367.842 306.297 368.835 306.297 370.196 307.183 370.869 309.193 371.64 311.654 372.616 312.909 373.781 312.909 375.914 312.909 378.161 311.243 380.13 307.815 380.13 306.387 380.13 304.853 379.695 304.074 379.178L304.575 377.603Z" fill="#231F20" transform="matrix(1.00013 0 0 1 -2416 420)"/><path d="M321.669 379.892 317.978 365.332 319.987 365.332 321.718 372.698C322.153 374.511 322.539 376.324 322.801 377.734L322.842 377.734C323.055 376.291 323.531 374.535 324.031 372.682L325.975 365.34 327.944 365.34 329.716 372.731C330.126 374.462 330.512 376.184 330.733 377.718L330.774 377.718C331.078 376.119 331.488 374.478 331.922 372.682L333.842 365.34 335.786 365.34 331.66 379.9 329.675 379.9 327.862 372.321C327.411 370.467 327.107 369.04 326.911 367.571L326.87 367.571C326.607 369.015 326.263 370.442 325.746 372.321L323.695 379.9 321.669 379.9Z" fill="#231F20" transform="matrix(1.00013 0 0 1 -2416 420)"/><path d="M339.469 365.332 339.469 379.892 337.566 379.892 337.566 365.332 339.469 365.332Z" fill="#231F20" transform="matrix(1.00013 0 0 1 -2416 420)"/><path d="M345.522 366.932 341.093 366.932 341.093 365.332 351.871 365.332 351.871 366.932 347.426 366.932 347.426 379.892 345.522 379.892 345.522 366.932Z" fill="#231F20" transform="matrix(1.00013 0 0 1 -2416 420)"/><path d="M355.374 365.332 355.374 371.443 362.412 371.443 362.412 365.332 364.29 365.332 364.29 379.892 362.412 379.892 362.412 373.067 355.374 373.067 355.374 379.892 353.471 379.892 353.471 365.332 355.374 365.332Z" fill="#231F20" transform="matrix(1.00013 0 0 1 -2416 420)"/><path d="M373.764 379.892 370.073 365.332 372.083 365.332 373.814 372.698C374.248 374.511 374.634 376.324 374.896 377.734L374.937 377.734C375.151 376.291 375.626 374.535 376.127 372.682L378.071 365.34 380.039 365.34 381.811 372.731C382.221 374.462 382.607 376.184 382.828 377.718L382.869 377.718C383.173 376.119 383.583 374.478 384.018 372.682L385.937 365.34 387.881 365.34 383.755 379.9 381.77 379.9 379.957 372.321C379.506 370.467 379.203 369.04 379.006 367.571L378.965 367.571C378.702 369.015 378.358 370.442 377.841 372.321L375.79 379.9 373.764 379.9Z" fill="#231F20" transform="matrix(1.00013 0 0 1 -2416 420)"/><path d="M397.208 373.067 391.572 373.067 391.572 378.341 397.88 378.341 397.88 379.9 389.669 379.9 389.669 365.34 397.552 365.34 397.552 366.899 391.572 366.899 391.572 371.525 397.208 371.525 397.208 373.067Z" fill="#231F20" transform="matrix(1.00013 0 0 1 -2416 420)"/><path d="M403.417 366.932 398.988 366.932 398.988 365.332 409.766 365.332 409.766 366.932 405.32 366.932 405.32 379.892 403.417 379.892 403.417 366.932Z" fill="#231F20" transform="matrix(1.00013 0 0 1 -2416 420)"/></g></g></g><g><g><g><path d="M302.106 540.78 61.9632 305.419 305.518 66.2204 549.073 305.419Z" fill="#C82127" transform="matrix(1.00013 0 0 1 -2677 683)"/><path d="M510.38 266.547 509.831 343.66 549.958 305.419Z" fill="#FFFFFF" transform="matrix(1.00013 0 0 1 -2677 683)"/><path d="M362.379 484.189 392.22 455.742 394.394 152.644 364.963 123.738Z" fill="#FFFFFF" transform="matrix(1.00013 0 0 1 -2677 683)"/><path d="M467.103 224.049 437.672 195.142 436.105 413.925 465.946 385.478Z" fill="#FFFFFF" transform="matrix(1.00013 0 0 1 -2677 683)"/><path d="M143.432 384.395 172.864 413.236 174.422 195.84 144.573 225.156Z" fill="#FFFFFF" transform="matrix(1.00013 0 0 1 -2677 683)"/><path d="M321.694 81.2314 306.404 66.2204 292.057 80.3127 288.85 526.917 302.991 540.78 318.495 526.007Z" fill="#FFFFFF" transform="matrix(1.00013 0 0 1 -2677 683)"/><path d="M248.165 123.418 218.315 152.734 216.141 455.652 245.573 484.501Z" fill="#FFFFFF" transform="matrix(1.00013 0 0 1 -2677 683)"/><path d="M100.68 268.261 62.8491 305.419 100.155 341.979Z" fill="#FFFFFF" transform="matrix(1.00013 0 0 1 -2677 683)"/><path d="M301.72 506.14 96.6279 305.141 304.632 100.86 512.636 305.141Z" stroke="#3B3A3C" stroke-width="0.82027" stroke-miterlimit="10" fill="none" transform="matrix(1.00013 0 0 1 -2677 683)"/><path d="M305.51 143.949C295.617 162.643 307.158 173.085 294.518 200.023 287.374 194.527 291.221 174.184 278.031 173.635 279.679 180.23 278.58 182.428 278.031 184.626 276.382 193.969 273.634 201.663 279.679 213.213 270.337 208.816 269.787 200.573 262.093 195.077 263.742 203.87 259.894 222.014 270.337 239.601 260.994 238.502 257.696 235.204 247.795 225.312 258.238 280.286 266.489 281.935 305.518 285.233 302.22 284.683 282.427 281.386 275.283 258.845 275.283 253.349 274.733 263.791 293.977 264.34 281.886 245.097 285.183 248.952 286.283 237.952 291.778 245.097 287.382 246.196 301.121 251.692 296.725 237.403 308.266 228.052 305.518 211.564 308.815 218.709 319.807 217.61 319.257 251.692 328.6 241.25 329.15 248.394 333.547 237.403 334.096 243.448 336.844 251.142 324.204 264.34 327.501 265.439 332.997 265.989 341.241 259.944 332.997 269.836 340.691 269.836 319.249 285.233 346.187 285.782 363.773 268.745 363.224 231.915 362.125 235.213 361.575 241.808 347.286 243.456 356.079 234.663 361.026 216.519 353.881 202.229 351.133 204.428 347.286 215.419 337.943 218.167 342.34 210.473 341.241 200.581 341.241 200.581 341.241 200.581 342.889 186.841 334.646 175.841 332.447 192.329 332.447 201.13 322.005 203.329 323.654 193.986 324.204 189.04 318.708 178.04 313.204 166.482 306.609 154.941 305.51 143.949ZM260.985 294.567 260.985 304.46 354.988 304.46 354.988 294.567 260.985 294.567Z" transform="matrix(1.00013 0 0 1 -2677 683)"/><text fill="#231F20" font-family="Arial,Arial_MSFontService,sans-serif" font-weight="400" font-size="60.1694" transform="matrix(0.749085 0 0 0.82027 -2382.32 1159)">4</text><path d="M159.075 327.993 158.936 335.966C158.936 336.163 158.534 338.009 158.32 338.936L143.432 338.681 143.638 326.837C143.662 325.311 143.777 324.294 143.925 323.662 143.031 323.646 141.907 323.564 141.546 323.424L142.161 320.488C143.014 320.668 144.901 320.701 146.722 320.734L153.407 320.849C158.271 320.931 159.173 322.333 159.075 327.993ZM153.227 323.851 146.18 323.728 145.975 335.704 156.426 335.884 156.549 328.74C156.606 325.467 156.27 323.908 153.227 323.851Z" fill="#231F20" transform="matrix(1.00013 0 0 1 -2677 683)"/><path d="M164.374 331.16C165.768 329.068 166.523 327.46 166.548 326.131 166.564 325.04 165.941 324.663 164.431 324.212 163.644 323.966 162.98 323.753 162.422 323.515L163.037 320.611C163.496 320.783 164.152 320.996 164.981 321.21 168.114 321.956 169.189 322.973 169.14 325.418 169.107 327.501 168.073 329.798 166.408 332.185L164.374 331.16Z" fill="#231F20" transform="matrix(1.00013 0 0 1 -2677 683)"/><path d="M177.695 335.958C181.682 334.867 185.037 332.242 185.127 327.288 185.16 325.172 184.413 324.401 181.903 324.351L177.375 324.269C175.128 324.228 173.011 324.195 172.486 323.958L173.102 321.054C174.02 321.234 175.809 321.234 177.958 321.267L182.592 321.349C186.825 321.423 187.793 322.891 187.727 326.599 187.604 333.743 182.764 338.189 177.146 339.518L177.695 335.958ZM173.044 329.191 175.628 329.232 175.349 345.572 172.765 345.531 173.044 329.191Z" fill="#231F20" transform="matrix(1.00013 0 0 1 -2677 683)"/><path d="M190.811 336.647C191.574 336.524 193.461 336.524 195.347 336.557L200.474 336.647C199.564 335.704 197.521 333.054 194.035 328.264 192.386 325.984 190.45 323.342 189.122 321.595L192.829 321.333C194.183 323.342 196.438 326.755 198.251 329.298 200.786 328.313 201.204 326.87 201.237 325.049 201.253 324.056 200.917 322.727 200.531 321.792L203.78 321.554C204.034 322.35 204.182 323.351 204.157 324.409 204.1 327.55 202.877 329.65 199.375 331.045 202.09 334.793 203.87 336.844 204.428 337.287L203.821 339.723 194.954 339.567C192.739 339.526 190.787 339.526 190.057 339.584L190.811 336.647Z" fill="#231F20" transform="matrix(1.00013 0 0 1 -2677 683)"/><path d="M210.49 329.478C210.539 326.632 210.227 325.606 207.66 324.934 206.503 324.614 205.88 324.474 205.42 324.269L206.036 321.366C206.462 321.538 207.118 321.718 208.308 321.932 211.999 322.793 213.172 324.031 213.082 329.06L212.893 339.879 210.309 339.838 210.49 329.478Z" fill="#231F20" transform="matrix(1.00013 0 0 1 -2677 683)"/><path d="M219.045 329.823C219.562 326.525 218.266 325.213 216.19 324.679L216.838 321.612C219.48 322.087 221.038 323.802 221.293 326.353 222.088 324.351 224.114 321.767 227.789 321.833 232.949 321.923 234.122 326.673 234.015 333.054L233.941 337.287C233.933 337.582 233.531 339.764 233.424 340.224L226.911 340.109C225.591 340.084 223.868 340.092 223.171 340.142L223.786 337.205C224.483 337.082 226.042 337.115 227.855 337.139L231.324 337.197C231.382 335.81 231.406 334.449 231.431 333.128 231.505 328.961 231.046 324.884 227.174 324.819 223.499 324.753 222.154 328.371 221.612 330.61 221.046 332.816 220.284 336.803 219.627 339.969L217.044 339.928C217.774 336.549 218.643 332.267 219.045 329.823Z" fill="#231F20" transform="matrix(1.00013 0 0 1 -2677 683)"/><path d="M261.986 329.773 261.847 337.746C261.847 337.943 261.445 339.789 261.232 340.716L246.344 340.461 246.549 328.617C246.573 327.099 246.688 326.074 246.836 325.442 245.942 325.426 244.818 325.344 244.457 325.204L245.072 322.268C245.933 322.448 247.812 322.481 249.633 322.514L256.318 322.629C261.182 322.711 262.085 324.113 261.986 329.773ZM256.138 325.631 249.092 325.508 248.886 337.484 259.337 337.664 259.46 330.52C259.517 327.247 259.181 325.688 256.138 325.631Z" fill="#231F20" transform="matrix(1.00013 0 0 1 -2677 683)"/><path d="M266.465 332.923C267.859 330.831 268.614 329.224 268.639 327.895 268.655 326.804 268.032 326.427 266.522 325.975 265.735 325.729 265.079 325.524 264.513 325.278L265.128 322.374C265.587 322.547 266.243 322.76 267.072 322.973 270.205 323.72 271.28 324.737 271.231 327.181 271.198 329.265 270.164 331.561 268.499 333.948L266.465 332.923Z" fill="#231F20" transform="matrix(1.00013 0 0 1 -2677 683)"/><path d="M275.668 330.536C275.709 328.321 275.832 326.599 276.013 325.943 275.422 325.902 273.831 325.77 273.601 325.738L274.216 322.768C274.905 322.949 276.562 322.973 278.81 323.014L284.798 323.121C289.629 323.203 290.532 324.712 290.433 330.2L290.244 341.216 287.661 341.175 287.833 331.119C287.898 327.477 287.587 326.189 284.445 326.131L278.293 326.025 278.031 341.011 275.488 340.97 275.668 330.536Z" fill="#231F20" transform="matrix(1.00013 0 0 1 -2677 683)"/><path d="M299.817 338.066C303.804 336.975 307.158 334.35 307.249 329.396 307.281 327.28 306.535 326.509 304.025 326.459L299.497 326.377C297.25 326.336 295.133 326.304 294.608 326.057L295.224 323.154C296.15 323.334 297.93 323.334 300.079 323.367L304.714 323.449C308.947 323.523 309.915 324.991 309.849 328.699 309.726 335.843 304.886 340.289 299.267 341.618L299.817 338.066ZM295.174 331.307 297.75 331.348 297.471 347.688 294.895 347.647 295.174 331.307Z" fill="#231F20" transform="matrix(1.00013 0 0 1 -2677 683)"/><path d="M314.401 338.55C318.823 337.303 322.325 333.924 322.407 329.257 322.44 327.173 321.62 326.763 319.873 326.73L311.998 326.591 312.08 321.825C312.113 319.807 312.055 317.387 311.711 316.559L314.401 316.14C314.59 316.575 314.689 318.823 314.639 321.275L314.598 323.621 320.98 323.728C324.351 323.785 325.114 325.483 325.065 328.428 324.934 335.868 318.995 340.831 313.753 341.897L314.401 338.55Z" fill="#231F20" transform="matrix(1.00013 0 0 1 -2677 683)"/><path d="M327.427 339.01C327.928 338.919 328.387 338.862 330.142 338.895L330.635 338.903C330.659 335.696 330.512 329.043 330.315 326.919L330.216 326.919C329.617 326.911 328.231 326.853 327.706 326.64L328.354 323.736C329.38 323.949 331.529 323.925 333.547 323.958L338.969 324.056C343.833 324.138 344.735 325.311 344.637 330.971L344.44 342.151 341.856 342.11 342.036 331.857C342.094 328.584 341.757 327.124 338.681 327.066L332.858 326.968C332.989 329.084 333.218 336.672 333.145 338.985L332.628 341.954 330.011 341.913C328.691 341.889 327.501 341.905 326.738 341.987L327.427 339.01Z" fill="#231F20" transform="matrix(1.00013 0 0 1 -2677 683)"/><path d="M350.6 332.103C351.117 328.805 349.821 327.493 347.745 326.96L348.393 323.892C351.035 324.368 352.593 326.082 352.848 328.633 353.643 326.632 355.669 324.048 359.344 324.113 364.504 324.204 365.677 328.953 365.57 335.335L365.496 339.567C365.488 339.863 365.086 342.045 364.979 342.504L358.466 342.389C357.146 342.364 355.423 342.373 354.726 342.422L355.341 339.485C356.038 339.362 357.589 339.395 359.41 339.428L362.879 339.485C362.937 338.099 362.961 336.737 362.986 335.417 363.06 331.25 362.6 327.173 358.729 327.107 355.054 327.042 353.709 330.659 353.167 332.899 352.601 335.105 351.839 339.092 351.182 342.258L348.607 342.217C349.329 338.829 350.198 334.539 350.6 332.103Z" fill="#231F20" transform="matrix(1.00013 0 0 1 -2677 683)"/><path d="M393.541 332.045 393.402 340.018C393.402 340.215 393 342.061 392.786 342.988L377.899 342.734 378.104 330.889C378.128 329.363 378.243 328.346 378.391 327.714 377.497 327.698 376.373 327.616 376.012 327.477L376.627 324.54C377.48 324.72 379.367 324.753 381.188 324.786L387.873 324.901C392.737 324.991 393.64 326.394 393.541 332.045ZM387.693 327.911 380.646 327.788 380.441 339.764 390.892 339.945 391.015 332.8C391.072 329.527 390.736 327.961 387.693 327.911Z" fill="#231F20" transform="matrix(1.00013 0 0 1 -2677 683)"/><path d="M398.02 335.203C399.414 333.112 400.169 331.504 400.194 330.183 400.21 329.092 399.587 328.715 398.077 328.264 397.29 328.018 396.625 327.805 396.068 327.567L396.683 324.663C397.142 324.835 397.798 325.049 398.627 325.262 401.76 326.008 402.827 327.025 402.786 329.47 402.753 331.553 401.719 333.85 400.054 336.237L398.02 335.203Z" fill="#231F20" transform="matrix(1.00013 0 0 1 -2677 683)"/><path d="M414.031 333.095C414.089 329.823 413.753 328.362 410.644 328.305L407.371 328.248C405.419 328.215 404.164 328.125 403.704 327.985L404.319 325.049C404.976 325.196 406.665 325.221 408.913 325.262L410.964 325.295C415.795 325.377 416.697 326.55 416.599 332.21L416.402 343.39 413.859 343.349 414.031 333.095Z" fill="#231F20" transform="matrix(1.00013 0 0 1 -2677 683)"/><path d="M422.431 333.341C422.948 330.044 421.652 328.732 419.577 328.198L420.224 325.131C422.866 325.606 424.424 327.321 424.679 329.872 425.474 327.87 427.5 325.286 431.175 325.352 436.335 325.442 437.508 330.192 437.401 336.573L437.327 340.806C437.319 341.101 436.917 343.283 436.81 343.742L430.297 343.628C428.977 343.603 427.254 343.611 426.557 343.66L427.172 340.724C427.869 340.601 429.428 340.634 431.241 340.658L434.711 340.716C434.768 339.329 434.793 337.968 434.817 336.647 434.891 332.48 434.432 328.403 430.56 328.338 426.885 328.272 425.54 331.89 424.998 334.129 424.432 336.335 423.67 340.33 423.013 343.488L420.43 343.447C421.151 340.068 422.021 335.786 422.431 333.341Z" fill="#231F20" transform="matrix(1.00013 0 0 1 -2677 683)"/><path d="M444.824 333.53C444.874 330.684 444.562 329.658 441.995 328.978 440.846 328.658 440.214 328.518 439.755 328.313L440.37 325.409C440.797 325.582 441.453 325.762 442.642 325.975 446.334 326.837 447.498 328.075 447.416 333.104L447.228 343.923 444.652 343.882 444.824 333.53Z" fill="#231F20" transform="matrix(1.00013 0 0 1 -2677 683)"/><path d="M452.724 333.604C452.765 331.389 452.888 329.667 453.068 329.01 452.478 328.969 450.886 328.838 450.657 328.805L451.272 325.836C451.961 326.016 453.618 326.041 455.865 326.082L461.853 326.189C466.685 326.271 467.587 327.78 467.488 333.268L467.3 344.284 464.716 344.243 464.888 334.186C464.954 330.544 464.642 329.257 461.501 329.199L455.348 329.092 455.086 344.079 452.535 344.038 452.724 333.604Z" fill="#231F20" transform="matrix(1.00013 0 0 1 -2677 683)"/><path d="M187.555 368.465 196.889 368.465 196.889 370.319 189.819 370.319 189.819 376.11 196.381 376.11 196.381 377.964 189.819 377.964 189.819 385.806 187.555 385.806 187.555 368.465Z" fill="#231F20" transform="matrix(1.00013 0 0 1 -2677 683)"/><path d="M200.056 368.465 202.32 368.465 202.32 383.895 209.727 383.895 209.727 385.798 200.056 385.798 200.056 368.465Z" fill="#231F20" transform="matrix(1.00013 0 0 1 -2677 683)"/><path d="M215.026 380.351 213.254 385.806 210.916 385.806 216.83 368.474 219.504 368.474 225.419 385.806 223.023 385.806 221.169 380.351 215.026 380.351ZM220.71 378.604 219.012 373.617C218.627 372.485 218.372 371.459 218.11 370.451L218.036 370.451C217.806 371.476 217.519 372.534 217.191 373.592L215.493 378.604 220.71 378.604Z" fill="#231F20" transform="matrix(1.00013 0 0 1 -2677 683)"/><path d="M242.497 378.194C242.341 375.799 242.185 372.87 242.218 370.738L242.144 370.738C241.553 372.747 240.782 375.085 239.929 377.398L236.919 385.708 235.147 385.708 232.391 377.447C231.546 375.003 230.873 372.764 230.414 370.738L230.34 370.738C230.266 372.87 230.184 375.749 230.004 378.374L229.544 385.806 227.412 385.806 228.618 368.474 231.472 368.474 234.433 376.881C235.155 378.965 235.721 381.024 236.156 382.82L236.23 382.82C236.664 381.073 237.288 379.039 238.083 376.857L241.159 368.465 244.014 368.465 245.097 385.798 242.882 385.798 242.497 378.194Z" fill="#231F20" transform="matrix(1.00013 0 0 1 -2677 683)"/><path d="M263.176 378.194C263.02 375.799 262.864 372.87 262.897 370.738L262.823 370.738C262.232 372.747 261.461 375.085 260.608 377.398L257.598 385.708 255.826 385.708 253.07 377.447C252.225 375.003 251.552 372.764 251.093 370.738L251.019 370.738C250.945 372.87 250.863 375.749 250.683 378.374L250.223 385.806 248.091 385.806 249.297 368.474 252.151 368.474 255.112 376.881C255.834 378.965 256.4 381.024 256.835 382.82L256.909 382.82C257.343 381.073 257.967 379.039 258.762 376.857L261.847 368.474 264.701 368.474 265.784 385.806 263.569 385.806 263.176 378.194Z" fill="#231F20" transform="matrix(1.00013 0 0 1 -2677 683)"/><path d="M271.772 380.351 270 385.806 267.662 385.806 273.577 368.474 276.251 368.474 282.165 385.806 279.77 385.806 277.916 380.351 271.772 380.351ZM277.456 378.604 275.758 373.617C275.373 372.485 275.119 371.459 274.856 370.451L274.782 370.451C274.553 371.476 274.266 372.534 273.937 373.592L272.24 378.604 277.456 378.604Z" fill="#231F20" transform="matrix(1.00013 0 0 1 -2677 683)"/><path d="M284.683 368.695C285.684 368.49 287.259 368.334 288.801 368.334 291.04 368.334 292.476 368.72 293.534 369.597 294.461 370.27 295.002 371.295 295.002 372.657 295.002 374.33 293.87 375.823 292.074 376.463L292.074 376.512C293.722 376.922 295.65 378.259 295.65 380.884 295.65 382.353 295.084 383.485 294.157 384.329 292.976 385.437 291.016 385.954 288.194 385.954 286.627 385.954 285.47 385.847 284.699 385.749L284.699 368.695ZM286.947 375.823 288.981 375.823C291.319 375.823 292.738 374.56 292.738 372.887 292.738 370.852 291.196 370.057 288.932 370.057 287.907 370.057 287.308 370.131 286.955 370.213L286.955 375.823ZM286.947 384.108C287.406 384.182 288.005 384.206 288.825 384.206 291.139 384.206 293.304 383.362 293.304 380.86 293.304 378.465 291.245 377.488 288.801 377.488L286.947 377.488 286.947 384.108Z" fill="#231F20" transform="matrix(1.00013 0 0 1 -2677 683)"/><path d="M298.628 368.465 300.892 368.465 300.892 383.895 308.299 383.895 308.299 385.798 298.628 385.798 298.628 368.465Z" fill="#231F20" transform="matrix(1.00013 0 0 1 -2677 683)"/><path d="M319.741 377.677 313.032 377.677 313.032 383.952 320.545 383.952 320.545 385.806 310.768 385.806 310.768 368.465 320.16 368.465 320.16 370.319 313.032 370.319 313.032 375.823 319.741 375.823 319.741 377.677Z" fill="#231F20" transform="matrix(1.00013 0 0 1 -2677 683)"/><path d="M328.592 383.074C329.593 383.69 331.061 384.206 332.603 384.206 334.892 384.206 336.229 383.001 336.229 381.245 336.229 379.621 335.302 378.702 332.94 377.8 330.134 376.824 328.387 375.307 328.387 372.887 328.387 370.213 330.626 368.203 333.998 368.203 335.745 368.203 337.057 368.613 337.828 369.023L337.213 370.852C336.647 370.541 335.491 370.032 333.924 370.032 331.561 370.032 330.659 371.443 330.659 372.632 330.659 374.257 331.717 375.052 334.104 375.979 337.041 377.136 338.526 378.522 338.526 381.073 338.526 383.747 336.549 386.085 332.456 386.085 330.758 386.085 328.928 385.568 328.01 384.953L328.592 383.074Z" fill="#231F20" transform="matrix(1.00013 0 0 1 -2677 683)"/><path d="M356.399 377.111C356.399 382.869 352.724 386.085 348.344 386.085 343.66 386.085 340.552 382.41 340.552 377.234 340.552 371.911 343.866 368.178 348.656 368.178 353.594 368.187 356.399 372.091 356.399 377.111ZM342.947 377.16C342.947 381.098 344.957 384.256 348.475 384.256 352.126 384.256 354.029 380.942 354.029 377.16 354.029 373.609 352.306 370.008 348.5 370.008 344.899 370.008 342.947 373.256 342.947 377.16Z" fill="#231F20" transform="matrix(1.00013 0 0 1 -2677 683)"/><path d="M359.278 368.465 361.542 368.465 361.542 383.895 368.949 383.895 368.949 385.798 359.278 385.798 359.278 368.465Z" fill="#231F20" transform="matrix(1.00013 0 0 1 -2677 683)"/><path d="M373.691 368.465 373.691 385.798 371.427 385.798 371.427 368.465 373.691 368.465Z" fill="#231F20" transform="matrix(1.00013 0 0 1 -2677 683)"/><path d="M377.57 368.695C378.957 368.49 380.581 368.334 382.353 368.334 385.568 368.334 387.857 369.081 389.374 370.492 390.916 371.902 391.819 373.937 391.819 376.717 391.819 379.547 390.941 381.836 389.325 383.46 387.676 385.084 385.027 385.954 381.664 385.954 380.072 385.954 378.735 385.88 377.57 385.749L377.57 368.695ZM379.834 384.026C380.4 384.133 381.221 384.157 382.098 384.157 386.881 384.157 389.481 381.483 389.481 376.799 389.505 372.706 387.192 370.114 382.459 370.114 381.303 370.114 380.425 370.245 379.834 370.344L379.834 384.026Z" fill="#231F20" transform="matrix(1.00013 0 0 1 -2677 683)"/><path d="M394.419 383.074C395.42 383.69 396.888 384.206 398.43 384.206 400.718 384.206 402.056 383.001 402.056 381.245 402.056 379.621 401.129 378.702 398.766 377.8 395.961 376.824 394.214 375.307 394.214 372.887 394.214 370.213 396.453 368.203 399.824 368.203 401.572 368.203 402.884 368.613 403.655 369.023L403.04 370.852C402.474 370.541 401.317 370.032 399.751 370.032 397.388 370.032 396.486 371.443 396.486 372.632 396.486 374.257 397.544 375.052 399.931 375.979 402.859 377.136 404.352 378.522 404.352 381.073 404.352 383.747 402.375 386.085 398.282 386.085 396.584 386.085 394.755 385.568 393.836 384.953L394.419 383.074Z" fill="#231F20" transform="matrix(1.00013 0 0 1 -2677 683)"/></g></g></g></g></svg>