<svg width="1084" height="607" xmlns="http://www.w3.org/2000/svg" xmlns:xlink="http://www.w3.org/1999/xlink" xml:space="preserve" overflow="hidden"><defs><linearGradient x1="305.963" y1="500.919" x2="305.963" y2="106.077" gradientUnits="userSpaceOnUse" spreadMethod="pad" id="stroke0"><stop offset="0" stop-color="#231F20"/><stop offset="0.4916" stop-color="#231F20"/><stop offset="0.5084" stop-color="#FFFFFF"/><stop offset="1" stop-color="#FFFFFF"/></linearGradient></defs><g transform="translate(1921 -1233)"><g><g><g><path d="M302.647 533.996 69.3703 305.362 305.961 73.0041 542.551 305.362Z" fill="#F5EB31" transform="matrix(1.00013 0 0 1 -1921 1233)"/><path d="M545.332 307.216 66.5895 307.003 305.567 73.0041Z" fill="#C82127" transform="matrix(1.00013 0 0 1 -1921 1233)"/><path d="M303.131 500.349 103.904 305.091 305.961 106.652 508.018 305.091Z" stroke="url(#stroke0)" stroke-width="0.82027" stroke-miterlimit="10" fill="none" transform="matrix(1.00013 0 0 1 -1921 1233)"/><path d="M305.953 145.237C296.339 163.39 307.552 173.536 295.273 199.703 288.333 194.363 292.065 174.603 279.253 174.07 280.852 180.476 279.786 182.617 279.253 184.749 277.653 193.83 274.979 201.303 280.852 212.516 271.772 208.242 271.239 200.236 263.766 194.896 265.366 203.443 261.633 221.063 271.772 238.149 262.692 237.083 259.493 233.875 249.879 224.262 260.026 277.662 268.032 279.261 305.944 282.468 302.737 281.935 283.518 278.728 276.579 256.835 276.579 251.495 276.046 261.642 294.731 262.175 282.985 243.489 286.184 247.221 287.259 236.541 292.599 243.481 288.325 244.547 301.679 249.887 297.405 236 308.618 226.928 305.953 210.908 309.16 217.847 319.84 216.781 319.298 249.887 328.379 239.74 328.912 246.68 333.186 236 333.719 241.873 336.393 249.346 324.105 262.167 327.312 263.233 332.652 263.766 340.658 257.893 332.652 267.507 340.125 267.507 319.298 282.46 345.465 282.993 362.551 266.44 362.018 230.66 360.952 233.867 360.419 240.274 346.531 241.873 355.079 233.326 359.877 215.706 352.938 201.828 350.272 203.96 346.531 214.64 337.451 217.314 341.725 209.842 340.658 200.228 340.658 200.228 340.658 200.228 342.258 186.882 334.252 176.202 332.119 192.222 332.119 200.769 321.973 202.902 323.572 193.822 324.105 189.015 318.765 178.335 313.434 167.13 307.019 155.917 305.953 145.237ZM262.7 291.549 262.7 301.162 354.012 301.162 354.012 291.549 262.7 291.549Z" fill="#FFFFFF" transform="matrix(1.00013 0 0 1 -1921 1233)"/><path d="M290.901 455.906C292.525 455.201 294.256 454.783 295.068 454.783 299.128 454.783 301.417 457.571 301.417 460.467 301.417 462.575 300.457 464.56 298.25 466.25 296.438 467.628 294.165 468.571 292.262 468.571 291.024 468.571 289.678 468.104 288.973 467.497 288.292 466.914 288.161 466.537 288.161 466.069 288.161 465.503 288.629 464.691 289.211 464.224 289.596 463.945 289.941 464.084 290.367 464.527 291.155 465.274 292.672 466.611 294.452 466.611 296.438 466.611 297.381 464.741 297.381 462.304 297.381 459.212 295.56 457.227 292.697 457.227 291.221 457.227 289.834 457.67 289.195 457.932L290.63 446.957 300.785 446.957 300.957 447.285 299.907 450.632 291.787 450.632 290.901 455.906Z" fill="#231F20" transform="matrix(1.00013 0 0 1 -1921 1233)"/><path d="M306.863 468.571C305.584 468.571 304.599 467.521 304.599 465.996 304.599 464.495 305.584 463.445 306.888 463.445 308.233 463.445 309.193 464.495 309.193 465.996 309.193 467.513 308.233 468.571 306.888 468.571L306.863 468.571Z" fill="#231F20" transform="matrix(1.00013 0 0 1 -1921 1233)"/><path d="M325.975 462.509C325.483 464.593 325.081 466.742 324.737 468.178L312.014 468.178 312.014 467.333C313.704 465.553 315.566 463.682 317.125 461.689 319.372 458.9 320.586 456.234 320.586 453.708 320.586 451.321 319.471 449.639 317.297 449.639 315.287 449.639 314.024 451.091 312.999 452.732L312.055 451.912 314.106 448.68C315.279 447.367 316.903 446.531 318.896 446.531 322.038 446.531 324.671 448.827 324.671 452.642 324.671 455.217 323.474 457.301 320.25 460.647L316.551 464.462 321.53 464.462C323.515 464.462 323.728 464.371 324.95 462.14L325.975 462.509Z" fill="#231F20" transform="matrix(1.00013 0 0 1 -1921 1233)"/><path d="M192.723 321.505 192.591 329.248C192.591 329.445 192.206 331.233 191.992 332.127L177.539 331.881 177.736 320.381C177.761 318.905 177.876 317.912 178.015 317.305 177.146 317.289 176.055 317.207 175.702 317.076L176.301 314.229C177.129 314.401 178.967 314.434 180.73 314.467L187.219 314.582C191.943 314.647 192.821 316.009 192.723 321.505ZM187.046 317.486 180.205 317.371 180 329.002 190.155 329.174 190.278 322.235C190.327 319.052 189.999 317.535 187.046 317.486Z" fill="#231F20" transform="matrix(1.00013 0 0 1 -1921 1233)"/><path d="M197.718 324.581C199.071 322.547 199.801 320.988 199.826 319.7 199.842 318.642 199.244 318.273 197.767 317.83 197.004 317.592 196.365 317.387 195.815 317.149L196.414 314.328C196.857 314.5 197.496 314.697 198.3 314.91 201.344 315.64 202.385 316.616 202.344 318.995 202.311 321.021 201.303 323.252 199.695 325.565L197.718 324.581Z" fill="#231F20" transform="matrix(1.00013 0 0 1 -1921 1233)"/><path d="M205.297 324.712C206.651 322.678 207.381 321.119 207.405 319.832 207.422 318.773 206.823 318.404 205.346 317.961 204.584 317.724 203.944 317.518 203.394 317.281L203.993 314.467C204.436 314.639 205.076 314.836 205.88 315.049 208.923 315.779 209.965 316.756 209.924 319.134 209.891 321.16 208.882 323.392 207.274 325.705L205.297 324.712Z" fill="#231F20" transform="matrix(1.00013 0 0 1 -1921 1233)"/><path d="M212.475 329.683C213.279 329.601 214.312 329.585 216.428 329.626L218.676 329.667 218.799 322.506C218.848 319.709 218.536 318.938 215.69 318.207 214.542 317.929 213.418 317.658 212.909 317.453L213.5 314.631C213.918 314.803 214.878 315.041 216.248 315.32 219.964 316.157 221.391 317.272 221.309 321.997L221.178 329.806 220.579 332.628 216.117 332.554C214.739 332.529 212.516 332.521 211.876 332.579L212.475 329.683Z" fill="#231F20" transform="matrix(1.00013 0 0 1 -1921 1233)"/><path d="M224.623 329.732C227.322 329.683 230.693 327.944 230.734 323.736L230.758 322.481C230.775 319.848 230.176 319.069 227.773 318.413 227.1 318.207 225.632 317.896 225.148 317.658L225.771 314.844C226.247 315.049 227.305 315.287 228.33 315.533 232.588 316.534 233.203 318.158 233.26 322.333L233.309 327.025C233.334 329.404 233.49 331.594 233.785 332.849L231.283 332.808C231.005 332.095 230.791 329.872 230.849 328.075 229.799 331.078 227.198 332.997 224.049 332.94L224.623 329.732Z" fill="#231F20" transform="matrix(1.00013 0 0 1 -1921 1233)"/><path d="M245.499 323.088C245.556 319.905 245.228 318.486 242.201 318.437L239.019 318.38C237.124 318.347 235.902 318.265 235.459 318.125L236.057 315.279C236.697 315.419 238.338 315.451 240.52 315.484L242.513 315.517C247.205 315.599 248.083 316.739 247.992 322.235L247.804 333.095 245.326 333.054 245.499 323.088Z" fill="#231F20" transform="matrix(1.00013 0 0 1 -1921 1233)"/><path d="M256.031 323.178C256.08 320.414 255.777 319.413 253.283 318.757 252.159 318.445 251.552 318.314 251.109 318.109L251.708 315.296C252.126 315.46 252.766 315.632 253.915 315.845 257.499 316.682 258.631 317.888 258.549 322.768L258.369 333.276 255.859 333.235 256.031 323.178Z" fill="#231F20" transform="matrix(1.00013 0 0 1 -1921 1233)"/><path d="M262.708 329.076C262.765 325.926 263.553 323.014 265.874 320.644 264.488 318.979 262.88 317.313 261.617 316.099L261.715 315.944 265.161 315.747C266.768 317.445 269.098 320.184 272.404 324.417 273.708 323.572 274.528 322.301 274.561 320.242 274.553 319.02 274.257 317.568 273.667 316.173L276.817 315.935C277.21 317.166 277.383 318.322 277.358 319.733 277.309 322.366 275.923 324.688 273.585 326 275.283 328.149 277.949 332.054 278.884 333.612L275.48 333.555C274.421 331.799 271.723 327.772 267.219 322.358 265.776 324.064 265.448 326.345 265.472 328.403 265.472 330.233 265.891 332.045 266.284 333.399L263.2 333.341C262.88 332.103 262.683 330.52 262.708 329.076Z" fill="#231F20" transform="matrix(1.00013 0 0 1 -1921 1233)"/><path d="M304.263 323.433 304.132 331.176C304.132 331.365 303.746 333.161 303.533 334.055L289.08 333.809 289.277 322.309C289.301 320.832 289.416 319.84 289.555 319.233 288.686 319.216 287.595 319.134 287.242 319.003L287.841 316.157C288.678 316.329 290.507 316.362 292.271 316.395L298.759 316.51C303.484 316.575 304.353 317.937 304.263 323.433ZM298.578 319.413 291.737 319.298 291.532 330.93 301.687 331.102 301.81 324.163C301.859 320.98 301.531 319.462 298.578 319.413Z" fill="#231F20" transform="matrix(1.00013 0 0 1 -1921 1233)"/><path d="M309.734 326.517C311.088 324.483 311.818 322.924 311.842 321.636 311.859 320.578 311.26 320.209 309.783 319.766 309.012 319.528 308.381 319.323 307.831 319.093L308.422 316.272C308.865 316.444 309.504 316.649 310.308 316.854 313.352 317.584 314.393 318.56 314.352 320.939 314.319 322.965 313.31 325.196 311.703 327.509L309.734 326.517Z" fill="#231F20" transform="matrix(1.00013 0 0 1 -1921 1233)"/><path d="M316.6 319.536 317.199 316.69C317.838 316.829 319.479 316.862 321.661 316.895L331.11 317.059 330.479 319.971 329.257 319.946C328.289 319.93 327.928 320.603 327.887 322.916 327.821 326.771 327.903 331.332 327.944 334.482L325.434 334.441C325.442 332.349 325.336 326.952 325.401 323.449 325.442 321.234 325.713 320.496 326.139 319.897L320.168 319.791C318.273 319.758 317.051 319.668 316.6 319.536Z" fill="#231F20" transform="matrix(1.00013 0 0 1 -1921 1233)"/><path d="M334.473 326.943C335.827 324.909 336.557 323.351 336.582 322.063 336.598 321.005 335.999 320.635 334.523 320.193 333.752 319.955 333.12 319.75 332.57 319.512L333.169 316.698C333.62 316.87 334.252 317.067 335.056 317.281 338.099 318.011 339.141 318.987 339.1 321.366 339.067 323.392 338.058 325.623 336.45 327.936L334.473 326.943Z" fill="#231F20" transform="matrix(1.00013 0 0 1 -1921 1233)"/><path d="M343.234 320.152C342.496 320.111 342.012 320.037 341.602 319.93L342.233 317.084C342.742 317.223 344.801 317.289 346.794 317.322L354.086 317.445C358.007 317.51 358.68 319.577 358.622 322.891 358.491 330.438 354.029 333.866 349.747 334.564 348.074 334.859 346.499 334.957 345.596 335.007 344.85 330.659 343.636 322.571 343.234 320.152ZM350.231 331.685C354.226 330.954 355.989 327.673 356.063 323.556 356.096 321.439 355.505 320.398 353.29 320.357L345.81 320.225C346.154 322.58 347.138 328.953 347.598 332.021 348.172 331.972 349.164 331.89 350.231 331.685Z" fill="#231F20" transform="matrix(1.00013 0 0 1 -1921 1233)"/><path d="M367.194 331.947C371.066 330.889 374.322 328.346 374.412 323.523 374.445 321.464 373.723 320.717 371.279 320.676L366.874 320.603C364.692 320.562 362.633 320.529 362.125 320.299L362.724 317.477C363.618 317.65 365.357 317.65 367.44 317.691L371.935 317.765C376.045 317.838 376.988 319.266 376.922 322.867 376.799 329.806 372.099 334.129 366.644 335.417L367.194 331.947ZM362.674 325.377 365.184 325.418 364.914 341.29 362.404 341.249 362.674 325.377Z" fill="#231F20" transform="matrix(1.00013 0 0 1 -1921 1233)"/><path d="M384.141 325.393C384.19 322.629 383.887 321.628 381.393 320.98 380.269 320.668 379.662 320.529 379.219 320.332L379.818 317.51C380.236 317.683 380.876 317.855 382.025 318.06 385.609 318.896 386.741 320.102 386.659 324.983L386.479 335.491 383.969 335.45 384.141 325.393Z" fill="#231F20" transform="matrix(1.00013 0 0 1 -1921 1233)"/><path d="M390.826 331.291C390.883 328.141 391.671 325.229 393.992 322.858 392.606 321.193 390.998 319.528 389.735 318.322L389.833 318.166 393.279 317.97C394.886 319.668 397.216 322.407 400.522 326.64 401.818 325.795 402.646 324.524 402.679 322.465 402.671 321.242 402.367 319.791 401.785 318.404L404.935 318.166C405.328 319.397 405.501 320.553 405.476 321.964 405.427 324.597 404.041 326.919 401.703 328.231 403.401 330.38 406.067 334.285 407.002 335.843L403.598 335.786C402.539 334.03 399.841 330.003 395.337 324.589 393.894 326.295 393.566 328.576 393.599 330.635 393.599 332.464 394.017 334.277 394.411 335.63L391.326 335.581C390.99 334.318 390.793 332.734 390.826 331.291Z" fill="#231F20" transform="matrix(1.00013 0 0 1 -1921 1233)"/><path d="M416.878 326.057C416.935 322.875 416.607 321.456 413.589 321.407L410.406 321.349C408.511 321.316 407.289 321.234 406.846 321.095L407.445 318.249C408.085 318.388 409.725 318.421 411.907 318.454L413.9 318.486C418.592 318.568 419.47 319.709 419.371 325.204L419.183 336.065 416.706 336.024 416.878 326.057Z" fill="#231F20" transform="matrix(1.00013 0 0 1 -1921 1233)"/><path d="M423.366 333.366C424.137 333.251 426.295 333.284 428.255 333.292L435.162 333.415 435.26 327.665C435.293 324.13 434.218 322.76 430.248 322.022 428.805 321.743 427.525 321.521 426.688 321.382 426.155 322.366 425.753 323.26 425.745 323.999 425.729 325.155 426.483 325.943 428.821 326.369L428.132 329.117C424.572 328.608 423.383 326.911 423.424 324.573 423.456 322.58 424.949 320.135 425.655 318.314 426.163 318.454 427.927 318.773 430.617 319.2 435.424 319.922 437.869 321.513 437.745 327.099L437.631 333.653C437.622 334.006 437.27 335.925 437.163 336.376L427.139 336.204C425.532 336.18 423.514 336.139 422.767 336.229L423.366 333.366Z" fill="#231F20" transform="matrix(1.00013 0 0 1 -1921 1233)"/><path d="M215.526 368.236C215.526 373.034 212.466 375.708 208.824 375.708 204.928 375.708 202.336 372.649 202.336 368.342 202.336 363.913 205.1 360.804 209.079 360.804 213.196 360.804 215.526 364.061 215.526 368.236ZM204.329 368.277C204.329 371.558 206.003 374.191 208.931 374.191 211.974 374.191 213.557 371.427 213.557 368.277 213.557 365.324 212.122 362.322 208.956 362.322 205.953 362.322 204.329 365.02 204.329 368.277Z" fill="#231F20" transform="matrix(1.00013 0 0 1 -1921 1233)"/><path d="M217.929 361.231C218.889 361.034 220.243 360.927 221.53 360.927 223.524 360.927 224.803 361.288 225.706 362.108 226.411 362.748 226.838 363.732 226.838 364.848 226.838 366.751 225.64 368.014 224.114 368.531L224.114 368.572C225.23 368.982 225.894 370.024 226.231 371.509 226.698 373.543 227.043 374.913 227.346 375.471L225.419 375.471C225.181 375.06 224.861 373.822 224.459 372.025 224.032 370.057 223.261 369.286 221.571 369.22L219.816 369.22 219.816 375.471 217.929 375.471 217.929 361.231ZM219.816 367.801 221.719 367.801C223.712 367.801 224.976 366.71 224.976 365.061 224.976 363.175 223.63 362.387 221.653 362.363 220.735 362.363 220.111 362.445 219.808 362.535L219.808 367.801Z" fill="#231F20" transform="matrix(1.00013 0 0 1 -1921 1233)"/><path d="M240.52 374.831C239.683 375.134 238.034 375.626 236.09 375.626 233.908 375.626 232.104 375.069 230.693 373.723 229.454 372.526 228.683 370.598 228.683 368.351 228.708 364.069 231.661 360.903 236.5 360.903 238.174 360.903 239.503 361.288 240.101 361.567L239.65 363.084C238.879 362.74 237.919 362.461 236.459 362.461 232.949 362.461 230.652 364.643 230.652 368.269 230.652 371.927 232.834 374.092 236.221 374.092 237.444 374.092 238.28 373.92 238.707 373.707L238.707 369.401 235.77 369.401 235.77 367.899 240.528 367.899 240.528 374.831Z" fill="#231F20" transform="matrix(1.00013 0 0 1 -1921 1233)"/><path d="M245.704 370.934 244.227 375.479 242.275 375.479 247.197 361.042 249.42 361.042 254.341 375.479 252.348 375.479 250.806 370.934 245.704 370.934ZM250.437 369.474 249.026 365.324C248.706 364.38 248.493 363.527 248.279 362.691L248.214 362.691C248.017 363.544 247.787 364.422 247.508 365.299L246.098 369.474 250.437 369.474Z" fill="#231F20" transform="matrix(1.00013 0 0 1 -1921 1233)"/><path d="M256.458 375.471 256.458 361.034 258.533 361.034 263.135 368.318C264.184 370.032 265.038 371.55 265.727 373.026L265.768 373.002C265.595 371.074 265.554 369.319 265.554 367.087L265.554 361.026 267.31 361.026 267.31 375.462 265.423 375.462 260.838 368.137C259.829 366.53 258.869 364.881 258.139 363.322L258.073 363.347C258.18 365.168 258.221 366.899 258.221 369.302L258.221 375.471 256.458 375.471Z" fill="#231F20" transform="matrix(1.00013 0 0 1 -1921 1233)"/><path d="M272.436 361.034 272.436 375.471 270.55 375.471 270.55 361.034 272.436 361.034Z" fill="#231F20" transform="matrix(1.00013 0 0 1 -1921 1233)"/><path d="M285.782 375.019C285.093 375.339 283.723 375.7 281.952 375.7 277.908 375.7 274.84 373.108 274.84 368.375 274.84 363.856 277.899 360.812 282.378 360.812 284.158 360.812 285.315 361.173 285.807 361.436L285.356 362.953C284.65 362.609 283.641 362.354 282.444 362.354 279.064 362.354 276.808 364.52 276.808 368.31 276.808 371.845 278.843 374.117 282.353 374.117 283.485 374.117 284.642 373.879 285.397 373.518L285.782 375.019Z" fill="#231F20" transform="matrix(1.00013 0 0 1 -1921 1233)"/><path d="M292.656 361.206C293.558 361.058 294.772 360.927 296.257 360.927 298.103 360.927 299.448 361.354 300.301 362.125 301.072 362.814 301.564 363.864 301.564 365.168 301.564 366.497 301.179 367.522 300.449 368.277 299.464 369.327 297.857 369.86 296.077 369.86 295.478 369.86 294.92 369.819 294.534 369.753L294.534 375.471 292.648 375.471 292.648 361.206ZM294.543 368.236C294.846 368.318 295.461 368.367 296.085 368.367 298.332 368.367 299.702 367.251 299.702 365.283 299.702 363.331 298.357 362.412 296.298 362.412 295.461 362.412 294.863 362.477 294.543 362.543L294.543 368.236Z" fill="#231F20" transform="matrix(1.00013 0 0 1 -1921 1233)"/><path d="M311.522 368.703 305.936 368.703 305.936 373.928 312.187 373.928 312.187 375.471 304.05 375.471 304.05 361.034 311.867 361.034 311.867 362.576 305.936 362.576 305.936 367.161 311.522 367.161 311.522 368.703Z" fill="#231F20" transform="matrix(1.00013 0 0 1 -1921 1233)"/><path d="M314.565 361.231C315.525 361.034 316.879 360.927 318.166 360.927 320.16 360.927 321.439 361.288 322.342 362.108 323.047 362.748 323.474 363.732 323.474 364.848 323.474 366.751 322.276 368.014 320.75 368.531L320.75 368.572C321.866 368.982 322.53 370.024 322.867 371.509 323.334 373.543 323.679 374.913 323.982 375.471L322.055 375.471C321.817 375.06 321.497 373.822 321.095 372.025 320.668 370.057 319.897 369.286 318.207 369.22L316.452 369.22 316.452 375.471 314.565 375.471 314.565 361.231ZM316.452 367.801 318.355 367.801C320.348 367.801 321.612 366.71 321.612 365.061 321.612 363.175 320.266 362.387 318.29 362.363 317.371 362.363 316.747 362.445 316.444 362.535L316.444 367.801Z" fill="#231F20" transform="matrix(1.00013 0 0 1 -1921 1233)"/><path d="M338.509 368.236C338.509 373.034 335.45 375.708 331.808 375.708 327.911 375.708 325.319 372.649 325.319 368.342 325.319 363.913 328.084 360.804 332.062 360.804 336.18 360.804 338.509 364.061 338.509 368.236ZM327.312 368.277C327.312 371.558 328.986 374.191 331.914 374.191 334.957 374.191 336.541 371.427 336.541 368.277 336.541 365.324 335.105 362.322 331.939 362.322 328.937 362.322 327.312 365.02 327.312 368.277Z" fill="#231F20" transform="matrix(1.00013 0 0 1 -1921 1233)"/><path d="M348.262 375.471 346.417 372.28C345.646 371.057 345.194 370.27 344.743 369.433L344.702 369.433C344.292 370.286 343.866 371.041 343.135 372.304L341.397 375.471 339.256 375.471 343.669 368.17 339.428 361.042 341.569 361.042 343.496 364.422C344.03 365.365 344.44 366.095 344.842 366.882L344.883 366.882C345.293 366.005 345.654 365.365 346.187 364.422L348.156 361.042 350.296 361.042 345.908 368.064 350.403 375.471 348.262 375.471Z" fill="#231F20" transform="matrix(1.00013 0 0 1 -1921 1233)"/><path d="M354.447 361.034 354.447 375.471 352.56 375.471 352.56 361.034 354.447 361.034Z" fill="#231F20" transform="matrix(1.00013 0 0 1 -1921 1233)"/><path d="M357.687 361.231C358.844 361.058 360.189 360.927 361.674 360.927 364.348 360.927 366.259 361.551 367.522 362.724 368.81 363.905 369.556 365.595 369.556 367.908 369.556 370.262 368.826 372.173 367.481 373.518 366.111 374.864 363.905 375.594 361.099 375.594 359.771 375.594 358.655 375.528 357.695 375.421L357.695 361.231ZM359.566 373.994C360.033 374.076 360.722 374.101 361.452 374.101 365.439 374.101 367.596 371.878 367.596 367.973 367.621 364.569 365.693 362.404 361.747 362.404 360.788 362.404 360.058 362.51 359.566 362.6L359.566 373.994Z" fill="#231F20" transform="matrix(1.00013 0 0 1 -1921 1233)"/><path d="M379.424 368.703 373.838 368.703 373.838 373.928 380.089 373.928 380.089 375.471 371.952 375.471 371.952 361.034 379.769 361.034 379.769 362.576 373.838 362.576 373.838 367.161 379.424 367.161 379.424 368.703Z" fill="#231F20" transform="matrix(1.00013 0 0 1 -1921 1233)"/><path d="M382.23 373.198C383.066 373.715 384.288 374.142 385.568 374.142 387.471 374.142 388.587 373.133 388.587 371.681 388.587 370.336 387.816 369.565 385.847 368.81 383.509 367.998 382.057 366.735 382.057 364.717 382.057 362.494 383.919 360.821 386.725 360.821 388.185 360.821 389.276 361.165 389.916 361.501L389.399 363.019C388.931 362.765 387.963 362.338 386.659 362.338 384.69 362.338 383.936 363.519 383.936 364.504 383.936 365.849 384.813 366.513 386.807 367.284 389.251 368.252 390.49 369.401 390.49 371.525 390.49 373.748 388.841 375.7 385.437 375.7 384.026 375.7 382.5 375.274 381.729 374.757L382.23 373.198Z" fill="#231F20" transform="matrix(1.00013 0 0 1 -1921 1233)"/></g></g></g><g><g><g><path d="M302.639 534.816 68.5254 305.37 305.961 72.1838 543.396 305.37Z" fill="#F5EB31" transform="matrix(1.00013 0 0 1 -1449 1233)"/><path d="M303.123 501.046 103.19 305.1 305.961 105.954 508.732 305.1Z" stroke="#3B3A3C" stroke-width="0.82027" stroke-miterlimit="10" fill="none" transform="matrix(1.00013 0 0 1 -1449 1233)"/><path d="M305.296 128.225 302.311 131.457C294.067 141.513 305.748 152.759 300.67 163.021 298.423 158.041 293.312 152.587 287.685 152.3L287.685 153.038C287.882 152.931 287.94 153.087 288.136 153.185 293.755 161.396 290.384 172.224 285.151 179.606 283.075 176.932 280.344 172.864 276.8 172.413L276.8 173.151C281.295 178.868 279.072 187.005 276.054 192.821 274.84 195.118 275.234 198.391 273.814 200.597 271.567 199.211 269.098 197.431 265.907 197.513L265.907 198.391C273.043 206.889 265.792 217.388 267.105 227.166 267.933 229.528 268.835 233.252 271.731 233.621 272.756 245.22 279.72 255.203 289.629 260.477L265.612 260.477 265.612 270.312 346.302 270.312 346.302 260.477 322.448 260.477C332.726 255.047 339.838 244.564 340.494 232.448 340.896 232.456 341.273 232.448 341.684 232.448 351.158 220.628 335.203 206.741 345.711 195.306 343.373 194.847 341.159 195.938 339.001 196.775L338.55 196.332C339.469 192.362 340.281 188.474 340.191 184.143 339.428 177.31 337.755 170.747 334.375 165.202 334.006 168.352 334.367 171.765 332.587 174.16 333.432 165.12 328.699 157.065 321.103 151.996 320.734 154.851 323.269 157.984 321.407 160.945 320.841 157.886 319.028 155.4 317.518 152.726 313.105 146.549 305.198 141.595 305.296 133.196 305.009 131.366 306.043 129.611 305.296 128.225ZM310.21 167.13C313.204 172.864 308.397 178.425 309.611 184.602 311.383 188.58 314.902 192.755 313.491 197.373 313.475 197.431 313.499 197.464 313.491 197.521 311.096 197.004 308.586 196.643 306.035 196.643 305.395 196.643 304.722 196.758 304.099 196.791L304.55 194.142C297.044 184.733 305.419 175.152 310.21 167.13ZM293.804 187.538C294.748 191.139 297.266 193.978 297.832 197.661 295.748 198.161 293.772 198.719 291.86 199.572 293.001 196.725 292.508 192.977 292.312 189.876 292.812 189.146 292.5 187.809 293.804 187.538ZM321.407 187.981C324.491 190.754 323.966 196.463 322.744 200.162 322.629 200.359 322.645 200.556 322.596 200.753 320.882 199.818 319.102 199.039 317.223 198.399 317.256 198.292 317.346 198.227 317.371 198.103 318.503 194.699 320.644 191.574 321.407 187.981ZM282.919 196.488C284.043 198.604 284.15 201.516 286.496 202.804 284.79 203.968 283.174 205.174 281.722 206.626 281.705 202.959 280.664 199.678 282.919 196.488ZM331.397 198.842C331.578 198.866 331.808 198.981 331.996 199.285L331.553 207.364C331.561 207.487 331.545 207.676 331.553 207.807 330.077 206.216 328.379 204.838 326.623 203.55 326.779 203.46 326.943 203.402 327.075 203.255 328.469 202.328 328.691 200.851 329.913 199.728 330.397 199.588 330.864 198.76 331.397 198.842ZM306.043 205.74C320.012 205.74 331.397 216.945 331.397 230.701 331.397 244.432 320.012 255.522 306.043 255.522 292.065 255.522 280.828 244.432 280.828 230.701 280.828 216.945 292.065 205.74 306.043 205.74ZM273.814 211.753C275.045 211.843 274.971 213.525 276.201 213.812 275.545 214.944 274.897 216.092 274.331 217.281L274.257 217.191C273.798 215.444 273.355 213.607 273.814 211.753Z" fill="#221F1F" transform="matrix(1.00013 0 0 1 -1449 1233)"/><path d="M288.046 456.448C289.678 455.742 291.417 455.316 292.23 455.316 296.306 455.316 298.603 458.113 298.603 461.025 298.603 463.141 297.635 465.134 295.429 466.824 293.608 468.21 291.327 469.145 289.424 469.145 288.177 469.145 286.832 468.678 286.118 468.063 285.429 467.472 285.306 467.103 285.306 466.627 285.306 466.061 285.782 465.241 286.356 464.773 286.742 464.495 287.086 464.634 287.513 465.077 288.309 465.832 289.826 467.169 291.614 467.169 293.608 467.169 294.551 465.29 294.551 462.846 294.551 459.745 292.73 457.752 289.851 457.752 288.374 457.752 286.98 458.195 286.332 458.457L287.767 447.441 297.955 447.441 298.127 447.769 297.077 451.132 288.924 451.132 288.046 456.448Z" fill="#231F20" transform="matrix(1.00013 0 0 1 -1449 1233)"/><path d="M304.074 469.162C302.786 469.162 301.802 468.104 301.802 466.578 301.802 465.077 302.786 464.019 304.099 464.019 305.452 464.019 306.412 465.077 306.412 466.578 306.412 468.104 305.444 469.162 304.099 469.162L304.074 469.162Z" fill="#231F20" transform="matrix(1.00013 0 0 1 -1449 1233)"/><path d="M311.366 468.76 311.366 467.562C313.942 467.349 314.221 466.832 314.221 464.388L314.221 452.051C314.221 450.238 314.09 450.033 312.851 449.935L311.137 449.844 311.137 448.811C313.171 448.458 315.509 447.851 318.413 447.023L318.413 464.388C318.413 466.734 318.626 467.349 321.226 467.562L321.226 468.76 311.366 468.76Z" fill="#231F20" transform="matrix(1.00013 0 0 1 -1449 1233)"/><path d="M220.825 294.321 220.694 302.089C220.694 302.286 220.308 304.082 220.095 304.985L205.584 304.73 205.781 293.189C205.806 291.705 205.921 290.712 206.06 290.097 205.191 290.08 204.091 289.998 203.739 289.867L204.338 287.004C205.174 287.177 207.012 287.209 208.783 287.242L215.296 287.357C220.038 287.439 220.923 288.809 220.825 294.321ZM215.124 290.285 208.258 290.171 208.053 301.843 218.241 302.015 218.364 295.051C218.413 291.86 218.085 290.335 215.124 290.285Z" fill="#231F20" transform="matrix(1.00013 0 0 1 -1449 1233)"/><path d="M224.672 297.381C226.025 295.338 226.764 293.772 226.788 292.484 226.805 291.417 226.198 291.057 224.721 290.614 223.95 290.376 223.31 290.171 222.769 289.933L223.368 287.103C223.819 287.275 224.459 287.48 225.263 287.685 228.314 288.415 229.364 289.4 229.323 291.787 229.29 293.821 228.281 296.06 226.665 298.382L224.672 297.381Z" fill="#231F20" transform="matrix(1.00013 0 0 1 -1449 1233)"/><path d="M232.071 302.384C232.883 302.302 233.908 302.286 236.041 302.327L238.297 302.368 238.42 295.182C238.469 292.377 238.157 291.598 235.303 290.876 234.146 290.597 233.022 290.318 232.514 290.121L233.113 287.291C233.531 287.464 234.491 287.702 235.877 287.98 239.601 288.817 241.036 289.941 240.954 294.682L240.815 302.516 240.216 305.346 235.738 305.272C234.351 305.247 232.128 305.239 231.48 305.296L232.071 302.384Z" fill="#231F20" transform="matrix(1.00013 0 0 1 -1449 1233)"/><path d="M244.416 302.631C245.162 302.516 247 302.516 248.837 302.549L253.833 302.639C252.947 301.72 250.962 299.136 247.558 294.469 245.95 292.246 244.063 289.67 242.767 287.972L246.385 287.71C247.705 289.67 249.904 292.992 251.667 295.478 254.136 294.518 254.546 293.107 254.579 291.335 254.596 290.367 254.267 289.071 253.89 288.161L257.056 287.923C257.302 288.702 257.442 289.67 257.425 290.704 257.376 293.763 256.179 295.806 252.766 297.168 255.408 300.826 257.147 302.819 257.688 303.254L257.097 305.633 248.46 305.485C246.303 305.452 244.4 305.444 243.686 305.501L244.416 302.631Z" fill="#231F20" transform="matrix(1.00013 0 0 1 -1449 1233)"/><path d="M262.593 295.814C263.102 292.599 261.83 291.319 259.812 290.802L260.444 287.816C263.012 288.276 264.537 289.949 264.783 292.435 265.563 290.482 267.539 287.964 271.116 288.03 276.144 288.12 277.292 292.746 277.186 298.972L277.112 303.098C277.104 303.385 276.718 305.51 276.612 305.961L270.263 305.854C268.975 305.83 267.293 305.838 266.621 305.887L267.219 303.024C267.9 302.909 269.418 302.934 271.19 302.967L274.577 303.024C274.635 301.671 274.659 300.35 274.676 299.062 274.75 295.002 274.298 291.024 270.525 290.958 266.949 290.892 265.628 294.42 265.103 296.602 264.554 298.751 263.807 302.639 263.176 305.723L260.657 305.682C261.346 302.376 262.199 298.193 262.593 295.814Z" fill="#231F20" transform="matrix(1.00013 0 0 1 -1449 1233)"/><path d="M282.034 295.896C282.075 293.739 282.198 292.065 282.37 291.417 281.787 291.376 280.245 291.253 280.024 291.212L280.623 288.317C281.295 288.489 282.911 288.522 285.101 288.555L290.933 288.653C295.642 288.735 296.52 290.203 296.429 295.552L296.241 306.289 293.722 306.248 293.895 296.446C293.952 292.902 293.657 291.639 290.597 291.582L284.601 291.475 284.347 306.076 281.861 306.035 282.034 295.896Z" fill="#231F20" transform="matrix(1.00013 0 0 1 -1449 1233)"/><path d="M302.245 296.503C302.754 293.288 301.482 292.008 299.464 291.491L300.096 288.505C302.672 288.965 304.189 290.638 304.435 293.124 305.214 291.171 307.191 288.653 310.768 288.719 315.796 288.809 316.944 293.435 316.838 299.661L316.764 303.787C316.756 304.074 316.37 306.199 316.263 306.65L309.915 306.543C308.627 306.519 306.945 306.527 306.273 306.576L306.871 303.713C307.552 303.598 309.061 303.623 310.841 303.656L314.229 303.713C314.287 302.36 314.311 301.039 314.328 299.751 314.401 295.691 313.95 291.713 310.177 291.647 306.601 291.582 305.28 295.109 304.763 297.291 304.214 299.44 303.467 303.328 302.836 306.412L300.317 306.371C301.006 303.057 301.851 298.882 302.245 296.503Z" fill="#231F20" transform="matrix(1.00013 0 0 1 -1449 1233)"/><path d="M344.103 296.454 343.972 304.222C343.972 304.419 343.578 306.215 343.373 307.117L328.863 306.863 329.06 295.322C329.084 293.837 329.199 292.845 329.339 292.23 328.469 292.213 327.37 292.131 327.017 291.992L327.616 289.129C328.453 289.301 330.29 289.334 332.062 289.367L338.575 289.482C343.324 289.572 344.202 290.942 344.103 296.454ZM338.403 292.418 331.537 292.295 331.332 303.968 341.52 304.14 341.643 297.176C341.7 293.993 341.372 292.467 338.403 292.418Z" fill="#231F20" transform="matrix(1.00013 0 0 1 -1449 1233)"/><path d="M348.475 299.53C349.829 297.487 350.567 295.921 350.592 294.633 350.608 293.567 350.001 293.206 348.525 292.763 347.754 292.525 347.114 292.32 346.572 292.082L347.171 289.252C347.622 289.424 348.262 289.629 349.066 289.834 352.117 290.564 353.167 291.549 353.126 293.936 353.094 295.97 352.085 298.209 350.469 300.531L348.475 299.53Z" fill="#231F20" transform="matrix(1.00013 0 0 1 -1449 1233)"/><path d="M364.085 297.471C364.143 294.28 363.806 292.853 360.78 292.804L357.589 292.746C355.686 292.713 354.463 292.631 354.012 292.492L354.611 289.629C355.251 289.769 356.9 289.802 359.09 289.834L361.091 289.867C365.8 289.949 366.677 291.089 366.587 296.602L366.398 307.495 363.913 307.454 364.085 297.471Z" fill="#231F20" transform="matrix(1.00013 0 0 1 -1449 1233)"/><path d="M372.271 297.709C372.78 294.493 371.509 293.214 369.491 292.697L370.122 289.711C372.698 290.179 374.216 291.844 374.462 294.329 375.241 292.377 377.218 289.859 380.794 289.925 385.822 290.015 386.971 294.641 386.864 300.867L386.79 304.993C386.782 305.28 386.397 307.405 386.29 307.856L379.941 307.749C378.653 307.724 376.972 307.733 376.299 307.782L376.898 304.919C377.579 304.804 379.088 304.829 380.868 304.862L384.256 304.919C384.313 303.566 384.329 302.245 384.354 300.957 384.428 296.897 383.977 292.919 380.204 292.853 376.627 292.787 375.307 296.314 374.782 298.496 374.232 300.645 373.486 304.534 372.846 307.618L370.327 307.577C371.025 304.271 371.878 300.096 372.271 297.709Z" fill="#231F20" transform="matrix(1.00013 0 0 1 -1449 1233)"/><path d="M394.099 297.898C394.148 295.125 393.845 294.124 391.335 293.468 390.211 293.156 389.604 293.017 389.153 292.82L389.751 289.99C390.17 290.162 390.81 290.335 391.966 290.548 395.559 291.385 396.707 292.599 396.617 297.496L396.437 308.036 393.918 307.995 394.099 297.898Z" fill="#231F20" transform="matrix(1.00013 0 0 1 -1449 1233)"/><path d="M401.801 297.963C401.842 295.806 401.965 294.133 402.138 293.485 401.555 293.444 400.013 293.32 399.783 293.279L400.382 290.384C401.055 290.556 402.671 290.589 404.861 290.622L410.693 290.72C415.401 290.802 416.279 292.271 416.189 297.619L416 308.356 413.482 308.315 413.654 298.513C413.712 294.969 413.416 293.706 410.348 293.649L404.352 293.542 404.098 308.143 401.613 308.102 401.801 297.963Z" fill="#231F20" transform="matrix(1.00013 0 0 1 -1449 1233)"/><path d="M204.05 340.355C204.05 345.17 200.974 347.852 197.324 347.852 193.412 347.852 190.811 344.776 190.811 340.461 190.811 336.016 193.584 332.899 197.579 332.899 201.704 332.899 204.05 336.163 204.05 340.355ZM192.813 340.396C192.813 343.685 194.486 346.326 197.431 346.326 200.482 346.326 202.074 343.554 202.074 340.396 202.074 337.426 200.63 334.424 197.455 334.424 194.445 334.424 192.813 337.131 192.813 340.396Z" fill="#231F20" transform="matrix(1.00013 0 0 1 -1449 1233)"/><path d="M213.828 347.614 211.982 344.415C211.211 343.193 210.76 342.397 210.309 341.552L210.268 341.552C209.858 342.414 209.431 343.168 208.701 344.432L206.962 347.614 204.813 347.614 209.243 340.289 204.986 333.136 207.135 333.136 209.071 336.532C209.612 337.476 210.014 338.206 210.424 339.001L210.465 339.001C210.875 338.124 211.236 337.476 211.777 336.532L213.754 333.136 215.903 333.136 211.499 340.183 216.01 347.622 213.828 347.622Z" fill="#231F20" transform="matrix(1.00013 0 0 1 -1449 1233)"/><path d="M220.046 333.136 220.046 347.622 218.151 347.622 218.151 333.136 220.046 333.136Z" fill="#231F20" transform="matrix(1.00013 0 0 1 -1449 1233)"/><path d="M223.286 333.325C224.451 333.153 225.804 333.022 227.281 333.022 229.963 333.022 231.882 333.645 233.145 334.826 234.433 336.007 235.188 337.705 235.188 340.027 235.188 342.389 234.458 344.3 233.104 345.654 231.726 347.007 229.512 347.737 226.698 347.737 225.369 347.737 224.246 347.672 223.278 347.565L223.278 333.325ZM225.181 346.138C225.656 346.22 226.337 346.244 227.075 346.244 231.07 346.244 233.244 344.013 233.244 340.1 233.268 336.68 231.333 334.514 227.379 334.514 226.411 334.514 225.681 334.621 225.189 334.711L225.189 346.138Z" fill="#231F20" transform="matrix(1.00013 0 0 1 -1449 1233)"/><path d="M239.494 333.136 239.494 347.622 237.6 347.622 237.6 333.136 239.494 333.136Z" fill="#231F20" transform="matrix(1.00013 0 0 1 -1449 1233)"/><path d="M241.775 346.54 249.789 334.761 249.789 334.695 242.464 334.695 242.464 333.128 252.241 333.128 252.241 334.268 244.244 345.982 244.244 346.047 252.348 346.047 252.348 347.614 241.775 347.614 241.775 346.54Z" fill="#231F20" transform="matrix(1.00013 0 0 1 -1449 1233)"/><path d="M256.523 333.136 256.523 347.622 254.628 347.622 254.628 333.136 256.523 333.136Z" fill="#231F20" transform="matrix(1.00013 0 0 1 -1449 1233)"/><path d="M259.763 347.614 259.763 333.128 261.847 333.128 266.465 340.437C267.515 342.159 268.376 343.685 269.065 345.162L269.106 345.137C268.934 343.201 268.893 341.438 268.893 339.206L268.893 333.128 270.656 333.128 270.656 347.614 268.762 347.614 264.16 340.265C263.151 338.657 262.183 337 261.453 335.425L261.387 335.45C261.494 337.279 261.535 339.018 261.535 341.421L261.535 347.606 259.763 347.606Z" fill="#231F20" transform="matrix(1.00013 0 0 1 -1449 1233)"/><path d="M284.954 346.974C284.117 347.278 282.46 347.77 280.508 347.77 278.318 347.77 276.513 347.212 275.094 345.859 273.847 344.653 273.076 342.717 273.076 340.461 273.101 336.163 276.062 332.981 280.918 332.981 282.591 332.981 283.928 333.366 284.527 333.645L284.076 335.171C283.305 334.826 282.337 334.547 280.877 334.547 277.35 334.547 275.053 336.737 275.053 340.371 275.053 344.046 277.243 346.22 280.639 346.22 281.861 346.22 282.706 346.047 283.133 345.834L283.133 341.511 280.188 341.511 280.188 340.01 284.962 340.01 284.962 346.974Z" fill="#231F20" transform="matrix(1.00013 0 0 1 -1449 1233)"/><path d="M292.139 345.342C292.976 345.859 294.206 346.285 295.494 346.285 297.405 346.285 298.521 345.276 298.521 343.816 298.521 342.463 297.75 341.692 295.773 340.937 293.427 340.117 291.967 338.854 291.967 336.836 291.967 334.605 293.837 332.923 296.651 332.923 298.111 332.923 299.21 333.268 299.85 333.612L299.333 335.138C298.857 334.884 297.889 334.449 296.585 334.449 294.608 334.449 293.854 335.63 293.854 336.623 293.854 337.976 294.731 338.64 296.733 339.42 299.185 340.388 300.432 341.544 300.432 343.677 300.432 345.908 298.775 347.868 295.363 347.868 293.944 347.868 292.418 347.442 291.647 346.925L292.139 345.342Z" fill="#231F20" transform="matrix(1.00013 0 0 1 -1449 1233)"/><path d="M304.862 333.136 304.862 341.757C304.862 344.957 306.281 346.335 308.233 346.335 310.357 346.335 311.76 344.915 311.76 341.757L311.76 333.136 313.63 333.136 313.63 341.602C313.63 346.047 311.309 347.852 308.176 347.852 305.206 347.852 302.975 346.179 302.975 341.684L302.975 333.128 304.862 333.128Z" fill="#231F20" transform="matrix(1.00013 0 0 1 -1449 1233)"/><path d="M316.879 333.325C317.715 333.153 319.028 333.022 320.316 333.022 322.186 333.022 323.392 333.341 324.269 334.072 325.04 334.629 325.491 335.491 325.491 336.631 325.491 338.025 324.548 339.272 323.039 339.813L323.039 339.854C324.417 340.199 326.025 341.315 326.025 343.505 326.025 344.727 325.549 345.678 324.778 346.384 323.785 347.311 322.153 347.737 319.791 347.737 318.478 347.737 317.51 347.655 316.87 347.565L316.87 333.325ZM318.765 339.28 320.463 339.28C322.415 339.28 323.605 338.23 323.605 336.828 323.605 335.13 322.317 334.465 320.422 334.465 319.561 334.465 319.069 334.531 318.765 334.596L318.765 339.28ZM318.765 346.195C319.151 346.261 319.643 346.285 320.332 346.285 322.268 346.285 324.072 345.572 324.072 343.488 324.072 341.487 322.35 340.675 320.316 340.675L318.765 340.675 318.765 346.195Z" fill="#231F20" transform="matrix(1.00013 0 0 1 -1449 1233)"/><path d="M328.289 345.342C329.125 345.859 330.348 346.285 331.643 346.285 333.555 346.285 334.67 345.276 334.67 343.816 334.67 342.463 333.899 341.692 331.922 340.937 329.576 340.117 328.116 338.854 328.116 336.836 328.116 334.605 329.987 332.923 332.8 332.923 334.26 332.923 335.359 333.268 335.999 333.612L335.482 335.138C335.007 334.884 334.047 334.449 332.734 334.449 330.758 334.449 330.003 335.63 330.003 336.623 330.003 337.976 330.881 338.64 332.882 339.42 335.335 340.388 336.582 341.544 336.582 343.677 336.582 345.908 334.925 347.868 331.512 347.868 330.093 347.868 328.568 347.442 327.796 346.925L328.289 345.342Z" fill="#231F20" transform="matrix(1.00013 0 0 1 -1449 1233)"/><path d="M341.897 334.72 337.492 334.72 337.492 333.128 348.213 333.128 348.213 334.72 343.784 334.72 343.784 347.614 341.889 347.614 341.889 334.72Z" fill="#231F20" transform="matrix(1.00013 0 0 1 -1449 1233)"/><path d="M350.559 343.062 349.074 347.614 347.122 347.614 352.068 333.128 354.308 333.128 359.254 347.614 357.252 347.614 355.702 343.062 350.559 343.062ZM355.308 341.602 353.889 337.435C353.569 336.491 353.348 335.63 353.135 334.793L353.069 334.793C352.872 335.655 352.642 336.532 352.364 337.418L350.944 341.61 355.308 341.61Z" fill="#231F20" transform="matrix(1.00013 0 0 1 -1449 1233)"/><path d="M361.354 347.614 361.354 333.128 363.437 333.128 368.055 340.437C369.105 342.159 369.967 343.685 370.656 345.162L370.697 345.137C370.524 343.201 370.483 341.438 370.483 339.206L370.483 333.128 372.247 333.128 372.247 347.614 370.352 347.614 365.75 340.265C364.741 338.657 363.773 337 363.043 335.425L362.978 335.45C363.084 337.279 363.125 339.018 363.125 341.421L363.125 347.606 361.354 347.606Z" fill="#231F20" transform="matrix(1.00013 0 0 1 -1449 1233)"/><path d="M385.634 347.163C384.945 347.483 383.567 347.852 381.787 347.852 377.726 347.852 374.65 345.252 374.65 340.502 374.65 335.966 377.726 332.915 382.213 332.915 383.993 332.915 385.158 333.284 385.65 333.538L385.199 335.064C384.494 334.72 383.476 334.465 382.279 334.465 378.883 334.465 376.627 336.639 376.627 340.437 376.627 343.98 378.67 346.261 382.197 346.261 383.337 346.261 384.494 346.023 385.248 345.662L385.634 347.163Z" fill="#231F20" transform="matrix(1.00013 0 0 1 -1449 1233)"/><path d="M395.461 340.822 389.85 340.822 389.85 346.064 396.125 346.064 396.125 347.614 387.955 347.614 387.955 333.128 395.797 333.128 395.797 334.679 389.842 334.679 389.842 339.28 395.452 339.28 395.452 340.822Z" fill="#231F20" transform="matrix(1.00013 0 0 1 -1449 1233)"/><path d="M398.274 345.342C399.111 345.859 400.341 346.285 401.629 346.285 403.54 346.285 404.656 345.276 404.656 343.816 404.656 342.463 403.885 341.692 401.908 340.937 399.562 340.117 398.102 338.854 398.102 336.836 398.102 334.605 399.972 332.923 402.786 332.923 404.246 332.923 405.345 333.268 405.985 333.612L405.468 335.138C404.992 334.884 404.024 334.449 402.72 334.449 400.743 334.449 399.988 335.63 399.988 336.623 399.988 337.976 400.866 338.64 402.868 339.42 405.32 340.388 406.567 341.544 406.567 343.677 406.567 345.908 404.91 347.868 401.498 347.868 400.079 347.868 398.553 347.442 397.782 346.925L398.274 345.342Z" fill="#231F20" transform="matrix(1.00013 0 0 1 -1449 1233)"/></g></g></g></g></svg>