<svg width="1086" height="607" xmlns="http://www.w3.org/2000/svg" xmlns:xlink="http://www.w3.org/1999/xlink" xml:space="preserve" overflow="hidden"><g transform="translate(789 -658)"><g><g><g><path d="M302.672 532.355 71.0518 305.346 305.961 74.6446 540.87 305.346Z" stroke="#323031" stroke-width="0.82027" stroke-miterlimit="10" stroke-dasharray="4.92162 4.92162" fill="#FFFFFF" transform="matrix(1.00013 0 0 1 -315 658)"/><path d="M303.156 498.946 105.347 305.083 305.961 108.054 506.574 305.083Z" stroke="#3B3A3C" stroke-width="0.82027" stroke-miterlimit="10" fill="none" transform="matrix(1.00013 0 0 1 -315 658)"/><path d="M252.11 218.528C256.195 217.552 256.195 221.219 260.05 224.656 260.05 224.656 279.228 239.806 301.761 246.647 324.253 253.496 338.837 258.623 340.117 259.115 341.388 259.607 347.015 260.838 351.617 258.877 356.243 256.925 364.159 260.583 363.117 263.988 362.092 267.408 356.481 267.392 354.701 272.248 352.905 277.137 352.126 280.869 347.27 279.884 342.397 278.908 342.652 275.471 341.905 271.075 341.126 266.678 333.186 263.733 313.499 256.917 293.796 250.051 273.084 242.234 270 241.258 266.941 240.282 260.042 236.861 253.89 239.544 247.746 242.234 244.178 235.385 247.254 232.219 250.314 229.028 251.068 228.79 249.559 226.591 248.025 224.393 244.326 220.398 252.11 218.528Z" stroke="#221F1F" stroke-width="0.427607" fill="#FFFFFF" transform="matrix(1.00013 0 0 1 -315 658)"/><path d="M269.262 260.083C276.21 257.507 337.041 235.147 340.125 233.186 343.185 231.226 350.616 224.147 352.905 220.973 355.21 217.782 361.608 219.997 361.091 223.655 360.599 227.33 359.311 228.536 360.853 229.766 362.387 230.988 366.472 229.274 365.693 232.219 364.922 235.139 362.888 239.798 359.828 239.297 356.752 238.805 354.185 234.655 347.286 237.353 340.363 240.028 283.067 263.258 277.957 265.234 272.847 267.162 269.262 273.765 267.712 276.21 266.194 278.654 259.271 282.091 258 275.234 256.712 268.384 256.474 270.624 255.203 269.639 253.898 268.647 250.33 264.488 255.203 262.027 260.059 259.599 261.33 263.003 269.262 260.083Z" stroke="#221F1F" stroke-width="0.427607" fill="#FFFFFF" transform="matrix(1.00013 0 0 1 -315 658)"/><path d="M307.355 173.315C294.838 173.561 275.398 188.457 274.11 189.441 272.847 190.434 268.745 200.449 271.05 207.528 273.363 214.624 276.931 218.528 276.415 222.449 275.914 226.354 274.914 232.465 279.236 234.179 283.584 235.885 285.889 236.377 286.397 240.29 286.922 244.203 287.423 248.599 287.669 250.297 287.948 252.003 293.567 256.654 296.889 259.107 300.194 261.576 302.754 263.003 306.88 263.003 314.032 263.003 318.125 257.893 319.668 256.654 322.981 253.964 326.353 254.866 325.836 249.231 325.779 247.213 325.959 239.207 327.37 237.747 329.421 236.279 335.261 232.219 335.778 229.528 336.286 226.838 335.778 219.496 336.032 217.068 336.294 214.616 341.93 209.243 341.643 205.092 341.405 200.933 343.701 194.347 334.236 187.981 324.761 181.624 315.296 173.159 307.355 173.315" fill="#221F1F" transform="matrix(1.00013 0 0 1 -315 658)"/><path d="M307.29 176.891C303.992 177.187 301.031 177.515 298.472 179.229 295.929 180.96 277.407 190.262 275.627 193.444 273.847 196.619 269.328 201.983 277.243 210.539 277.243 210.539 275.348 200.433 280.483 195.782 280.483 195.782 279.318 206.872 280.844 223.491 281.197 227.149 279.95 229.856 284.798 232.301 289.662 234.745 295.658 237.854 295.412 242.734 295.412 242.734 298.455 245.614 306.387 245.614 314.328 245.614 316.559 244.039 316.821 241.832 317.067 239.626 315.214 237.394 320.603 235.18 325.975 232.99 330.905 230.521 331.397 226.37 331.931 222.211 333.981 206.364 328.879 195.61 328.879 195.61 333.94 199.022 334.457 209.284 334.457 209.284 337.878 207.701 337.878 200.105 337.878 192.542 332.644 189.917 327.263 186.251 321.882 182.592 315.492 176.161 307.29 176.891ZM290.556 213.951C291.836 213.918 294.092 214.009 297.93 214.132 305.584 214.378 298.127 221.391 295.051 223.844 291.992 226.28 288.202 223.704 286.414 221.506 284.626 219.316 284.076 214.132 288.932 214.132 288.94 214.132 289.277 213.984 290.556 213.951ZM322.58 213.951C323.859 213.984 324.195 214.132 324.195 214.132 329.043 214.132 328.502 219.316 326.714 221.506 324.909 223.704 320.964 226.28 317.896 223.844 314.82 221.391 307.503 214.378 315.197 214.132 319.036 214.009 321.3 213.918 322.58 213.951ZM289.654 240.577C289.654 240.577 289.473 249.83 291.27 251.552 293.05 253.258 300.867 259.517 301.884 260.009 302.909 260.501 303.828 261.625 306.921 261.625 309.98 261.625 311.744 259.55 313.04 258.566 314.303 257.59 321.366 253.25 322.391 252.266 323.416 251.29 323.9 243.932 323.646 240.749L321.037 242.013C321.037 242.013 321.218 247.312 320.193 248.78 319.175 250.24 314.959 253.16 307.815 253.16 300.645 253.16 292.96 249.822 292.705 248.845 292.459 247.869 292.344 242.546 292.344 242.546L289.654 240.577Z" fill="#FFFFFF" transform="matrix(1.00013 0 0 1 -315 658)"/><path d="M305.821 237.099C307.109 237.099 308.348 239.06 310.423 238.576 312.449 238.067 311.67 235.647 310.677 233.679 309.652 231.735 308.651 227.33 305.821 227.067 302.991 226.829 301.974 231.726 300.957 233.679 299.981 235.647 299.177 238.067 301.22 238.576 303.287 239.06 304.525 237.099 305.821 237.099" fill="#221F1F" transform="matrix(1.00013 0 0 1 -315 658)"/><path d="M305.042 454.028C305.83 453.659 306.379 453.38 306.871 453.38 310.546 453.38 312.941 455.816 312.941 459.68 312.941 463.978 309.906 467.398 305.764 467.398 301.794 467.398 298.652 464.166 298.652 458.753 298.652 451.501 303.41 447.712 307.019 446.408 308.422 445.924 310.669 445.481 311.818 445.292L312.031 446.596C311.137 446.826 309.718 447.22 308.635 447.802 307.085 448.663 304.304 450.591 303.393 454.889L305.042 454.028ZM305.173 455.8C304.427 455.8 303.812 455.939 303.197 456.169 303.049 456.702 302.983 458.17 302.983 458.867 302.983 463.379 304.706 465.979 306.404 465.979 308.397 465.979 308.848 463.305 308.848 461.238 308.848 458.031 307.363 455.8 305.198 455.8L305.173 455.8Z" fill="#231F20" transform="matrix(1.00013 0 0 1 -315 658)"/><path d="M240.192 304.394 240.06 312.08C240.06 312.269 239.675 314.049 239.47 314.943L225.115 314.697 225.312 303.279C225.336 301.81 225.451 300.826 225.591 300.219 224.729 300.203 223.647 300.121 223.294 299.989L223.885 297.159C224.713 297.332 226.534 297.364 228.281 297.397L234.729 297.512C239.412 297.586 240.282 298.939 240.192 304.394ZM234.548 300.408 227.756 300.293 227.559 311.842 237.641 312.014 237.764 305.124C237.805 301.966 237.476 300.457 234.548 300.408Z" fill="#231F20" transform="matrix(1.00013 0 0 1 -315 658)"/><path d="M245.171 307.454C246.516 305.436 247.246 303.886 247.262 302.606 247.279 301.556 246.68 301.195 245.22 300.752 244.457 300.514 243.825 300.317 243.284 300.079L243.875 297.282C244.318 297.446 244.949 297.651 245.745 297.857 248.763 298.578 249.797 299.555 249.756 301.917 249.723 303.927 248.722 306.141 247.123 308.446L245.171 307.454Z" fill="#231F20" transform="matrix(1.00013 0 0 1 -315 658)"/><path d="M254.628 312.244C258.894 311.038 262.265 307.782 262.347 303.287 262.38 301.277 261.592 300.883 259.903 300.851L252.307 300.719 252.389 296.126C252.422 294.182 252.364 291.852 252.028 291.048L254.62 290.646C254.801 291.065 254.891 293.238 254.85 295.593L254.809 297.857 260.961 297.963C264.217 298.021 264.956 299.661 264.906 302.499 264.783 309.677 259.05 314.459 253.989 315.492L254.628 312.244Z" fill="#231F20" transform="matrix(1.00013 0 0 1 -315 658)"/><path d="M269.131 307.864C270.476 305.846 271.206 304.296 271.222 303.016 271.239 301.966 270.64 301.605 269.18 301.162 268.417 300.924 267.785 300.719 267.244 300.49L267.835 297.693C268.278 297.857 268.917 298.062 269.705 298.267 272.724 298.989 273.757 299.965 273.716 302.327 273.683 304.337 272.682 306.551 271.083 308.856L269.131 307.864Z" fill="#231F20" transform="matrix(1.00013 0 0 1 -315 658)"/><path d="M282.28 312.785C281.287 309.291 278.096 301.802 275.857 298.382L279.245 298.152C280.943 301.277 283.543 307.765 284.585 312.096 286.963 311.145 288.243 309.094 288.309 305.173 288.341 303.352 287.907 300.67 287.086 298.578L290.253 298.316C290.614 299.407 291.024 301.745 290.975 304.394 290.86 309.053 289.654 312.728 284.38 314.967 281.935 316.009 278.129 316.739 275.184 317.043L275.783 313.926C277.924 313.729 280.615 313.327 282.28 312.785Z" fill="#231F20" transform="matrix(1.00013 0 0 1 -315 658)"/><path d="M302.885 306.15C302.942 302.991 302.614 301.581 299.612 301.531L296.454 301.474C294.576 301.441 293.362 301.359 292.919 301.22L293.509 298.39C294.149 298.529 295.773 298.554 297.939 298.595L299.915 298.628C304.575 298.71 305.444 299.842 305.354 305.296L305.165 316.075 302.713 316.034 302.885 306.15Z" fill="#231F20" transform="matrix(1.00013 0 0 1 -315 658)"/><path d="M332.497 305.994 332.365 313.68C332.365 313.868 331.98 315.648 331.775 316.542L317.42 316.296 317.617 304.878C317.641 303.41 317.756 302.425 317.896 301.818 317.034 301.802 315.952 301.72 315.599 301.589L316.19 298.759C317.018 298.931 318.831 298.964 320.586 298.997L327.034 299.112C331.717 299.185 332.587 300.539 332.497 305.994ZM326.853 302.007 320.061 301.892 319.864 313.442 329.946 313.614 330.06 306.724C330.11 303.557 329.79 302.056 326.853 302.007Z" fill="#231F20" transform="matrix(1.00013 0 0 1 -315 658)"/><path d="M336.811 309.037C338.156 307.019 338.887 305.469 338.903 304.189 338.919 303.139 338.321 302.778 336.86 302.335 336.098 302.097 335.466 301.892 334.925 301.663L335.515 298.866C335.958 299.03 336.598 299.235 337.385 299.44 340.404 300.162 341.438 301.138 341.397 303.5 341.364 305.51 340.371 307.724 338.763 310.029L336.811 309.037Z" fill="#231F20" transform="matrix(1.00013 0 0 1 -315 658)"/><path d="M352.257 307.011C352.314 303.853 351.986 302.442 348.984 302.393L345.826 302.335C343.948 302.302 342.734 302.22 342.291 302.081L342.881 299.251C343.521 299.39 345.145 299.415 347.311 299.456L349.288 299.489C353.947 299.571 354.816 300.703 354.726 306.158L354.537 316.936 352.076 316.895 352.257 307.011Z" fill="#231F20" transform="matrix(1.00013 0 0 1 -315 658)"/><path d="M360.353 307.24C360.853 304.058 359.598 302.795 357.597 302.278L358.22 299.325C360.763 299.784 362.264 301.433 362.51 303.902 363.281 301.966 365.234 299.481 368.777 299.546 373.756 299.628 374.888 304.214 374.782 310.374L374.708 314.459C374.699 314.746 374.314 316.846 374.216 317.289L367.932 317.182C366.661 317.158 364.996 317.166 364.323 317.215L364.914 314.385C365.586 314.27 367.087 314.295 368.843 314.328L372.189 314.385C372.247 313.048 372.263 311.736 372.288 310.464 372.354 306.445 371.911 302.516 368.178 302.45 364.635 302.393 363.331 305.879 362.814 308.036 362.264 310.169 361.526 314.016 360.903 317.067L358.417 317.026C359.123 313.729 359.959 309.595 360.353 307.24Z" fill="#231F20" transform="matrix(1.00013 0 0 1 -315 658)"/><path d="M381.951 307.429C382 304.689 381.696 303.689 379.219 303.041 378.112 302.737 377.505 302.598 377.062 302.401L377.652 299.604C378.063 299.768 378.702 299.94 379.843 300.153 383.403 300.982 384.526 302.179 384.444 307.027L384.264 317.461 381.778 317.42 381.951 307.429Z" fill="#231F20" transform="matrix(1.00013 0 0 1 -315 658)"/><path d="M389.579 307.495C389.612 305.354 389.743 303.697 389.916 303.065 389.341 303.024 387.816 302.901 387.586 302.868L388.177 300.006C388.841 300.178 390.44 300.203 392.606 300.244L398.381 300.342C403.04 300.424 403.909 301.876 403.811 307.167L403.63 317.789 401.145 317.748 401.309 308.053C401.366 304.542 401.071 303.295 398.044 303.238L392.114 303.139 391.868 317.592 389.407 317.551 389.579 307.495Z" fill="#231F20" transform="matrix(1.00013 0 0 1 -315 658)"/><path d="M225.386 348.959 221.03 348.959 221.03 347.384 231.644 347.384 231.644 348.959 227.264 348.959 227.264 361.715 225.394 361.715 225.394 348.959Z" fill="#231F20" transform="matrix(1.00013 0 0 1 -315 658)"/><path d="M244.908 354.529C244.908 359.295 241.865 361.953 238.256 361.953 234.384 361.953 231.808 358.909 231.808 354.636 231.808 350.231 234.548 347.147 238.51 347.147 242.587 347.147 244.908 350.378 244.908 354.529ZM233.785 354.57C233.785 357.827 235.442 360.443 238.354 360.443 241.373 360.443 242.948 357.703 242.948 354.57 242.948 351.633 241.52 348.656 238.379 348.656 235.401 348.656 233.785 351.338 233.785 354.57Z" fill="#231F20" transform="matrix(1.00013 0 0 1 -315 658)"/><path d="M254.579 361.715 252.75 358.548C251.987 357.334 251.536 356.547 251.093 355.718L251.052 355.718C250.65 356.572 250.223 357.31 249.502 358.565L247.779 361.715 245.655 361.715 250.035 354.463 245.827 347.384 247.951 347.384 249.863 350.748C250.396 351.683 250.798 352.405 251.2 353.192L251.241 353.192C251.643 352.323 252.003 351.683 252.537 350.748L254.489 347.384 256.613 347.384 252.258 354.357 256.72 361.715 254.579 361.715Z" fill="#231F20" transform="matrix(1.00013 0 0 1 -315 658)"/><path d="M260.723 347.384 260.723 361.715 258.853 361.715 258.853 347.384 260.723 347.384Z" fill="#231F20" transform="matrix(1.00013 0 0 1 -315 658)"/><path d="M273.979 361.272C273.298 361.592 271.936 361.953 270.172 361.953 266.153 361.953 263.11 359.377 263.11 354.677 263.11 350.19 266.153 347.171 270.599 347.171 272.363 347.171 273.511 347.532 274.003 347.786L273.56 349.296C272.855 348.951 271.862 348.697 270.665 348.697 267.301 348.697 265.07 350.846 265.07 354.611 265.07 358.122 267.088 360.378 270.574 360.378 271.698 360.378 272.847 360.14 273.593 359.779L273.979 361.272Z" fill="#231F20" transform="matrix(1.00013 0 0 1 -315 658)"/><path d="M280.565 359.459C281.394 359.967 282.608 360.394 283.879 360.394 285.774 360.394 286.881 359.393 286.881 357.95 286.881 356.613 286.118 355.841 284.158 355.103 281.837 354.291 280.393 353.044 280.393 351.043 280.393 348.828 282.247 347.171 285.028 347.171 286.471 347.171 287.554 347.516 288.194 347.852L287.685 349.361C287.218 349.107 286.258 348.681 284.962 348.681 283.01 348.681 282.263 349.854 282.263 350.83 282.263 352.167 283.133 352.831 285.11 353.594 287.538 354.554 288.768 355.702 288.768 357.802 288.768 360.017 287.127 361.953 283.748 361.953 282.345 361.953 280.836 361.526 280.073 361.017L280.565 359.459Z" fill="#231F20" transform="matrix(1.00013 0 0 1 -315 658)"/><path d="M293.156 347.384 293.156 355.915C293.156 359.082 294.559 360.443 296.495 360.443 298.603 360.443 299.981 359.041 299.981 355.915L299.981 347.384 301.835 347.384 301.835 355.759C301.835 360.164 299.538 361.944 296.438 361.944 293.501 361.944 291.294 360.287 291.294 355.841L291.294 347.384 293.156 347.384Z" fill="#231F20" transform="matrix(1.00013 0 0 1 -315 658)"/><path d="M305.042 347.573C305.871 347.401 307.167 347.278 308.446 347.278 310.3 347.278 311.489 347.598 312.359 348.32 313.122 348.869 313.573 349.722 313.573 350.854 313.573 352.232 312.638 353.471 311.145 354.004L311.145 354.045C312.507 354.381 314.098 355.489 314.098 357.662 314.098 358.876 313.63 359.812 312.868 360.509 311.891 361.419 310.275 361.846 307.938 361.846 306.642 361.846 305.682 361.764 305.042 361.674L305.042 347.573ZM306.921 353.463 308.602 353.463C310.538 353.463 311.711 352.421 311.711 351.035 311.711 349.353 310.431 348.697 308.561 348.697 307.708 348.697 307.224 348.763 306.921 348.828L306.921 353.463ZM306.921 360.312C307.306 360.378 307.79 360.394 308.471 360.394 310.382 360.394 312.17 359.689 312.17 357.63 312.17 355.653 310.472 354.841 308.446 354.841L306.912 354.841 306.912 360.312Z" fill="#231F20" transform="matrix(1.00013 0 0 1 -315 658)"/><path d="M316.337 359.459C317.166 359.967 318.38 360.394 319.651 360.394 321.546 360.394 322.653 359.393 322.653 357.95 322.653 356.613 321.891 355.841 319.93 355.103 317.609 354.291 316.165 353.044 316.165 351.043 316.165 348.828 318.019 347.171 320.8 347.171 322.243 347.171 323.326 347.516 323.966 347.852L323.457 349.361C322.99 349.107 322.03 348.681 320.734 348.681 318.782 348.681 318.035 349.854 318.035 350.83 318.035 352.167 318.905 352.831 320.882 353.594 323.31 354.554 324.54 355.702 324.54 357.802 324.54 360.017 322.899 361.953 319.52 361.953 318.117 361.953 316.608 361.526 315.837 361.017L316.337 359.459Z" fill="#231F20" transform="matrix(1.00013 0 0 1 -315 658)"/><path d="M329.798 348.959 325.442 348.959 325.442 347.384 336.057 347.384 336.057 348.959 331.676 348.959 331.676 361.715 329.806 361.715 329.806 348.959Z" fill="#231F20" transform="matrix(1.00013 0 0 1 -315 658)"/><path d="M338.37 357.203 336.901 361.715 334.966 361.715 339.854 347.384 342.069 347.384 346.958 361.715 344.981 361.715 343.447 357.203 338.37 357.203ZM343.07 355.759 341.667 351.633C341.347 350.698 341.134 349.845 340.921 349.017L340.855 349.017C340.666 349.87 340.429 350.739 340.15 351.609L338.747 355.759 343.07 355.759Z" fill="#231F20" transform="matrix(1.00013 0 0 1 -315 658)"/><path d="M349.041 361.715 349.041 347.384 351.1 347.384 355.669 354.611C356.711 356.309 357.564 357.827 358.245 359.287L358.286 359.262C358.114 357.351 358.073 355.604 358.073 353.389L358.073 347.368 359.82 347.368 359.82 361.698 357.95 361.698 353.397 354.422C352.396 352.831 351.445 351.191 350.715 349.64L350.649 349.665C350.756 351.469 350.797 353.192 350.797 355.579L350.797 361.706 349.041 361.706Z" fill="#231F20" transform="matrix(1.00013 0 0 1 -315 658)"/><path d="M373.075 361.272C372.395 361.592 371.033 361.953 369.269 361.953 365.25 361.953 362.207 359.377 362.207 354.677 362.207 350.19 365.25 347.171 369.696 347.171 371.459 347.171 372.608 347.532 373.1 347.786L372.657 349.296C371.952 348.951 370.959 348.697 369.761 348.697 366.398 348.697 364.167 350.846 364.167 354.611 364.167 358.122 366.185 360.378 369.671 360.378 370.795 360.378 371.943 360.14 372.69 359.779L373.075 361.272Z" fill="#231F20" transform="matrix(1.00013 0 0 1 -315 658)"/><path d="M382.796 354.997 377.242 354.997 377.242 360.189 383.452 360.189 383.452 361.723 375.372 361.723 375.372 347.384 383.132 347.384 383.132 348.918 377.242 348.918 377.242 353.471 382.796 353.471 382.796 354.997Z" fill="#231F20" transform="matrix(1.00013 0 0 1 -315 658)"/><path d="M385.576 359.459C386.405 359.967 387.619 360.394 388.89 360.394 390.785 360.394 391.892 359.393 391.892 357.95 391.892 356.613 391.13 355.841 389.169 355.103 386.848 354.291 385.404 353.044 385.404 351.043 385.404 348.828 387.258 347.171 390.039 347.171 391.482 347.171 392.565 347.516 393.205 347.852L392.696 349.361C392.229 349.107 391.269 348.681 389.973 348.681 388.021 348.681 387.274 349.854 387.274 350.83 387.274 352.167 388.144 352.831 390.121 353.594 392.549 354.554 393.779 355.702 393.779 357.802 393.779 360.017 392.138 361.953 388.759 361.953 387.356 361.953 385.847 361.526 385.076 361.017L385.576 359.459Z" fill="#231F20" transform="matrix(1.00013 0 0 1 -315 658)"/></g></g></g><g><g><g><path d="M302.663 533.176 70.2151 305.354 305.961 73.8243 541.707 305.354Z" stroke="#323031" stroke-width="0.82027" stroke-miterlimit="10" stroke-dasharray="4.92162 4.92162" fill="#FFFFFF" transform="matrix(1.00013 0 0 1 -789 658)"/><path d="M303.139 499.651 104.625 305.083 305.961 107.349 507.296 305.083Z" stroke="#3B3A3C" stroke-width="0.82027" stroke-miterlimit="10" fill="none" transform="matrix(1.00013 0 0 1 -789 658)"/><path d="M301.638 224.336C300.933 224.688 300.153 225.017 299.431 225.451 298.505 226.017 297.98 225.738 297.34 224.91 293.706 220.144 288.989 216.912 283.248 215.182 267.589 210.457 250.995 220.923 248.616 236.993 247.984 241.291 248.361 245.474 249.657 249.608 249.805 250.084 249.616 250.658 249.575 251.191 249.297 251.216 249.009 251.249 248.731 251.273 248.001 248.657 247.033 246.073 246.565 243.407 243.317 224.836 252.775 207.824 270.279 200.712 271.657 200.154 271.362 199.441 271.231 198.374 269.869 187.424 272.527 177.548 279.491 168.951 285.421 161.634 293.148 157.221 302.376 155.417 303.041 155.285 303.73 155.285 304.411 155.22 304.96 156.59 303.918 156.565 303.213 156.721 297.799 157.91 293.115 160.461 289.375 164.522 282.001 172.544 279.811 181.944 283.338 192.206 286.857 202.426 294.42 208.324 305.026 210.301 305.748 210.432 306.502 210.383 307.487 210.424 307.487 211.531 307.528 212.581 307.454 213.615 307.437 213.885 307.101 214.23 306.83 214.369 302.13 216.748 300.892 219.061 301.638 224.336Z" transform="matrix(1.00013 0 0 1 -789 658)"/><path d="M253.554 259.246C254.349 258.18 254.809 258.853 255.326 259.427 259.886 264.439 265.579 267.351 272.248 268.261 284.634 269.951 297.036 262.298 301.244 250.412 303.648 243.637 303.295 236.927 300.547 230.316 300.383 229.922 300.211 229.536 300.047 229.143 300.03 229.102 300.055 229.036 300.079 228.757 300.908 228.355 301.81 227.814 302.795 227.477 303.197 227.338 303.828 227.518 304.214 227.773 307.249 229.791 310.259 229.799 313.352 227.896 313.753 227.65 314.451 227.584 314.894 227.748 315.878 228.109 316.78 228.675 317.518 229.052 316.788 231.956 315.935 234.638 315.46 237.394 313.212 250.502 321.841 263.922 334.834 267.301 345.613 270.099 354.931 267.375 362.609 259.222 362.953 258.861 363.536 258.721 364.003 258.475 364.118 258.639 364.233 258.803 364.356 258.968 364.077 259.386 363.831 259.845 363.511 260.231 354.857 270.41 343.792 275.045 330.536 274.126 323.039 273.609 316.231 270.911 310.374 266.104 309.431 265.333 308.848 265.226 307.831 266.063 291.647 279.269 267.474 276.685 254.349 260.395 254.054 260.034 253.816 259.632 253.554 259.246Z" transform="matrix(1.00013 0 0 1 -789 658)"/><path d="M369.474 251.019C367.965 250.691 368.605 249.838 368.802 249.133 371.287 240.208 369.967 231.915 364.389 224.475 353.742 210.252 332.316 210.129 321.398 224.147 320.914 224.77 320.43 225.402 319.864 226.149 318.675 225.591 317.543 225.058 316.378 224.508 316.936 222.113 317.125 219.791 315.689 217.806 314.877 216.674 313.819 215.452 312.597 214.952 311.005 214.296 310.71 213.369 310.882 211.933 310.932 211.515 310.932 211.097 310.956 210.621 312.909 210.235 314.836 209.948 316.723 209.456 327.075 206.741 334.949 197.226 336.262 186.562 337.984 172.642 328.305 159.452 314.935 156.737 314.73 156.696 314.475 156.68 314.328 156.557 314.049 156.311 313.844 155.983 313.598 155.696 313.942 155.564 314.303 155.277 314.631 155.31 318.536 155.704 322.251 156.836 325.729 158.599 338.206 164.94 345.358 175.136 347.097 188.982 347.499 192.157 347.065 195.462 346.827 198.686 346.736 199.842 347.114 200.228 348.065 200.63 359.869 205.593 367.588 214.23 371.033 226.559 373.174 234.204 372.796 241.824 370.196 249.321 370.008 249.863 369.745 250.379 369.474 251.019Z" transform="matrix(1.00013 0 0 1 -789 658)"/><path d="M330.733 194.724C329.273 196.627 327.846 198.464 326.435 200.326 325.902 201.032 325.418 200.991 324.696 200.507 314.352 193.584 303.705 193.592 293.378 200.458 293.017 200.696 292.131 200.761 291.934 200.531 290.294 198.604 288.76 196.586 287.201 194.609 298.931 184.594 318.052 183.97 330.733 194.724Z" transform="matrix(1.00013 0 0 1 -789 658)"/><path d="M335.31 222.137C335.31 221.604 335.327 221.071 335.31 220.538 335.236 218.003 335.22 217.938 337.73 217.519 339.297 217.257 340.904 217.15 342.496 217.142 342.889 217.142 343.595 217.765 343.636 218.167 344.76 227.879 342.02 236.476 335.917 244.03 332.513 248.247 328.248 251.372 323.359 253.701 322.235 254.235 321.571 254.046 321.095 252.947 320.381 251.29 319.643 249.649 318.946 247.984 318.495 246.91 318.855 246.36 319.971 245.835 327.624 242.185 332.644 236.271 334.687 227.994 335.154 226.099 335.22 224.106 335.474 222.162 335.425 222.154 335.368 222.146 335.31 222.137Z" transform="matrix(1.00013 0 0 1 -789 658)"/><path d="M282.485 221.612C282.895 232.727 287.898 240.938 297.996 245.868 299.013 246.368 299.39 246.828 298.923 247.91 298.209 249.559 297.561 251.249 296.897 252.922 296.446 254.046 295.789 254.218 294.666 253.685 286.775 249.928 280.877 244.203 277.153 236.262 274.586 230.783 273.7 225.025 274.061 219.029 274.143 217.634 274.569 216.822 276.152 217.085 277.038 217.232 277.957 217.208 278.843 217.363 282.534 217.979 282.534 217.995 282.485 221.612Z" transform="matrix(1.00013 0 0 1 -789 658)"/><text fill="#231F20" font-family="Arial,Arial_MSFontService,sans-serif" font-weight="400" font-size="58.2414" transform="matrix(0.749085 0 0 0.82027 -491.27 1126)">6</text><path d="M264.652 305.592C264.668 304.435 265.456 303.623 266.571 303.639 267.695 303.656 268.45 304.501 268.425 305.657 268.409 306.781 267.654 307.626 266.498 307.61 265.349 307.585 264.627 306.707 264.652 305.592ZM265.53 301.023 265.316 285.651 268.425 285.708 267.712 301.064 265.53 301.023Z" fill="#231F20" transform="matrix(1.00013 0 0 1 -789 658)"/><path d="M271.231 304.583C271.715 304.493 272.166 304.443 273.855 304.468L274.339 304.476C274.364 301.367 274.216 294.928 274.028 292.878L273.929 292.878C273.355 292.869 272.01 292.812 271.501 292.615L272.125 289.81C273.117 290.023 275.193 289.99 277.145 290.023L282.394 290.113C287.103 290.195 287.98 291.327 287.882 296.807L287.693 307.626 285.2 307.585 285.372 297.66C285.429 294.493 285.101 293.074 282.124 293.025L276.489 292.927C276.612 294.977 276.841 302.319 276.767 304.558L276.267 307.429 273.741 307.388C272.461 307.363 271.304 307.38 270.566 307.462L271.231 304.583Z" fill="#231F20" transform="matrix(1.00013 0 0 1 -789 658)"/><path d="M295.207 297.725C295.256 294.969 294.953 293.977 292.467 293.32 291.352 293.009 290.745 292.878 290.302 292.672L290.892 289.867C291.303 290.031 291.942 290.203 293.091 290.417 296.667 291.245 297.799 292.451 297.709 297.315L297.528 307.782 295.035 307.741 295.207 297.725Z" fill="#231F20" transform="matrix(1.00013 0 0 1 -789 658)"/><path d="M310.792 298.094C310.85 294.928 310.522 293.509 307.511 293.46L304.345 293.402C302.458 293.37 301.244 293.288 300.793 293.148L301.384 290.31C302.024 290.45 303.656 290.474 305.83 290.515L307.815 290.548C312.49 290.63 313.368 291.762 313.269 297.241L313.081 308.061 310.612 308.02 310.792 298.094Z" fill="#231F20" transform="matrix(1.00013 0 0 1 -789 658)"/><path d="M317.6 300.514C318.946 298.488 319.676 296.93 319.7 295.65 319.717 294.592 319.118 294.231 317.65 293.788 316.887 293.55 316.247 293.345 315.706 293.115L316.296 290.31C316.739 290.474 317.379 290.679 318.175 290.884 321.201 291.606 322.243 292.59 322.202 294.953 322.169 296.971 321.169 299.194 319.561 301.507L317.6 300.514Z" fill="#231F20" transform="matrix(1.00013 0 0 1 -789 658)"/><path d="M337.451 298.939C337.517 295.388 337.213 293.969 334.211 293.919L328.773 293.829C326.886 293.796 325.541 293.706 325.09 293.575L325.68 290.737C326.32 290.876 327.919 290.901 330.093 290.942L334.482 291.016C339.026 291.098 340.027 292.426 339.936 297.676L339.748 308.528 337.279 308.487 337.451 298.939ZM325.631 299.12 328.125 299.161 327.969 308.315 325.475 308.274 325.631 299.12Z" fill="#231F20" transform="matrix(1.00013 0 0 1 -789 658)"/><path d="M345.399 298.373C345.498 296.552 345.801 295.371 346.622 294.551 345.375 294.338 343.365 293.919 342.635 293.616L343.226 290.778C344.62 291.409 350.083 292.238 352.191 292.402L351.658 295.273C350.986 295.232 349.804 295.018 349.361 294.977 348.467 294.928 348.041 295.404 347.909 297.676 347.852 299.341 347.975 305.108 348.139 308.668L345.613 308.627C345.449 303.205 345.342 299.874 345.399 298.373Z" fill="#231F20" transform="matrix(1.00013 0 0 1 -789 658)"/><path d="M222.908 334.326 222.777 342.045C222.777 342.233 222.392 344.021 222.178 344.915L207.774 344.669 207.971 333.21C207.996 331.742 208.111 330.749 208.25 330.142 207.389 330.126 206.298 330.044 205.945 329.913L206.536 327.075C207.364 327.247 209.194 327.28 210.949 327.312L217.413 327.427C222.129 327.485 222.999 328.846 222.908 334.326ZM217.24 330.315 210.424 330.2 210.227 341.79 220.341 341.963 220.464 335.048C220.513 331.881 220.185 330.364 217.24 330.315Z" fill="#231F20" transform="matrix(1.00013 0 0 1 -789 658)"/><path d="M228.035 337.385C229.38 335.359 230.119 333.801 230.135 332.521 230.151 331.463 229.553 331.102 228.084 330.659 227.322 330.421 226.682 330.216 226.14 329.987L226.731 327.181C227.174 327.345 227.814 327.55 228.609 327.755 231.636 328.477 232.678 329.462 232.637 331.824 232.604 333.842 231.603 336.065 229.996 338.378L228.035 337.385Z" fill="#231F20" transform="matrix(1.00013 0 0 1 -789 658)"/><path d="M241.02 342.028C244.884 340.97 248.124 338.435 248.214 333.637 248.247 331.586 247.525 330.84 245.089 330.799L240.7 330.725C238.526 330.684 236.476 330.651 235.967 330.421L236.558 327.616C237.452 327.788 239.183 327.788 241.258 327.829L245.737 327.903C249.838 327.977 250.773 329.396 250.707 332.981 250.584 339.895 245.901 344.202 240.47 345.481L241.02 342.028ZM236.525 335.482 239.019 335.523 238.748 351.338 236.254 351.297 236.525 335.482Z" fill="#231F20" transform="matrix(1.00013 0 0 1 -789 658)"/><path d="M253.308 342.693C254.267 342.545 256.572 342.586 258.369 342.619L263.233 342.701C263.274 340.527 263.356 337.484 263.323 335.852 263.315 332.423 262.954 331.102 259.919 331.053L257.13 331.004C255.276 330.971 254.054 330.889 253.578 330.749L254.202 327.911C254.842 328.051 256.244 328.075 258.295 328.108L260.821 328.149C265.398 328.231 265.874 330.348 265.8 334.736L265.71 340.018C265.702 340.691 265.612 342.192 265.538 342.734L267.876 342.775 267.277 345.678 256.843 345.498C255.465 345.473 253.447 345.44 252.709 345.522L253.308 342.693Z" fill="#231F20" transform="matrix(1.00013 0 0 1 -789 658)"/><path d="M268.048 331.004 268.639 328.166C269.278 328.305 270.911 328.33 273.084 328.371L282.493 328.535 281.87 331.438 280.655 331.414C279.696 331.397 279.327 332.062 279.294 334.367 279.228 338.206 279.31 342.758 279.351 345.892L276.858 345.851C276.858 343.767 276.759 338.386 276.825 334.9 276.866 332.693 277.128 331.955 277.563 331.356L271.608 331.258C269.705 331.225 268.491 331.143 268.048 331.004Z" fill="#231F20" transform="matrix(1.00013 0 0 1 -789 658)"/><path d="M286.914 336.196C287.415 333.005 286.16 331.734 284.15 331.217L284.781 328.248C287.333 328.707 288.842 330.364 289.088 332.833 289.859 330.889 291.819 328.395 295.379 328.461 300.375 328.551 301.507 333.145 301.4 339.321L301.326 343.423C301.318 343.71 300.933 345.818 300.826 346.261L294.518 346.154C293.238 346.129 291.573 346.138 290.901 346.187L291.491 343.349C292.164 343.234 293.673 343.259 295.429 343.291L298.792 343.349C298.849 342.004 298.866 340.691 298.89 339.411 298.956 335.376 298.513 331.43 294.772 331.365 291.221 331.307 289.908 334.802 289.391 336.975 288.842 339.108 288.104 342.971 287.472 346.039L284.978 345.998C285.684 342.709 286.52 338.558 286.914 336.196Z" fill="#231F20" transform="matrix(1.00013 0 0 1 -789 658)"/><path d="M328.477 336.147 328.346 343.857C328.346 344.046 327.961 345.834 327.747 346.728L313.343 346.482 313.54 335.023C313.565 333.555 313.68 332.562 313.819 331.955 312.958 331.939 311.867 331.857 311.522 331.726L312.113 328.887C312.941 329.06 314.771 329.092 316.526 329.125L322.99 329.24C327.698 329.314 328.568 330.676 328.477 336.147ZM322.809 332.144 315.993 332.029 315.796 343.619 325.91 343.792 326.033 336.877C326.082 333.702 325.754 332.193 322.809 332.144Z" fill="#231F20" transform="matrix(1.00013 0 0 1 -789 658)"/><path d="M332.808 339.198C334.154 337.172 334.884 335.614 334.908 334.334 334.925 333.276 334.326 332.915 332.858 332.472 332.095 332.234 331.455 332.029 330.913 331.799L331.504 328.994C331.947 329.166 332.587 329.363 333.382 329.568 336.409 330.29 337.451 331.274 337.41 333.637 337.377 335.655 336.376 337.878 334.769 340.191L332.808 339.198Z" fill="#231F20" transform="matrix(1.00013 0 0 1 -789 658)"/><path d="M348.311 337.164C348.369 333.998 348.041 332.579 345.03 332.529L341.864 332.472C339.977 332.439 338.763 332.357 338.312 332.218L338.903 329.38C339.543 329.519 341.175 329.544 343.349 329.585L345.334 329.617C350.009 329.699 350.887 330.831 350.789 336.311L350.6 347.13 348.131 347.089 348.311 337.164Z" fill="#231F20" transform="matrix(1.00013 0 0 1 -789 658)"/><path d="M356.44 337.402C356.941 334.211 355.686 332.94 353.676 332.423L354.308 329.453C356.859 329.913 358.368 331.57 358.614 334.047 359.385 332.103 361.345 329.609 364.905 329.675 369.901 329.765 371.033 334.359 370.926 340.535L370.852 344.637C370.844 344.924 370.459 347.032 370.352 347.475L364.044 347.368C362.765 347.344 361.099 347.352 360.427 347.401L361.017 344.563C361.69 344.448 363.199 344.473 364.955 344.505L368.318 344.563C368.375 343.218 368.392 341.905 368.416 340.625 368.482 336.59 368.039 332.644 364.298 332.579 360.747 332.521 359.434 336.016 358.918 338.189 358.368 340.322 357.63 344.185 356.998 347.253L354.504 347.212C355.21 343.915 356.047 339.764 356.44 337.402Z" fill="#231F20" transform="matrix(1.00013 0 0 1 -789 658)"/><path d="M378.112 337.582C378.161 334.826 377.858 333.834 375.372 333.177 374.257 332.866 373.65 332.734 373.207 332.529L373.797 329.724C374.207 329.888 374.847 330.06 375.996 330.274 379.564 331.102 380.704 332.308 380.614 337.172L380.433 347.639 377.94 347.598 378.112 337.582Z" fill="#231F20" transform="matrix(1.00013 0 0 1 -789 658)"/><path d="M385.765 337.648C385.806 335.499 385.929 333.842 386.101 333.202 385.527 333.161 383.993 333.038 383.763 333.005L384.354 330.134C385.027 330.306 386.626 330.331 388.8 330.372L394.591 330.471C399.267 330.553 400.136 332.013 400.046 337.32L399.865 347.983 397.372 347.942 397.544 338.214C397.601 334.695 397.306 333.44 394.263 333.382L388.308 333.276 388.053 347.778 385.585 347.737 385.765 337.648Z" fill="#231F20" transform="matrix(1.00013 0 0 1 -789 658)"/><path d="M274.044 365.012C275.004 364.873 276.128 364.766 277.35 364.766 279.573 364.766 281.156 365.283 282.206 366.259 283.272 367.235 283.896 368.646 283.896 370.565 283.896 372.526 283.289 374.109 282.173 375.224 281.033 376.348 279.204 376.947 276.874 376.947 275.775 376.947 274.848 376.898 274.044 376.808L274.044 365.012ZM275.603 375.61C275.996 375.684 276.562 375.7 277.169 375.7 280.475 375.7 282.271 373.855 282.271 370.615 282.288 367.785 280.688 365.988 277.415 365.988 276.612 365.988 276.013 366.078 275.603 366.152L275.603 375.61Z" fill="#231F20" transform="matrix(1.00013 0 0 1 -789 658)"/><path d="M287.595 373.067 286.365 376.84 284.749 376.84 288.842 364.856 290.687 364.856 294.781 376.84 293.124 376.84 291.844 373.067 287.595 373.067ZM291.524 371.853 290.351 368.4C290.08 367.621 289.908 366.907 289.728 366.21L289.678 366.21C289.514 366.923 289.326 367.653 289.088 368.383L287.915 371.853 291.524 371.853Z" fill="#231F20" transform="matrix(1.00013 0 0 1 -789 658)"/><path d="M296.52 376.84 296.52 364.856 298.242 364.856 302.065 370.902C302.934 372.321 303.648 373.584 304.214 374.814L304.246 374.798C304.107 373.198 304.066 371.738 304.066 369.893L304.066 364.856 305.526 364.856 305.526 376.84 303.959 376.84 300.153 370.754C299.317 369.417 298.513 368.047 297.914 366.751L297.857 366.767C297.947 368.277 297.98 369.72 297.98 371.714L297.98 376.832 296.52 376.832Z" fill="#231F20" transform="matrix(1.00013 0 0 1 -789 658)"/><path d="M317.363 376.307C316.665 376.553 315.296 376.963 313.68 376.963 311.867 376.963 310.374 376.504 309.201 375.38 308.167 374.388 307.528 372.78 307.528 370.918 307.544 367.358 309.997 364.733 314.016 364.733 315.402 364.733 316.51 365.053 317.002 365.283L316.624 366.546C315.985 366.259 315.181 366.029 313.975 366.029 311.055 366.029 309.152 367.842 309.152 370.852 309.152 373.896 310.965 375.692 313.778 375.692 314.795 375.692 315.484 375.553 315.845 375.372L315.845 371.796 313.409 371.796 313.409 370.549 317.354 370.549 317.354 376.307Z" fill="#231F20" transform="matrix(1.00013 0 0 1 -789 658)"/><path d="M325.918 371.213 321.275 371.213 321.275 375.553 326.468 375.553 326.468 376.832 319.709 376.832 319.709 364.848 326.197 364.848 326.197 366.128 321.267 366.128 321.267 369.934 325.91 369.934 325.91 371.213Z" fill="#231F20" transform="matrix(1.00013 0 0 1 -789 658)"/><path d="M328.444 365.012C329.248 364.848 330.364 364.766 331.43 364.766 333.087 364.766 334.154 365.07 334.9 365.742 335.491 366.275 335.843 367.096 335.843 368.022 335.843 369.606 334.851 370.656 333.588 371.082L333.588 371.115C334.514 371.451 335.064 372.321 335.351 373.551 335.745 375.241 336.024 376.381 336.278 376.84L334.67 376.84C334.473 376.504 334.211 375.471 333.866 373.978 333.514 372.345 332.874 371.697 331.463 371.648L330.003 371.648 330.003 376.84 328.436 376.84 328.436 365.012ZM330.011 370.467 331.594 370.467C333.251 370.467 334.301 369.556 334.301 368.187 334.301 366.62 333.177 365.964 331.545 365.947 330.782 365.947 330.265 366.021 330.011 366.087L330.011 370.467Z" fill="#231F20" transform="matrix(1.00013 0 0 1 -789 658)"/><path d="M212.22 386.191 212.22 398.176 210.654 398.176 210.654 386.191 212.22 386.191Z" fill="#231F20" transform="matrix(1.00013 0 0 1 -789 658)"/><path d="M214.911 398.184 214.911 386.2 216.633 386.2 220.456 392.245C221.325 393.664 222.039 394.927 222.605 396.158L222.638 396.141C222.498 394.542 222.457 393.082 222.457 391.236L222.457 386.2 223.917 386.2 223.917 398.184 222.351 398.184 218.545 392.097C217.708 390.76 216.904 389.391 216.305 388.095L216.248 388.111C216.338 389.62 216.371 391.064 216.371 393.057L216.371 398.176 214.911 398.176Z" fill="#231F20" transform="matrix(1.00013 0 0 1 -789 658)"/><path d="M226.608 386.191 233.063 386.191 233.063 387.471 228.175 387.471 228.175 391.474 232.711 391.474 232.711 392.754 228.175 392.754 228.175 398.176 226.608 398.176 226.608 386.191Z" fill="#231F20" transform="matrix(1.00013 0 0 1 -789 658)"/><path d="M241.463 392.557 236.82 392.557 236.82 396.896 242.013 396.896 242.013 398.176 235.254 398.176 235.254 386.191 241.742 386.191 241.742 387.471 236.812 387.471 236.812 391.277 241.455 391.277 241.455 392.557Z" fill="#231F20" transform="matrix(1.00013 0 0 1 -789 658)"/><path d="M252.381 397.807C251.815 398.077 250.675 398.372 249.198 398.372 245.835 398.372 243.292 396.223 243.292 392.286 243.292 388.529 245.835 386.011 249.551 386.011 251.027 386.011 251.987 386.315 252.397 386.528L252.02 387.791C251.429 387.504 250.601 387.291 249.6 387.291 246.787 387.291 244.925 389.087 244.925 392.237 244.925 395.173 246.614 397.06 249.534 397.06 250.478 397.06 251.437 396.863 252.061 396.56L252.381 397.807Z" fill="#231F20" transform="matrix(1.00013 0 0 1 -789 658)"/><path d="M257.097 387.512 253.455 387.512 253.455 386.2 262.331 386.2 262.331 387.512 258.664 387.512 258.664 398.184 257.097 398.184 257.097 387.512Z" fill="#231F20" transform="matrix(1.00013 0 0 1 -789 658)"/><path d="M265.202 386.191 265.202 398.176 263.635 398.176 263.635 386.191 265.202 386.191Z" fill="#231F20" transform="matrix(1.00013 0 0 1 -789 658)"/><path d="M278.154 392.171C278.154 396.158 275.611 398.381 272.584 398.381 269.344 398.381 267.195 395.838 267.195 392.261 267.195 388.578 269.492 386.003 272.797 386.003 276.218 385.995 278.154 388.702 278.154 392.171ZM268.852 392.204C268.852 394.927 270.238 397.109 272.674 397.109 275.201 397.109 276.513 394.813 276.513 392.204 276.513 389.751 275.324 387.258 272.691 387.258 270.205 387.258 268.852 389.497 268.852 392.204Z" fill="#231F20" transform="matrix(1.00013 0 0 1 -789 658)"/><path d="M281.714 386.191 281.714 393.328C281.714 395.977 282.887 397.117 284.503 397.117 286.266 397.117 287.423 395.945 287.423 393.328L287.423 386.191 288.973 386.191 288.973 393.197C288.973 396.88 287.054 398.372 284.453 398.372 282.001 398.372 280.147 396.986 280.147 393.27L280.147 386.191 281.714 386.191Z" fill="#231F20" transform="matrix(1.00013 0 0 1 -789 658)"/><path d="M291.458 396.297C292.156 396.724 293.165 397.076 294.231 397.076 295.814 397.076 296.741 396.24 296.741 395.034 296.741 393.91 296.101 393.27 294.461 392.647 292.525 391.974 291.311 390.924 291.311 389.251 291.311 387.405 292.861 386.011 295.191 386.011 296.396 386.011 297.307 386.298 297.84 386.577L297.414 387.84C297.02 387.627 296.224 387.274 295.133 387.274 293.501 387.274 292.878 388.25 292.878 389.071 292.878 390.194 293.608 390.744 295.265 391.384 297.291 392.188 298.324 393.147 298.324 394.903 298.324 396.748 296.954 398.372 294.124 398.372 292.951 398.372 291.688 398.02 291.048 397.593L291.458 396.297Z" fill="#231F20" transform="matrix(1.00013 0 0 1 -789 658)"/><path d="M304.017 396.297C304.714 396.724 305.723 397.076 306.789 397.076 308.372 397.076 309.299 396.24 309.299 395.034 309.299 393.91 308.66 393.27 307.019 392.647 305.083 391.974 303.869 390.924 303.869 389.251 303.869 387.405 305.419 386.011 307.749 386.011 308.955 386.011 309.865 386.298 310.398 386.577L309.972 387.84C309.578 387.627 308.783 387.274 307.692 387.274 306.059 387.274 305.436 388.25 305.436 389.071 305.436 390.194 306.166 390.744 307.823 391.384 309.849 392.188 310.882 393.147 310.882 394.903 310.882 396.748 309.513 398.372 306.683 398.372 305.51 398.372 304.246 398.02 303.607 397.593L304.017 396.297Z" fill="#231F20" transform="matrix(1.00013 0 0 1 -789 658)"/><path d="M314.541 386.191 314.541 393.328C314.541 395.977 315.714 397.117 317.33 397.117 319.093 397.117 320.25 395.945 320.25 393.328L320.25 386.191 321.8 386.191 321.8 393.197C321.8 396.88 319.881 398.372 317.281 398.372 314.828 398.372 312.974 396.986 312.974 393.27L312.974 386.191 314.541 386.191Z" fill="#231F20" transform="matrix(1.00013 0 0 1 -789 658)"/><path d="M324.483 386.356C325.18 386.216 326.263 386.109 327.329 386.109 328.879 386.109 329.872 386.38 330.602 386.979 331.242 387.438 331.619 388.152 331.619 389.095 331.619 390.252 330.84 391.285 329.593 391.728L329.593 391.761C330.733 392.048 332.062 392.967 332.062 394.788 332.062 395.805 331.668 396.584 331.028 397.175 330.208 397.938 328.855 398.299 326.902 398.299 325.82 398.299 325.016 398.225 324.483 398.159L324.483 386.356ZM326.049 391.277 327.452 391.277C329.068 391.277 330.052 390.408 330.052 389.251 330.052 387.848 328.986 387.299 327.419 387.299 326.705 387.299 326.295 387.348 326.049 387.405L326.049 391.277ZM326.049 397.011C326.369 397.06 326.779 397.085 327.345 397.085 328.945 397.085 330.438 396.502 330.438 394.772 330.438 393.115 329.01 392.442 327.329 392.442L326.049 392.442 326.049 397.011Z" fill="#231F20" transform="matrix(1.00013 0 0 1 -789 658)"/><path d="M333.924 396.297C334.621 396.724 335.63 397.076 336.696 397.076 338.279 397.076 339.206 396.24 339.206 395.034 339.206 393.91 338.567 393.27 336.926 392.647 334.99 391.974 333.776 390.924 333.776 389.251 333.776 387.405 335.327 386.011 337.656 386.011 338.862 386.011 339.772 386.298 340.306 386.577L339.879 387.84C339.485 387.627 338.69 387.274 337.599 387.274 335.958 387.274 335.343 388.25 335.343 389.071 335.343 390.194 336.073 390.744 337.73 391.384 339.756 392.188 340.79 393.147 340.79 394.903 340.79 396.748 339.42 398.372 336.59 398.372 335.417 398.372 334.154 398.02 333.514 397.593L333.924 396.297Z" fill="#231F20" transform="matrix(1.00013 0 0 1 -789 658)"/><path d="M345.186 387.512 341.544 387.512 341.544 386.2 350.419 386.2 350.419 387.512 346.753 387.512 346.753 398.184 345.186 398.184 345.186 387.512Z" fill="#231F20" transform="matrix(1.00013 0 0 1 -789 658)"/><path d="M352.355 394.411 351.125 398.184 349.509 398.184 353.602 386.2 355.448 386.2 359.541 398.184 357.884 398.184 356.604 394.411 352.355 394.411ZM356.284 393.197 355.111 389.743C354.841 388.964 354.668 388.25 354.488 387.553L354.439 387.553C354.275 388.267 354.086 388.997 353.848 389.727L352.675 393.197 356.284 393.197Z" fill="#231F20" transform="matrix(1.00013 0 0 1 -789 658)"/><path d="M361.28 398.184 361.28 386.2 363.002 386.2 366.825 392.245C367.694 393.664 368.408 394.927 368.974 396.158L369.007 396.141C368.867 394.542 368.826 393.082 368.826 391.236L368.826 386.2 370.286 386.2 370.286 398.184 368.72 398.184 364.914 392.097C364.077 390.76 363.273 389.391 362.674 388.095L362.617 388.111C362.707 389.62 362.74 391.064 362.74 393.057L362.74 398.176 361.28 398.176Z" fill="#231F20" transform="matrix(1.00013 0 0 1 -789 658)"/><path d="M381.376 397.807C380.811 398.077 379.67 398.372 378.194 398.372 374.831 398.372 372.288 396.223 372.288 392.286 372.288 388.529 374.831 386.011 378.547 386.011 380.023 386.011 380.983 386.315 381.393 386.528L381.016 387.791C380.433 387.504 379.596 387.291 378.596 387.291 375.782 387.291 373.92 389.087 373.92 392.237 373.92 395.173 375.61 397.06 378.53 397.06 379.473 397.06 380.433 396.863 381.057 396.56L381.376 397.807Z" fill="#231F20" transform="matrix(1.00013 0 0 1 -789 658)"/><path d="M389.505 392.557 384.863 392.557 384.863 396.896 390.055 396.896 390.055 398.176 383.296 398.176 383.296 386.191 389.784 386.191 389.784 387.471 384.854 387.471 384.854 391.277 389.497 391.277 389.497 392.557Z" fill="#231F20" transform="matrix(1.00013 0 0 1 -789 658)"/><path d="M391.835 396.297C392.532 396.724 393.541 397.076 394.607 397.076 396.191 397.076 397.117 396.24 397.117 395.034 397.117 393.91 396.478 393.27 394.837 392.647 392.901 391.974 391.687 390.924 391.687 389.251 391.687 387.405 393.238 386.011 395.567 386.011 396.773 386.011 397.683 386.298 398.217 386.577L397.79 387.84C397.396 387.627 396.601 387.274 395.51 387.274 393.877 387.274 393.254 388.25 393.254 389.071 393.254 390.194 393.984 390.744 395.641 391.384 397.667 392.188 398.701 393.147 398.701 394.903 398.701 396.748 397.331 398.372 394.501 398.372 393.328 398.372 392.065 398.02 391.425 397.593L391.835 396.297Z" fill="#231F20" transform="matrix(1.00013 0 0 1 -789 658)"/></g></g></g></g></svg>