<svg width="178" height="177" xmlns="http://www.w3.org/2000/svg" xmlns:xlink="http://www.w3.org/1999/xlink" xml:space="preserve" overflow="hidden"><g transform="translate(72 -327)"><path d="M88.0408 155.094 20.4247 88.8234 89 21.4745 157.575 88.8234Z" stroke="#323031" stroke-width="0.238606" stroke-miterlimit="10" stroke-dasharray="1.43164 1.43164" fill="#FFFFFF" transform="matrix(1 0 0 1.00244 -72 327)"/><path d="M88.7662 145.342 31.0188 88.7447 89.5846 31.2264 148.153 88.7447Z" stroke="#3B3A3C" stroke-width="0.238606" stroke-miterlimit="10" fill="none" transform="matrix(1 0 0 1.00244 -72 327)"/><path d="M139.929 101.065C139.683 100.999 139.423 101.134 139.376 101.384 139.277 101.655 139.092 101.753 138.799 101.674L138.082 101.482 130.439 99.2932 129.316 98.9921C129.196 98.96 129.023 98.9237 128.904 98.9173 128.799 98.9109 128.699 98.9237 128.596 98.9344 127.887 99.0156 127.302 99.5323 127.106 100.271 126.85 101.234 127.388 102.216 128.351 102.473L137.187 104.948 137.872 105.131C138.203 105.225 138.272 105.334 138.24 105.618 138.176 105.864 138.295 106.098 138.56 106.171 138.825 106.244 139.047 106.096 139.113 105.851L140.251 101.616C140.292 101.364 140.174 101.13 139.929 101.065Z" fill="#221F1F" transform="matrix(1 0 0 1.00244 -109.01 281.302)"/><path d="M128.671 99.4405C128.178 99.496 127.755 99.859 127.608 100.408 127.42 101.117 127.783 101.804 128.479 101.988L128.962 102.118 139.282 102.838 139.412 102.387 129.188 99.5046C129.096 99.4811 128.908 99.4426 128.865 99.4405 128.821 99.4384 128.778 99.4277 128.671 99.4405Z" fill="#FFFFFF" transform="matrix(1 0 0 1.00244 -109.01 281.302)"/><path d="M82.2019 277.303C77.8223 277.303 78.7726 274.06 74.771 274.06L74.2905 274.06M89.4599 280.156 86.2142 280.156C83.7821 280.156 83.0795 281.452 80.5065 281.452L68.8027 281.452C68.8027 281.452 67.3613 281.606 67.3613 280.662 67.3613 279.718 68.239 279.872 68.239 279.872L74.0663 279.872 67.1307 279.872C67.1307 279.872 65.9371 279.883 65.9371 278.905 65.9371 277.929 66.8894 277.935 66.8894 277.935L72.9901 277.935 66.3769 277.935C66.3769 277.935 65.1812 277.908 65.1812 276.966 65.1812 275.99 66.1357 275.999 66.1357 275.999L73.6093 275.997 68.6532 275.994C68.6532 275.994 67.4596 276.003 67.4596 275.025 67.4596 274.051 68.4141 274.058 68.4141 274.058L74.771 274.053 73.3275 274.051C73.3275 274.051 72.0484 273.979 72.0484 272.902 72.0484 271.796 73.3147 271.924 73.3147 271.924L75.5653 271.924 76.3191 272.219 77.0451 273.295 77.8117 272.518 78.4907 273.268 79.4004 272.247C79.4004 272.441 79.7036 272.531 79.7036 272.531 79.7036 272.531 80.4979 271.924 80.6944 271.924L81.4845 271.924C84.1429 271.924 84.6085 274.218 86.8975 274.218L89.351 274.218" stroke="#221F1F" stroke-width="0.0940616" stroke-linecap="round" stroke-linejoin="bevel" stroke-miterlimit="3.2036" fill="#FFFFFF" transform="matrix(1 0 0 1.00244 -46.9745 121.711)"/><path d="M37.4004 276.073 37.4004 279.817 61.8265 279.817 61.8265 276.073 52.6361 276.073C52.3926 276.073 51.5492 277.248 51.2032 277.248 50.8594 277.248 50.8488 276.981 50.6459 276.981 50.4452 276.981 50.4794 277.25 50.2466 277.244 50.016 277.237 49.8025 276.708 49.5121 276.708 49.2195 276.708 49.3434 277.058 49.0764 277.058 48.8095 277.058 48.3611 276.076 47.6073 276.076L37.4004 276.076 37.4004 276.073Z" fill="#221F1F" transform="matrix(1 0 0 1.00244 -46.9745 121.711)"/><path d="M77.8821 264.876C78.2921 265.286 78.7555 266.488 78.7555 267.163 78.7555 267.84 78.2579 268.284 77.8266 268.284 77.3953 268.284 76.8977 267.872 76.8977 267.163 76.8977 266.454 77.7519 266.106 77.8821 264.876Z" fill="#221F1F" transform="matrix(1 0 0 1.00244 -46.9745 121.711)"/><path d="M77.9825 266.247C77.9206 266.349 77.8544 266.473 77.7967 266.556 77.5533 266.904 77.4572 267.045 77.4572 267.173 77.4572 267.62 77.7455 267.731 77.8288 267.731 77.8843 267.731 78.2003 267.579 78.2003 267.173 78.1982 266.985 78.1021 266.599 77.9825 266.247Z" fill="#FFFFFF" transform="matrix(1 0 0 1.00244 -46.9745 121.711)"/><path d="M77.8437 268.598C78.2409 268.997 78.6188 269.971 78.6188 270.626 78.6188 271.284 78.1341 271.715 77.7156 271.715 77.2971 271.715 76.8123 271.314 76.8123 270.626 76.8123 269.941 77.5213 269.435 77.8437 268.598Z" fill="#221F1F" transform="matrix(1 0 0 1.00244 -46.9745 121.711)"/><path d="M77.8672 269.736C77.8074 269.834 77.7433 269.956 77.6878 270.037 77.4508 270.374 77.3568 270.513 77.3568 270.637 77.3568 271.07 77.6387 271.177 77.7177 271.177 77.7732 271.177 78.0786 271.03 78.0786 270.637 78.0765 270.453 77.9825 270.077 77.8672 269.736Z" fill="#FFFFFF" transform="matrix(1 0 0 1.00244 -46.9745 121.711)"/><path d="M69.7294 265.437C70.5558 265.832 71.2818 266.298 71.2049 267.325 71.2049 267.872 72.1402 267.148 72.405 267.874 72.5224 268.179 72.2726 268.768 72.405 269.142 72.5929 269.563 73.0755 269.576 73.4684 269.708 74.2478 270.084 74.2158 270.496 74.361 270.874" stroke="#221F1F" stroke-width="0.111166" stroke-miterlimit="3.2036" fill="none" transform="matrix(1 0 0 1.00244 -46.9745 121.711)"/><path d="M75.5632 270.62C75.5632 270.62 75.3475 269.93 75.3582 269.608 75.3688 269.285 74.7048 269.023 74.3973 268.803 74.0898 268.583 74.4549 268.053 74.2606 267.754 74.0642 267.457 73.4107 267.128 73.368 266.657 73.3253 266.185 73.4107 265.726 73.5752 265.335" stroke="#221F1F" stroke-width="0.111166" stroke-miterlimit="3.2036" fill="none" transform="matrix(1 0 0 1.00244 -46.9745 121.711)"/><path d="M79.1996 270.534C79.2594 270.182 79.7548 269.804 79.8851 269.298 80.0175 268.792 79.8039 268.771 79.8851 268.371 79.9662 267.972 80.1584 268.367 80.5897 267.976 81.0211 267.583 80.7243 267.376 80.8801 267.118 81.0382 266.859 81.5122 266.842 81.6361 266.535 81.7599 266.225 81.3328 265.269 81.3777 264.906 81.4247 264.54 81.619 264.306 81.619 264.306" stroke="#221F1F" stroke-width="0.111166" stroke-miterlimit="3.2036" fill="none" transform="matrix(1 0 0 1.00244 -46.9745 121.711)"/><path d="M82.5457 266.125C83.0625 266.46 83.3742 267.301 83.3187 267.566 83.2632 267.831 83.2675 268.151 82.7699 268.459 82.2724 268.766 82.4496 269.114 82.409 269.488 82.3663 269.862 82.1421 270.005 81.619 270.037 81.0958 270.069 80.8289 270.825 80.8289 270.825" stroke="#221F1F" stroke-width="0.111166" stroke-miterlimit="3.2036" fill="none" transform="matrix(1 0 0 1.00244 -46.9745 121.711)"/><path d="M50.6844 266.163C50.1356 266.479 49.3007 267.611 49.1085 268.322 48.9142 269.035 49.3135 269.646 49.7662 269.77 50.221 269.894 50.8637 269.601 51.0644 268.856 51.2673 268.111 50.4708 267.496 50.6844 266.163Z" fill="#221F1F" transform="matrix(1 0 0 1.00244 -46.9745 121.711)"/><path d="M50.1868 267.577C50.221 267.703 50.2551 267.854 50.2936 267.955 50.4495 268.39 50.5114 268.568 50.4751 268.704 50.347 269.176 50.0117 269.208 49.9242 269.185 49.8665 269.168 49.5782 268.918 49.6957 268.493 49.7469 268.294 49.9605 267.914 50.1868 267.577Z" fill="#FFFFFF" transform="matrix(1 0 0 1.00244 -46.9745 121.711)"/><path d="M50.2872 270.176C49.8409 270.596 49.3946 271.647 49.3733 272.362 49.3498 273.08 49.8644 273.569 50.3213 273.581 50.7783 273.596 51.3185 273.176 51.3442 272.424 51.3677 271.677 50.6139 271.098 50.2872 270.176Z" fill="#221F1F" transform="matrix(1 0 0 1.00244 -46.9745 121.711)"/><path d="M50.2274 271.416C50.2893 271.525 50.3555 271.662 50.4132 271.749 50.6609 272.127 50.757 272.281 50.7527 272.418 50.7377 272.892 50.4281 272.996 50.3406 272.994 50.2808 272.992 49.9519 272.819 49.9669 272.392 49.9711 272.193 50.0865 271.788 50.2274 271.416Z" fill="#FFFFFF" transform="matrix(1 0 0 1.00244 -46.9745 121.711)"/><path d="M56.8341 267.963C56.8341 267.963 56.0355 268.625 55.6213 268.886 55.2091 269.146 55.7558 269.851 55.4526 270.195 55.1493 270.541 54.4575 270.532 54.5557 270.996 54.6539 271.461 55.049 271.927 54.4105 272.305 53.772 272.685 53.3877 273.385 53.7059 273.833 54.0283 274.282 53.9493 274.658 53.9493 274.658" stroke="#221F1F" stroke-width="0.111166" stroke-miterlimit="3.2036" fill="none" transform="matrix(1 0 0 1.00244 -46.9745 121.711)"/><path d="M52.6852 269.469C52.6852 269.469 53.582 270.071 53.5585 270.513 53.535 270.953 52.856 271.002 52.8069 271.314 52.7599 271.626 53.0973 271.527 53.0738 271.871 53.0503 272.215 52.4609 272.454 52.4204 272.817 52.3777 273.18 52.6382 273.739 52.6382 273.739" stroke="#221F1F" stroke-width="0.111166" stroke-miterlimit="3.2036" fill="none" transform="matrix(1 0 0 1.00244 -46.9745 121.711)"/><path d="M47.2016 267.406C47.2016 267.406 47.3361 268.337 47.2251 268.813 47.1141 269.289 46.7062 269.746 46.7148 270.171 46.7233 270.598 47.1675 270.831 47.2251 271.19 47.2828 271.551 47.0201 271.602 47.129 272.136 47.2358 272.67 47.6458 272.531 47.9533 273.058 48.2629 273.586 47.6757 274.021 48.1241 274.004 48.5725 273.987 48.8522 275.217 48.8522 275.217" stroke="#221F1F" stroke-width="0.111166" stroke-miterlimit="3.2036" fill="none" transform="matrix(1 0 0 1.00244 -46.9745 121.711)"/><path d="M47.6372 275.147C46.5226 274.735 46.5354 274.211 46.1361 273.934 45.7325 273.654 45.6087 273.829 45.4058 273.475 45.2051 273.118 45.4699 272.505 45.3353 272.115 45.2008 271.724 44.7033 271.803 44.7033 271.363 44.7033 270.923 45.2136 270.641 45.5275 270.197 45.8457 269.755 45.7944 268.668 45.7944 268.668" stroke="#221F1F" stroke-width="0.111166" stroke-miterlimit="3.2036" fill="none" transform="matrix(1 0 0 1.00244 -46.9745 121.711)"/><path d="M112.169 101.065C112.415 100.999 112.675 101.134 112.722 101.384 112.821 101.655 113.006 101.753 113.299 101.674L114.016 101.482 121.659 99.2932 122.782 98.9921C122.901 98.96 123.074 98.9237 123.194 98.9173 123.299 98.9109 123.399 98.9237 123.501 98.9344 124.21 99.0156 124.795 99.5323 124.992 100.271 125.248 101.234 124.71 102.216 123.747 102.473L114.911 104.948 114.226 105.131C113.895 105.225 113.826 105.334 113.858 105.618 113.922 105.864 113.803 106.098 113.538 106.171 113.273 106.244 113.051 106.096 112.985 105.851L111.847 101.616C111.806 101.364 111.924 101.13 112.169 101.065Z" fill="#221F1F" transform="matrix(1 0 0 1.00244 -109.01 281.302)"/><path d="M123.427 99.4405C123.92 99.496 124.343 99.859 124.49 100.408 124.678 101.117 124.315 101.804 123.619 101.988L123.136 102.118 112.816 102.838 112.686 102.387 122.91 99.5067C123.002 99.4832 123.19 99.4448 123.232 99.4426 123.277 99.4384 123.32 99.4277 123.427 99.4405Z" fill="#FFFFFF" transform="matrix(1 0 0 1.00244 -109.01 281.302)"/><text fill="#231F20" font-family="Arial,Arial_MSFontService,sans-serif" font-weight="400" font-size="58.2414" transform="matrix(0.217871 0 0 0.239189 15.2225 460)">8</text><path d="M63.2807 85.2921 63.2425 87.5373C63.2425 87.5922 63.1303 88.1124 63.0707 88.3725L58.8808 88.3009 58.938 84.9676C58.9452 84.5405 58.9786 84.2517 59.0192 84.0752 58.7686 84.0704 58.4513 84.0465 58.3487 84.0084L58.5205 83.1828C58.7615 83.2329 59.2936 83.2424 59.8042 83.252L61.6844 83.2854C63.0564 83.3045 63.3093 83.7006 63.2807 85.2921ZM61.6343 84.1277 59.6515 84.0943 59.5942 87.4658 62.5362 87.5159 62.572 85.5044C62.5863 84.581 62.4909 84.142 61.6343 84.1277Z" fill="#231F20" transform="matrix(1 0 0 1.00244 -72 327)"/><path d="M64.7386 86.1845C65.1299 85.5951 65.3422 85.1417 65.3494 84.7695 65.3542 84.4617 65.18 84.3567 64.7529 84.2279 64.531 84.1587 64.3449 84.099 64.1874 84.0322L64.3592 83.2162C64.488 83.2639 64.6741 83.3236 64.9056 83.3832 65.786 83.5932 66.0891 83.8795 66.0771 84.5667 66.0676 85.1537 65.7765 85.8003 65.3088 86.4732L64.7386 86.1845Z" fill="#231F20" transform="matrix(1 0 0 1.00244 -72 327)"/><path d="M67.3489 87.5803C68.5944 87.2295 69.5799 86.2775 69.6013 84.9652 69.6109 84.3782 69.3818 84.2637 68.8879 84.2541L66.6713 84.216 66.6951 82.875C66.7047 82.3071 66.688 81.6271 66.5901 81.3932L67.3465 81.2763C67.4014 81.398 67.4276 82.0327 67.4157 82.7223L67.4038 83.3832 69.2005 83.4142C70.1501 83.4309 70.3649 83.9105 70.3506 84.7385 70.3148 86.8335 68.6421 88.2293 67.1652 88.5299L67.3489 87.5803Z" fill="#231F20" transform="matrix(1 0 0 1.00244 -72 327)"/><path d="M71.3432 87.7044C71.5293 87.6805 72.0614 87.6901 72.6102 87.6996L74.3878 87.7306C74.488 87.2677 74.5858 86.5519 74.5954 86.0007 74.6168 84.7528 74.3448 84.3472 73.3284 84.3305L72.4718 84.3162C71.923 84.3066 71.5412 84.2804 71.4028 84.2422L71.5842 83.4166C71.7703 83.4572 72.226 83.4643 72.7486 83.4739L73.5216 83.4882C75.0583 83.5145 75.3446 84.1992 75.3136 85.9411 75.2969 86.9384 75.1203 87.912 74.9604 88.5801L72.4002 88.5347C71.9993 88.5276 71.3957 88.5085 71.1714 88.5419L71.3432 87.7044Z" fill="#231F20" transform="matrix(1 0 0 1.00244 -72 327)"/><path d="M76.3968 87.3632C76.4135 86.4517 76.6426 85.607 77.3155 84.9198 76.9146 84.4379 76.4469 83.9535 76.0795 83.6027L76.1081 83.5574 77.1055 83.5001C77.5708 83.9917 78.2484 84.7862 79.2052 86.015 79.5822 85.7693 79.8208 85.4018 79.8328 84.8053 79.8304 84.4522 79.7445 84.0298 79.5727 83.6266L80.4865 83.5574C80.6011 83.9129 80.6512 84.2494 80.644 84.6598 80.6297 85.4233 80.2288 86.0962 79.5512 86.4756 80.0427 87.0983 80.8158 88.2293 81.0878 88.6827L80.1 88.666C79.7922 88.1577 79.012 86.9886 77.7068 85.4209 77.2892 85.9172 77.1938 86.5758 77.2009 87.1723 77.2009 87.702 77.3226 88.2269 77.4372 88.6206L76.5424 88.6063C76.4469 88.2388 76.3897 87.7831 76.3968 87.3632Z" fill="#231F20" transform="matrix(1 0 0 1.00244 -72 327)"/><path d="M82.2069 85.8432C82.3524 84.9151 81.9874 84.5452 81.4028 84.3949L81.5865 83.5312C82.3286 83.6648 82.7676 84.1468 82.8392 84.8673 83.0635 84.3042 83.6338 83.5765 84.6693 83.5956 86.1224 83.6218 86.4517 84.958 86.4207 86.7547L86.3992 87.9477C86.3968 88.0313 86.2847 88.6445 86.2536 88.7733L84.4188 88.7423C84.0465 88.7352 83.5622 88.7375 83.3665 88.7518L83.5383 87.9263C83.734 87.8929 84.173 87.9 84.6836 87.9096L85.6619 87.9263C85.6786 87.535 85.6858 87.1532 85.6905 86.781 85.7096 85.607 85.5808 84.4593 84.4927 84.4402 83.4596 84.4235 83.0778 85.44 82.9275 86.0723 82.7676 86.6927 82.5529 87.8165 82.3691 88.7089L81.6438 88.697C81.849 87.7378 82.0924 86.5304 82.2069 85.8432Z" fill="#231F20" transform="matrix(1 0 0 1.00244 -72 327)"/><path d="M94.2971 85.8289 94.2589 88.0742C94.2589 88.1291 94.1467 88.6493 94.0847 88.9093L89.8948 88.8378 89.952 85.5044C89.9592 85.0773 89.9926 84.7886 90.0332 84.612 89.7826 84.6073 89.4653 84.5834 89.3627 84.5452L89.5345 83.7197C89.7755 83.7698 90.3052 83.7793 90.8182 83.7888L92.6984 83.8223C94.0704 83.8413 94.3257 84.2374 94.2971 85.8289ZM92.6507 84.6645 90.6679 84.6311 90.6106 88.0026 93.5526 88.0527 93.5884 86.0413C93.6027 85.1179 93.5073 84.6788 92.6507 84.6645Z" fill="#231F20" transform="matrix(1 0 0 1.00244 -72 327)"/><path d="M95.5593 86.7165C95.9506 86.1272 96.1629 85.6738 96.1701 85.3016 96.1749 84.9938 96.0007 84.8888 95.5736 84.76 95.3517 84.6908 95.1656 84.6311 95.0081 84.5643L95.1799 83.7483C95.3087 83.796 95.4949 83.8557 95.7263 83.9153 96.6068 84.1253 96.9098 84.4116 96.8979 85.0988 96.8883 85.6858 96.5972 86.3324 96.1295 87.0053L95.5593 86.7165Z" fill="#231F20" transform="matrix(1 0 0 1.00244 -72 327)"/><path d="M100.067 86.1248C100.083 85.2038 99.9878 84.791 99.1121 84.7767L98.1911 84.76C97.6423 84.7504 97.2892 84.7266 97.1579 84.686L97.3297 83.8604C97.5158 83.901 97.9907 83.9081 98.623 83.9201L99.2004 83.9296C100.56 83.9535 100.816 84.2828 100.787 85.8766L100.732 89.0239 100.016 89.0119 100.067 86.1248Z" fill="#231F20" transform="matrix(1 0 0 1.00244 -72 327)"/><path d="M102.431 86.194C102.577 85.2658 102.212 84.896 101.627 84.7457L101.811 83.8819C102.553 84.0155 102.992 84.4975 103.063 85.2157 103.288 84.6526 103.858 83.9249 104.894 83.9439 106.347 83.9702 106.676 85.3064 106.645 87.1031L106.623 88.2961C106.621 88.3796 106.509 88.9928 106.478 89.1217L104.643 89.0907C104.271 89.0835 103.786 89.0859 103.591 89.1002L103.763 88.2746C103.958 88.2412 104.397 88.2484 104.908 88.2579L105.886 88.2746C105.903 87.8833 105.91 87.5016 105.915 87.1293 105.936 85.9554 105.805 84.8077 104.717 84.7886 103.684 84.7695 103.302 85.7884 103.152 86.4207 102.992 87.041 102.777 88.1649 102.593 89.0573L101.868 89.0453C102.073 88.0861 102.317 86.8812 102.431 86.194Z" fill="#231F20" transform="matrix(1 0 0 1.00244 -72 327)"/><path d="M108.737 86.2465C108.752 85.4448 108.664 85.1561 107.941 84.9652 107.616 84.8769 107.439 84.8363 107.311 84.7767L107.482 83.9606C107.602 84.0084 107.788 84.0585 108.122 84.1205 109.16 84.3615 109.489 84.7122 109.465 86.1272L109.413 89.1718 108.687 89.1599 108.737 86.2465Z" fill="#231F20" transform="matrix(1 0 0 1.00244 -72 327)"/><path d="M110.961 86.2656C110.971 85.6428 111.009 85.1584 111.059 84.9723 110.892 84.9604 110.446 84.9246 110.379 84.9151L110.551 84.0799C110.747 84.1301 111.212 84.1372 111.844 84.1491L113.529 84.1778C114.889 84.2016 115.142 84.624 115.115 86.1701L115.063 89.272 114.338 89.2601 114.388 86.4302C114.404 85.4066 114.318 85.0415 113.433 85.0248L111.701 84.9938 111.627 89.2124 110.911 89.2004 110.961 86.2656Z" fill="#231F20" transform="matrix(1 0 0 1.00244 -72 327)"/><path d="M59.7254 101.555C59.5274 101.649 59.1289 101.753 58.6135 101.753 57.4396 101.753 56.552 101.002 56.552 99.6299 56.552 98.3199 57.4396 97.4395 58.7376 97.4395 59.253 97.4395 59.5871 97.5445 59.7302 97.6184L59.599 98.0599C59.3938 97.9596 59.1027 97.8857 58.7543 97.8857 57.7736 97.8857 57.1222 98.5132 57.1222 99.6108 57.1222 100.634 57.7116 101.293 58.7305 101.293 59.0597 101.293 59.3938 101.224 59.6109 101.119L59.7254 101.555Z" fill="#231F20" transform="matrix(1 0 0 1.00244 -72 327)"/><path d="M63.8462 99.5893C63.8462 100.98 62.9585 101.756 61.9039 101.756 60.7753 101.756 60.0237 100.868 60.0237 99.6204 60.0237 98.3343 60.8254 97.4347 61.9803 97.4347 63.1709 97.4347 63.8462 98.3772 63.8462 99.5893ZM60.6011 99.6013C60.6011 100.551 61.0855 101.314 61.9349 101.314 62.8154 101.314 63.2759 100.513 63.2759 99.6013 63.2759 98.7447 62.8607 97.8761 61.9421 97.8761 61.0712 97.8761 60.6011 98.6564 60.6011 99.6013Z" fill="#231F20" transform="matrix(1 0 0 1.00244 -72 327)"/><path d="M64.5429 97.5588C64.8221 97.5039 65.2134 97.4729 65.5856 97.4729 66.163 97.4729 66.5353 97.5779 66.7953 97.8141 67.0005 98.0002 67.1246 98.2865 67.1246 98.6087 67.1246 99.1622 66.7762 99.5273 66.3372 99.6752L66.3372 99.6872C66.6593 99.8041 66.8526 100.109 66.9528 100.537 67.0888 101.126 67.189 101.524 67.2749 101.684L66.7166 101.684C66.6474 101.567 66.5543 101.207 66.4374 100.685 66.3134 100.114 66.0891 99.89 65.5999 99.8709L65.0917 99.8709 65.0917 101.684 64.5453 101.684 64.5453 97.5588ZM65.0893 99.4653 65.6429 99.4653C66.2203 99.4653 66.5854 99.1479 66.5854 98.6707 66.5854 98.1243 66.1941 97.8952 65.6238 97.8881 65.3565 97.8881 65.1776 97.9119 65.0893 97.9382L65.0893 99.4653Z" fill="#231F20" transform="matrix(1 0 0 1.00244 -72 327)"/><path d="M67.8834 97.5588C68.1626 97.5039 68.5539 97.4729 68.9261 97.4729 69.5035 97.4729 69.8757 97.5779 70.1358 97.8141 70.341 98.0002 70.4651 98.2865 70.4651 98.6087 70.4651 99.1622 70.1167 99.5273 69.6777 99.6752L69.6777 99.6872C69.9998 99.8041 70.1931 100.109 70.2933 100.537 70.4293 101.126 70.5295 101.524 70.6154 101.684L70.0571 101.684C69.9879 101.567 69.8948 101.207 69.7779 100.685 69.6538 100.114 69.4296 99.89 68.9404 99.8709L68.4322 99.8709 68.4322 101.684 67.8858 101.684 67.8858 97.5588ZM68.4298 99.4653 68.9833 99.4653C69.5608 99.4653 69.9258 99.1479 69.9258 98.6707 69.9258 98.1243 69.5345 97.8952 68.9643 97.8881 68.697 97.8881 68.5181 97.9119 68.4298 97.9382L68.4298 99.4653Z" fill="#231F20" transform="matrix(1 0 0 1.00244 -72 327)"/><path d="M74.822 99.5893C74.822 100.98 73.9344 101.756 72.8798 101.756 71.7512 101.756 70.9996 100.868 70.9996 99.6204 70.9996 98.3343 71.8013 97.4347 72.9561 97.4347 74.1468 97.4347 74.822 98.3772 74.822 99.5893ZM71.577 99.6013C71.577 100.551 72.0614 101.314 72.9108 101.314 73.7913 101.314 74.2518 100.513 74.2518 99.6013 74.2518 98.7447 73.8366 97.8761 72.918 97.8761 72.0471 97.8761 71.577 98.6564 71.577 99.6013Z" fill="#231F20" transform="matrix(1 0 0 1.00244 -72 327)"/><path d="M75.4496 101.028C75.6906 101.176 76.0461 101.3 76.4183 101.3 76.9719 101.3 77.294 101.009 77.294 100.587 77.294 100.195 77.0697 99.9711 76.4994 99.754 75.8218 99.5177 75.4019 99.1527 75.4019 98.5681 75.4019 97.9215 75.9411 97.4395 76.7547 97.4395 77.1771 97.4395 77.4944 97.5397 77.6805 97.6375L77.5326 98.079C77.3966 98.005 77.1174 97.8809 76.738 97.8809 76.1678 97.8809 75.9506 98.2221 75.9506 98.5084 75.9506 98.8998 76.206 99.093 76.7834 99.3149 77.492 99.5941 77.8523 99.9305 77.8523 100.544 77.8523 101.19 77.3751 101.753 76.3873 101.753 75.9769 101.753 75.5378 101.629 75.3136 101.481L75.4496 101.028Z" fill="#231F20" transform="matrix(1 0 0 1.00244 -72 327)"/><path d="M79.1265 97.5039 79.1265 101.689 78.5801 101.689 78.5801 97.5039 79.1265 97.5039Z" fill="#231F20" transform="matrix(1 0 0 1.00244 -72 327)"/><path d="M80.9876 101.687 79.6156 97.5015 80.205 97.5015 80.8564 99.5631C81.0306 100.129 81.1904 100.644 81.3026 101.128L81.3217 101.128C81.4386 100.644 81.608 100.117 81.7941 99.5774L82.5028 97.5039 83.0802 97.5039 81.5841 101.689 80.9876 101.689Z" fill="#231F20" transform="matrix(1 0 0 1.00244 -72 327)"/><path d="M85.6881 99.7253 84.068 99.7253 84.068 101.24 85.8814 101.24 85.8814 101.687 83.5216 101.687 83.5216 97.5015 85.7884 97.5015 85.7884 97.9477 84.068 97.9477 84.068 99.2768 85.6881 99.2768 85.6881 99.7253Z" fill="#231F20" transform="matrix(1 0 0 1.00244 -72 327)"/><path d="M87.8237 101.028C88.0647 101.176 88.4202 101.3 88.7924 101.3 89.3436 101.3 89.6681 101.009 89.6681 100.587 89.6681 100.195 89.4438 99.9711 88.8735 99.754 88.1959 99.5177 87.776 99.1527 87.776 98.5681 87.776 97.9215 88.3152 97.4395 89.1289 97.4395 89.5512 97.4395 89.8685 97.5397 90.0546 97.6375L89.9067 98.079C89.7707 98.005 89.4915 97.8809 89.1121 97.8809 88.5419 97.8809 88.3248 98.2221 88.3248 98.5084 88.3248 98.8998 88.5801 99.093 89.1575 99.3149 89.8661 99.5941 90.2264 99.9305 90.2264 100.544 90.2264 101.19 89.7492 101.753 88.7614 101.753 88.351 101.753 87.912 101.629 87.6877 101.481L87.8237 101.028Z" fill="#231F20" transform="matrix(1 0 0 1.00244 -72 327)"/><path d="M91.4982 97.5039 91.4982 99.9926C91.4982 100.918 91.9086 101.314 92.4717 101.314 93.0873 101.314 93.4906 100.904 93.4906 99.9926L93.4906 97.5039 94.0298 97.5039 94.0298 99.9496C94.0298 101.233 93.3593 101.756 92.4526 101.756 91.596 101.756 90.9494 101.271 90.9494 99.9735L90.9494 97.5039 91.4982 97.5039Z" fill="#231F20" transform="matrix(1 0 0 1.00244 -72 327)"/><path d="M94.9675 97.5588C95.2085 97.5087 95.5879 97.4729 95.9601 97.4729 96.4994 97.4729 96.8478 97.5659 97.1031 97.7759 97.3273 97.9382 97.4562 98.1863 97.4562 98.5156 97.4562 98.9189 97.1842 99.2791 96.7475 99.4342L96.7475 99.4462C97.146 99.5464 97.6113 99.8685 97.6113 100.501 97.6113 100.854 97.4753 101.128 97.251 101.334 96.9647 101.601 96.4946 101.725 95.8098 101.725 95.4304 101.725 95.1513 101.701 94.9651 101.675L94.9651 97.5588ZM95.5139 99.2791 96.0031 99.2791C96.5686 99.2791 96.9098 98.9761 96.9098 98.5705 96.9098 98.0813 96.5376 97.8881 95.9911 97.8881 95.743 97.8881 95.5998 97.9072 95.5139 97.9262L95.5139 99.2791ZM95.5139 101.276C95.6261 101.295 95.7692 101.3 95.9673 101.3 96.5256 101.3 97.0482 101.095 97.0482 100.494 97.0482 99.9162 96.5519 99.68 95.9625 99.68L95.5163 99.68 95.5163 101.276Z" fill="#231F20" transform="matrix(1 0 0 1.00244 -72 327)"/><path d="M98.2651 101.028C98.5061 101.176 98.8616 101.3 99.2338 101.3 99.7874 101.3 100.109 101.009 100.109 100.587 100.109 100.195 99.8852 99.9711 99.3149 99.754 98.6373 99.5177 98.215 99.1527 98.215 98.5681 98.215 97.9215 98.7542 97.4395 99.5679 97.4395 99.9902 97.4395 100.308 97.5397 100.494 97.6375L100.346 98.079C100.21 98.005 99.9305 97.8809 99.5512 97.8809 98.9809 97.8809 98.7638 98.2221 98.7638 98.5084 98.7638 98.8998 99.0191 99.093 99.5965 99.3149 100.305 99.5941 100.665 99.9305 100.665 100.544 100.665 101.19 100.188 101.753 99.2004 101.753 98.79 101.753 98.351 101.629 98.1267 101.481L98.2651 101.028Z" fill="#231F20" transform="matrix(1 0 0 1.00244 -72 327)"/><path d="M102.195 97.962 100.923 97.962 100.923 97.5015 104.02 97.5015 104.02 97.962 102.741 97.962 102.741 101.687 102.195 101.687 102.195 97.962Z" fill="#231F20" transform="matrix(1 0 0 1.00244 -72 327)"/><path d="M104.698 100.372 104.271 101.689 103.705 101.689 105.132 97.5039 105.779 97.5039 107.206 101.689 106.628 101.689 106.182 100.372 104.698 100.372ZM106.07 99.9496 105.659 98.7447C105.566 98.4727 105.504 98.2245 105.442 97.9811L105.423 97.9811C105.368 98.2293 105.299 98.4846 105.218 98.7375L104.808 99.9472 106.07 99.9472Z" fill="#231F20" transform="matrix(1 0 0 1.00244 -72 327)"/><path d="M107.814 101.687 107.814 97.5015 108.415 97.5015 109.749 99.6132C110.055 100.109 110.303 100.551 110.501 100.978L110.513 100.971C110.463 100.413 110.451 99.9043 110.451 99.2577L110.451 97.5015 110.959 97.5015 110.959 101.687 110.412 101.687 109.083 99.5631C108.792 99.0978 108.513 98.6206 108.301 98.1672L108.282 98.1744C108.313 98.7017 108.325 99.2052 108.325 99.8995L108.325 101.687 107.814 101.687Z" fill="#231F20" transform="matrix(1 0 0 1.00244 -72 327)"/><path d="M114.829 101.555C114.631 101.649 114.233 101.753 113.717 101.753 112.543 101.753 111.656 101.002 111.656 99.6299 111.656 98.3199 112.543 97.4395 113.841 97.4395 114.357 97.4395 114.691 97.5445 114.834 97.6184L114.703 98.0599C114.497 97.9596 114.206 97.8857 113.858 97.8857 112.877 97.8857 112.226 98.5132 112.226 99.6108 112.226 100.634 112.815 101.293 113.834 101.293 114.163 101.293 114.497 101.224 114.715 101.119L114.829 101.555Z" fill="#231F20" transform="matrix(1 0 0 1.00244 -72 327)"/><path d="M117.666 99.7253 116.046 99.7253 116.046 101.24 117.859 101.24 117.859 101.687 115.5 101.687 115.5 97.5015 117.766 97.5015 117.766 97.9477 116.046 97.9477 116.046 99.2768 117.666 99.2768 117.666 99.7253Z" fill="#231F20" transform="matrix(1 0 0 1.00244 -72 327)"/><path d="M118.48 101.028C118.721 101.176 119.076 101.3 119.448 101.3 120.002 101.3 120.324 101.009 120.324 100.587 120.324 100.195 120.1 99.9711 119.53 99.754 118.852 99.5177 118.432 99.1527 118.432 98.5681 118.432 97.9215 118.971 97.4395 119.785 97.4395 120.207 97.4395 120.525 97.5397 120.711 97.6375L120.563 98.079C120.427 98.005 120.148 97.8809 119.768 97.8809 119.198 97.8809 118.981 98.2221 118.981 98.5084 118.981 98.8998 119.236 99.093 119.814 99.3149 120.522 99.5941 120.88 99.9305 120.88 100.544 120.88 101.19 120.403 101.753 119.415 101.753 119.005 101.753 118.566 101.629 118.341 101.481L118.48 101.028Z" fill="#231F20" transform="matrix(1 0 0 1.00244 -72 327)"/></g></svg>