<svg width="85" height="86" xmlns="http://www.w3.org/2000/svg" xmlns:xlink="http://www.w3.org/1999/xlink" xml:space="preserve" overflow="hidden"><defs><clipPath id="clip0"><rect x="-163" y="70" width="85" height="86"/></clipPath></defs><g clip-path="url(#clip0)" transform="translate(163 -70)"><path d="M18.1839 0C17.854 2.15993 17.2795 4.36597 15.7898 6.00454L56.7009 6.00454C55.6262 4.18864 55.9064 2.00033 55.5056 0L57.6585 0C58.0521 2.64228 57.5982 6.01518 61.2122 6.04001 61.5102 6.85929 61.496 7.55799 61.2193 8.38082L58.3749 8.40919 58.3749 14.8961 56.7009 14.6585C56.7221 18.0987 57.6762 23.5394 56.3497 26.6782 55.8213 27.9266 54.7998 28.6608 54.2962 29.6609 53.6046 31.0335 54.2607 34.7185 54.6651 36.2826 55.7433 40.4783 59.063 43.7732 60.5313 47.8093L61.0243 47.6639C62.0173 45.2451 64.2943 42.9929 66.7096 42.0069L66.7486 41.0848 65.3158 41.5636 65.3158 32.7962 65.674 32.4344 72.2531 32.4344C72.2282 35.2541 72.1396 38.0666 72.7425 40.8294 78.8074 40.9288 84.0033 45.8445 84.2267 52.0015L84.216 85.766 82.0632 85.766 82.0632 59.8219 73.3313 59.8219 73.0156 60.2263C72.0367 68.1176 68.7986 76.1615 62.2018 80.8893L62.2018 85.766C62.2018 85.766 60.0525 85.766 60.0525 85.766L59.9319 82.4001C57.1832 83.7656 54.2891 84.7232 51.2567 85.2198L43.5462 85.766 41.3934 85.766C41.4643 85.1205 41.4891 85.1417 40.9217 84.9289 39.7335 84.4785 38.3042 84.2657 37.0274 83.7833 33.1899 82.3363 29.8666 80.1409 26.6853 77.5979L22.9719 85.766 19.8614 85.766 19.8508 69.8023C16.7545 64.915 14.2683 59.6553 12.6829 54.0586L18.4357 52.4732 20.7765 58.7828 21.7731 60.5419C22.5747 55.2786 27.2882 51.2177 29.8702 46.6921 30.6859 46.1317 29.3524 42.5212 29.0722 42.5283 28.7778 42.773 28.5473 43.1596 28.2139 43.344 27.2031 43.9115 20.9645 43.869 19.5032 43.72 17.7157 43.5391 16.7723 42.8227 15.9849 41.2444 14.5414 38.3503 13.7292 34.4135 12.424 31.3775 12.5695 30.4731 25.7206 27.2598 27.5045 26.5328 29.6538 25.6603 31.5407 24.2593 31.8209 21.7376 32.0337 19.8295 32.0904 13.2327 31.7641 11.4629 31.5052 10.0584 29.4446 8.4021 28.111 8.4021L9.56896 8.4021C8.98375 5.34485 11.2678 6.22443 13.1688 5.17107 15.2188 4.03613 15.6161 2.1351 16.0275-0.00709337L18.1803-0.00709337ZM54.5445 14.1761 38.7582 11.5338C39.4711 15.4139 40.5954 19.3223 40.0846 23.3195L30.6646 39.8186C31.1505 42.9007 33.2715 44.6173 31.6825 47.7951 28.8168 53.5195 23.6812 56.2575 23.4578 63.585 23.4294 64.5497 25.2347 66.9508 25.8802 67.8233 26.1497 68.185 27.3201 69.9797 27.7457 69.6675L37.2615 47.8732C43.7767 38.5596 59.4495 44.7663 56.2894 56.41L46.1707 79.7579C50.973 79.6479 56.9491 78.5839 60.0418 74.5903 59.6659 67.7878 60.5597 60.4213 60.056 53.6862 59.5524 46.951 53.9806 42.6453 52.5087 36.5202 52.0795 34.7327 51.4908 31.0406 52.076 29.3559 52.6612 27.6712 54.4735 26.7243 54.7608 24.6069 55.19 21.4397 54.5764 17.4036 54.5409 14.1796ZM73.4448 54.7715 82.0561 54.7715 82.0561 51.0474C82.0561 50.6679 81.4993 49.1393 81.3042 48.6818 79.9565 45.5394 76.4382 42.9078 72.966 43.0036 73.4838 46.8411 73.8136 50.8914 73.4448 54.7715ZM67.465 54.7715C67.465 51.2425 67.5892 47.6887 66.9827 44.2023 65.2377 45.05 63.8581 46.5254 63.0317 48.281 62.8934 48.5719 62.2018 50.2175 62.2018 50.3275L62.2018 54.7715 67.465 54.7715ZM43.9895 79.4883 53.6294 57.3357C58.0592 47.9654 45.4933 41.0032 39.276 48.6854L29.1928 71.4728C29.2034 71.9906 31.1789 73.5547 31.7074 73.9803 35.1299 76.7538 39.5846 78.9705 43.9931 79.4848ZM66.9863 59.8184 62.2018 59.8184 62.2018 72.1892C62.2018 72.246 61.7478 72.512 62.0847 72.551L62.4359 72.551C64.7767 68.639 66.4436 64.383 66.9863 59.8184ZM22.0107 82.159C22.4292 82.0987 22.4186 81.6731 22.5569 81.3858 23.3939 79.6337 24.0643 77.7682 24.8339 75.9842 24.8339 75.6508 22.525 73.1788 22.0107 72.7886L22.0107 82.159Z" transform="matrix(1.00922 0 0 1 -163 70.1188)"/><path d="M62.2018 85.7624 62.2018 80.8857C68.7951 76.1544 72.0367 68.1105 73.0121 60.2227L73.3277 59.8184 82.0597 59.8184 82.0597 85.7624 62.2018 85.7624Z" fill="#FFFFFF" transform="matrix(1.00922 0 0 1 -163 70.1188)"/><path d="M55.5021 0C55.9029 2.00033 55.6262 4.18864 56.6973 6.00454L15.7898 6.00454C17.2759 4.36597 17.854 2.15638 18.1839 0L55.5056 0Z" fill="#FFFFFF" transform="matrix(1.00922 0 0 1 -163 70.1188)"/><path d="M0 34.112 4.63552 32.6543 5.02565 33.6332 11.243 31.7109 15.077 43.3582 9.09015 45.167 9.56896 46.6034 5.01501 47.9441 0 34.3532 0 34.112Z" transform="matrix(1.00922 0 0 1 -163 70.1188)"/><path d="M22.9683 85.7624 26.6817 77.5944C29.8666 80.1409 33.1899 82.3328 37.0238 83.7798 38.3007 84.2622 39.7264 84.475 40.9181 84.9254 41.4856 85.1417 41.4608 85.1169 41.3898 85.7624L22.9683 85.7624Z" fill="#FFFFFF" transform="matrix(1.00922 0 0 1 -163 70.1188)"/><path d="M43.5427 85.7624 51.2532 85.2162C54.2856 84.7197 57.1797 83.7621 59.9283 82.3966L60.0489 85.7624 43.5427 85.7624Z" fill="#FFFFFF" transform="matrix(1.00922 0 0 1 -163 70.1188)"/><path d="M54.5445 14.1761C54.5799 17.4 55.1935 21.4362 54.7644 24.6034 54.4771 26.7207 52.6612 27.6748 52.0795 29.3524 51.4979 31.03 52.0795 34.7291 52.5122 36.5167 53.9841 42.6418 59.5666 47.1 60.0596 53.6826 60.5526 60.2653 59.6694 67.7843 60.0454 74.5868 56.9527 78.5839 50.9801 79.6444 46.1743 79.7543L56.293 56.4065C59.4531 44.7627 43.7803 38.556 37.265 47.8696L27.7493 69.664C27.3237 69.9761 26.1497 68.1815 25.8837 67.8197 25.2382 66.9472 23.4294 64.5426 23.4613 63.5814 23.6848 56.254 28.8204 53.5159 31.6861 47.7916 33.2786 44.6138 31.1576 42.9007 30.6682 39.8151L40.0882 23.3159C40.5989 19.3188 39.4746 15.4103 38.7617 11.5303L54.548 14.1726Z" fill="#FFFFFF" transform="matrix(1.00922 0 0 1 -163 70.1188)"/><path d="M43.9895 79.4883C39.581 78.974 35.1264 76.7574 31.7038 73.9839 31.1754 73.5583 29.1999 71.9906 29.1892 71.4764L39.2724 48.6889C45.4933 41.0032 58.0557 47.9689 53.6259 57.3393L43.986 79.4919Z" fill="#FFFFFF" transform="matrix(1.00922 0 0 1 -163 70.1188)"/><path d="M73.4448 54.7715C73.8136 50.8914 73.4838 46.8375 72.966 43.0036 76.4382 42.9078 79.9565 45.5394 81.3042 48.6818 81.5028 49.1429 82.0561 50.6679 82.0561 51.0474L82.0561 54.7715 73.4448 54.7715Z" fill="#FFFFFF" transform="matrix(1.00922 0 0 1 -163 70.1188)"/><path d="M67.465 54.7715 62.2018 54.7715 62.2018 50.3275C62.2018 50.214 62.8969 48.5719 63.0317 48.281 63.8581 46.5254 65.2377 45.05 66.9827 44.2023 67.5892 47.6887 67.4615 51.2425 67.465 54.7715Z" fill="#FFFFFF" transform="matrix(1.00922 0 0 1 -163 70.1188)"/><path d="M66.9863 59.8184C66.4436 64.383 64.7767 68.639 62.4359 72.5475L62.0847 72.5475C61.7478 72.512 62.2018 72.246 62.2018 72.1892L62.2018 59.8184 66.9863 59.8184Z" fill="#FFFFFF" transform="matrix(1.00922 0 0 1 -163 70.1188)"/><path d="M22.0107 82.159 22.0107 72.7886C22.525 73.1788 24.8374 75.6508 24.8339 75.9842 24.0607 77.7682 23.3939 79.6337 22.5569 81.3858 22.4186 81.6731 22.4292 82.0987 22.0107 82.159Z" fill="#FFFFFF" transform="matrix(1.00922 0 0 1 -163 70.1188)"/><path d="M13.8853 9.85979C18.1484 10.1435 22.9612 9.44482 27.1605 9.83851 28.4515 9.95909 29.9092 10.7606 30.1291 12.1439 30.349 13.5271 30.3596 20.8474 30.0901 22.1668 29.8205 23.4862 28.4799 24.575 27.2705 25.0999 23.2698 26.8413 16.7333 28.5934 12.385 29.8525 11.6331 30.0723 9.40936 31.0619 9.32424 29.9092L13.8853 9.85979Z" transform="matrix(1.00922 0 0 1 -163 70.1188)"/><path d="M14.5769 44.4613 15.3146 47.0858 16.5063 46.8446 17.932 51.395 12.7929 53.0584 11.0373 48.8379 11.7112 48.1782 10.7642 45.4082 14.5769 44.4613Z" transform="matrix(1.00922 0 0 1 -163 70.1188)"/><path d="M72.9695 30.0298 76.5588 30.0298 76.5588 39.4001 72.9695 39.4001Z" transform="matrix(1.00922 0 0 1 -163 70.1188)"/></g></svg>