<svg width="48" height="108" xmlns="http://www.w3.org/2000/svg" xmlns:xlink="http://www.w3.org/1999/xlink" xml:space="preserve" overflow="hidden"><defs><clipPath id="clip0"><path d="M-254.916 48-207.084 48-207.084 156-254.916 156-254.916 48-254.916 48Z" fill-rule="evenodd" clip-rule="evenodd"/></clipPath><clipPath id="clip1"><rect x="-224" y="101" width="4" height="5"/></clipPath></defs><g transform="translate(255 -48)"><g clip-path="url(#clip0)"><path d="M39.9664 106.925 35.7361 106.925C33.3357 105.935 32.286 103.282 29.6197 102.817L29.4202 101.081C31.5197 100.535 34.3084 99.8216 36.3729 100.766 36.8418 100.98 39.2386 102.96 39.627 103.391 40.5263 104.391 41.1876 105.956 39.9664 106.928Z" transform="matrix(1 0 0 1.00735 -254.916 48)"/><path d="M12.4602 106.925C10.3538 105.77 12.3832 102.253 14.5737 103.163 14.2202 101.939 14.6856 101.26 15.8193 100.763 17.9398 99.8356 20.6306 100.521 22.772 101.081L22.772 102.547C22.6215 102.992 21.2709 103.16 20.7005 103.531 19.3814 104.381 18.2617 106.431 16.4562 106.928L12.4602 106.928Z" transform="matrix(1 0 0 1.00735 -254.916 48)"/><path d="M14.3427 87.6553C14.6786 86.1297 13.9753 83.9393 14.0838 82.5992 14.1538 81.7244 15.1055 81.4305 15.053 80.4927 14.6366 75.818 15.5919 70.2439 15.053 65.6777 14.8606 64.0331 13.6499 64.397 13.4399 63.7637 13.188 63.0009 13.4644 60.8034 13.412 59.7957 13.2545 56.6325 12.9431 53.3609 13.1705 50.1732 13.279 48.6477 14.0593 46.4992 14.0943 45.2081 14.1153 44.4663 13.4819 44.1059 13.3875 43.1366 13.153 40.7292 14.1223 39.802 14.3462 37.958 14.5072 36.6388 14.0313 35.3827 14.1048 34.074L8.91914 56.3806 2.81676 55.3449 2.61731 55.0755C2.59282 48.9521 4.20589 42.8672 5.57053 36.9467L5.6895 36.7053C8.50625 36.4429 8.22633 34.9978 8.51675 32.8353 8.68121 31.6141 9.53148 31.3132 7.74345 30.4175 9.52798 25.9212 12.7121 22.3696 17.6178 21.3689L16.6941 12.1033C15.6269 2.30939 20.5466 0.969244 29.0423 1.64107 32.6149 1.92099 35.1867 3.93296 35.5086 7.63498 35.8795 11.9353 34.9803 16.953 34.5429 21.2464L35.4806 21.6488 34.5569 26.327 34.0915 25.9736 33.6226 22.8 33.8536 28.9094 33.3847 28.0871 32.9193 25.3858C32.279 27.1738 33.3462 29.2558 33.0978 31.0823 32.8493 32.9088 31.4462 36.3554 30.7429 38.1329 28.8709 42.8532 26.2816 47.3425 23.5138 51.5869L14.4967 51.6674 14.1258 51.3209 14.3392 49.12C14.1223 49.106 13.8703 50.3412 13.8703 50.4112L13.8703 54.757C14.0418 54.82 14.1503 54.5226 14.2237 54.5226L21.6278 54.5226 21.6278 57.1084C21.6278 57.1084 23.6468 54.5646 23.6468 54.5646 24.8959 55.3029 31.1033 53.9837 31.6351 54.743L31.7751 56.9545 32.3035 57.3324 35.2672 57.1084 35.0327 54.5226 38.0909 54.5226C38.0909 54.5226 37.853 87.6553 37.853 87.6553L27.5097 87.6553 26.3305 62.7454C25.9037 62.8329 25.8932 63.2073 25.8547 63.5607 25.2773 68.8128 25.4348 74.8907 25.1619 80.2548 25.0464 82.5187 25.0079 84.8001 24.9239 87.0675L24.5705 87.6553 14.3427 87.6553ZM19.4479 7.80644C18.937 7.91841 18.4471 8.28231 18.3457 8.81767 18.1147 10.0179 18.2722 13.307 18.3317 14.6961 18.4401 17.2749 18.769 20.3331 19.3499 22.842 19.7453 24.5495 21.9707 31.5267 23.2898 32.3 24.1926 32.8283 27.8037 32.8213 28.7449 32.3699 29.6862 31.9186 30.8094 29.0563 31.2118 28.0206 32.8353 23.8357 33.6751 19.4164 33.8676 14.9306 33.92 13.7374 34.0705 9.4825 33.8116 8.62172 33.6401 8.04787 32.8668 7.80994 32.335 7.74695 30.3825 7.51951 21.1239 7.43554 19.4479 7.80294ZM17.8033 29.8996C15.1965 30.4315 15.0215 34.6513 17.3834 35.3792 22.4851 36.9537 22.807 28.8779 17.8033 29.8996ZM19.0455 41.1246C20.5606 40.9077 20.4731 38.7383 19.2764 38.1924 17.2854 37.2862 15.8508 40.5438 18.1042 41.1246 17.6703 39.8335 17.9853 37.9125 19.2869 39.5955L19.0455 41.1246ZM19.042 41.3591C17.7053 41.0477 18.0482 42.1464 17.6073 43.0946 16.9845 44.4278 15.7773 44.8966 14.5806 43.9414 14.3637 45.4005 15.0215 45.537 16.3267 45.3375 18.1812 45.0541 18.853 42.9756 19.0455 41.3591ZM19.9832 56.1637 15.046 56.1637 15.046 58.7495C15.046 58.7495 16.9285 58.7495 16.9285 58.7495 16.9845 59.4388 16.6101 60.0931 17.4009 60.2786L15.151 60.6145 15.151 63.9351C15.151 63.9351 19.7663 64.0541 19.7663 64.0541L19.9552 60.7824 19.6018 60.429C19.091 60.2086 17.8453 60.716 17.6388 60.1631 18.5206 60.3556 17.9328 58.9279 18.1042 58.7495L19.9867 58.7495C19.9867 58.7495 19.9867 56.1672 19.9867 56.1672Z" transform="matrix(1 0 0 1.00735 -254.916 48)"/><path d="M43.714 30.9983C41.73 31.5582 42.6817 31.8906 42.7727 33.0383 42.8637 34.186 42.5488 35.5051 43.392 36.4114 44.1198 37.1917 45.1766 36.7578 45.551 38.014 46.1983 40.1799 46.5902 45.1661 46.7861 47.5909 47.0136 50.4322 47.234 53.3364 46.7756 56.1532L40.4388 56.6395 38.0874 38.5458 37.6221 40.5438 38.0874 51.7023 37.1847 51.3139 34.8158 30.6904 37.2757 22.3311C40.7992 23.6922 42.8497 27.5342 43.714 31.0018Z" transform="matrix(1 0 0 1.00735 -254.916 48)"/><path d="M13.0481 64.1556C13.7409 64.348 14.0558 65.7371 14.1153 66.3775 14.4127 69.5231 14.4792 77.1861 14.1153 80.2583 13.9823 81.385 13.5064 82.1163 12.3517 82.2528 10.2173 82.5047 5.11565 82.4627 2.93223 82.2598 1.70405 82.1478 1.05672 81.7699 0.930754 80.4997 0.472375 75.8355 1.30516 70.4259 0.941251 65.6777 1.1547 63.8651 2.57182 64.4215 2.79576 63.7707 3.08618 62.9204 2.51234 60.3451 2.58232 59.0924 2.62081 58.4206 2.89374 57.7837 2.82725 57.1014L8.44677 58.0637C8.28931 59.1659 8.39078 60.6355 8.22633 61.6712 8.13885 62.2101 7.61049 62.7034 7.61399 62.8574 7.61749 63.0568 8.21933 63.5362 7.76795 64.1521L13.0586 64.1521ZM10.2628 70.111C6.14088 66.3075 0.608839 73.0712 5.05616 76.3708 9.13259 79.394 14.0103 73.5681 10.2628 70.111Z" transform="matrix(1 0 0 1.00735 -254.916 48)"/><path d="M24.686 89.2999 23.3773 98.9469C20.5781 98.415 17.8243 98.1456 15.046 98.9364L14.3392 89.2999 24.6825 89.2999Z" transform="matrix(1 0 0 1.00735 -254.916 48)"/><path d="M37.8495 89.2999 37.1427 98.9329C34.3644 98.1456 31.6106 98.4115 28.8114 98.9469L27.5027 89.2999 37.846 89.2999Z" transform="matrix(1 0 0 1.00735 -254.916 48)"/><path d="M35.7326 51.6988C33.99 51.9228 35.2987 49.379 34.5604 48.7596 33.7836 48.1333 33.2832 49.204 32.7933 48.4097L32.6219 48.8016 31.9711 48.8821 31.7331 43.4795 31.2537 43.8364 31.7506 48.5497C30.8653 49.372 31.2712 50.6071 31.4952 51.7023L25.6202 51.4679C25.4173 51.2895 28.0626 47.2655 28.3285 46.7756 30.3335 43.0701 32.2265 39.0882 33.3812 35.0222 33.8221 35.1167 33.8081 35.4876 33.8536 35.8375 34.5674 41.1071 34.8753 46.4537 35.7256 51.7058Z" transform="matrix(1 0 0 1.00735 -254.916 48)"/><path d="M46.2963 57.8292C46.9576 60.3311 46.4992 62.8539 44.5572 64.6314 43.8714 65.2578 43.0491 66.101 42.5313 64.9953 41.8734 63.5887 43.4865 62.2066 43.0211 60.632 42.3528 60.506 42.6397 60.8034 42.4893 61.1429 42.2059 61.7762 41.9014 64.1766 40.9637 63.1548 40.5368 62.6929 40.5263 58.9069 40.8797 58.4136L46.2963 57.8257Z" transform="matrix(1 0 0 1.00735 -254.916 48)"/><path d="M36.6738 51.9333C35.9635 52.0488 36.2959 51.7583 36.1979 51.3629 35.981 50.4882 35.883 49.4139 35.7641 48.4972 35.1902 44.0989 34.2769 38.5003 34.0845 34.1825 34.0565 33.5421 34.1265 33.0278 34.3259 32.4294L36.6738 51.9298Z" transform="matrix(1 0 0 1.00735 -254.916 48)"/><path d="M5.87845 35.953C6.0394 35.1132 6.30184 34.2909 6.57826 33.4827 6.92117 32.4714 7.40404 30.162 8.41178 31.6002 7.61399 33.1852 8.52375 36.107 5.87845 35.953Z" transform="matrix(1 0 0 1.00735 -254.916 48)"/><path d="M45.1381 36.6598C44.2108 36.5898 43.42 35.7151 43.3011 34.8368 43.2171 34.2315 43.4585 33.8396 43.441 33.3147 43.4095 32.4469 42.5383 32.006 43.8504 31.4987 44.2948 31.5267 45.2011 35.925 45.1416 36.6633Z" transform="matrix(1 0 0 1.00735 -254.916 48)"/><path d="M34.5604 50.0543 34.5604 51.9368 31.8486 51.9473 31.7366 50.0543 34.5604 50.0543Z" transform="matrix(1 0 0 1.00735 -254.916 48)"/><path d="M19.4479 7.80644C21.1204 7.43903 30.379 7.52301 32.335 7.75045 32.8668 7.81344 33.6401 8.05137 33.8116 8.62522 34.0705 9.48599 33.9165 13.7409 33.8676 14.9341 33.6751 19.4199 32.8388 23.8392 31.2118 28.0241 30.8094 29.0598 29.7072 31.9116 28.7449 32.3734 27.7827 32.8353 24.1926 32.8318 23.2898 32.3035 21.9742 31.5337 19.7453 24.553 19.3499 22.8455 18.769 20.3331 18.4366 17.2749 18.3317 14.6996 18.2757 13.307 18.1147 10.0179 18.3457 8.82117 18.4471 8.28581 18.937 7.92191 19.4479 7.80994Z" fill="#FFFFFF" transform="matrix(1 0 0 1.00735 -254.916 48)"/><path d="M19.9832 56.1637 19.9832 58.7495C19.9832 58.7495 18.1007 58.7495 18.1007 58.7495 17.9293 58.9279 18.5136 60.3556 17.6353 60.1631 17.8418 60.7125 19.0875 60.2051 19.5983 60.429L19.9517 60.7824 19.7628 64.0541 15.1475 63.9351 15.1475 60.6145C15.1475 60.6145 17.3974 60.2786 17.3974 60.2786 16.6066 60.0931 16.981 59.4388 16.925 58.7495L15.0425 58.7495C15.0425 58.7495 15.0425 56.1672 15.0425 56.1672L19.9797 56.1672Z" fill="#FFFFFF" transform="matrix(1 0 0 1.00735 -254.916 48)"/><path d="M17.8033 29.8996C22.807 28.8779 22.4851 36.9537 17.3834 35.3792 15.018 34.6513 15.193 30.4315 17.8033 29.8996ZM18.4926 30.162C15.2315 30.2705 15.291 35.3827 18.6711 35.2357 22.0512 35.0887 21.6873 30.0536 18.4926 30.162Z" fill="#FFFFFF" transform="matrix(1 0 0 1.00735 -254.916 48)"/><path d="M19.042 41.3591C18.853 42.9756 18.1812 45.0541 16.3232 45.3375 15.018 45.537 14.3602 45.404 14.5771 43.9414 15.7738 44.8966 16.9845 44.4278 17.6039 43.0946 18.0447 42.1464 17.7018 41.0477 19.0385 41.3591Z" fill="#FFFFFF" transform="matrix(1 0 0 1.00735 -254.916 48)"/><path d="M19.0455 41.1246 19.2869 39.5955C17.9853 37.9125 17.6703 39.8335 18.1042 41.1246 15.8508 40.5438 17.2889 37.2862 19.2764 38.1924 20.4731 38.7383 20.5606 40.9077 19.0455 41.1246Z" fill="#FFFFFF" transform="matrix(1 0 0 1.00735 -254.916 48)"/><path d="M10.2628 70.111C14.0103 73.5681 9.13259 79.394 5.05616 76.3708 0.608839 73.0712 6.14088 66.304 10.2628 70.111ZM6.99815 69.6036C3.31712 70.1005 2.84825 75.9194 6.75672 76.5493 12.4637 77.473 12.1383 68.9073 6.99815 69.6036Z" fill="#FFFFFF" transform="matrix(1 0 0 1.00735 -254.916 48)"/><path d="M18.4926 30.162C21.6873 30.0536 22.0162 35.0887 18.6711 35.2357 15.326 35.3827 15.2315 30.274 18.4926 30.162Z" transform="matrix(1 0 0 1.00735 -254.916 48)"/><path d="M6.99815 69.6036C12.1383 68.9108 12.4602 77.4765 6.75672 76.5493 2.85175 75.9159 3.32062 70.097 6.99815 69.6036Z" transform="matrix(1 0 0 1.00735 -254.916 48)"/></g><g clip-path="url(#clip1)"><path d="M31.9229 53.3729 32.5738 53.3729 32.5738 54.0482 31.9229 54.0482Z" transform="matrix(0.998107 -0.0614957 0.0610469 1.00545 -258.135 50.0867)"/><path d="M32.8432 53.3169 33.4941 53.3169 33.4941 53.9922 32.8432 53.9922Z" transform="matrix(0.998107 -0.0614957 0.0610469 1.00545 -258.132 50.1431)"/><path d="M33.7635 53.2609 34.4144 53.2609 34.4144 53.9362 33.7635 53.9362Z" transform="matrix(0.998107 -0.0614957 0.0610469 1.00545 -258.128 50.1995)"/><path d="M34.6838 53.2049 35.3346 53.2049 35.3346 53.8802 34.6838 53.8802Z" transform="matrix(0.998107 -0.0614957 0.0610469 1.00545 -258.121 50.2559)"/><path d="M31.9789 54.3176 32.6298 54.3176 32.6298 54.993 31.9789 54.993Z" transform="matrix(0.998107 -0.0614957 0.0610469 1.00545 -258.195 50.0902)"/><path d="M32.8992 54.2617 33.5501 54.2617 33.5501 54.937 32.8992 54.937Z" transform="matrix(0.998107 -0.0614957 0.0610469 1.00545 -258.188 50.1466)"/><path d="M33.823 54.2057 34.4738 54.2057 34.4738 54.881 33.823 54.881Z" transform="matrix(0.998107 -0.0614957 0.0610469 1.00545 -258.184 50.203)"/><path d="M34.7433 54.1497 35.3941 54.1497 35.3941 54.825 34.7433 54.825Z" transform="matrix(0.998107 -0.0614957 0.0610469 1.00545 -258.181 50.2594)"/><path d="M32.0384 55.2659 32.6893 55.2659 32.6893 55.9413 32.0384 55.9413Z" transform="matrix(0.998107 -0.0614957 0.0610469 1.00545 -258.251 50.0973)"/><path d="M32.9587 55.2099 33.6095 55.2099 33.6095 55.8853 32.9587 55.8853Z" transform="matrix(0.998107 -0.0614957 0.0610469 1.00545 -258.247 50.1537)"/><path d="M33.879 55.1539 34.5298 55.1539 34.5298 55.8293 33.879 55.8293Z" transform="matrix(0.998107 -0.0614957 0.0610469 1.00545 -258.24 50.2101)"/><path d="M34.7993 55.098 35.4501 55.098 35.4501 55.7733 34.7993 55.7733Z" transform="matrix(0.998107 -0.0614957 0.0610469 1.00545 -258.237 50.2664)"/><path d="M32.0944 56.2142 32.7453 56.2142 32.7453 56.8895 32.0944 56.8895Z" transform="matrix(0.998107 -0.0614957 0.0610469 1.00545 -258.31 50.1008)"/><path d="M33.0182 56.1547 33.669 56.1547 33.669 56.83 33.0182 56.83Z" transform="matrix(0.998107 -0.0614957 0.0610469 1.00545 -258.303 50.1572)"/><path d="M33.9385 56.0987 34.5893 56.0987 34.5893 56.7741 33.9385 56.7741Z" transform="matrix(0.998107 -0.0614957 0.0610469 1.00545 -258.3 50.2136)"/><path d="M34.8587 56.0427 35.5096 56.0427 35.5096 56.7181 34.8587 56.7181Z" transform="matrix(0.998107 -0.0614957 0.0610469 1.00545 -258.296 50.27)"/><path d="M33.0742 57.103 33.725 57.103 33.725 57.7783 33.0742 57.7783Z" transform="matrix(0.998107 -0.0614957 0.0610469 1.00545 -258.363 50.1642)"/><path d="M33.9945 57.047 34.6453 57.047 34.6453 57.7223 33.9945 57.7223Z" transform="matrix(0.998107 -0.0614957 0.0610469 1.00545 -258.356 50.2206)"/></g><path d="M9.22706 73.8725 9.18157 73.6241C9.00312 73.0502 8.22283 72.8438 7.84493 73.3406L7.83093 73.3406C7.72596 73.3161 7.77845 73.2252 7.74695 73.1377 7.71546 73.0502 7.63148 72.9837 7.54401 72.9627L7.54401 72.8613C8.23333 72.7808 8.43277 71.885 7.88342 71.4861 8.28231 71.6296 8.56224 72.046 8.53425 72.4729 8.53425 72.5113 8.49926 72.6268 8.51675 72.6548 9.01362 72.8333 9.34253 73.3441 9.22356 73.8725Z" fill="#F1F2F2" transform="matrix(1 0 0 1.00735 -254.916 48)"/><path d="M7.06813 71.4966C6.8057 71.7346 6.70073 72.0845 6.84069 72.4204 6.94217 72.6583 7.16611 72.8403 7.42854 72.8543L7.42854 72.9627C7.33756 72.9907 7.24309 73.0607 7.22209 73.1657 7.2081 73.2427 7.25008 73.2986 7.15211 73.3336 7.13462 73.3336 7.05414 73.2392 7.02964 73.2217 6.59576 72.8648 5.90994 73.1307 5.79097 73.666L5.75598 73.8935C5.64051 73.3651 5.94143 72.8123 6.46629 72.6618 6.4558 72.5358 6.4418 72.4239 6.45929 72.2979 6.50478 71.9515 6.73922 71.6226 7.06813 71.4966Z" fill="#F1F2F2" transform="matrix(1 0 0 1.00735 -254.916 48)"/><path d="M8.81417 74.4603C8.41878 74.7508 7.84843 74.7053 7.49502 74.3694 7.13811 74.6913 6.59926 74.7613 6.20036 74.4813 6.25285 74.4813 6.30184 74.5058 6.35082 74.5093 6.96666 74.5863 7.41454 73.995 7.2011 73.4211L7.26758 73.3826C7.30957 73.4071 7.33756 73.4456 7.38305 73.4631 7.50552 73.5086 7.61049 73.4701 7.70147 73.3861L7.77145 73.4246C7.73996 73.5471 7.70497 73.6485 7.71546 73.778 7.76095 74.2994 8.3173 74.6563 8.81067 74.4568Z" fill="#F1F2F2" transform="matrix(1 0 0 1.00735 -254.916 48)"/><path d="M8.00938 72.5079C8.03038 72.5358 7.91491 72.6408 7.89042 72.6618 7.64198 72.4799 7.34806 72.4869 7.09613 72.6513 7.07513 72.6513 6.97366 72.5463 6.97716 72.5218 7.06813 72.4449 7.1871 72.3889 7.30607 72.3644 7.565 72.3119 7.78894 72.3714 8.00938 72.5079Z" fill="#F1F2F2" transform="matrix(1 0 0 1.00735 -254.916 48)"/><path d="M8.34879 73.1272C8.35579 73.4736 8.16684 73.8655 7.82393 73.974L7.78194 73.806C8.01638 73.673 8.15984 73.4421 8.15635 73.1692L8.34879 73.1272Z" fill="#F1F2F2" transform="matrix(1 0 0 1.00735 -254.916 48)"/><path d="M6.8162 73.1622C6.8337 73.2392 6.8302 73.3091 6.85119 73.3896 6.90018 73.5681 7.02964 73.715 7.1906 73.8095L7.14861 73.9775C7.12762 73.9915 7.02264 73.918 7.00165 73.904 6.76021 73.7325 6.63075 73.4316 6.63425 73.1377L6.65524 73.1237 6.8162 73.1657Z" fill="#F1F2F2" transform="matrix(1 0 0 1.00735 -254.916 48)"/><path d="M20.2352 33.4582 20.1897 33.2097C20.0112 32.6359 19.2309 32.4294 18.853 32.9263L18.839 32.9263C18.7341 32.9018 18.7865 32.8108 18.755 32.7234 18.7236 32.6359 18.6396 32.5694 18.5521 32.5484L18.5521 32.4469C19.2414 32.3665 19.4409 31.4707 18.8915 31.0718 19.2904 31.2153 19.5703 31.6316 19.5423 32.0585 19.5423 32.097 19.5073 32.2125 19.5248 32.2405 20.0217 32.4189 20.3506 32.9298 20.2317 33.4582Z" fill="#F1F2F2" transform="matrix(1 0 0 1.00735 -254.916 48)"/><path d="M18.0727 31.0823C17.8103 31.3202 17.7053 31.6701 17.8453 32.006 17.9468 32.244 18.1707 32.4259 18.4331 32.4399L18.4331 32.5484C18.3422 32.5764 18.2477 32.6464 18.2267 32.7514 18.2127 32.8283 18.2547 32.8843 18.1567 32.9193 18.1392 32.9193 18.0587 32.8248 18.0342 32.8073 17.6004 32.4504 16.9145 32.7164 16.7956 33.2517L16.7606 33.4792C16.6451 32.9508 16.946 32.3979 17.4709 32.2475 17.4604 32.1215 17.4464 32.0095 17.4639 31.8836 17.5094 31.5372 17.7438 31.2083 18.0727 31.0823Z" fill="#F1F2F2" transform="matrix(1 0 0 1.00735 -254.916 48)"/><path d="M19.8223 34.046C19.4269 34.3364 18.8565 34.2909 18.5031 33.955 18.1462 34.2769 17.6073 34.3469 17.2085 34.067 17.2609 34.067 17.3099 34.0915 17.3589 34.095 17.9748 34.172 18.4226 33.5806 18.2092 33.0068L18.2757 32.9683C18.3177 32.9928 18.3457 33.0313 18.3911 33.0488 18.5136 33.0943 18.6186 33.0558 18.7096 32.9718L18.7795 33.0103C18.748 33.1327 18.7131 33.2342 18.7236 33.3637 18.769 33.885 19.3254 34.242 19.8188 34.0425Z" fill="#F1F2F2" transform="matrix(1 0 0 1.00735 -254.916 48)"/><path d="M19.014 32.0935C19.035 32.1215 18.9195 32.2265 18.895 32.2475 18.6466 32.0655 18.3527 32.0725 18.1007 32.237 18.0797 32.237 17.9783 32.132 17.9818 32.1075 18.0727 32.0305 18.1917 31.9746 18.3107 31.9501 18.5696 31.8976 18.7935 31.9571 19.014 32.0935Z" fill="#F1F2F2" transform="matrix(1 0 0 1.00735 -254.916 48)"/><path d="M19.3569 32.7129C19.3639 33.0593 19.1749 33.4512 18.832 33.5596L18.79 33.3917C19.0245 33.2587 19.1679 33.0278 19.1644 32.7548L19.3569 32.7129Z" fill="#F1F2F2" transform="matrix(1 0 0 1.00735 -254.916 48)"/><path d="M17.8243 32.7478C17.8418 32.8248 17.8383 32.8948 17.8593 32.9753 17.9083 33.1537 18.0377 33.3007 18.1987 33.3952L18.1567 33.5631C18.1357 33.5771 18.0307 33.5037 18.0097 33.4897 17.7683 33.3182 17.6388 33.0173 17.6423 32.7234L17.6633 32.7094 17.8243 32.7514Z" fill="#F1F2F2" transform="matrix(1 0 0 1.00735 -254.916 48)"/></g></svg>