<?xml version="1.0" encoding="UTF-8"?>
<svg id="Layer_1" data-name="Layer 1" xmlns="http://www.w3.org/2000/svg" xmlns:xlink="http://www.w3.org/1999/xlink" viewBox="0 0 136.7 306.4">
  <defs>
    <style>
      .cls-1 {
        fill: #f1f2f2;
      }

      .cls-2 {
        fill: #fff;
      }

      .cls-3, .cls-4 {
        fill: none;
      }

      .cls-5 {
        clip-path: url(#clippath-1);
      }

      .cls-4 {
        clip-rule: evenodd;
      }

      .cls-6 {
        clip-path: url(#clippath);
      }
    </style>
    <clipPath id="clippath">
      <polygon class="cls-4" points="0 0 136.7 0 136.7 306.4 0 306.4 0 0 0 0"/>
    </clipPath>
    <clipPath id="clippath-1">
      <rect class="cls-3" x="91.49" y="152.34" width="7.77" height="10.59" transform="translate(-9.45 6.12) rotate(-3.5)"/>
    </clipPath>
  </defs>
  <g class="cls-6">
    <g>
      <path d="M114.22,305.58h-12.09c-6.86-2.83-9.86-10.41-17.48-11.74l-.57-4.96c6-1.56,13.97-3.6,19.87-.9,1.34.61,8.19,6.27,9.3,7.5,2.57,2.86,4.46,7.33.97,10.11Z"/>
      <path d="M35.61,305.58c-6.02-3.3-.22-13.35,6.04-10.75-1.01-3.5.32-5.44,3.56-6.86,6.06-2.65,13.75-.69,19.87.91v4.19c-.43,1.27-4.29,1.75-5.92,2.81-3.77,2.43-6.97,8.29-12.13,9.71h-11.42Z"/>
      <path d="M40.99,250.51c.96-4.36-1.05-10.62-.74-14.45.2-2.5,2.92-3.34,2.77-6.02-1.19-13.36,1.54-29.29,0-42.34-.55-4.7-4.01-3.66-4.61-5.47-.72-2.18.07-8.46-.08-11.34-.45-9.04-1.34-18.39-.69-27.5.31-4.36,2.54-10.5,2.64-14.19.06-2.12-1.75-3.15-2.02-5.92-.67-6.88,2.1-9.53,2.74-14.8.46-3.77-.9-7.36-.69-11.1l-14.82,63.75-17.44-2.96-.57-.77c-.07-17.5,4.54-34.89,8.44-51.81l.34-.69c8.05-.75,7.25-4.88,8.08-11.06.47-3.49,2.9-4.35-2.21-6.91,5.1-12.85,14.2-23,28.22-25.86l-2.64-26.48c-3.05-27.99,11.01-31.82,35.29-29.9,10.21.8,17.56,6.55,18.48,17.13,1.06,12.29-1.51,26.63-2.76,38.9l2.68,1.15-2.64,13.37-1.33-1.01-1.34-9.07.66,17.46-1.34-2.35-1.33-7.72c-1.83,5.11,1.22,11.06.51,16.28s-4.72,15.07-6.73,20.15c-5.35,13.49-12.75,26.32-20.66,38.45l-25.77.23-1.06-.99.61-6.29c-.62-.04-1.34,3.49-1.34,3.69v12.42c.49.18.8-.67,1.01-.67h21.16v7.39s5.77-7.27,5.77-7.27c3.57,2.11,21.31-1.66,22.83.51l.4,6.32,1.51,1.08,8.47-.64-.67-7.39h8.74s-.68,94.69-.68,94.69h-29.56l-3.37-71.19c-1.22.25-1.25,1.32-1.36,2.33-1.65,15.01-1.2,32.38-1.98,47.71-.33,6.47-.44,12.99-.68,19.47l-1.01,1.68h-29.23ZM55.58,22.31c-1.46.32-2.86,1.36-3.15,2.89-.66,3.43-.21,12.83-.04,16.8.31,7.37,1.25,16.11,2.91,23.28,1.13,4.88,7.49,24.82,11.26,27.03,2.58,1.51,12.9,1.49,15.59.2s5.9-9.47,7.05-12.43c4.64-11.96,7.04-24.59,7.59-37.41.15-3.41.58-15.57-.16-18.03-.49-1.64-2.7-2.32-4.22-2.5-5.58-.65-32.04-.89-36.83.16ZM50.88,85.45c-7.45,1.52-7.95,13.58-1.2,15.66,14.58,4.5,15.5-18.58,1.2-15.66ZM54.43,117.53c4.33-.62,4.08-6.82.66-8.38-5.69-2.59-9.79,6.72-3.35,8.38-1.24-3.69-.34-9.18,3.38-4.37l-.69,4.37ZM54.42,118.2c-3.82-.89-2.84,2.25-4.1,4.96-1.78,3.81-5.23,5.15-8.65,2.42-.62,4.17,1.26,4.56,4.99,3.99,5.3-.81,7.22-6.75,7.77-11.37ZM57.11,160.51h-14.11v7.39s5.38,0,5.38,0c.16,1.97-.91,3.84,1.35,4.37l-6.43.96v9.49s13.19.34,13.19.34l.54-9.35-1.01-1.01c-1.46-.63-5.02.82-5.61-.76,2.52.55.84-3.53,1.33-4.04h5.38s0-7.38,0-7.38Z"/>
      <path d="M124.93,88.59c-5.67,1.6-2.95,2.55-2.69,5.83s-.64,7.05,1.77,9.64c2.08,2.23,5.1.99,6.17,4.58,1.85,6.19,2.97,20.44,3.53,27.37.65,8.12,1.28,16.42-.03,24.47l-18.11,1.39-6.72-51.71-1.33,5.71,1.33,31.89-2.58-1.11-6.77-58.94,7.03-23.89c10.07,3.89,15.93,14.87,18.4,24.78Z"/>
      <path d="M37.29,183.35c1.98.55,2.88,4.52,3.05,6.35.85,8.99,1.04,30.89,0,39.67-.38,3.22-1.74,5.31-5.04,5.7-6.1.72-20.68.6-26.92.02-3.51-.32-5.36-1.4-5.72-5.03-1.31-13.33,1.07-28.79.03-42.36.61-5.18,4.66-3.59,5.3-5.45.83-2.43-.81-9.79-.61-13.37.11-1.92.89-3.74.7-5.69l16.06,2.75c-.45,3.15-.16,7.35-.63,10.31-.25,1.54-1.76,2.95-1.75,3.39.01.57,1.73,1.94.44,3.7h15.12ZM29.33,200.37c-11.78-10.87-27.59,8.46-14.88,17.89,11.65,8.64,25.59-8.01,14.88-17.89Z"/>
      <path d="M70.55,255.21l-3.74,27.57c-8-1.52-15.87-2.29-23.81-.03l-2.02-27.54h29.56Z"/>
      <path d="M108.17,255.21l-2.02,27.53c-7.94-2.25-15.81-1.49-23.81.04l-3.74-27.57h29.56Z"/>
      <path d="M102.12,147.75c-4.98.64-1.24-6.63-3.35-8.4-2.22-1.79-3.65,1.27-5.05-1l-.49,1.12-1.86.23-.68-15.44-1.37,1.02,1.42,13.47c-2.53,2.35-1.37,5.88-.73,9.01l-16.79-.67c-.58-.51,6.98-12.01,7.74-13.41,5.73-10.59,11.14-21.97,14.44-33.59,1.26.27,1.22,1.33,1.35,2.33,2.04,15.06,2.92,30.34,5.35,45.35Z"/>
      <path d="M132.31,165.27c1.89,7.15.58,14.36-4.97,19.44-1.96,1.79-4.31,4.2-5.79,1.04-1.88-4.02,2.73-7.97,1.4-12.47-1.91-.36-1.09.49-1.52,1.46-.81,1.81-1.68,8.67-4.36,5.75-1.22-1.32-1.25-12.14-.24-13.55l15.48-1.68Z"/>
      <path d="M104.81,148.42c-2.03.33-1.08-.5-1.36-1.63-.62-2.5-.9-5.57-1.24-8.19-1.64-12.57-4.25-28.57-4.8-40.91-.08-1.83.12-3.3.69-5.01l6.71,55.73Z"/>
      <path d="M16.8,102.75c.46-2.4,1.21-4.75,2-7.06.98-2.89,2.36-9.49,5.24-5.38-2.28,4.53.32,12.88-7.24,12.44Z"/>
      <path d="M129,104.77c-2.65-.2-4.91-2.7-5.25-5.21-.24-1.73.45-2.85.4-4.35-.09-2.48-2.58-3.74,1.17-5.19,1.27.08,3.86,12.65,3.69,14.76Z"/>
      <polygon points="98.77 143.05 98.77 148.43 91.02 148.46 90.7 143.05 98.77 143.05"/>
      <path class="cls-2" d="M55.58,22.31c4.78-1.05,31.24-.81,36.83-.16,1.52.18,3.73.86,4.22,2.5.74,2.46.3,14.62.16,18.03-.55,12.82-2.94,25.45-7.59,37.41-1.15,2.96-4.3,11.11-7.05,12.43s-13.01,1.31-15.59-.2c-3.76-2.2-10.13-22.15-11.26-27.03-1.66-7.18-2.61-15.92-2.91-23.28-.16-3.98-.62-13.38.04-16.8.29-1.53,1.69-2.57,3.15-2.89Z"/>
      <path class="cls-2" d="M57.11,160.51v7.39s-5.38,0-5.38,0c-.49.51,1.18,4.59-1.33,4.04.59,1.57,4.15.12,5.61.76l1.01,1.01-.54,9.35-13.19-.34v-9.49s6.43-.96,6.43-.96c-2.26-.53-1.19-2.4-1.35-4.37h-5.38s0-7.38,0-7.38h14.11Z"/>
      <path class="cls-2" d="M50.88,85.45c14.3-2.92,13.38,20.16-1.2,15.66-6.76-2.08-6.26-14.14,1.2-15.66ZM52.85,86.2c-9.32.31-9.15,14.92.51,14.5s8.62-14.81-.51-14.5Z"/>
      <path class="cls-2" d="M54.42,118.2c-.54,4.62-2.46,10.56-7.77,11.37-3.73.57-5.61.19-4.99-3.99,3.42,2.73,6.88,1.39,8.65-2.42,1.26-2.71.28-5.85,4.1-4.96Z"/>
      <path class="cls-2" d="M54.43,117.53l.69-4.37c-3.72-4.81-4.62.68-3.38,4.37-6.44-1.66-2.33-10.97,3.35-8.38,3.42,1.56,3.67,7.76-.66,8.38Z"/>
      <path class="cls-2" d="M29.33,200.37c10.71,9.88-3.23,26.53-14.88,17.89-12.71-9.43,3.1-28.77,14.88-17.89ZM20,198.92c-10.52,1.42-11.86,18.05-.69,19.85,16.31,2.64,15.38-21.84.69-19.85Z"/>
      <path d="M52.85,86.2c9.13-.31,10.07,14.08.51,14.5s-9.83-14.18-.51-14.5Z"/>
      <path d="M20,198.92c14.69-1.98,15.61,22.5-.69,19.85-11.16-1.81-9.82-18.44.69-19.85Z"/>
    </g>
  </g>
  <g class="cls-5">
    <g>
      <g id="_Grid_Repeat_" data-name="&amp;lt;Grid Repeat&amp;gt;">
        <rect x="91.23" y="152.53" width="1.86" height="1.93" transform="translate(-9.2 5.92) rotate(-3.5)"/>
      </g>
      <g id="_Grid_Repeat_-2" data-name="&amp;lt;Grid Repeat&amp;gt;">
        <rect x="93.86" y="152.37" width="1.86" height="1.93" transform="translate(-9.19 6.08) rotate(-3.5)"/>
      </g>
      <g id="_Grid_Repeat_-3" data-name="&amp;lt;Grid Repeat&amp;gt;">
        <rect x="96.49" y="152.21" width="1.86" height="1.93" transform="translate(-9.18 6.24) rotate(-3.5)"/>
      </g>
      <g id="_Grid_Repeat_-4" data-name="&amp;lt;Grid Repeat&amp;gt;">
        <rect x="99.12" y="152.05" width="1.86" height="1.93" transform="translate(-9.16 6.4) rotate(-3.5)"/>
      </g>
      <g id="_Grid_Repeat_-5" data-name="&amp;lt;Grid Repeat&amp;gt;">
        <rect x="91.39" y="155.23" width="1.86" height="1.93" transform="translate(-9.37 5.93) rotate(-3.5)"/>
      </g>
      <g id="_Grid_Repeat_-6" data-name="&amp;lt;Grid Repeat&amp;gt;">
        <rect x="94.02" y="155.07" width="1.86" height="1.93" transform="translate(-9.35 6.09) rotate(-3.5)"/>
      </g>
      <g id="_Grid_Repeat_-7" data-name="&amp;lt;Grid Repeat&amp;gt;">
        <rect x="96.66" y="154.91" width="1.86" height="1.93" transform="translate(-9.34 6.25) rotate(-3.5)"/>
      </g>
      <g id="_Grid_Repeat_-8" data-name="&amp;lt;Grid Repeat&amp;gt;">
        <rect x="99.29" y="154.75" width="1.86" height="1.93" transform="translate(-9.33 6.41) rotate(-3.5)"/>
      </g>
      <g id="_Grid_Repeat_-9" data-name="&amp;lt;Grid Repeat&amp;gt;">
        <rect x="91.56" y="157.94" width="1.86" height="1.93" transform="translate(-9.53 5.95) rotate(-3.5)"/>
      </g>
      <g id="_Grid_Repeat_-10" data-name="&amp;lt;Grid Repeat&amp;gt;">
        <rect x="94.19" y="157.78" width="1.86" height="1.93" transform="translate(-9.52 6.11) rotate(-3.5)"/>
      </g>
      <g id="_Grid_Repeat_-11" data-name="&amp;lt;Grid Repeat&amp;gt;">
        <rect x="96.82" y="157.62" width="1.86" height="1.93" transform="translate(-9.5 6.27) rotate(-3.5)"/>
      </g>
      <g id="_Grid_Repeat_-12" data-name="&amp;lt;Grid Repeat&amp;gt;">
        <rect x="99.45" y="157.46" width="1.86" height="1.93" transform="translate(-9.49 6.43) rotate(-3.5)"/>
      </g>
      <g id="_Grid_Repeat_-13" data-name="&amp;lt;Grid Repeat&amp;gt;">
        <rect x="91.72" y="160.65" width="1.86" height="1.93" transform="translate(-9.7 5.96) rotate(-3.5)"/>
      </g>
      <g id="_Grid_Repeat_-14" data-name="&amp;lt;Grid Repeat&amp;gt;">
        <rect x="94.36" y="160.48" width="1.86" height="1.93" transform="translate(-9.68 6.12) rotate(-3.5)"/>
      </g>
      <g id="_Grid_Repeat_-15" data-name="&amp;lt;Grid Repeat&amp;gt;">
        <rect x="96.99" y="160.32" width="1.86" height="1.93" transform="translate(-9.67 6.28) rotate(-3.5)"/>
      </g>
      <g id="_Grid_Repeat_-16" data-name="&amp;lt;Grid Repeat&amp;gt;">
        <rect x="99.62" y="160.16" width="1.86" height="1.93" transform="translate(-9.66 6.44) rotate(-3.5)"/>
      </g>
      <g id="_Grid_Repeat_-17" data-name="&amp;lt;Grid Repeat&amp;gt;">
        <rect x="94.52" y="163.19" width="1.86" height="1.93" transform="translate(-9.85 6.14) rotate(-3.5)"/>
      </g>
      <g id="_Grid_Repeat_-18" data-name="&amp;lt;Grid Repeat&amp;gt;">
        <rect x="97.15" y="163.03" width="1.86" height="1.93" transform="translate(-9.83 6.3) rotate(-3.5)"/>
      </g>
    </g>
  </g>
  <path class="cls-1" d="M26.37,211.12l-.13-.71c-.51-1.64-2.74-2.23-3.82-.81h-.04c-.3-.07-.15-.33-.24-.58s-.33-.44-.58-.5v-.29c1.97-.23,2.54-2.79.97-3.93,1.14.41,1.94,1.6,1.86,2.82,0,.11-.1.44-.05.52,1.42.51,2.36,1.97,2.02,3.48Z"/>
  <path class="cls-1" d="M20.2,204.33c-.75.68-1.05,1.68-.65,2.64.29.68.93,1.2,1.68,1.24v.31c-.26.08-.53.28-.59.58-.04.22.08.38-.2.48-.05,0-.28-.27-.35-.32-1.24-1.02-3.2-.26-3.54,1.27l-.1.65c-.33-1.51.53-3.09,2.03-3.52-.03-.36-.07-.68-.02-1.04.13-.99.8-1.93,1.74-2.29Z"/>
  <path class="cls-1" d="M25.19,212.8c-1.13.83-2.76.7-3.77-.26-1.02.92-2.56,1.12-3.7.32.15,0,.29.07.43.08,1.76.22,3.04-1.47,2.43-3.11l.19-.11c.12.07.2.18.33.23.35.13.65.02.91-.22l.2.11c-.09.35-.19.64-.16,1.01.13,1.49,1.72,2.51,3.13,1.94Z"/>
  <path class="cls-1" d="M22.89,207.22c.06.08-.27.38-.34.44-.71-.52-1.55-.5-2.27-.03-.06,0-.35-.3-.34-.37.26-.22.6-.38.94-.45.74-.15,1.38.02,2.01.41Z"/>
  <path class="cls-1" d="M23.86,208.99c.02.99-.52,2.11-1.5,2.42l-.12-.48c.67-.38,1.08-1.04,1.07-1.82l.55-.12Z"/>
  <path class="cls-1" d="M19.48,209.09c.05.22.04.42.1.65.14.51.51.93.97,1.2l-.12.48c-.06.04-.36-.17-.42-.21-.69-.49-1.06-1.35-1.05-2.19l.06-.04.46.12Z"/>
  <path class="cls-1" d="M57.83,95.62l-.13-.71c-.51-1.64-2.74-2.23-3.82-.81h-.04c-.3-.07-.15-.33-.24-.58s-.33-.44-.58-.5v-.29c1.97-.23,2.54-2.79.97-3.93,1.14.41,1.94,1.6,1.86,2.82,0,.11-.1.44-.05.52,1.42.51,2.36,1.97,2.02,3.48Z"/>
  <path class="cls-1" d="M51.65,88.83c-.75.68-1.05,1.68-.65,2.64.29.68.93,1.2,1.68,1.24v.31c-.26.08-.53.28-.59.58-.04.22.08.38-.2.48-.05,0-.28-.27-.35-.32-1.24-1.02-3.2-.26-3.54,1.27l-.1.65c-.33-1.51.53-3.09,2.03-3.52-.03-.36-.07-.68-.02-1.04.13-.99.8-1.93,1.74-2.29Z"/>
  <path class="cls-1" d="M56.65,97.3c-1.13.83-2.76.7-3.77-.26-1.02.92-2.56,1.12-3.7.32.15,0,.29.07.43.08,1.76.22,3.04-1.47,2.43-3.11l.19-.11c.12.07.2.18.33.23.35.13.65.02.91-.22l.2.11c-.09.35-.19.64-.16,1.01.13,1.49,1.72,2.51,3.13,1.94Z"/>
  <path class="cls-1" d="M54.34,91.72c.06.08-.27.38-.34.44-.71-.52-1.55-.5-2.27-.03-.06,0-.35-.3-.34-.37.26-.22.6-.38.94-.45.74-.15,1.38.02,2.01.41Z"/>
  <path class="cls-1" d="M55.32,93.49c.02.99-.52,2.11-1.5,2.42l-.12-.48c.67-.38,1.08-1.04,1.07-1.82l.55-.12Z"/>
  <path class="cls-1" d="M50.94,93.59c.05.22.04.42.1.65.14.51.51.93.97,1.2l-.12.48c-.06.04-.36-.17-.42-.21-.69-.49-1.06-1.35-1.05-2.19l.06-.04.46.12Z"/>
</svg>