<svg width="79" height="87" xmlns="http://www.w3.org/2000/svg" xmlns:xlink="http://www.w3.org/1999/xlink" xml:space="preserve" overflow="hidden"><g transform="translate(387 -66)"><path d="M47.9499 77.6028C47.5345 79.6303 45.2875 80.1469 44.1833 78.2872 44.1661 79.6497 42.5325 80.0888 41.4326 79.7508 40.873 79.5787 40.7999 79.0728 40.4167 78.8017 40.3285 80.3104 38.8606 81.025 37.496 80.6075 36.9364 80.4353 36.8632 79.9295 36.4801 79.6583 36.2971 81.7267 33.6089 82.4563 32.6274 80.5149 31.958 82.0517 30.5116 82.8911 29.0244 81.7181 28.8113 81.5502 28.8737 81.18 28.6068 81.1994 28.3593 82.6113 27.1088 83.4421 25.6861 83.003 25.1265 82.8308 25.0533 82.325 24.6702 82.0538 24.4786 83.5153 23.1614 84.2923 21.7494 83.8597 21.1898 83.6875 21.1167 83.1817 20.7335 82.9105 20.4085 84.9294 18.1443 85.6224 16.8787 83.9393 16.2308 85.8355 14.0677 86.5824 12.8947 84.6668L10.2387 65.582 0 17.9398C0.195863 13.6114 6.12773 12.4707 7.74844 16.5386 7.92063 16.9712 7.99166 17.4383 8.11219 17.886 9.28306 22.195 9.92016 26.8527 10.9683 31.209L12.5094 30.8646 7.56549 8.16169C7.01234 3.84839 12.1414 1.78645 14.8081 5.19791 16.586 11.0092 17.7138 17.1972 18.7663 23.1657 17.9441 24.371 17.8989 25.5957 17.9871 27.0141 20.5807 35.0036 24.0159 42.7197 26.9237 50.6038 27.8901 51.6692 28.9168 50.7975 28.5595 49.4824 26.1962 42.5088 22.6018 35.5288 20.3784 28.5573 20.2084 28.0235 19.9436 27.3692 19.8877 26.8247 19.4873 22.9892 23.6887 20.9595 26.5492 23.4154 30.6494 29.9714 34.0695 36.9837 37.9372 43.6991 38.4516 44.4416 39.6763 43.9552 39.7258 43.0942L31.0842 27.098 26.3877 5.07308C26.4803 1.99522 29.4484-0.0258281 32.3153 1.38396 33.8133 2.12006 34.1211 3.37272 34.5085 4.84062 38.9876 21.814 41.5295 39.7839 45.8363 56.8563 47.4893 63.4038 50.0485 69.8307 51.8758 76.3394 51.8392 78.651 49.4264 79.3204 47.9478 77.6028Z" transform="matrix(1.00507 0 0 1 -387 66.0614)"/><path d="M46.7489 26.5836 48.2792 26.9215 56.0793 2.96163C58.0294-0.893223 63.5738 0.417555 63.7008 4.75023L55.8211 29.4957 57.36 29.8401 64.5467 7.49231C66.6926 3.26941 72.7557 5.16132 72.0842 9.89433L64.8932 32.4057 66.346 32.5844 70.7519 19.0052C72.7622 14.6618 78.8662 16.0199 78.5864 20.8476 72.1014 42.4636 63.7761 63.5458 59.239 85.73 58.4125 87.7533 55.3454 86.8859 55.4745 84.7938 54.0389 86.3542 51.6068 85.6095 51.7079 83.4249 51.4066 83.5303 51.454 83.8489 51.0881 84.0878 49.6632 85.0198 47.8079 83.8511 47.9413 82.226 47.2031 83.1322 46.2238 83.526 45.1433 82.8847 44.9689 82.7813 44.3878 82.2626 44.362 82.1163 44.2135 81.2725 46.4713 81.5954 46.9857 81.5265 47.7907 81.4167 48.2362 80.8292 48.7528 80.7172 49.3145 80.5946 49.7041 80.8614 50.2293 80.8464 51.3636 80.8119 53.0811 79.9747 53.7634 79.0599 54.7126 77.7879 54.181 76.772 53.8108 75.4203 52.1492 69.3442 49.6804 63.4425 48.0941 57.3406 45.0055 45.4661 43.1351 32.9804 40.2338 21.0284 42.3388 15.4108 43.6065 8.87412 45.888 3.38564 47.9822-1.65085 54.5426 0.613418 53.5181 5.71017L46.7468 26.5858Z" transform="matrix(1.00507 0 0 1 -387 66.0614)"/><path d="M28.4303 22.4769C27.0743 21.1059 25.2018 20.2234 23.2281 20.4408 22.0422 20.5721 21.1188 21.2286 20.0448 21.6203L16.4418 4.24873C16.2567-0.191559 22.111-1.63793 24.0675 2.27503L28.4303 22.4769Z" transform="matrix(1.00507 0 0 1 -387 66.0614)"/></g></svg>