<svg width="351" height="390" xmlns="http://www.w3.org/2000/svg" xmlns:xlink="http://www.w3.org/1999/xlink" xml:space="preserve" overflow="hidden"><defs><clipPath id="clip0"><rect x="1570" y="3284" width="351" height="390"/></clipPath></defs><g clip-path="url(#clip0)" transform="translate(-1570 -3284)"><path d="M1780 3622 1707 3622 1707 3628.5C1707 3629.5 1707 3631 1707 3632.5 1707 3632.5 1707 3633 1707 3633L1780 3633C1780 3629.5 1780 3626.5 1780 3623 1780 3622.5 1780 3622 1780 3622Z" fill="#2D9294" fill-rule="evenodd"/><path d="M1708.45 3644.83C1711.35 3652 1718.6 3657.26 1728.27 3659.65 1728.27 3662.04 1729.24 3665.87 1731.65 3669.22 1734.56 3672.09 1738.42 3674 1743.26 3674 1748.09 3674 1752.44 3672.56 1754.86 3669.7 1757.76 3666.83 1758.73 3663 1759.21 3660.61 1761.14 3660.13 1763.08 3659.65 1765.01 3659.17 1770.81 3656.78 1775.16 3652.48 1778.06 3646.74 1779.03 3644.83 1779.52 3642.91 1780 3641L1707 3641C1707.48 3641.48 1707.48 3643.39 1708.45 3644.83ZM1741.32 3661.09C1742.77 3661.09 1743.74 3661.09 1745.19 3661.09L1747.61 3661.09C1749.06 3661.09 1750.51 3661.09 1751.96 3661.09 1751.48 3662.04 1750.99 3663 1750.51 3663.96 1749.06 3665.39 1747.13 3666.35 1744.23 3666.35 1741.32 3666.35 1739.39 3665.87 1738.42 3664.43 1737.46 3663.48 1737.46 3662.52 1736.97 3661.09 1737.94 3661.09 1739.39 3661.09 1741.32 3661.09Z" fill="#2D9294" fill-rule="evenodd"/><path d="M1707 3607 1707 3614 1780 3614 1780 3607Z" fill="#2D9294" fill-rule="evenodd"/><path d="M1621.77 3436.21 1579.93 3421.42C1576.13 3419.99 1571.85 3422.37 1570.42 3426.19 1568.99 3430.01 1571.37 3434.3 1575.17 3435.73L1617.02 3450.52C1617.97 3451 1618.45 3451 1619.4 3451 1622.73 3451 1625.58 3449.09 1626.53 3445.75 1627.96 3441.46 1626.05 3437.17 1621.77 3436.21Z" fill="#2D9294" fill-rule="evenodd"/><path d="M1652.84 3373.61C1654.28 3375.52 1656.19 3376 1658.58 3376 1660.49 3376 1661.92 3375.52 1663.36 3374.09 1666.7 3371.22 1666.7 3366.44 1664.31 3363.57L1635.16 3329.64C1632.29 3326.3 1627.51 3326.3 1624.64 3328.69 1621.3 3331.56 1621.3 3336.34 1623.69 3339.2Z" fill="#2D9294" fill-rule="evenodd"/><path d="M1741.24 3345C1745.61 3345 1749 3341.61 1749 3337.26L1748.52 3291.75C1748.52 3287.39 1745.12 3284 1740.76 3284 1736.39 3284 1733 3287.39 1733 3291.75L1733.48 3337.26C1733.48 3341.61 1736.88 3345 1741.24 3345Z" fill="#2D9294" fill-rule="evenodd"/><path d="M1859.99 3328.5C1856.67 3326.1 1851.92 3326.58 1849.55 3329.94L1822.48 3365.99C1820.11 3369.35 1820.58 3374.16 1823.91 3376.56 1825.33 3377.52 1826.76 3378 1828.65 3378 1831.03 3378 1832.93 3377.04 1834.83 3375.12L1861.89 3339.07C1863.79 3335.71 1863.31 3330.9 1859.99 3328.5Z" fill="#2D9294" fill-rule="evenodd"/><path d="M1920.79 3429.15C1919.83 3425.18 1915.51 3422.2 1911.66 3423.19L1867.95 3434.61C1864.11 3435.6 1861.23 3440.07 1862.19 3444.04 1863.15 3447.52 1866.03 3450 1869.39 3450 1869.87 3450 1870.83 3450 1871.32 3450L1915.03 3438.58C1919.35 3437.59 1921.75 3433.62 1920.79 3429.15Z" fill="#2D9294" fill-rule="evenodd"/><path d="M1745.24 3379C1691.3 3379 1647 3423.38 1647 3477.41 1647 3505.38 1659.04 3531.91 1679.74 3550.73 1679.74 3550.73 1680.23 3551.21 1680.23 3551.21 1680.23 3551.21 1687.45 3556.52 1686.49 3565.68 1686.49 3567.61 1686.01 3569.06 1685.52 3570.99 1684.08 3579.19 1682.64 3589.8 1689.38 3597.52L1734.64 3597.52C1735.13 3597.04 1747.65 3583.05 1740.9 3550.24 1740.42 3547.35 1742.35 3544.46 1745.24 3543.49 1748.13 3543.01 1751.5 3544.94 1751.98 3547.83 1757.28 3572.92 1752.46 3589.32 1747.65 3598L1797.25 3598C1804.47 3591.25 1807.36 3581.12 1804.95 3568.09 1802.55 3555.55 1811.69 3549.76 1812.66 3548.8 1813.14 3548.31 1813.62 3547.83 1814.1 3547.35 1832.88 3528.54 1843 3503.94 1843 3477.89 1843.48 3422.9 1799.17 3379 1745.24 3379ZM1741.87 3446.53C1741.39 3446.05 1740.42 3446.05 1739.46 3446.53 1730.31 3448.95 1725.01 3438.81 1724.53 3438.33 1723.57 3436.4 1721.16 3435.92 1719.23 3436.89 1717.31 3437.85 1716.83 3440.26 1717.79 3442.19 1720.2 3447.02 1726.94 3454.73 1736.57 3454.73 1738.01 3454.73 1739.46 3454.73 1741.39 3454.25 1741.39 3454.25 1741.39 3454.25 1741.87 3454.25L1741.87 3539.63C1738.98 3542.04 1729.83 3548.31 1722.12 3544.94 1712.97 3540.6 1712.97 3530.47 1712.97 3529.99 1712.97 3529.99 1712.97 3529.5 1712.97 3529.5L1724.53 3514.07C1726.46 3511.65 1730.79 3514.07 1730.79 3514.07 1732.72 3515.03 1735.13 3514.55 1736.09 3512.62 1737.05 3510.69 1736.57 3508.28 1734.64 3507.31 1732.24 3505.87 1728.38 3504.42 1724.53 3505.38 1724.05 3500.56 1722.12 3494.77 1718.75 3492.36 1717.31 3490.91 1714.9 3491.39 1713.45 3493.33 1712.01 3495.25 1712.49 3497.18 1714.42 3498.63 1716.35 3500.08 1717.31 3506.35 1717.79 3510.69L1706.23 3525.64C1706.23 3526.12 1705.75 3526.12 1705.75 3526.61 1702.86 3526.61 1698.04 3526.12 1694.67 3520.34 1689.86 3511.17 1693.71 3502.49 1694.19 3502.01 1695.16 3500.08 1694.19 3498.15 1692.75 3497.18 1688.41 3494.77 1683.6 3490.43 1684.56 3478.85 1685.04 3470.65 1693.23 3465.35 1696.12 3463.42 1700.45 3463.9 1708.64 3466.31 1712.49 3470.65 1709.12 3473.06 1707.19 3475.96 1705.75 3478.85 1704.79 3480.78 1705.75 3483.19 1707.68 3483.68 1708.16 3484.16 1708.64 3484.16 1709.12 3484.16 1710.57 3484.16 1712.01 3483.19 1712.49 3482.23 1712.97 3481.26 1717.31 3472.58 1725.97 3475.96 1727.9 3476.92 1730.31 3475.96 1730.79 3474.03 1731.75 3472.1 1730.79 3469.69 1728.87 3469.21 1725.49 3467.76 1722.61 3467.76 1719.71 3468.24 1714.42 3460.04 1701.42 3457.63 1697.08 3456.66 1696.12 3455.22 1693.71 3451.84 1696.6 3444.12 1700.45 3433.99 1712.97 3433.03 1713.45 3433.03 1714.9 3433.03 1716.35 3432.06 1716.83 3430.61 1719.71 3423.38 1724.05 3419.52 1728.38 3418.07 1733.68 3416.62 1739.46 3419.52 1741.87 3421.45ZM1808.32 3483.68C1807.84 3485.61 1806.88 3487.54 1805.43 3489.95 1804.47 3490.91 1800.14 3493.33 1796.29 3494.77 1794.36 3495.25 1793.39 3496.7 1793.39 3498.15 1793.39 3500.08 1794.84 3502.01 1795.8 3503.94 1796.77 3505.38 1797.73 3506.83 1798.21 3507.8 1799.17 3512.14 1798.21 3516.96 1795.8 3520.34 1793.88 3523.23 1790.51 3524.68 1787.13 3525.16 1786.17 3525.16 1785.69 3525.16 1785.21 3525.16 1784.73 3520.82 1782.8 3515.03 1777.5 3511.17 1778.95 3508.76 1780.39 3506.35 1781.84 3502.97 1782.8 3501.04 1781.84 3498.63 1779.91 3498.15 1777.98 3497.18 1775.58 3498.15 1775.1 3500.08 1770.28 3510.69 1766.43 3513.1 1764.02 3514.07 1762.09 3514.55 1761.13 3514.07 1760.65 3514.07 1758.72 3513.1 1756.8 3513.58 1755.35 3515.52 1754.39 3517.44 1754.87 3519.85 1756.8 3520.82 1757.28 3520.82 1759.2 3522.27 1762.09 3522.27 1763.06 3522.27 1764.5 3522.27 1765.94 3521.79 1768.35 3520.82 1770.28 3519.37 1772.69 3517.44 1778.47 3521.3 1777.98 3527.57 1777.98 3528.54 1777.98 3529.02 1777.98 3529.5 1777.98 3529.5 1777.02 3530.95 1776.54 3532.4 1775.58 3533.84 1773.17 3538.19 1772.2 3541.08 1767.39 3543.01 1760.17 3546.39 1752.94 3541.08 1750.06 3539.15L1750.06 3488.5C1754.87 3495.25 1760.17 3498.63 1766.43 3498.63 1766.91 3498.63 1766.91 3498.63 1767.39 3498.63 1768.84 3498.63 1769.8 3497.66 1770.28 3496.7 1770.76 3495.74 1771.24 3494.29 1770.28 3493.33 1770.28 3493.33 1765.46 3482.23 1769.8 3475.96 1771.24 3474.03 1770.76 3472.1 1768.84 3470.65 1766.91 3469.21 1764.98 3469.69 1763.54 3471.62 1759.2 3477.41 1759.68 3484.64 1761.13 3489.95 1755.83 3487.05 1752.94 3479.82 1751.5 3476.92L1751.02 3475.96C1750.54 3474.51 1750.06 3474.03 1749.57 3474.03L1749.57 3419.52C1756.32 3411.8 1765.46 3416.14 1765.94 3416.62 1771.72 3420.49 1773.17 3424.83 1771.72 3430.61 1771.24 3432.54 1772.2 3434.48 1773.65 3434.96 1775.1 3435.92 1777.5 3435.44 1778.47 3433.99 1779.43 3432.54 1781.36 3432.06 1782.8 3432.06 1788.1 3432.54 1793.88 3438.81 1795.32 3444.12 1795.8 3446.05 1795.8 3452.8 1795.32 3456.18 1790.99 3455.22 1785.21 3455.22 1780.87 3458.11 1776.54 3453.77 1771.24 3452.32 1770.76 3451.84 1768.84 3451.36 1766.43 3452.32 1765.94 3454.25 1765.46 3456.18 1766.43 3458.59 1768.35 3459.07 1768.35 3459.07 1774.13 3461 1777.5 3465.83 1778.95 3467.76 1779.43 3469.69 1779.91 3471.62 1779.91 3473.55 1781.84 3474.99 1783.76 3474.99 1783.76 3474.99 1783.76 3474.99 1784.25 3474.99 1786.17 3474.99 1788.1 3473.06 1787.62 3471.14 1787.62 3468.72 1786.65 3466.31 1785.69 3463.9 1788.58 3462.45 1793.39 3462.93 1795.32 3463.9 1797.25 3465.35 1802.06 3470.17 1802.55 3470.65 1807.36 3475.96 1809.29 3479.82 1808.32 3483.68Z" fill="#2D9294" fill-rule="evenodd"/></g></svg>