<svg width="394" height="390" xmlns="http://www.w3.org/2000/svg" xmlns:xlink="http://www.w3.org/1999/xlink" xml:space="preserve" overflow="hidden"><defs><clipPath id="clip0"><rect x="1498" y="-509" width="394" height="390"/></clipPath></defs><g clip-path="url(#clip0)" transform="translate(-1498 509)"><path d="M1706.29-509 1729.66-504.907C1797.34-489.363 1847.15-426.881 1846.11-356.936 1847.43-355.034 1877.64-356.64 1882.82-356.159 1889.87-355.51 1894.5-348.781 1890.55-342.205 1889.99-341.276 1886.99-338.645 1886.26-338.645L1847.04-338.645C1846.09-338.645 1845.79-336.512 1845.69-335.635 1844.54-325.753 1846.45-313.484 1845.77-303.232 1843.16-263.535 1820.01-221.429 1788.22-198 1787.3-278.994 1688.01-317.244 1629.59-263.096 1610.39-245.303 1604.38-227.303 1601.76-201.887 1601.66-200.984 1601.38-198.945 1600.41-198.898 1599.32-198.845 1587.7-209.746 1586-211.521 1562.75-235.822 1546.19-271.119 1544.15-304.985 1543.6-314.202 1545.7-328.209 1544.19-336.469 1544.06-337.193 1543.49-338.656 1542.88-338.656L1503.66-338.656C1501.54-338.656 1499.3-343.32 1498-344.772L1498-350.011C1499.16-351.348 1503-356.128 1504.54-356.128L1544.19-356.128C1542.12-423.949 1589.43-485.343 1654-503.328L1682.76-509 1706.29-509ZM1635.51-380.333C1614.05-377.772 1600.16-358.716 1598.34-338.096 1595.22-302.767 1608.75-281.947 1646.33-291.728 1697.12-304.943 1686.8-386.455 1635.51-380.333ZM1743.57-380.333C1701.15-375.194 1698.41-303.897 1742.33-292.214 1780.19-282.142 1794.43-300.85 1791.73-337.367 1789.83-363.21 1770.41-383.582 1743.57-380.333Z" fill="#309394" fill-rule="evenodd"/><path d="M1687.37-273.645C1749.79-279.468 1792.21-212.568 1762.08-158.463 1735.92-111.485 1670.64-105.157 1635.95-146.458 1596.56-193.357 1625.69-267.889 1687.37-273.645ZM1691.69-252.807C1686.93-252.05 1681.7-247.005 1680.12-242.57 1675.11-228.498 1689.79-215.809 1703.04-223.248 1717.88-231.575 1709.94-255.716 1691.69-252.807ZM1659.25-232.68C1641.12-232.306 1638.09-204.919 1655.99-201.2 1679.78-196.26 1682.12-233.153 1659.25-232.68ZM1730.13-232.68C1707.53-232.217 1710.77-195.466 1734.64-201.411 1752.55-205.872 1748-233.048 1730.13-232.68ZM1648.48-187.454C1634.03-174.061 1653.95-149.967 1670.07-163.802 1686.19-177.638 1664.78-202.579 1648.48-187.454ZM1728.5-191.92C1705.39-189.643 1713.84-151.014 1737.14-161.504 1753.47-168.858 1745.69-193.614 1728.5-191.92ZM1694.34-171.862C1672.99-171.036 1674.98-138.078 1696.73-139.887 1715.82-141.476 1715.14-172.667 1694.34-171.862Z" fill="#309394" fill-rule="evenodd"/><path d="M1648.92-187.38C1665.2-202.359 1686.12-177.267 1670.48-163.955 1654.85-150.643 1634.5-174.115 1648.92-187.38Z" fill="#F9FBFB" fill-rule="evenodd"/><path d="M1691.7-252.758C1710.13-255.667 1718.16-231.526 1703.17-223.199 1689.79-215.76 1674.95-228.449 1680.02-242.521 1681.61-246.956 1686.89-251.995 1691.7-252.758Z" fill="#F9FBFB" fill-rule="evenodd"/><path d="M1694.92-171.985C1715.6-172.788 1716.27-141.657 1697.3-140.071 1675.67-138.265 1673.7-171.16 1694.92-171.985Z" fill="#F9FBFB" fill-rule="evenodd"/><path d="M1728.53-191.918C1745.57-193.596 1753.29-169.066 1737.1-161.785 1714.02-151.393 1705.63-189.661 1728.53-191.918Z" fill="#F9FBFB" fill-rule="evenodd"/><path d="M1659.16-232.996C1681.9-233.47 1679.57-196.507 1655.92-201.456 1638.12-205.183 1641.13-232.621 1659.16-232.996Z" fill="#F9FBFB" fill-rule="evenodd"/><path d="M1730.2-232.996C1747.98-233.365 1752.5-206.124 1734.69-201.652 1710.96-195.693 1707.74-232.532 1730.2-232.996Z" fill="#F9FBFB" fill-rule="evenodd"/></g></svg>