<svg width="472" height="390" xmlns="http://www.w3.org/2000/svg" xmlns:xlink="http://www.w3.org/1999/xlink" xml:space="preserve" overflow="hidden"><defs><clipPath id="clip0"><rect x="1483" y="45" width="472" height="390"/></clipPath></defs><g clip-path="url(#clip0)" transform="translate(-1483 -45)"><path d="M1948.85 374.91 1751.91 63.1728C1744.73 51.7944 1732.42 45 1719 45 1705.58 45 1693.27 51.7944 1686.09 63.1728L1489.15 374.91C1481.4 387.175 1480.95 402.09 1487.94 414.807 1494.91 427.447 1507.66 435 1522.05 435L1915.95 435C1930.35 435 1943.09 427.447 1950.05 414.801 1957.05 402.09 1956.6 387.175 1948.85 374.91ZM1887.18 391.057C1881.3 401.254 1871.66 407.097 1860.74 407.097L1577.26 407.097C1566.34 407.097 1556.71 401.251 1550.81 391.057 1544.05 379.354 1544.03 364.807 1550.76 353.096L1692.5 106.944C1698.32 96.8323 1708.22 90.7964 1719 90.7964 1729.77 90.7964 1739.67 96.8292 1745.49 106.944L1887.23 353.096C1893.97 364.807 1893.95 379.354 1887.18 391.057Z" fill="#2D9294" fill-rule="evenodd"/><path d="M1731.33 153 1698.66 153C1695.03 153 1691.57 154.554 1689.17 157.26 1686.75 159.98 1685.63 163.597 1686.11 167.297L1707.96 308.991C1708.51 312.528 1711.41 314.997 1715 315 1715 315 1715 315 1715 315 1718.59 315 1721.48 312.531 1722.04 308.994 1722.04 308.985 1722.04 308.982 1722.04 308.979L1743.9 167.202C1744.36 163.606 1743.24 159.98 1740.83 157.262 1738.42 154.554 1734.96 153 1731.33 153Z" fill="#2D9294" fill-rule="evenodd"/><path d="M1714.98 327C1703.41 327 1694 336.426 1694 348.015 1694 359.583 1703.41 369 1714.98 369 1726.57 369 1736 359.586 1736 348.015 1736 336.426 1726.57 327 1714.98 327Z" fill="#2D9294" fill-rule="evenodd"/></g></svg>