<svg width="390" height="389" xmlns="http://www.w3.org/2000/svg" xmlns:xlink="http://www.w3.org/1999/xlink" xml:space="preserve" overflow="hidden"><defs><clipPath id="clip0"><rect x="1613" y="2387" width="390" height="389"/></clipPath></defs><g clip-path="url(#clip0)" transform="translate(-1613 -2387)"><path d="M1996.47 2738.07 1889.6 2631.47C1934.36 2571.53 1929.65 2486.19 1875.13 2431.8 1815.24 2372.07 1717.8 2372.07 1657.92 2431.8 1598.03 2491.53 1598.03 2588.72 1657.92 2648.45 1712.44 2702.84 1798 2707.54 1858.1 2662.89L1964.97 2769.5C1973.67 2778.17 1987.77 2778.17 1996.47 2769.5 2005.18 2760.82 2005.18 2746.75 1996.47 2738.07ZM1678.92 2627.51C1630.61 2579.33 1630.61 2500.93 1678.92 2452.74 1727.22 2404.56 1805.82 2404.56 1854.12 2452.74 1902.43 2500.93 1902.43 2579.33 1854.12 2627.51 1805.82 2675.69 1727.22 2675.69 1678.92 2627.51Z" fill="#2D9294" fill-rule="evenodd"/><path d="M1671.14 2550C1666.09 2550 1662 2545.94 1662 2540.94 1662 2484.17 1708.59 2438 1765.85 2438 1770.91 2438 1775 2442.05 1775 2447.06 1775 2452.06 1770.91 2456.12 1765.85 2456.12 1718.67 2456.12 1680.29 2494.16 1680.29 2540.94 1680.29 2545.94 1676.19 2550 1671.14 2550Z" fill="#2D9294" fill-rule="evenodd"/></g></svg>