<svg width="328" height="390" xmlns="http://www.w3.org/2000/svg" xmlns:xlink="http://www.w3.org/1999/xlink" xml:space="preserve" overflow="hidden"><defs><clipPath id="clip0"><rect x="1557" y="-957" width="328" height="390"/></clipPath></defs><g clip-path="url(#clip0)" transform="translate(-1557 957)"><path d="M1595.89-915.943C1592.5-915.943 1589.75-913.186 1589.75-909.785L1589.75-647.053C1589.75-643.655 1592.5-640.896 1595.89-640.896L1712.09-640.896C1715.48-640.896 1718.23-643.655 1718.23-647.053 1718.23-650.453 1715.48-653.213 1712.09-653.213L1602.03-653.213 1602.03-903.628 1640.34-903.628C1642.66-898.795 1647.54-895.421 1653.24-895.421L1735.12-895.421C1740.81-895.421 1745.7-898.795 1748.01-903.628L1786.27-903.628 1786.27-740.407C1786.27-737.007 1789.02-734.25 1792.41-734.25 1795.8-734.25 1798.55-737.007 1798.55-740.407L1798.55-909.785C1798.55-913.186 1795.8-915.943 1792.41-915.943L1749.45-915.943 1749.45-936.469 1808.79-936.469C1814.53-936.469 1819.02-931.964 1819.02-926.206L1819.02-740.407C1819.02-737.007 1821.77-734.25 1825.16-734.25 1828.55-734.25 1831.3-737.007 1831.3-740.407L1831.3-926.206C1831.3-938.659 1821.2-948.786 1808.79-948.786L1748.01-948.786C1745.7-953.624 1740.81-957 1735.12-957L1653.24-957C1647.54-957 1642.65-953.624 1640.34-948.786L1579.52-948.786C1567.1-948.786 1557-938.659 1557-926.206L1557-630.632C1557-618.182 1567.1-608.054 1579.52-608.054L1712.09-608.054C1715.48-608.054 1718.23-610.814 1718.23-614.212 1718.23-617.612 1715.48-620.369 1712.09-620.369L1579.52-620.369C1573.87-620.369 1569.28-624.973 1569.28-630.632L1569.28-926.206C1569.28-931.867 1573.87-936.469 1579.52-936.469L1638.91-936.469 1638.91-915.943ZM1651.19-942.631C1651.19-943.763 1652.11-944.683 1653.24-944.683L1735.12-944.683C1736.23-944.683 1737.13-943.78 1737.15-942.668 1737.15-942.653 1737.14-942.641 1737.14-942.626 1737.14-942.584 1737.16-942.55 1737.16-942.508L1737.16-909.906C1737.16-909.864 1737.14-909.827 1737.14-909.785 1737.14-909.773 1737.15-909.763 1737.15-909.751 1737.12-908.641 1736.23-907.736 1735.12-907.736L1653.24-907.736C1652.11-907.736 1651.19-908.658 1651.19-909.79ZM1879.76-664.408 1862.8-666.945C1862.71-667.17 1862.61-667.399 1862.52-667.628L1872.73-681.45C1874.54-683.901 1874.29-687.311 1872.13-689.469L1852.61-709.048C1850.45-711.206 1847.04-711.462 1844.61-709.643L1830.83-699.404C1830.59-699.5 1830.37-699.596 1830.14-699.688L1827.62-716.697C1827.17-719.716 1824.58-721.95 1821.54-721.95L1793.93-721.95C1790.89-721.95 1788.3-719.716 1787.85-716.697L1785.33-699.688C1785.1-699.596 1784.88-699.5 1784.65-699.404L1770.86-709.643C1768.41-711.462 1765.02-711.206 1762.86-709.048L1743.34-689.469C1741.19-687.311 1740.93-683.901 1742.74-681.45L1752.96-667.624C1752.86-667.399 1752.76-667.17 1752.68-666.945L1735.71-664.408C1732.69-663.959 1730.47-661.37 1730.47-658.32L1730.47-630.63C1730.47-627.577 1732.69-624.988 1735.71-624.539L1752.68-622.002C1752.76-621.777 1752.86-621.548 1752.96-621.324L1742.74-607.497C1740.93-605.049 1741.19-601.636 1743.34-599.478L1762.86-579.899C1765.02-577.739 1768.43-577.487 1770.86-579.307L1784.65-589.545C1784.88-589.449 1785.1-589.353 1785.33-589.259L1787.85-572.25C1788.3-569.231 1790.89-567 1793.93-567L1821.54-567C1824.58-567 1827.17-569.231 1827.62-572.25L1830.14-589.259C1830.37-589.353 1830.59-589.449 1830.83-589.545L1844.61-579.307C1847.07-577.487 1850.45-577.739 1852.61-579.899L1872.13-599.478C1874.29-601.636 1874.54-605.049 1872.73-607.497L1862.52-621.321C1862.61-621.548 1862.71-621.777 1862.8-622.002L1879.76-624.539C1882.78-624.988 1885-627.577 1885-630.63L1885-658.32C1885-661.37 1882.78-663.959 1879.76-664.408ZM1872.72-635.937 1857.41-633.648C1855.13-633.308 1853.22-631.703 1852.49-629.505 1851.78-627.377 1850.91-625.328 1849.92-623.348 1848.89-621.272 1849.11-618.791 1850.48-616.927L1859.71-604.435 1847.67-592.359 1835.21-601.611C1833.34-603 1830.85-603.199 1828.8-602.168 1826.83-601.175 1824.77-600.309 1822.65-599.597 1820.46-598.862 1818.87-596.958 1818.53-594.665L1816.25-579.314 1799.22-579.314 1796.94-594.665C1796.6-596.958 1795.01-598.862 1792.82-599.597 1790.7-600.309 1788.64-601.175 1786.67-602.168 1784.61-603.199 1782.13-603 1780.26-601.611L1767.81-592.359 1755.76-604.435 1764.99-616.927C1766.37-618.791 1766.58-621.272 1765.55-623.348 1764.56-625.333 1763.69-627.39 1762.98-629.523 1762.24-631.715 1760.34-633.308 1758.06-633.648L1742.75-635.937 1742.75-653.01 1758.06-655.301C1760.34-655.642 1762.24-657.232 1762.98-659.424 1763.69-661.557 1764.56-663.614 1765.55-665.599 1766.58-667.675 1766.37-670.158 1764.99-672.023L1755.76-684.513 1767.81-696.588 1780.26-687.336C1782.13-685.945 1784.61-685.745 1786.67-686.779 1788.64-687.772 1790.7-688.638 1792.82-689.353 1795.01-690.085 1796.6-691.992 1796.94-694.282L1799.22-709.635 1816.25-709.635 1818.53-694.282C1818.87-691.992 1820.46-690.085 1822.65-689.353 1824.77-688.638 1826.83-687.772 1828.8-686.779 1830.85-685.745 1833.34-685.945 1835.21-687.336L1847.67-696.588 1859.71-684.513 1850.48-672.023C1849.11-670.158 1848.89-667.675 1849.92-665.599 1850.91-663.619 1851.78-661.57 1852.49-659.442 1853.22-657.244 1855.13-655.642 1857.41-655.301L1872.72-653.01ZM1807.74-674.913C1791-674.913 1777.38-661.256 1777.38-644.476 1777.38-627.691 1791-614.037 1807.74-614.037 1824.48-614.037 1838.09-627.691 1838.09-644.476 1838.09-661.256 1824.48-674.913 1807.74-674.913ZM1807.74-626.352C1797.77-626.352 1789.66-634.482 1789.66-644.476 1789.66-654.465 1797.77-662.596 1807.74-662.596 1817.7-662.596 1825.81-654.465 1825.81-644.476 1825.81-634.482 1817.7-626.352 1807.74-626.352ZM1696.22-864.632C1696.22-868.033 1693.47-870.789 1690.08-870.789L1624.58-870.789C1621.19-870.789 1618.43-868.033 1618.43-864.632L1618.43-798.95C1618.43-795.55 1621.19-792.793 1624.58-792.793L1690.08-792.793C1693.47-792.793 1696.22-795.55 1696.22-798.95ZM1683.94-805.108 1630.72-805.108 1630.72-858.475 1683.94-858.475ZM1640.71-827.436C1638.31-829.843 1638.31-833.739 1640.71-836.146 1643.1-838.55 1646.99-838.55 1649.39-836.146L1653.24-832.289 1665.27-844.355C1667.67-846.762 1671.55-846.762 1673.95-844.355 1676.35-841.951 1676.35-838.052 1673.95-835.648L1657.58-819.227C1656.38-818.024 1654.81-817.422 1653.24-817.422 1651.66-817.422 1650.09-818.024 1648.89-819.227ZM1690.08-764.055 1624.58-764.055C1621.19-764.055 1618.43-761.298 1618.43-757.898L1618.43-692.216C1618.43-688.816 1621.19-686.056 1624.58-686.056L1690.08-686.056C1693.47-686.056 1696.22-688.816 1696.22-692.216L1696.22-757.898C1696.22-761.298 1693.47-764.055 1690.08-764.055ZM1683.94-698.373 1630.72-698.373 1630.72-751.74 1683.94-751.74ZM1640.71-720.702C1638.31-723.109 1638.31-727.005 1640.71-729.409 1643.1-731.816 1646.99-731.816 1649.39-729.409L1653.24-725.552 1665.27-737.621C1667.67-740.025 1671.55-740.025 1673.95-737.621 1676.35-735.214 1676.35-731.318 1673.95-728.914L1657.58-712.493C1656.38-711.29 1654.81-710.688 1653.24-710.688 1651.66-710.688 1650.09-711.29 1648.89-712.493ZM1769.92-864.632C1769.92-861.234 1767.17-858.475 1763.78-858.475L1722.83-858.475C1719.44-858.475 1716.69-861.234 1716.69-864.632 1716.69-868.033 1719.44-870.789 1722.83-870.789L1763.78-870.789C1767.17-870.789 1769.92-868.033 1769.92-864.632ZM1769.92-831.791C1769.92-828.391 1767.17-825.634 1763.78-825.634L1722.83-825.634C1719.44-825.634 1716.69-828.391 1716.69-831.791 1716.69-835.192 1719.44-837.948 1722.83-837.948L1763.78-837.948C1767.17-837.948 1769.92-835.192 1769.92-831.791ZM1716.69-798.95C1716.69-802.348 1719.44-805.108 1722.83-805.108L1747.4-805.108C1750.79-805.108 1753.54-802.348 1753.54-798.95 1753.54-795.55 1750.79-792.793 1747.4-792.793L1722.83-792.793C1719.44-792.793 1716.69-795.55 1716.69-798.95ZM1716.69-757.898C1716.69-761.298 1719.44-764.055 1722.83-764.055L1763.78-764.055C1767.17-764.055 1769.92-761.298 1769.92-757.898 1769.92-754.497 1767.17-751.74 1763.78-751.74L1722.83-751.74C1719.44-751.74 1716.69-754.497 1716.69-757.898ZM1752.78-718.895 1722.81-718.895C1719.42-718.895 1716.67-721.654 1716.67-725.052 1716.67-728.452 1719.42-731.209 1722.81-731.209L1752.78-731.209C1756.17-731.209 1758.92-728.452 1758.92-725.052 1758.92-721.654 1756.17-718.895 1752.78-718.895Z" fill="#2D9294" fill-rule="evenodd"/></g></svg>