<svg width="325" height="390" xmlns="http://www.w3.org/2000/svg" xmlns:xlink="http://www.w3.org/1999/xlink" xml:space="preserve" overflow="hidden"><defs><clipPath id="clip0"><rect x="1574" y="537" width="325" height="390"/></clipPath></defs><g clip-path="url(#clip0)" transform="translate(-1574 -537)"><path d="M1736.51 927C1733.49 927 1730.45 926.112 1727.84 924.298 1585.34 825.768 1574 729.87 1574 614.736 1574 607.44 1579.19 601.157 1586.37 599.804 1663.74 585.042 1727.01 540.301 1727.63 539.841 1732.93 536.053 1740.07 536.053 1745.37 539.841 1746 540.287 1809.27 585.042 1886.63 599.804 1893.82 601.171 1899 607.44 1899 614.736 1899 729.87 1887.66 825.768 1745.16 924.298 1742.58 926.112 1739.54 927 1736.51 927ZM1604.51 627.076C1605.32 731.306 1618.42 808.4 1736.51 893.183 1854.62 808.4 1867.71 731.306 1868.52 627.076 1806.73 612.844 1756.26 583.261 1736.51 570.529 1716.76 583.261 1666.29 612.831 1604.51 627.076Z" fill="#2D9294" fill-rule="evenodd"/><path d="M1849.97 640.212C1799.59 626.438 1757.7 603.607 1737.22 591.206 1736.78 590.931 1736.24 590.931 1735.78 591.206 1715.29 603.607 1673.4 626.438 1623.03 640.212 1622.42 640.391 1621.99 640.946 1622 641.59 1623.58 721.486 1633.22 793.937 1735.65 871.72 1735.9 871.904 1736.19 872 1736.5 872 1736.81 872 1737.08 871.904 1737.35 871.72 1839.78 793.937 1849.42 721.472 1851 641.59 1851.01 640.946 1850.58 640.391 1849.97 640.212ZM1819.33 699.78 1743.92 775.313C1740.66 778.565 1736.4 780.218 1732.13 780.218 1727.9 780.218 1723.68 778.619 1720.43 775.41L1676.61 732.338C1670.03 725.876 1669.92 715.304 1676.39 708.713 1682.84 702.127 1693.41 702.017 1699.98 708.493L1732 739.958 1795.71 676.136C1802.24 669.606 1812.8 669.606 1819.33 676.136 1825.85 682.658 1825.85 693.244 1819.33 699.78Z" fill="#2D9294" fill-rule="evenodd"/></g></svg>