<svg width="483" height="390" xmlns="http://www.w3.org/2000/svg" xmlns:xlink="http://www.w3.org/1999/xlink" xml:space="preserve" overflow="hidden"><defs><clipPath id="clip0"><rect x="1472" y="1527" width="483" height="390"/></clipPath></defs><g clip-path="url(#clip0)" transform="translate(-1472 -1527)"><path d="M1791.42 1626 1635.56 1626C1631.38 1626 1628 1622.62 1628 1618.46L1628 1534.54C1628 1530.37 1631.38 1527 1635.56 1527L1791.42 1527C1795.6 1527 1799 1530.37 1799 1534.54L1799 1618.46C1799 1622.62 1795.6 1626 1791.42 1626ZM1643.14 1610.93 1783.85 1610.93 1783.85 1542.08 1643.14 1542.08 1643.14 1610.93" fill="#2D9294" fill-rule="evenodd"/><path d="M1625.51 1752 1548.49 1752C1544.35 1752 1541 1748.66 1541 1744.52L1541 1667.49C1541 1663.36 1544.35 1660 1548.49 1660L1625.51 1660C1629.65 1660 1633 1663.36 1633 1667.49L1633 1744.52C1633 1748.66 1629.64 1752 1625.51 1752ZM1555.97 1737.03 1618.03 1737.03 1618.03 1674.97 1555.97 1674.97 1555.97 1737.03" fill="#2D9294" fill-rule="evenodd"/><path d="M1878.44 1752 1800.57 1752C1796.39 1752 1793 1748.66 1793 1744.52L1793 1667.49C1793 1663.36 1796.39 1660 1800.57 1660L1878.44 1660C1882.62 1660 1886 1663.36 1886 1667.49L1886 1744.52C1886 1748.66 1882.62 1752 1878.44 1752ZM1808.13 1737.03 1870.87 1737.03 1870.87 1674.97 1808.13 1674.97 1808.13 1737.03" fill="#2D9294" fill-rule="evenodd"/><path d="M1518.5 1917C1492.86 1917 1472 1896.14 1472 1870.5 1472 1844.86 1492.86 1824 1518.5 1824 1544.14 1824 1565 1844.86 1565 1870.5 1565 1896.14 1544.14 1917 1518.5 1917ZM1518.5 1839.13C1501.21 1839.13 1487.13 1853.21 1487.13 1870.5 1487.13 1887.8 1501.21 1901.87 1518.5 1901.87 1535.8 1901.87 1549.87 1887.8 1549.87 1870.5 1549.87 1853.21 1535.8 1839.13 1518.5 1839.13" fill="#2D9294" fill-rule="evenodd"/><path d="M1778.5 1917C1752.86 1917 1732 1896.14 1732 1870.5 1732 1844.86 1752.86 1824 1778.5 1824 1804.14 1824 1825 1844.86 1825 1870.5 1825 1896.14 1804.14 1917 1778.5 1917ZM1778.5 1839.13C1761.2 1839.13 1747.13 1853.21 1747.13 1870.5 1747.13 1887.8 1761.2 1901.87 1778.5 1901.87 1795.8 1901.87 1809.87 1887.8 1809.87 1870.5 1809.87 1853.21 1795.8 1839.13 1778.5 1839.13" fill="#2D9294" fill-rule="evenodd"/><path d="M1648.5 1917C1622.86 1917 1602 1896.14 1602 1870.5 1602 1844.86 1622.86 1824 1648.5 1824 1674.14 1824 1695 1844.86 1695 1870.5 1695 1896.14 1674.14 1917 1648.5 1917ZM1648.5 1839.13C1631.2 1839.13 1617.14 1853.21 1617.14 1870.5 1617.14 1887.8 1631.2 1901.87 1648.5 1901.87 1665.8 1901.87 1679.87 1887.8 1679.87 1870.5 1679.87 1853.21 1665.8 1839.13 1648.5 1839.13" fill="#2D9294" fill-rule="evenodd"/><path d="M1908.5 1917C1882.86 1917 1862 1896.14 1862 1870.5 1862 1844.86 1882.86 1824 1908.5 1824 1934.14 1824 1955 1844.86 1955 1870.5 1955 1896.14 1934.14 1917 1908.5 1917ZM1908.5 1839.13C1891.21 1839.13 1877.13 1853.21 1877.13 1870.5 1877.13 1887.8 1891.21 1901.87 1908.5 1901.87 1925.79 1901.87 1939.87 1887.8 1939.87 1870.5 1939.87 1853.21 1925.79 1839.13 1908.5 1839.13" fill="#2D9294" fill-rule="evenodd"/><path d="M1799.47 1713 1627.52 1713C1623.37 1713 1620 1709.64 1620 1705.5 1620 1701.36 1623.37 1698 1627.52 1698L1799.47 1698C1803.63 1698 1807 1701.36 1807 1705.5 1807 1709.64 1803.63 1713 1799.47 1713" fill="#2D9294" fill-rule="evenodd"/><path d="M1713.5 1713C1709.35 1713 1706 1709.64 1706 1705.49L1706 1618.51C1706 1614.36 1709.35 1611 1713.5 1611 1717.64 1611 1721 1614.36 1721 1618.51L1721 1705.49C1721 1709.64 1717.64 1713 1713.5 1713" fill="#2D9294" fill-rule="evenodd"/><path d="M1648.41 1838C1644.22 1838 1640.83 1834.62 1640.83 1830.46L1640.83 1798.99 1586.59 1798.99C1582.4 1798.99 1579 1795.61 1579 1791.45L1579 1745.54C1579 1741.37 1582.4 1738 1586.59 1738 1590.78 1738 1594.17 1741.37 1594.17 1745.54L1594.17 1783.9 1648.41 1783.9C1652.6 1783.9 1656 1787.28 1656 1791.45L1656 1830.46C1656 1834.62 1652.6 1838 1648.41 1838" fill="#2D9294" fill-rule="evenodd"/><path d="M1518.48 1838C1514.34 1838 1511 1834.61 1511 1830.45L1511 1791.57C1511 1787.39 1514.34 1784 1518.48 1784L1586.53 1784C1590.66 1784 1594 1787.39 1594 1791.57 1594 1795.74 1590.66 1799.13 1586.53 1799.13L1525.96 1799.13 1525.96 1830.45C1525.96 1834.61 1522.61 1838 1518.48 1838" fill="#2D9294" fill-rule="evenodd"/><path d="M1778.51 1838C1774.36 1838 1771 1834.63 1771 1830.47L1771 1790.6C1771 1786.44 1774.36 1783.06 1778.51 1783.06L1831.96 1783.06 1831.96 1745.53C1831.96 1741.37 1835.33 1738 1839.48 1738 1843.63 1738 1847 1741.37 1847 1745.53L1847 1790.6C1847 1794.75 1843.63 1798.13 1839.48 1798.13L1786.03 1798.13 1786.03 1830.47C1786.03 1834.63 1782.67 1838 1778.51 1838" fill="#2D9294" fill-rule="evenodd"/><path d="M1908.46 1838C1904.3 1838 1900.92 1834.64 1900.92 1830.51L1900.92 1798.01 1839.54 1798.01C1835.38 1798.01 1832 1794.65 1832 1790.51 1832 1786.37 1835.38 1783 1839.54 1783L1908.46 1783C1912.62 1783 1916 1786.37 1916 1790.51L1916 1830.51C1916 1834.64 1912.62 1838 1908.46 1838" fill="#2D9294" fill-rule="evenodd"/></g></svg>