<svg width="364" height="389" xmlns="http://www.w3.org/2000/svg" xmlns:xlink="http://www.w3.org/1999/xlink" xml:space="preserve" overflow="hidden"><defs><clipPath id="clip0"><rect x="1538" y="1941" width="364" height="389"/></clipPath></defs><g clip-path="url(#clip0)" transform="translate(-1538 -1941)"><path d="M1638 2143C1582.87 2143 1538 2098.14 1538 2043 1538 1987.84 1582.87 1943 1638 1943 1693.14 1943 1738 1987.85 1738 2043.01 1738 2098.15 1693.14 2143 1638 2143ZM1638 1953.14C1588.46 1953.14 1548.14 1993.45 1548.14 2043.01 1548.14 2092.55 1588.46 2132.85 1638 2132.85 1687.55 2132.85 1727.86 2092.54 1727.86 2043 1727.86 1993.44 1687.55 1953.14 1638 1953.14Z" fill="#2D9294" fill-rule="evenodd"/><path d="M1647.5 2168 1627.49 2168C1615.65 2168 1606 2158.37 1606 2146.53L1606 2134.07C1606 2132.48 1606.75 2130.98 1608.03 2130.02 1609.31 2129.06 1610.96 2128.75 1612.49 2129.2 1628.7 2133.86 1646.31 2133.86 1662.5 2129.2 1664.04 2128.75 1665.69 2129.06 1666.97 2130.02 1668.25 2130.98 1669 2132.48 1669 2134.07L1669 2146.53C1668.98 2158.38 1659.35 2168 1647.5 2168ZM1616.15 2140.58 1616.15 2146.53C1616.15 2152.78 1621.24 2157.84 1627.49 2157.84L1647.49 2157.84C1653.73 2157.84 1658.82 2152.78 1658.82 2146.53L1658.82 2140.58C1644.86 2143.6 1630.12 2143.6 1616.15 2140.58Z" fill="#2D9294" fill-rule="evenodd"/><path d="M1728.11 2017C1726.81 2017 1725.49 2016.51 1724.5 2015.53 1722.5 2013.57 1722.5 2010.38 1724.5 2008.43L1747.87 1985.48C1748.83 1984.53 1750.14 1984 1751.49 1984L1777.88 1984C1780.71 1984 1783 1986.25 1783 1989.03 1783 1991.8 1780.71 1994.04 1777.88 1994.04L1753.61 1994.04 1731.74 2015.52C1730.74 2016.51 1729.43 2017 1728.11 2017Z" fill="#2D9294" fill-rule="evenodd"/><path d="M1777.91 2236 1749.62 2236C1747.92 2236 1746.33 2235.17 1745.38 2233.75L1675.86 2130.89C1674.3 2128.58 1674.92 2125.42 1677.26 2123.86 1679.59 2122.3 1682.76 2122.92 1684.33 2125.25L1752.33 2225.87 1777.91 2225.87C1780.72 2225.87 1783 2228.15 1783 2230.94 1783 2233.73 1780.73 2236 1777.91 2236Z" fill="#2D9294" fill-rule="evenodd"/><path d="M1790.98 2119 1746.32 2119C1744.99 2119 1743.72 2118.47 1742.77 2117.55L1717.47 2092.49C1715.51 2090.56 1715.51 2087.41 1717.47 2085.46 1719.43 2083.51 1722.62 2083.51 1724.58 2085.46L1748.41 2109.05 1790.98 2109.05C1793.75 2109.05 1796 2111.27 1796 2114.02 1796 2116.76 1793.75 2119 1790.98 2119Z" fill="#2D9294" fill-rule="evenodd"/><path d="M1873.09 2038 1787.91 2038C1779.68 2038 1773 2031.29 1773 2023.06L1773 1955.94C1773 1947.7 1779.69 1941 1787.91 1941L1873.09 1941C1881.32 1941 1888 1947.71 1888 1955.94L1888 2023.05C1888 2031.29 1881.31 2038 1873.09 2038ZM1787.9 1951.08C1785.22 1951.08 1783.03 1953.27 1783.03 1955.95L1783.03 2023.06C1783.03 2025.73 1785.21 2027.92 1787.9 2027.92L1873.08 2027.92C1875.76 2027.92 1877.94 2025.73 1877.94 2023.06L1877.94 1955.94C1877.94 1953.27 1875.76 1951.07 1873.08 1951.07L1787.9 1951.07Z" fill="#2D9294" fill-rule="evenodd"/><path d="M1647.99 2194 1627.01 2194C1624.24 2194 1622 2191.76 1622 2188.99L1622 2163.01C1622 2160.24 1624.24 2158 1627.01 2158L1647.99 2158C1650.76 2158 1653 2160.24 1653 2163.01L1653 2188.99C1653 2191.76 1650.77 2194 1647.99 2194ZM1632.03 2184 1642.99 2184 1642.99 2168.01 1632.03 2168.01Z" fill="#2D9294" fill-rule="evenodd"/><path d="M1656.13 2330 1618.87 2330C1612.88 2330 1608 2325.15 1608 2319.2L1608 2194.8C1608 2188.85 1612.88 2184 1618.87 2184L1656.13 2184C1662.13 2184 1667 2188.85 1667 2194.8L1667 2319.2C1667 2325.15 1662.13 2330 1656.13 2330ZM1618.87 2194.12C1618.51 2194.12 1618.18 2194.44 1618.18 2194.8L1618.18 2319.2C1618.18 2319.55 1618.5 2319.88 1618.87 2319.88L1656.13 2319.88C1656.5 2319.88 1656.82 2319.56 1656.82 2319.2L1656.82 2194.8C1656.82 2194.45 1656.5 2194.12 1656.13 2194.12Z" fill="#2D9294" fill-rule="evenodd"/><path d="M1886.96 2163 1801.04 2163C1792.74 2163 1786 2156.21 1786 2147.9L1786 2080.1C1786 2071.76 1792.75 2065 1801.04 2065L1886.96 2065C1895.26 2065 1902 2071.78 1902 2080.1L1902 2147.9C1902 2156.21 1895.26 2163 1886.96 2163ZM1801.04 2075.18C1798.33 2075.18 1796.12 2077.38 1796.12 2080.11L1796.12 2147.9C1796.12 2150.62 1798.32 2152.84 1801.04 2152.84L1886.96 2152.84C1889.66 2152.84 1891.87 2150.63 1891.87 2147.9L1891.87 2080.11C1891.87 2077.4 1889.67 2075.18 1886.96 2075.18Z" fill="#2D9294" fill-rule="evenodd"/><path d="M1873.09 2279 1787.91 2279C1779.68 2279 1773 2272.29 1773 2264.06L1773 2196.95C1773 2188.7 1779.69 2182 1787.91 2182L1873.09 2182C1881.32 2182 1888 2188.71 1888 2196.95L1888 2264.06C1888.01 2272.29 1881.32 2279 1873.09 2279ZM1787.91 2192.06C1785.23 2192.06 1783.04 2194.25 1783.04 2196.95L1783.04 2264.06C1783.04 2266.74 1785.22 2268.94 1787.91 2268.94L1873.09 2268.94C1875.77 2268.94 1877.96 2266.75 1877.96 2264.06L1877.96 2196.95C1877.96 2194.26 1875.78 2192.06 1873.09 2192.06Z" fill="#2D9294" fill-rule="evenodd"/><path d="M1637.5 2121C1594.77 2121 1560 2086.24 1560 2043.51 1560 2000.77 1594.77 1966 1637.5 1966 1680.23 1966 1715 2000.77 1715 2043.51 1715 2086.24 1680.23 2121 1637.5 2121ZM1637.5 1976.12C1600.35 1976.12 1570.12 2006.35 1570.12 2043.51 1570.12 2080.65 1600.35 2110.88 1637.5 2110.88 1674.65 2110.88 1704.88 2080.65 1704.88 2043.51 1704.88 2006.35 1674.65 1976.12 1637.5 1976.12Z" fill="#2D9294" fill-rule="evenodd"/><path d="M1661.91 2309 1613.09 2309C1610.28 2309 1608 2306.69 1608 2303.84L1608 2282.16C1608 2279.31 1610.28 2277 1613.09 2277L1661.91 2277C1664.72 2277 1667 2279.31 1667 2282.16L1667 2303.84C1667 2306.69 1664.72 2309 1661.91 2309ZM1618.18 2298.68 1656.81 2298.68 1656.81 2287.32 1618.18 2287.32Z" fill="#2D9294" fill-rule="evenodd"/><path d="M1863.94 1973 1796.06 1973C1793.26 1973 1791 1970.77 1791 1968.01 1791 1965.25 1793.26 1963 1796.06 1963L1863.94 1963C1866.74 1963 1869 1965.25 1869 1968.01 1869 1970.77 1866.74 1973 1863.94 1973Z" fill="#2D9294" fill-rule="evenodd"/><path d="M1863.94 1994 1796.06 1994C1793.26 1994 1791 1991.76 1791 1989.01 1791 1986.24 1793.26 1984 1796.06 1984L1863.94 1984C1866.74 1984 1869 1986.24 1869 1989.01 1869 1991.76 1866.74 1994 1863.94 1994Z" fill="#2D9294" fill-rule="evenodd"/><path d="M1863.94 2015 1796.06 2015C1793.26 2015 1791 2012.76 1791 2009.99 1791 2007.24 1793.26 2005 1796.06 2005L1863.94 2005C1866.74 2005 1869 2007.24 1869 2009.99 1869 2012.76 1866.74 2015 1863.94 2015Z" fill="#2D9294" fill-rule="evenodd"/><path d="M1877.94 2098 1810.06 2098C1807.27 2098 1805 2095.76 1805 2093.01 1805 2090.24 1807.27 2088 1810.06 2088L1877.94 2088C1880.73 2088 1883 2090.24 1883 2093.01 1883 2095.76 1880.73 2098 1877.94 2098Z" fill="#2D9294" fill-rule="evenodd"/><path d="M1877.94 2119 1810.06 2119C1807.27 2119 1805 2116.76 1805 2113.99 1805 2111.24 1807.27 2109 1810.06 2109L1877.94 2109C1880.73 2109 1883 2111.24 1883 2113.99 1883 2116.76 1880.73 2119 1877.94 2119Z" fill="#2D9294" fill-rule="evenodd"/><path d="M1877.94 2140 1810.06 2140C1807.27 2140 1805 2137.75 1805 2135 1805 2132.24 1807.27 2130 1810.06 2130L1877.94 2130C1880.73 2130 1883 2132.24 1883 2135 1883 2137.76 1880.73 2140 1877.94 2140Z" fill="#2D9294" fill-rule="evenodd"/><path d="M1864.94 2214 1797.06 2214C1794.27 2214 1792 2211.76 1792 2209.01 1792 2206.24 1794.27 2204 1797.06 2204L1864.94 2204C1867.73 2204 1870 2206.24 1870 2209.01 1870 2211.76 1867.73 2214 1864.94 2214Z" fill="#2D9294" fill-rule="evenodd"/><path d="M1864.94 2236 1797.06 2236C1794.27 2236 1792 2233.54 1792 2230.49 1792 2227.46 1794.27 2225 1797.06 2225L1864.94 2225C1867.73 2225 1870 2227.46 1870 2230.49 1870 2233.54 1867.73 2236 1864.94 2236Z" fill="#2D9294" fill-rule="evenodd"/><path d="M1864.94 2257 1797.06 2257C1794.27 2257 1792 2254.53 1792 2251.5 1792 2248.47 1794.27 2246 1797.06 2246L1864.94 2246C1867.73 2246 1870 2248.47 1870 2251.5 1870 2254.53 1867.73 2257 1864.94 2257Z" fill="#2D9294" fill-rule="evenodd"/></g></svg>