<svg width="301" height="390" xmlns="http://www.w3.org/2000/svg" xmlns:xlink="http://www.w3.org/1999/xlink" xml:space="preserve" overflow="hidden"><defs><clipPath id="clip0"><rect x="1644" y="2800" width="301" height="390"/></clipPath></defs><g clip-path="url(#clip0)" transform="translate(-1644 -2800)"><path d="M1945 3159.55 1945 2830.45C1945 2822.07 1941.58 2814.45 1936.07 2808.94 1930.56 2803.42 1922.95 2800 1914.57 2800L1674.43 2800C1666.06 2800 1658.44 2803.42 1652.93 2808.94 1647.42 2814.45 1644 2822.07 1644 2830.45L1644 3159.55C1644 3167.93 1647.42 3175.55 1652.93 3181.06 1658.44 3186.58 1666.06 3190 1674.43 3190L1914.57 3190C1922.95 3190 1930.56 3186.58 1936.07 3181.06 1941.58 3175.55 1945 3167.93 1945 3159.55ZM1688.49 2953.61 1719.05 2953.61C1724.3 2953.61 1729.07 2955.48 1732.52 2958.48 1735.98 2961.49 1738.12 2965.63 1738.12 2970.2L1738.12 2994.66C1738.12 2999.23 1735.98 3003.37 1732.52 3006.38 1729.07 3009.38 1724.3 3011.24 1719.05 3011.24L1688.49 3011.24C1683.24 3011.24 1678.47 3009.38 1675.02 3006.38 1671.57 3003.37 1669.42 2999.23 1669.42 2994.66L1669.42 2970.2C1669.42 2965.63 1671.57 2961.49 1675.02 2958.48 1678.47 2955.48 1683.24 2953.61 1688.49 2953.61ZM1776.63 2953.61 1807.19 2953.61C1812.45 2953.61 1817.21 2955.48 1820.66 2958.48 1824.12 2961.49 1826.26 2965.63 1826.26 2970.2L1826.26 2994.66C1826.26 2999.23 1824.12 3003.37 1820.66 3006.38 1817.21 3009.38 1812.45 3011.24 1807.19 3011.24L1776.63 3011.24C1771.38 3011.24 1766.61 3009.38 1763.16 3006.38 1759.71 3003.37 1757.56 2999.23 1757.56 2994.66L1757.56 2970.2C1757.56 2965.63 1759.71 2961.49 1763.16 2958.48 1766.61 2955.48 1771.38 2953.61 1776.63 2953.61ZM1864.77 2953.61 1895.33 2953.61C1900.58 2953.61 1905.35 2955.48 1908.8 2958.48 1912.26 2961.49 1914.4 2965.63 1914.4 2970.2L1914.4 2994.66C1914.4 2999.23 1912.26 3003.37 1908.8 3006.38 1905.35 3009.38 1900.58 3011.24 1895.33 3011.24L1864.77 3011.24C1859.52 3011.24 1854.75 3009.38 1851.3 3006.38 1847.85 3003.37 1845.7 2999.23 1845.7 2994.66L1845.7 2970.2C1845.7 2965.63 1847.85 2961.49 1851.3 2958.48 1854.75 2955.48 1859.52 2953.61 1864.77 2953.61ZM1688.49 3029.38 1719.05 3029.38C1724.3 3029.38 1729.07 3031.24 1732.52 3034.25 1735.98 3037.25 1738.12 3041.4 1738.12 3045.96L1738.12 3070.42C1738.12 3074.99 1735.98 3079.14 1732.52 3082.14 1729.07 3085.14 1724.3 3087.01 1719.05 3087.01L1688.49 3087.01C1683.24 3087.01 1678.47 3085.14 1675.02 3082.14 1671.57 3079.14 1669.42 3074.99 1669.42 3070.42L1669.42 3045.96C1669.42 3041.4 1671.57 3037.25 1675.02 3034.25 1678.47 3031.24 1683.24 3029.38 1688.49 3029.38ZM1776.63 3029.38 1807.19 3029.38C1812.45 3029.38 1817.21 3031.24 1820.66 3034.25 1824.12 3037.25 1826.26 3041.4 1826.26 3045.96L1826.26 3070.42C1826.26 3074.99 1824.12 3079.14 1820.66 3082.14 1817.21 3085.14 1812.45 3087.01 1807.19 3087.01L1776.63 3087.01C1771.38 3087.01 1766.61 3085.14 1763.16 3082.14 1759.71 3079.14 1757.56 3074.99 1757.56 3070.42L1757.56 3045.96C1757.56 3041.4 1759.71 3037.25 1763.16 3034.25 1766.61 3031.24 1771.38 3029.38 1776.63 3029.38ZM1864.77 3029.38 1895.33 3029.38C1900.58 3029.38 1905.35 3031.24 1908.8 3034.25 1912.26 3037.25 1914.4 3041.4 1914.4 3045.96L1914.4 3146.19C1914.4 3150.76 1912.26 3154.91 1908.8 3157.91 1905.35 3160.91 1900.58 3162.77 1895.33 3162.77L1864.77 3162.77C1859.52 3162.77 1854.75 3160.91 1851.3 3157.91 1847.85 3154.91 1845.7 3150.76 1845.7 3146.19L1845.7 3045.96C1845.7 3041.4 1847.85 3037.25 1851.3 3034.25 1854.75 3031.24 1859.52 3029.38 1864.77 3029.38ZM1688.49 3105.15 1719.05 3105.15C1724.3 3105.15 1729.07 3107.01 1732.52 3110.01 1735.98 3113.02 1738.12 3117.16 1738.12 3121.73L1738.12 3146.19C1738.12 3150.76 1735.98 3154.91 1732.52 3157.91 1729.07 3160.91 1724.3 3162.77 1719.05 3162.77L1688.49 3162.77C1683.24 3162.77 1678.47 3160.91 1675.02 3157.91 1671.57 3154.91 1669.42 3150.76 1669.42 3146.19L1669.42 3121.73C1669.42 3117.16 1671.57 3113.02 1675.02 3110.01 1678.47 3107.01 1683.24 3105.15 1688.49 3105.15ZM1776.63 3105.15 1807.19 3105.15C1812.45 3105.15 1817.21 3107.01 1820.66 3110.01 1824.12 3113.02 1826.26 3117.16 1826.26 3121.73L1826.26 3146.19C1826.26 3150.76 1824.12 3154.91 1820.66 3157.91 1817.21 3160.91 1812.45 3162.77 1807.19 3162.77L1776.63 3162.77C1771.38 3162.77 1766.61 3160.91 1763.16 3157.91 1759.71 3154.91 1757.56 3150.76 1757.56 3146.19L1757.56 3121.73C1757.56 3117.16 1759.71 3113.02 1763.16 3110.01 1766.61 3107.01 1771.38 3105.15 1776.63 3105.15ZM1915.12 2909.73C1915.12 2913.53 1913.46 2916.98 1910.78 2919.49 1908.1 2922 1904.4 2923.56 1900.35 2923.56L1688.66 2923.56C1684.6 2923.56 1680.91 2922 1678.23 2919.49 1675.55 2916.98 1673.89 2913.53 1673.89 2909.73L1673.89 2848.9C1673.89 2845.11 1675.55 2841.65 1678.23 2839.14 1680.91 2836.62 1684.6 2835.07 1688.66 2835.07L1900.35 2835.07C1904.4 2835.07 1908.1 2836.62 1910.78 2839.14 1913.46 2841.65 1915.12 2845.11 1915.12 2848.9L1915.12 2909.73" fill="#2D9294" fill-rule="evenodd"/></g></svg>